<svg fill="none" height="87" viewBox="0 0 120 87" width="120" xmlns="http://www.w3.org/2000/svg"><path d="m119.463-.00020101c.147 14.12360101-22.0199 43.95940101-41.7576 57.16730101-21.4635 14.3422-35.8065 18.3477-68.93868 19.0085 1.28238 1.5966 2.34698 2.7989 3.28588 4.1081 1.053 1.3922 1.9844 2.8722 2.7839 4.4239.2398.4838-.2117 1.6897-.7048 2.0234-.3427.1482-.7171.208-1.0889.1738-.3719-.0341-.7292-.1611-1.0391-.3692-3.72037-3.5134-7.37783-7.0951-10.97245-10.7452-.301753-.2212-.544444-.5132-.706662-.8504-.162218-.3371-.2389813-.709-.223515-1.0828.015466-.3738.122694-.7381.312206-1.0606.189512-.3226.455496-.5936.774491-.7891 5.11809-4.3333 10.17833-8.7383 15.40333-12.9684 1.2245-.9974 2.912-1.4431 4.838-2.2636.4311 4.5407-3.0121 5.7002-4.8086 7.8629-1.7966 2.1626-4.1921 4.2426-6.78602 6.8005 9.31662 1.2664 18.78422.8638 27.95972-1.189 32.8466-7.1822 56.6891-26.498 73.4448-55.1365 2.187-3.7399 3.932-7.71845 5.935-11.55741.558-.99084 1.282-1.94084 2.289-3.55619101z" fill="#7e27ed"/></svg>