<svg fill="none" height="107" viewBox="0 0 86 107" width="86" xmlns="http://www.w3.org/2000/svg"><path d="m18.7349.928082c-1.7142 1.156508-3.3165 2.470848-4.7859 3.925828-1.9756 2.17272-3.689 4.57013-5.10486 7.14289-8.366993 16.1084-11.00952 33.3949-5.4591 50.5987 5.70416 17.5259 18.17156 29.4295 36.51506 34.1201 9.1462 2.2901 18.6529 2.7637 27.9813 1.3938 1.6953-.2407 3.4073-.434 6.2156-.7801-2.1044 3.2547-3.7007 5.7507-5.3037 8.2377l.8741.884c.8191-.238 1.6032-.583 2.332-1.025 3.3825-2.666 6.6907-5.356 10.0164-8.1303 2.123-1.7632 4.3924-3.6812 3.7741-6.7919-.7254-3.3176-3.5819-4.6184-6.5104-5.1419-4.0405-.6816-8.1188-1.1154-12.2122-1.2989-.8349-.0486-1.741 1.1466-2.6267 1.73.5834.8857 1.0458 2.2306 1.8658 2.5226 2.5476.9204 5.2328 1.429 7.9138 2.0864-.2148.3166-.2908.6002-.4296.6333-27.608 6.8414-51.6565-.7044-64.64075-25.4052-.63981-1.2093-1.15061-2.4825-1.52397-3.7987-5.28085-18.8557-3.12507-36.7705 7.04792-53.57202 1.5272-2.15807 3.2123-4.19988 5.0416-6.10861z" fill="#fff"/></svg>