<svg fill="none" height="568" viewBox="0 0 320 568" width="320" xmlns="http://www.w3.org/2000/svg"><path d="m0 0h320v568h-320z" fill="#fff"/><path d="m80.16 59.76v22.24h-3.648v-9.728h-10.464v9.728h-3.648v-22.24h3.648v9.536h10.464v-9.536zm12.4505 22.528c-1.664 0-3.168-.3733-4.512-1.12-1.344-.768-2.4-1.8347-3.168-3.2-.768-1.3867-1.152-2.9867-1.152-4.8 0-1.792.3947-3.3813 1.184-4.768s1.8667-2.4533 3.232-3.2 2.8907-1.12 4.576-1.12 3.2107.3733 4.576 1.12 2.4427 1.8133 3.2325 3.2c.789 1.3867 1.184 2.976 1.184 4.768s-.406 3.3813-1.216 4.768c-.8112 1.3867-1.9205 2.464-3.3285 3.232-1.3867.7467-2.9227 1.12-4.608 1.12zm0-3.168c.9387 0 1.8133-.224 2.624-.672.832-.448 1.504-1.12 2.016-2.016s.768-1.984.768-3.264-.2453-2.3573-.736-3.232c-.4907-.896-1.1413-1.568-1.952-2.016s-1.6853-.672-2.624-.672-1.8133.224-2.624.672c-.7893.448-1.4187 1.12-1.888 2.016-.4693.8747-.704 1.952-.704 3.232 0 1.8987.48 3.3707 1.44 4.416.9813 1.024 2.208 1.536 3.68 1.536zm36.4385-14.752-5.472 17.632h-3.84l-3.552-13.024-3.552 13.024h-3.84l-5.504-17.632h3.712l3.68 14.176 3.744-14.176h3.808l3.584 14.112 3.648-14.112zm12.895-2.336c-.662 0-1.216-.224-1.664-.672s-.672-1.0027-.672-1.664.224-1.216.672-1.664 1.002-.672 1.664-.672c.64 0 1.184.224 1.632.672s.672 1.0027.672 1.664-.224 1.216-.672 1.664-.992.672-1.632.672zm1.792 2.336v17.632h-3.648v-17.632zm9.045 2.976v9.76c0 .6613.149 1.1413.448 1.44.32.2773.853.416 1.6.416h2.24v3.04h-2.88c-1.643 0-2.901-.384-3.776-1.152s-1.312-2.016-1.312-3.744v-9.76h-2.08v-2.976h2.08v-4.384h3.68v4.384h4.288v2.976zm39.643-2.976-5.472 17.632h-3.84l-3.552-13.024-3.552 13.024h-3.84l-5.504-17.632h3.712l3.68 14.176 3.744-14.176h3.808l3.584 14.112 3.648-14.112zm10.374 17.92c-1.664 0-3.168-.3733-4.512-1.12-1.344-.768-2.4-1.8347-3.168-3.2-.768-1.3867-1.152-2.9867-1.152-4.8 0-1.792.395-3.3813 1.184-4.768s1.867-2.4533 3.232-3.2 2.891-1.12 4.576-1.12 3.211.3733 4.576 1.12 2.443 1.8133 3.232 3.2 1.184 2.976 1.184 4.768-.405 3.3813-1.216 4.768-1.92 2.464-3.328 3.232c-1.387.7467-2.923 1.12-4.608 1.12zm0-3.168c.939 0 1.813-.224 2.624-.672.832-.448 1.504-1.12 2.016-2.016s.768-1.984.768-3.264-.245-2.3573-.736-3.232c-.491-.896-1.141-1.568-1.952-2.016s-1.685-.672-2.624-.672-1.813.224-2.624.672c-.789.448-1.419 1.12-1.888 2.016-.469.8747-.704 1.952-.704 3.232 0 1.8987.48 3.3707 1.44 4.416.981 1.024 2.208 1.536 3.68 1.536zm16.406-12.192c.534-.896 1.238-1.5893 2.112-2.08.896-.512 1.952-.768 3.168-.768v3.776h-.928c-1.429 0-2.517.3627-3.264 1.088-.725.7253-1.088 1.984-1.088 3.776v9.28h-3.648v-17.632h3.648zm15.61 6.272 8.128 8.8h-4.928l-6.528-7.584v7.584h-3.648v-23.68h3.648v13.76l6.4-7.712h5.056zm17.142 9.088c-1.386 0-2.634-.2453-3.744-.736-1.088-.512-1.952-1.1947-2.592-2.048-.64-.8747-.981-1.8453-1.024-2.912h3.776c.064.7467.416 1.376 1.056 1.888.662.4907 1.483.736 2.464.736 1.024 0 1.814-.192 2.368-.576.576-.4053.864-.9173.864-1.536 0-.6613-.32-1.152-.96-1.472-.618-.32-1.61-.672-2.976-1.056-1.322-.3627-2.4-.7147-3.232-1.056s-1.557-.864-2.176-1.568c-.597-.704-.896-1.632-.896-2.784 0-.9387.278-1.792.832-2.56.555-.7893 1.344-1.408 2.368-1.856 1.046-.448 2.24-.672 3.584-.672 2.006 0 3.616.512 4.832 1.536 1.238 1.0027 1.899 2.3787 1.984 4.128h-3.648c-.064-.7893-.384-1.4187-.96-1.888s-1.354-.704-2.336-.704c-.96 0-1.696.1813-2.208.544s-.768.8427-.768 1.44c0 .4693.171.864.512 1.184.342.32.758.576 1.248.768.491.1707 1.216.3947 2.176.672 1.28.3413 2.326.6933 3.136 1.056.832.3413 1.547.8533 2.144 1.536.598.6827.907 1.5893.928 2.72 0 1.0027-.277 1.8987-.832 2.688-.554.7893-1.344 1.408-2.368 1.856-1.002.448-2.186.672-3.552.672z" fill="#c1c1c1"/><rect fill="#ba27ed" height="116" rx="58" width="288" x="17" y="128"/><path d="m84.036 160.228c0-1.904.4387-3.612 1.316-5.124.896-1.512 2.1-2.688 3.612-3.528 1.5307-.859 3.2013-1.288 5.012-1.288 2.072 0 3.9107.513 5.516 1.54 1.624 1.008 2.8 2.445 3.528 4.312h-3.836c-.504-1.027-1.204-1.792-2.1-2.296s-1.932-.756-3.108-.756c-1.288 0-2.436.289-3.444.868s-1.8013 1.409-2.38 2.492c-.56 1.083-.84 2.343-.84 3.78s.28 2.697.84 3.78c.5787 1.083 1.372 1.923 2.38 2.52 1.008.579 2.156.868 3.444.868 1.176 0 2.212-.252 3.108-.756s1.596-1.269 2.1-2.296h3.836c-.728 1.867-1.904 3.304-3.528 4.312-1.6053 1.008-3.444 1.512-5.516 1.512-1.8293 0-3.5-.42-5.012-1.26-1.512-.859-2.716-2.044-3.612-3.556-.8773-1.512-1.316-3.22-1.316-5.124zm36.692-5.656v15.428h-3.192v-1.82c-.504.635-1.166 1.139-1.988 1.512-.802.355-1.661.532-2.576.532-1.213 0-2.305-.252-3.276-.756-.952-.504-1.708-1.251-2.268-2.24-.541-.989-.812-2.184-.812-3.584v-9.072h3.164v8.596c0 1.381.346 2.445 1.036 3.192.691.728 1.634 1.092 2.828 1.092 1.195 0 2.138-.364 2.828-1.092.71-.747 1.064-1.811 1.064-3.192v-8.596zm9.812 15.68c-1.213 0-2.305-.215-3.276-.644-.952-.448-1.708-1.045-2.268-1.792-.56-.765-.859-1.615-.896-2.548h3.304c.056.653.364 1.204.924 1.652.579.429 1.297.644 2.156.644.896 0 1.587-.168 2.072-.504.504-.355.756-.803.756-1.344 0-.579-.28-1.008-.84-1.288-.541-.28-1.409-.588-2.604-.924-1.157-.317-2.1-.625-2.828-.924s-1.363-.756-1.904-1.372c-.523-.616-.784-1.428-.784-2.436 0-.821.243-1.568.728-2.24.485-.691 1.176-1.232 2.072-1.624.915-.392 1.96-.588 3.136-.588 1.755 0 3.164.448 4.228 1.344 1.083.877 1.661 2.081 1.736 3.612h-3.192c-.056-.691-.336-1.241-.84-1.652s-1.185-.616-2.044-.616c-.84 0-1.484.159-1.932.476s-.672.737-.672 1.26c0 .411.149.756.448 1.036s.663.504 1.092.672c.429.149 1.064.345 1.904.588 1.12.299 2.035.607 2.744.924.728.299 1.353.747 1.876 1.344s.793 1.391.812 2.38c0 .877-.243 1.661-.728 2.352s-1.176 1.232-2.072 1.624c-.877.392-1.913.588-3.108.588zm13.081-13.076v8.54c0 .579.131.999.392 1.26.28.243.747.364 1.4.364h1.96v2.66h-2.52c-1.437 0-2.539-.336-3.304-1.008s-1.148-1.764-1.148-3.276v-8.54h-1.82v-2.604h1.82v-3.836h3.22v3.836h3.752v2.604zm13.386 13.076c-1.456 0-2.772-.327-3.948-.98-1.176-.672-2.1-1.605-2.772-2.8-.672-1.213-1.008-2.613-1.008-4.2 0-1.568.345-2.959 1.036-4.172s1.633-2.147 2.828-2.8 2.529-.98 4.004-.98 2.809.327 4.004.98 2.137 1.587 2.828 2.8 1.036 2.604 1.036 4.172-.355 2.959-1.064 4.172-1.68 2.156-2.912 2.828c-1.213.653-2.557.98-4.032.98zm0-2.772c.821 0 1.587-.196 2.296-.588.728-.392 1.316-.98 1.764-1.764s.672-1.736.672-2.856-.215-2.063-.644-2.828c-.429-.784-.999-1.372-1.708-1.764s-1.475-.588-2.296-.588-1.587.196-2.296.588c-.691.392-1.241.98-1.652 1.764-.411.765-.616 1.708-.616 2.828 0 1.661.42 2.949 1.26 3.864.859.896 1.932 1.344 3.22 1.344zm29.839-13.16c1.214 0 2.296.252 3.248.756.971.504 1.727 1.251 2.268 2.24.56.989.84 2.184.84 3.584v9.1h-3.164v-8.624c0-1.381-.345-2.436-1.036-3.164-.69-.747-1.633-1.12-2.828-1.12-1.194 0-2.146.373-2.856 1.12-.69.728-1.036 1.783-1.036 3.164v8.624h-3.164v-8.624c0-1.381-.345-2.436-1.036-3.164-.69-.747-1.633-1.12-2.828-1.12-1.194 0-2.146.373-2.856 1.12-.69.728-1.036 1.783-1.036 3.164v8.624h-3.192v-15.428h3.192v1.764c.523-.635 1.186-1.129 1.988-1.484.803-.355 1.662-.532 2.576-.532 1.232 0 2.334.261 3.304.784.971.523 1.718 1.279 2.24 2.268.467-.933 1.195-1.671 2.184-2.212.99-.56 2.054-.84 3.192-.84zm24.558 7.588c0 .579-.037 1.101-.112 1.568h-11.788c.093 1.232.551 2.221 1.372 2.968s1.829 1.12 3.024 1.12c1.717 0 2.931-.719 3.64-2.156h3.444c-.467 1.419-1.316 2.585-2.548 3.5-1.213.896-2.725 1.344-4.536 1.344-1.475 0-2.8-.327-3.976-.98-1.157-.672-2.072-1.605-2.744-2.8-.653-1.213-.98-2.613-.98-4.2s.317-2.977.952-4.172c.653-1.213 1.559-2.147 2.716-2.8 1.176-.653 2.52-.98 4.032-.98 1.456 0 2.753.317 3.892.952s2.025 1.531 2.66 2.688c.635 1.139.952 2.455.952 3.948zm-3.332-1.008c-.019-1.176-.439-2.119-1.26-2.828s-1.839-1.064-3.052-1.064c-1.101 0-2.044.355-2.828 1.064-.784.691-1.251 1.633-1.4 2.828zm9.665-4.088c.467-.784 1.083-1.391 1.848-1.82.784-.448 1.708-.672 2.772-.672v3.304h-.812c-1.25 0-2.202.317-2.856.952-.634.635-.952 1.736-.952 3.304v8.12h-3.192v-15.428h3.192zm13.154 13.44c-1.213 0-2.305-.215-3.276-.644-.952-.448-1.708-1.045-2.268-1.792-.56-.765-.858-1.615-.896-2.548h3.304c.056.653.364 1.204.924 1.652.579.429 1.298.644 2.156.644.896 0 1.587-.168 2.072-.504.504-.355.756-.803.756-1.344 0-.579-.28-1.008-.84-1.288-.541-.28-1.409-.588-2.604-.924-1.157-.317-2.1-.625-2.828-.924s-1.362-.756-1.904-1.372c-.522-.616-.784-1.428-.784-2.436 0-.821.243-1.568.728-2.24.486-.691 1.176-1.232 2.072-1.624.915-.392 1.96-.588 3.136-.588 1.755 0 3.164.448 4.228 1.344 1.083.877 1.662 2.081 1.736 3.612h-3.192c-.056-.691-.336-1.241-.84-1.652s-1.185-.616-2.044-.616c-.84 0-1.484.159-1.932.476s-.672.737-.672 1.26c0 .411.15.756.448 1.036.299.28.663.504 1.092.672.43.149 1.064.345 1.904.588 1.12.299 2.035.607 2.744.924.728.299 1.354.747 1.876 1.344.523.597.794 1.391.812 2.38 0 .877-.242 1.661-.728 2.352-.485.691-1.176 1.232-2.072 1.624-.877.392-1.913.588-3.108.588z" fill="#fff"/><path d="m106.696 189.88v11.12h-1.824v-11.12zm6.843 2.16c.693 0 1.312.144 1.856.432.554.288.986.715 1.296 1.28.309.565.464 1.248.464 2.048v5.2h-1.808v-4.928c0-.789-.198-1.392-.592-1.808-.395-.427-.934-.64-1.616-.64-.683 0-1.227.213-1.632.64-.395.416-.592 1.019-.592 1.808v4.928h-1.824v-8.816h1.824v1.008c.298-.363.677-.645 1.136-.848.469-.203.965-.304 1.488-.304zm7.766 1.44c.31-.405.731-.747 1.264-1.024.534-.277 1.136-.416 1.808-.416.768 0 1.467.192 2.096.576.64.373 1.142.901 1.504 1.584.363.683.544 1.467.544 2.352s-.181 1.68-.544 2.384c-.362.693-.864 1.237-1.504 1.632-.629.384-1.328.576-2.096.576-.672 0-1.269-.133-1.792-.4-.522-.277-.949-.619-1.28-1.024v5.472h-1.824v-13.008h1.824zm5.36 3.072c0-.608-.128-1.131-.384-1.568-.245-.448-.576-.784-.992-1.008-.405-.235-.842-.352-1.312-.352-.458 0-.896.117-1.312.352-.405.235-.736.576-.992 1.024-.245.448-.368.976-.368 1.584s.123 1.141.368 1.6c.256.448.587.789.992 1.024.416.235.854.352 1.312.352.47 0 .907-.117 1.312-.352.416-.245.747-.597.992-1.056.256-.459.384-.992.384-1.6zm11.644-4.368v8.816h-1.824v-1.04c-.288.363-.667.651-1.136.864-.459.203-.949.304-1.472.304-.693 0-1.317-.144-1.872-.432-.544-.288-.976-.715-1.296-1.28-.309-.565-.464-1.248-.464-2.048v-5.184h1.808v4.912c0 .789.197 1.397.592 1.824.395.416.933.624 1.616.624s1.221-.208 1.616-.624c.405-.427.608-1.035.608-1.824v-4.912zm4.535 1.488v4.88c0 .331.074.571.224.72.16.139.426.208.8.208h1.12v1.52h-1.44c-.822 0-1.451-.192-1.888-.576-.438-.384-.656-1.008-.656-1.872v-4.88h-1.04v-1.488h1.04v-2.192h1.84v2.192h2.144v1.488zm7.373 2.88c0-.885.181-1.669.544-2.352.373-.683.875-1.211 1.504-1.584.64-.384 1.344-.576 2.112-.576.693 0 1.296.139 1.808.416.523.267.939.603 1.248 1.008v-1.28h1.84v8.816h-1.84v-1.312c-.309.416-.731.763-1.264 1.04s-1.141.416-1.824.416c-.757 0-1.451-.192-2.08-.576-.629-.395-1.131-.939-1.504-1.632-.363-.704-.544-1.499-.544-2.384zm7.216.032c0-.608-.128-1.136-.384-1.584-.245-.448-.571-.789-.976-1.024s-.843-.352-1.312-.352-.907.117-1.312.352c-.405.224-.736.56-.992 1.008-.245.437-.368.96-.368 1.568s.123 1.141.368 1.6c.256.459.587.811.992 1.056.416.235.853.352 1.312.352.469 0 .907-.117 1.312-.352s.731-.576.976-1.024c.256-.459.384-.992.384-1.6zm8.684-4.544c.693 0 1.312.144 1.856.432.554.288.986.715 1.296 1.28.309.565.464 1.248.464 2.048v5.2h-1.808v-4.928c0-.789-.198-1.392-.592-1.808-.395-.427-.934-.64-1.616-.64-.683 0-1.227.213-1.632.64-.395.416-.592 1.019-.592 1.808v4.928h-1.824v-8.816h1.824v1.008c.298-.363.677-.645 1.136-.848.469-.203.965-.304 1.488-.304zm13.878.144-5.408 12.96h-1.888l1.792-4.288-3.472-8.672h2.032l2.48 6.72 2.576-6.72zm4.925 4.368c0-.885.181-1.669.544-2.352.373-.683.875-1.211 1.504-1.584.64-.384 1.349-.576 2.128-.576.576 0 1.141.128 1.696.384.565.245 1.013.576 1.344.992v-4.256h1.84v11.84h-1.84v-1.328c-.299.427-.715.779-1.248 1.056-.523.277-1.125.416-1.808.416-.768 0-1.472-.192-2.112-.576-.629-.395-1.131-.939-1.504-1.632-.363-.704-.544-1.499-.544-2.384zm7.216.032c0-.608-.128-1.136-.384-1.584-.245-.448-.571-.789-.976-1.024s-.843-.352-1.312-.352-.907.117-1.312.352c-.405.224-.736.56-.992 1.008-.245.437-.368.96-.368 1.568s.123 1.141.368 1.6c.256.459.587.811.992 1.056.416.235.853.352 1.312.352.469 0 .907-.117 1.312-.352s.731-.576.976-1.024c.256-.459.384-.992.384-1.6zm5.164-5.568c-.331 0-.608-.112-.832-.336s-.336-.501-.336-.832.112-.608.336-.832.501-.336.832-.336c.32 0 .592.112.816.336s.336.501.336.832-.112.608-.336.832-.496.336-.816.336zm.896 1.168v8.816h-1.824v-8.816zm5.595 8.96c-.694 0-1.318-.123-1.872-.368-.544-.256-.976-.597-1.296-1.024-.32-.437-.491-.923-.512-1.456h1.888c.032.373.208.688.528.944.33.245.741.368 1.232.368.512 0 .906-.096 1.184-.288.288-.203.432-.459.432-.768 0-.331-.16-.576-.48-.736-.31-.16-.806-.336-1.488-.528-.662-.181-1.2-.357-1.616-.528s-.779-.432-1.088-.784c-.299-.352-.448-.816-.448-1.392 0-.469.138-.896.416-1.28.277-.395.672-.704 1.184-.928.522-.224 1.12-.336 1.792-.336 1.002 0 1.808.256 2.416.768.618.501.949 1.189.992 2.064h-1.824c-.032-.395-.192-.709-.48-.944s-.678-.352-1.168-.352c-.48 0-.848.091-1.104.272s-.384.421-.384.72c0 .235.085.432.256.592.17.16.378.288.624.384.245.085.608.197 1.088.336.64.171 1.162.347 1.568.528.416.171.773.427 1.072.768.298.341.453.795.464 1.36 0 .501-.139.949-.416 1.344-.278.395-.672.704-1.184.928-.502.224-1.094.336-1.776.336zm9.907-9.104c.672 0 1.269.144 1.792.432.533.288.949.715 1.248 1.28.309.565.464 1.248.464 2.048v5.2h-1.808v-4.928c0-.789-.198-1.392-.592-1.808-.395-.427-.934-.64-1.616-.64-.683 0-1.227.213-1.632.64-.395.416-.592 1.019-.592 1.808v4.928h-1.824v-11.84h1.824v4.048c.309-.373.698-.661 1.168-.864.48-.203 1.002-.304 1.568-.304zm-116.4294 20.976c-.3306 0-.608-.112-.832-.336s-.336-.501-.336-.832.112-.608.336-.832.5014-.336.832-.336c.32 0 .592.112.816.336s.336.501.336.832-.112.608-.336.832-.496.336-.816.336zm.896 1.168v8.816h-1.824v-8.816zm6.8424-.144c.694 0 1.312.144 1.856.432.555.288.987.715 1.296 1.28.31.565.464 1.248.464 2.048v5.2h-1.808v-4.928c0-.789-.197-1.392-.592-1.808-.394-.427-.933-.64-1.616-.64-.682 0-1.226.213-1.632.64-.394.416-.592 1.019-.592 1.808v4.928h-1.824v-8.816h1.824v1.008c.299-.363.678-.645 1.136-.848.47-.203.966-.304 1.488-.304zm9.491 4.512c0-.885.182-1.669.544-2.352.374-.683.875-1.211 1.504-1.584.64-.384 1.344-.576 2.112-.576.694 0 1.296.139 1.808.416.523.267.939.603 1.248 1.008v-1.28h1.84v8.816h-1.84v-1.312c-.309.416-.73.763-1.264 1.04-.533.277-1.141.416-1.824.416-.757 0-1.45-.192-2.08-.576-.629-.395-1.13-.939-1.504-1.632-.362-.704-.544-1.499-.544-2.384zm7.216.032c0-.608-.128-1.136-.384-1.584-.245-.448-.57-.789-.976-1.024-.405-.235-.842-.352-1.312-.352-.469 0-.906.117-1.312.352-.405.224-.736.56-.992 1.008-.245.437-.368.96-.368 1.568s.123 1.141.368 1.6c.256.459.587.811.992 1.056.416.235.854.352 1.312.352.47 0 .907-.117 1.312-.352.406-.235.731-.576.976-1.024.256-.459.384-.992.384-1.6zm8.684-4.544c.693 0 1.312.144 1.856.432.555.288.987.715 1.296 1.28s.464 1.248.464 2.048v5.2h-1.808v-4.928c0-.789-.197-1.392-.592-1.808-.395-.427-.933-.64-1.616-.64s-1.227.213-1.632.64c-.395.416-.592 1.019-.592 1.808v4.928h-1.824v-8.816h1.824v1.008c.299-.363.677-.645 1.136-.848.469-.203.965-.304 1.488-.304zm13.879.144-5.408 12.96h-1.888l1.792-4.288-3.472-8.672h2.032l2.48 6.72 2.576-6.72zm7.356-3.024v11.84h-1.824v-11.84zm1.787 7.392c0-.885.181-1.669.544-2.352.373-.683.875-1.211 1.504-1.584.64-.384 1.344-.576 2.112-.576.693 0 1.296.139 1.808.416.523.267.939.603 1.248 1.008v-1.28h1.84v8.816h-1.84v-1.312c-.309.416-.731.763-1.264 1.04s-1.141.416-1.824.416c-.757 0-1.451-.192-2.08-.576-.629-.395-1.131-.939-1.504-1.632-.363-.704-.544-1.499-.544-2.384zm7.216.032c0-.608-.128-1.136-.384-1.584-.245-.448-.571-.789-.976-1.024s-.843-.352-1.312-.352-.907.117-1.312.352c-.405.224-.736.56-.992 1.008-.245.437-.368.96-.368 1.568s.123 1.141.368 1.6c.256.459.587.811.992 1.056.416.235.853.352 1.312.352.469 0 .907-.117 1.312-.352s.731-.576.976-1.024c.256-.459.384-.992.384-1.6zm8.684-4.544c.693 0 1.312.144 1.856.432.555.288.987.715 1.296 1.28s.464 1.248.464 2.048v5.2h-1.808v-4.928c0-.789-.197-1.392-.592-1.808-.395-.427-.933-.64-1.616-.64s-1.227.213-1.632.64c-.395.416-.592 1.019-.592 1.808v4.928h-1.824v-8.816h1.824v1.008c.299-.363.677-.645 1.136-.848.469-.203.965-.304 1.488-.304zm9.495 0c.682 0 1.285.139 1.808.416.533.267.949.603 1.248 1.008v-1.28h1.84v8.96c0 .811-.171 1.531-.512 2.16-.342.64-.838 1.141-1.488 1.504-.64.363-1.408.544-2.304.544-1.195 0-2.187-.283-2.976-.848-.79-.555-1.238-1.312-1.344-2.272h1.808c.138.459.432.827.88 1.104.458.288 1.002.432 1.632.432.736 0 1.328-.224 1.776-.672.458-.448.688-1.099.688-1.952v-1.472c-.31.416-.731.768-1.264 1.056-.523.277-1.12.416-1.792.416-.768 0-1.472-.192-2.112-.576-.63-.395-1.131-.939-1.504-1.632-.363-.704-.544-1.499-.544-2.384s.181-1.669.544-2.352c.373-.683.874-1.211 1.504-1.584.64-.384 1.344-.576 2.112-.576zm3.056 4.544c0-.608-.128-1.136-.384-1.584-.246-.448-.571-.789-.976-1.024-.406-.235-.843-.352-1.312-.352-.47 0-.907.117-1.312.352-.406.224-.736.56-.992 1.008-.246.437-.368.96-.368 1.568s.122 1.141.368 1.6c.256.459.586.811.992 1.056.416.235.853.352 1.312.352.469 0 .906-.117 1.312-.352.405-.235.73-.576.976-1.024.256-.459.384-.992.384-1.6zm12.219-4.4v8.816h-1.824v-1.04c-.288.363-.666.651-1.136.864-.458.203-.949.304-1.472.304-.693 0-1.317-.144-1.872-.432-.544-.288-.976-.715-1.296-1.28-.309-.565-.464-1.248-.464-2.048v-5.184h1.808v4.912c0 .789.198 1.397.592 1.824.395.416.934.624 1.616.624.683 0 1.222-.208 1.616-.624.406-.427.608-1.035.608-1.824v-4.912zm1.799 4.368c0-.885.181-1.669.544-2.352.373-.683.875-1.211 1.504-1.584.64-.384 1.344-.576 2.112-.576.693 0 1.296.139 1.808.416.523.267.939.603 1.248 1.008v-1.28h1.84v8.816h-1.84v-1.312c-.309.416-.731.763-1.264 1.04s-1.141.416-1.824.416c-.757 0-1.451-.192-2.08-.576-.629-.395-1.131-.939-1.504-1.632-.363-.704-.544-1.499-.544-2.384zm7.216.032c0-.608-.128-1.136-.384-1.584-.245-.448-.571-.789-.976-1.024s-.843-.352-1.312-.352-.907.117-1.312.352c-.405.224-.736.56-.992 1.008-.245.437-.368.96-.368 1.568s.123 1.141.368 1.6c.256.459.587.811.992 1.056.416.235.853.352 1.312.352.469 0 .907-.117 1.312-.352s.731-.576.976-1.024c.256-.459.384-.992.384-1.6zm7.788-4.544c.682 0 1.285.139 1.808.416.533.267.949.603 1.248 1.008v-1.28h1.84v8.96c0 .811-.171 1.531-.512 2.16-.342.64-.838 1.141-1.488 1.504-.64.363-1.408.544-2.304.544-1.195 0-2.187-.283-2.976-.848-.79-.555-1.238-1.312-1.344-2.272h1.808c.138.459.432.827.88 1.104.458.288 1.002.432 1.632.432.736 0 1.328-.224 1.776-.672.458-.448.688-1.099.688-1.952v-1.472c-.31.416-.731.768-1.264 1.056-.523.277-1.12.416-1.792.416-.768 0-1.472-.192-2.112-.576-.63-.395-1.131-.939-1.504-1.632-.363-.704-.544-1.499-.544-2.384s.181-1.669.544-2.352c.373-.683.874-1.211 1.504-1.584.64-.384 1.344-.576 2.112-.576zm3.056 4.544c0-.608-.128-1.136-.384-1.584-.246-.448-.571-.789-.976-1.024-.406-.235-.843-.352-1.312-.352-.47 0-.907.117-1.312.352-.406.224-.736.56-.992 1.008-.246.437-.368.96-.368 1.568s.122 1.141.368 1.6c.256.459.586.811.992 1.056.416.235.853.352 1.312.352.469 0 .906-.117 1.312-.352.405-.235.73-.576.976-1.024.256-.459.384-.992.384-1.6zm12.315-.208c0 .331-.021.629-.064.896h-6.736c.054.704.315 1.269.784 1.696.47.427 1.046.64 1.728.64.982 0 1.675-.411 2.08-1.232h1.968c-.266.811-.752 1.477-1.456 2-.693.512-1.557.768-2.592.768-.842 0-1.6-.187-2.272-.56-.661-.384-1.184-.917-1.568-1.6-.373-.693-.56-1.493-.56-2.4s.182-1.701.544-2.384c.374-.693.891-1.227 1.552-1.6.672-.373 1.44-.56 2.304-.56.832 0 1.574.181 2.224.544.651.363 1.158.875 1.52 1.536.363.651.544 1.403.544 2.256zm-1.904-.576c-.01-.672-.25-1.211-.72-1.616-.469-.405-1.05-.608-1.744-.608-.629 0-1.168.203-1.616.608-.448.395-.714.933-.8 1.616z" fill="#ededed"/><rect fill="#7e27ed" height="63.4011" rx="31.7005" width="288" x="17" y="308"/><path clip-rule="evenodd" d="m94.217 324.679c0-.375.3863-.679.8629-.679s.8629.304.8629.679v3.394c0 .375-.3863.679-.8629.679s-.8629-.304-.8629-.679zm-8.5834 12.159c1.7307 0 3.1337-1.391 3.1337-3.108 0-1.716-1.403-3.108-3.1337-3.108-1.7306 0-3.1336 1.392-3.1336 3.108 0 1.717 1.403 3.108 3.1336 3.108zm12.6217-3.849c.3467 1.63-.7886 3.248-2.5356 3.614-1.055.22-2.23.634-2.6604 1.625l-.0875.202c-.4429 1.019.022 2.202.4578 3.23.0807.19.1444.39.189.6.3733 1.756-.7403 3.475-2.4873 3.841-1.7471.365-3.4659-.762-3.8392-2.518-.3733-1.755.7403-3.475 2.4873-3.84.9917-.208 2.0918-.595 2.4964-1.526l.1378-.318c.4055-.933.0369-2.004-.3025-2.99-.0321-.093-.064-.186-.0949-.278-.0349-.103-.0642-.21-.0874-.319-.3467-1.63.7886-3.248 2.5356-3.613 1.7471-.366 3.4443.66 3.7909 2.29zm4.7307 9.231c.346 1.631-.789 3.249-2.536 3.614-1.0548.221-2.2298.635-2.6602 1.626l-.0875.201c-.443 1.02.022 2.202.4578 3.23.0807.19.1444.391.189.6.3733 1.756-.7403 3.476-2.4874 3.841-1.747.366-3.4659-.761-3.8392-2.517s.7404-3.476 2.4874-3.841c.9917-.207 2.0918-.594 2.4964-1.526l.1378-.317c.4055-.934.0369-2.004-.3025-2.991-.0321-.093-.064-.185-.0949-.277-.035-.104-.0642-.21-.0874-.319-.3467-1.631.7886-3.249 2.5356-3.614 1.7471-.365 3.4441.66 3.7911 2.29zm4.697-8.49c0 1.717-1.403 3.108-3.133 3.108-1.731 0-3.134-1.391-3.134-3.108 0-1.716 1.403-3.108 3.134-3.108 1.73 0 3.133 1.392 3.133 3.108z" fill="#fff" fill-rule="evenodd"/><path clip-rule="evenodd" d="m139.836 324.68c0-.375.386-.679.863-.679.476 0 .863.304.863.679v3.394c0 .375-.387.679-.863.679-.477 0-.863-.304-.863-.679zm.782 5.943c-.968 0-1.753.777-1.753 1.736v21.303c0 .959.785 1.736 1.753 1.736.969 0 1.754-.777 1.754-1.736v-21.303c0-.959-.785-1.736-1.754-1.736zm17.063.979c0-.541.443-.979.989-.979h1.455c.546 0 .989.438.989.979v22.817c0 .541-.443.979-.989.979h-2.027c-.407 0-.774-.249-.922-.624-2.86-7.234-4.962-12.612-6.307-16.132-.007-.015-.014-.03-.02-.046-.136-.36-.727-.372-.693.169.003.036.005.071.006.103.124 1.742.137 3.749.137 5.823v9.728c0 .541-.442.979-.989.979h-1.418c-.546 0-.989-.438-.989-.979v-22.817c0-.541.443-.979.989-.979h2.067c.406 0 .771.247.92.621 3.273 8.211 5.27 13.315 5.99 15.311l.158.437c.216.599.924.452.876-.181-.123-1.949-.197-3.825-.222-5.628zm7.752.326c0-.721.591-1.305 1.319-1.305h9.428c.364 0 .659.292.659.652v1.728c0 .361-.295.653-.659.653h-7.277v7.71h6.243c.364 0 .659.292.659.653v1.728c0 .36-.295.652-.659.652h-6.243v8.003h7.277c.364 0 .659.292.659.652v1.692c0 .36-.295.652-.659.652h-9.428c-.728 0-1.319-.584-1.319-1.305zm42.934-.979c0-.18-.147-.326-.329-.326h-12.371c-.182 0-.329.146-.329.326v2.381c0 .18.147.326.329.326h4.103c.182 0 .329.146.329.326v21.09c0 .18.148.326.33.326h2.847c.182 0 .33-.146.33-.326v-21.09c0-.18.147-.326.329-.326h4.103c.182 0 .329-.146.329-.326zm2.553 0c0-.18.148-.326.33-.326h11.076v3.033h-7.607c-.182 0-.329.146-.329.326v7.058c0 .18.147.326.329.326h6.573v3.033h-6.573c-.182 0-.329.146-.329.326v7.35c0 .181.147.327.329.327h7.607v2.996h-11.076c-.182 0-.33-.146-.33-.326zm18.393 14.802v9.647h-3.47v-24.775h6.718c1.968 0 3.469.487 4.503 1.462 1.058.974 1.587 2.326 1.587 4.056v3.946c0 2.704-1.046 4.446-3.137 5.226l3.986 10.085h-3.839l-3.58-9.647zm0-12.132v9.245h2.953c1.033 0 1.771-.231 2.214-.694.468-.463.701-1.169.701-2.119v-3.691c0-1.827-.972-2.741-2.915-2.741zm-38.296 21.258c.063.303.333.521.646.521h2.042c.42 0 .733-.383.644-.79l-5.105-23.47c-.065-.3-.333-.515-.644-.515h-3.809c-.31 0-.578.214-.644.513l-5.175 23.47c-.09.407.223.792.644.792h2.04c.313 0 .582-.218.645-.521l1.204-5.796c.031-.152.166-.26.322-.26h5.664c.156 0 .291.108.323.26zm-6.464-9.016c-.209 0-.365-.189-.323-.392l2.072-10.072c.071-.348.573-.349.645-.001l2.103 10.072c.043.203-.114.393-.322.393zm-60.941-13.652c.143-.913.939-1.587 1.872-1.587s1.73.674 1.872 1.587l1.746 11.203c.141.962 1.612.964 1.735 0l1.819-11.461c.122-.765.788-1.329 1.57-1.329.974 0 1.719.859 1.572 1.812l-3.266 21.076c-.168 1.085-1.112 1.887-2.221 1.887-1.102 0-2.041-.79-2.218-1.866l-1.611-9.754c-.083-.644-.532-.999-.998-.999-.465 0-.915.355-.997.999l-1.611 9.754c-.178 1.076-1.117 1.866-2.218 1.866-1.11 0-2.053-.802-2.221-1.887l-3.266-21.076c-.148-.953.597-1.812 1.571-1.812.783 0 1.449.564 1.571 1.329l1.819 11.461c.123.964 1.594.962 1.734 0z" fill="#fff" fill-rule="evenodd"/><rect fill="#2fc0bf" height="94" rx="47" width="288" x="17" y="435.401"/><path d="m125.012 477.597c-1.307 0-2.483-.224-3.528-.672-1.045-.466-1.867-1.12-2.464-1.96s-.896-1.82-.896-2.94h3.416c.075.84.401 1.531.98 2.072.597.542 1.428.812 2.492.812 1.101 0 1.96-.261 2.576-.784.616-.541.924-1.232.924-2.072 0-.653-.196-1.185-.588-1.596-.373-.41-.849-.728-1.428-.952-.56-.224-1.344-.466-2.352-.728-1.269-.336-2.305-.672-3.108-1.008-.784-.354-1.456-.896-2.016-1.624s-.84-1.698-.84-2.912c0-1.12.28-2.1.84-2.94s1.344-1.484 2.352-1.932 2.175-.672 3.5-.672c1.885 0 3.425.476 4.62 1.428 1.213.934 1.885 2.222 2.016 3.864h-3.528c-.056-.709-.392-1.316-1.008-1.82s-1.428-.756-2.436-.756c-.915 0-1.661.234-2.24.7-.579.467-.868 1.139-.868 2.016 0 .598.177 1.092.532 1.484.373.374.84.672 1.4.896s1.325.467 2.296.728c1.288.355 2.333.71 3.136 1.064.821.355 1.512.906 2.072 1.652.579.728.868 1.708.868 2.94 0 .99-.271 1.923-.812 2.8-.523.878-1.297 1.587-2.324 2.128-1.008.523-2.203.784-3.584.784zm14.21-13.02v8.54c0 .579.131.999.392 1.26.28.243.747.364 1.4.364h1.96v2.66h-2.52c-1.437 0-2.538-.336-3.304-1.008-.765-.672-1.148-1.764-1.148-3.276v-8.54h-1.82v-2.604h1.82v-3.836h3.22v3.836h3.752v2.604zm13.386 13.076c-1.456 0-2.772-.326-3.948-.98-1.176-.672-2.1-1.605-2.772-2.8-.672-1.213-1.008-2.613-1.008-4.2 0-1.568.346-2.958 1.036-4.172.691-1.213 1.634-2.146 2.828-2.8 1.195-.653 2.53-.98 4.004-.98 1.475 0 2.81.327 4.004.98 1.195.654 2.138 1.587 2.828 2.8.691 1.214 1.036 2.604 1.036 4.172s-.354 2.959-1.064 4.172c-.709 1.214-1.68 2.156-2.912 2.828-1.213.654-2.557.98-4.032.98zm0-2.772c.822 0 1.587-.196 2.296-.588.728-.392 1.316-.98 1.764-1.764s.672-1.736.672-2.856-.214-2.062-.644-2.828c-.429-.784-.998-1.372-1.708-1.764-.709-.392-1.474-.588-2.296-.588-.821 0-1.586.196-2.296.588-.69.392-1.241.98-1.652 1.764-.41.766-.616 1.708-.616 2.828 0 1.662.42 2.95 1.26 3.864.859.896 1.932 1.344 3.22 1.344zm14.356-10.668c.467-.784 1.083-1.39 1.848-1.82.784-.448 1.708-.672 2.772-.672v3.304h-.812c-1.251 0-2.203.318-2.856.952-.635.635-.952 1.736-.952 3.304v8.12h-3.192v-15.428h3.192zm21.694 5.096c0 .579-.037 1.102-.112 1.568h-11.788c.093 1.232.551 2.222 1.372 2.968.821.747 1.829 1.12 3.024 1.12 1.717 0 2.931-.718 3.64-2.156h3.444c-.467 1.419-1.316 2.586-2.548 3.5-1.213.896-2.725 1.344-4.536 1.344-1.475 0-2.8-.326-3.976-.98-1.157-.672-2.072-1.605-2.744-2.8-.653-1.213-.98-2.613-.98-4.2 0-1.586.317-2.977.952-4.172.653-1.213 1.559-2.146 2.716-2.8 1.176-.653 2.52-.98 4.032-.98 1.456 0 2.753.318 3.892.952 1.139.635 2.025 1.531 2.66 2.688.635 1.139.952 2.455.952 3.948zm-3.332-1.008c-.019-1.176-.439-2.118-1.26-2.828-.821-.709-1.839-1.064-3.052-1.064-1.101 0-2.044.355-2.828 1.064-.784.691-1.251 1.634-1.4 2.828zm12.073 9.352c-1.213 0-2.305-.214-3.276-.644-.952-.448-1.708-1.045-2.268-1.792-.56-.765-.858-1.614-.896-2.548h3.304c.056.654.364 1.204.924 1.652.579.43 1.298.644 2.156.644.896 0 1.587-.168 2.072-.504.504-.354.756-.802.756-1.344 0-.578-.28-1.008-.84-1.288-.541-.28-1.409-.588-2.604-.924-1.157-.317-2.1-.625-2.828-.924-.728-.298-1.362-.756-1.904-1.372-.522-.616-.784-1.428-.784-2.436 0-.821.243-1.568.728-2.24.486-.69 1.176-1.232 2.072-1.624.915-.392 1.96-.588 3.136-.588 1.755 0 3.164.448 4.228 1.344 1.083.878 1.662 2.082 1.736 3.612h-3.192c-.056-.69-.336-1.241-.84-1.652-.504-.41-1.185-.616-2.044-.616-.84 0-1.484.159-1.932.476-.448.318-.672.738-.672 1.26 0 .411.15.756.448 1.036.299.28.663.504 1.092.672.43.15 1.064.346 1.904.588 1.12.299 2.035.607 2.744.924.728.299 1.354.747 1.876 1.344.523.598.794 1.391.812 2.38 0 .878-.242 1.662-.728 2.352-.485.691-1.176 1.232-2.072 1.624-.877.392-1.913.588-3.108.588z" fill="#fff"/><path d="m80.1256 497.281v11.12h-1.824v-11.12zm13.0667 2.16c.6933 0 1.312.144 1.856.432.5547.288.9867.715 1.296 1.28.32.566.48 1.248.48 2.048v5.2h-1.808v-4.928c0-.789-.1973-1.392-.592-1.808-.3947-.426-.9333-.64-1.616-.64s-1.2267.214-1.632.64c-.3947.416-.592 1.019-.592 1.808v4.928h-1.808v-4.928c0-.789-.1973-1.392-.592-1.808-.3947-.426-.9333-.64-1.616-.64s-1.2267.214-1.632.64c-.3947.416-.592 1.019-.592 1.808v4.928h-1.824v-8.816h1.824v1.008c.2987-.362.6773-.645 1.136-.848.4587-.202.9493-.304 1.472-.304.704 0 1.3333.15 1.888.448.5547.299.9813.731 1.28 1.296.2667-.533.6827-.954 1.248-1.264.5653-.32 1.1733-.48 1.824-.48zm7.7767 1.44c.31-.405.731-.746 1.264-1.024.534-.277 1.136-.416 1.808-.416.768 0 1.467.192 2.096.576.64.374 1.142.902 1.504 1.584.363.683.544 1.467.544 2.352 0 .886-.181 1.68-.544 2.384-.362.694-.864 1.238-1.504 1.632-.629.384-1.328.576-2.096.576-.672 0-1.269-.133-1.792-.4-.522-.277-.949-.618-1.28-1.024v5.472h-1.8237v-13.008h1.8237zm5.36 3.072c0-.608-.128-1.13-.384-1.568-.245-.448-.576-.784-.992-1.008-.405-.234-.842-.352-1.312-.352-.458 0-.896.118-1.312.352-.405.235-.736.576-.992 1.024-.245.448-.368.976-.368 1.584s.123 1.142.368 1.6c.256.448.587.79.992 1.024.416.235.854.352 1.312.352.47 0 .907-.117 1.312-.352.416-.245.747-.597.992-1.056.256-.458.384-.992.384-1.6zm7.484 4.592c-.832 0-1.584-.186-2.256-.56-.672-.384-1.2-.917-1.584-1.6-.384-.693-.576-1.493-.576-2.4 0-.896.197-1.69.592-2.384.395-.693.933-1.226 1.616-1.6.683-.373 1.445-.56 2.288-.56s1.605.187 2.288.56c.683.374 1.221.907 1.616 1.6.395.694.592 1.488.592 2.384s-.203 1.691-.608 2.384c-.405.694-.96 1.232-1.664 1.616-.693.374-1.461.56-2.304.56zm0-1.584c.469 0 .907-.112 1.312-.336.416-.224.752-.56 1.008-1.008s.384-.992.384-1.632-.123-1.178-.368-1.616c-.245-.448-.571-.784-.976-1.008s-.843-.336-1.312-.336-.907.112-1.312.336c-.395.224-.709.56-.944 1.008-.235.438-.352.976-.352 1.616 0 .95.24 1.686.72 2.208.491.512 1.104.768 1.84.768zm8.203-6.096c.267-.448.619-.794 1.056-1.04.448-.256.976-.384 1.584-.384v1.888h-.464c-.714 0-1.258.182-1.632.544-.362.363-.544.992-.544 1.888v4.64h-1.824v-8.816h1.824zm6.445.208v4.88c0 .331.074.571.224.72.16.139.426.208.8.208h1.12v1.52h-1.44c-.822 0-1.451-.192-1.888-.576-.438-.384-.656-1.008-.656-1.872v-4.88h-1.04v-1.488h1.04v-2.192h1.84v2.192h2.144v1.488zm11.181 7.472c-.693 0-1.317-.122-1.872-.368-.544-.256-.976-.597-1.296-1.024-.32-.437-.49-.922-.512-1.456h1.888c.032.374.208.688.528.944.331.246.742.368 1.232.368.512 0 .907-.096 1.184-.288.288-.202.432-.458.432-.768 0-.33-.16-.576-.48-.736-.309-.16-.805-.336-1.488-.528-.661-.181-1.2-.357-1.616-.528-.416-.17-.778-.432-1.088-.784-.298-.352-.448-.816-.448-1.392 0-.469.139-.896.416-1.28.278-.394.672-.704 1.184-.928.523-.224 1.12-.336 1.792-.336 1.003 0 1.808.256 2.416.768.619.502.95 1.19.992 2.064h-1.824c-.032-.394-.192-.709-.48-.944-.288-.234-.677-.352-1.168-.352-.48 0-.848.091-1.104.272-.256.182-.384.422-.384.72 0 .235.086.432.256.592.171.16.379.288.624.384.246.086.608.198 1.088.336.64.171 1.163.347 1.568.528.416.171.774.427 1.072.768.299.342.454.795.464 1.36 0 .502-.138.95-.416 1.344-.277.395-.672.704-1.184.928-.501.224-1.093.336-1.776.336zm7.475-7.472v4.88c0 .331.075.571.224.72.16.139.427.208.8.208h1.12v1.52h-1.44c-.821 0-1.451-.192-1.888-.576s-.656-1.008-.656-1.872v-4.88h-1.04v-1.488h1.04v-2.192h1.84v2.192h2.144v1.488zm7.649 7.472c-.832 0-1.584-.186-2.256-.56-.672-.384-1.2-.917-1.584-1.6-.384-.693-.576-1.493-.576-2.4 0-.896.198-1.69.592-2.384.395-.693.934-1.226 1.616-1.6.683-.373 1.446-.56 2.288-.56.843 0 1.606.187 2.288.56.683.374 1.222.907 1.616 1.6.395.694.592 1.488.592 2.384s-.202 1.691-.608 2.384c-.405.694-.96 1.232-1.664 1.616-.693.374-1.461.56-2.304.56zm0-1.584c.47 0 .907-.112 1.312-.336.416-.224.752-.56 1.008-1.008s.384-.992.384-1.632-.122-1.178-.368-1.616c-.245-.448-.57-.784-.976-1.008-.405-.224-.842-.336-1.312-.336-.469 0-.906.112-1.312.336-.394.224-.709.56-.944 1.008-.234.438-.352.976-.352 1.616 0 .95.24 1.686.72 2.208.491.512 1.104.768 1.84.768zm8.203-6.096c.267-.448.619-.794 1.056-1.04.448-.256.976-.384 1.584-.384v1.888h-.464c-.714 0-1.258.182-1.632.544-.362.363-.544.992-.544 1.888v4.64h-1.824v-8.816h1.824zm12.397 2.912c0 .331-.021.63-.064.896h-6.736c.053.704.315 1.27.784 1.696.469.427 1.045.64 1.728.64.981 0 1.675-.41 2.08-1.232h1.968c-.267.811-.752 1.478-1.456 2-.693.512-1.557.768-2.592.768-.843 0-1.6-.186-2.272-.56-.661-.384-1.184-.917-1.568-1.6-.373-.693-.56-1.493-.56-2.4 0-.906.181-1.701.544-2.384.373-.693.891-1.226 1.552-1.6.672-.373 1.44-.56 2.304-.56.832 0 1.573.182 2.224.544.651.363 1.157.875 1.52 1.536.363.651.544 1.403.544 2.256zm-1.904-.576c-.011-.672-.251-1.21-.72-1.616-.469-.405-1.051-.608-1.744-.608-.629 0-1.168.203-1.616.608-.448.395-.715.934-.8 1.616zm19.695-3.616-2.736 8.816h-1.92l-1.776-6.512-1.776 6.512h-1.92l-2.752-8.816h1.856l1.84 7.088 1.872-7.088h1.904l1.792 7.056 1.824-7.056zm2.291-1.168c-.33 0-.608-.112-.832-.336s-.336-.501-.336-.832c0-.33.112-.608.336-.832s.502-.336.832-.336c.32 0 .592.112.816.336s.336.502.336.832c0 .331-.112.608-.336.832s-.496.336-.816.336zm.896 1.168v8.816h-1.824v-8.816zm6.843-.144c.693 0 1.312.144 1.856.432.555.288.987.715 1.296 1.28.309.566.464 1.248.464 2.048v5.2h-1.808v-4.928c0-.789-.197-1.392-.592-1.808-.395-.426-.933-.64-1.616-.64s-1.227.214-1.632.64c-.395.416-.592 1.019-.592 1.808v4.928h-1.824v-8.816h1.824v1.008c.299-.362.677-.645 1.136-.848.469-.202.965-.304 1.488-.304zm14.023 4.336c0 .331-.022.63-.064.896h-6.736c.053.704.314 1.27.784 1.696.469.427 1.045.64 1.728.64.981 0 1.674-.41 2.08-1.232h1.968c-.267.811-.752 1.478-1.456 2-.694.512-1.558.768-2.592.768-.843 0-1.6-.186-2.272-.56-.662-.384-1.184-.917-1.568-1.6-.374-.693-.56-1.493-.56-2.4 0-.906.181-1.701.544-2.384.373-.693.89-1.226 1.552-1.6.672-.373 1.44-.56 2.304-.56.832 0 1.573.182 2.224.544.65.363 1.157.875 1.52 1.536.362.651.544 1.403.544 2.256zm-1.904-.576c-.011-.672-.251-1.21-.72-1.616-.47-.405-1.051-.608-1.744-.608-.63 0-1.168.203-1.616.608-.448.395-.715.934-.8 1.616zm9.679-6.64v11.84h-1.824v-11.84zm3.323 1.856c-.331 0-.608-.112-.832-.336s-.336-.501-.336-.832c0-.33.112-.608.336-.832s.501-.336.832-.336c.32 0 .592.112.816.336s.336.502.336.832c0 .331-.112.608-.336.832s-.496.336-.816.336zm.896 1.168v8.816h-1.824v-8.816zm5.594 8.96c-.693 0-1.317-.122-1.872-.368-.544-.256-.976-.597-1.296-1.024-.32-.437-.49-.922-.512-1.456h1.888c.032.374.208.688.528.944.331.246.742.368 1.232.368.512 0 .907-.096 1.184-.288.288-.202.432-.458.432-.768 0-.33-.16-.576-.48-.736-.309-.16-.805-.336-1.488-.528-.661-.181-1.2-.357-1.616-.528-.416-.17-.778-.432-1.088-.784-.298-.352-.448-.816-.448-1.392 0-.469.139-.896.416-1.28.278-.394.672-.704 1.184-.928.523-.224 1.12-.336 1.792-.336 1.003 0 1.808.256 2.416.768.619.502.95 1.19.992 2.064h-1.824c-.032-.394-.192-.709-.48-.944-.288-.234-.677-.352-1.168-.352-.48 0-.848.091-1.104.272-.256.182-.384.422-.384.72 0 .235.086.432.256.592.171.16.379.288.624.384.246.086.608.198 1.088.336.64.171 1.163.347 1.568.528.416.171.774.427 1.072.768.299.342.454.795.464 1.36 0 .502-.138.95-.416 1.344-.277.395-.672.704-1.184.928-.501.224-1.093.336-1.776.336zm7.475-7.472v4.88c0 .331.075.571.224.72.16.139.427.208.8.208h1.12v1.52h-1.44c-.821 0-1.45-.192-1.888-.576-.437-.384-.656-1.008-.656-1.872v-4.88h-1.04v-1.488h1.04v-2.192h1.84v2.192h2.144v1.488z" fill="#ededed"/><g fill="#c1c1c1"><path d="m171 274.78c-3.6 1.28-3.6 1.28-7.42 9.59-.45-3.54-.82-6.06-1.09-8.58-.28-2.71-.54-5.42-.67-8.14-.18-3.68-.19-7.36-.38-11-.07-1.46.56-3.69-1.88-3.65-2.16 0-2.16 2.19-2.13 3.69.09 5.43.29 10.87.64 16.3.2 3 .77 6 1.25 9.54-3.82-3.08-4.65-8.13-9.32-10.68.09 1.61-.12 2.73.24 3.62 2.581 6.57 6.193 12.687 10.7 18.12.404.498.868.945 1.38 1.33 1.92 1.34 4 .9 4.62-1.32 1.69-5.83 3.13-11.73 4.64-17.61.05-.26-.26-.58-.58-1.21z"/><path d="m155.586 404.897c3.6-1.28 3.6-1.28 7.42-9.59.45 3.54.82 6.06 1.09 8.58.28 2.71.54 5.42.67 8.14.18 3.68.19 7.36.38 11 .07 1.46-.56 3.69 1.88 3.65 2.16 0 2.16-2.19 2.13-3.69-.09-5.43-.29-10.87-.64-16.3-.2-3-.77-6-1.25-9.54 3.82 3.08 4.65 8.13 9.32 10.68-.09-1.61.12-2.73-.24-3.62-2.581-6.571-6.193-12.687-10.7-18.12-.404-.498-.868-.945-1.38-1.33-1.92-1.34-4-.9-4.62 1.32-1.69 5.83-3.13 11.73-4.64 17.61-.05.26.26.58.58 1.21z"/></g></svg>