<svg width="395" height="498" viewBox="0 0 395 498" fill="none" xmlns="http://www.w3.org/2000/svg">
<path d="M1.184 16.832C1.184 14.656 1.68533 12.704 2.688 10.976C3.712 9.248 5.088 7.904 6.816 6.944C8.56533 5.96266 10.4747 5.472 12.544 5.472C14.912 5.472 17.0133 6.05866 18.848 7.232C20.704 8.384 22.048 10.0267 22.88 12.16H18.496C17.92 10.9867 17.12 10.112 16.096 9.536C15.072 8.96 13.888 8.672 12.544 8.672C11.072 8.672 9.76 9.00267 8.608 9.664C7.456 10.3253 6.54933 11.2747 5.888 12.512C5.248 13.7493 4.928 15.1893 4.928 16.832C4.928 18.4747 5.248 19.9147 5.888 21.152C6.54933 22.3893 7.456 23.3493 8.608 24.032C9.76 24.6933 11.072 25.024 12.544 25.024C13.888 25.024 15.072 24.736 16.096 24.16C17.12 23.584 17.92 22.7093 18.496 21.536H22.88C22.048 23.6693 20.704 25.312 18.848 26.464C17.0133 27.616 14.912 28.192 12.544 28.192C10.4533 28.192 8.544 27.712 6.816 26.752C5.088 25.7707 3.712 24.416 2.688 22.688C1.68533 20.96 1.184 19.008 1.184 16.832ZM34.798 28.288C33.134 28.288 31.63 27.9147 30.286 27.168C28.942 26.4 27.886 25.3333 27.118 23.968C26.35 22.5813 25.966 20.9813 25.966 19.168C25.966 17.376 26.3607 15.7867 27.15 14.4C27.9393 13.0133 29.0167 11.9467 30.382 11.2C31.7473 10.4533 33.2727 10.08 34.958 10.08C36.6433 10.08 38.1687 10.4533 39.534 11.2C40.8993 11.9467 41.9767 13.0133 42.766 14.4C43.5553 15.7867 43.95 17.376 43.95 19.168C43.95 20.96 43.5447 22.5493 42.734 23.936C41.9233 25.3227 40.814 26.4 39.406 27.168C38.0193 27.9147 36.4833 28.288 34.798 28.288ZM34.798 25.12C35.7367 25.12 36.6113 24.896 37.422 24.448C38.254 24 38.926 23.328 39.438 22.432C39.95 21.536 40.206 20.448 40.206 19.168C40.206 17.888 39.9607 16.8107 39.47 15.936C38.9793 15.04 38.3287 14.368 37.518 13.92C36.7073 13.472 35.8327 13.248 34.894 13.248C33.9553 13.248 33.0807 13.472 32.27 13.92C31.4807 14.368 30.8513 15.04 30.382 15.936C29.9127 16.8107 29.678 17.888 29.678 19.168C29.678 21.0667 30.158 22.5387 31.118 23.584C32.0993 24.608 33.326 25.12 34.798 25.12ZM68.9003 10.08C70.2869 10.08 71.5243 10.368 72.6123 10.944C73.7216 11.52 74.5856 12.3733 75.2043 13.504C75.8443 14.6347 76.1643 16 76.1643 17.6V28H72.5483V18.144C72.5483 16.5653 72.1536 15.36 71.3643 14.528C70.5749 13.6747 69.4976 13.248 68.1323 13.248C66.7669 13.248 65.6789 13.6747 64.8683 14.528C64.0789 15.36 63.6843 16.5653 63.6843 18.144V28H60.0683V18.144C60.0683 16.5653 59.6736 15.36 58.8843 14.528C58.0949 13.6747 57.0176 13.248 55.6523 13.248C54.2869 13.248 53.1989 13.6747 52.3883 14.528C51.5989 15.36 51.2043 16.5653 51.2043 18.144V28H47.5563V10.368H51.2043V12.384C51.8016 11.6587 52.5589 11.0933 53.4763 10.688C54.3936 10.2827 55.3749 10.08 56.4203 10.08C57.8283 10.08 59.0869 10.3787 60.1963 10.976C61.3056 11.5733 62.1589 12.4373 62.7563 13.568C63.2896 12.5013 64.1216 11.6587 65.2523 11.04C66.3829 10.4 67.5989 10.08 68.9003 10.08ZM102.15 10.08C103.537 10.08 104.774 10.368 105.862 10.944C106.972 11.52 107.836 12.3733 108.454 13.504C109.094 14.6347 109.414 16 109.414 17.6V28H105.798V18.144C105.798 16.5653 105.404 15.36 104.614 14.528C103.825 13.6747 102.748 13.248 101.382 13.248C100.017 13.248 98.9289 13.6747 98.1183 14.528C97.3289 15.36 96.9343 16.5653 96.9343 18.144V28H93.3183V18.144C93.3183 16.5653 92.9236 15.36 92.1343 14.528C91.3449 13.6747 90.2676 13.248 88.9023 13.248C87.5369 13.248 86.4489 13.6747 85.6383 14.528C84.8489 15.36 84.4543 16.5653 84.4543 18.144V28H80.8063V10.368H84.4543V12.384C85.0516 11.6587 85.8089 11.0933 86.7263 10.688C87.6436 10.2827 88.6249 10.08 89.6703 10.08C91.0783 10.08 92.3369 10.3787 93.4463 10.976C94.5556 11.5733 95.4089 12.4373 96.0063 13.568C96.5396 12.5013 97.3716 11.6587 98.5023 11.04C99.6329 10.4 100.849 10.08 102.15 10.08ZM130.216 18.752C130.216 19.4133 130.174 20.0107 130.088 20.544H116.616C116.723 21.952 117.246 23.0827 118.184 23.936C119.123 24.7893 120.275 25.216 121.64 25.216C123.603 25.216 124.99 24.3947 125.8 22.752H129.736C129.203 24.3733 128.232 25.7067 126.824 26.752C125.438 27.776 123.71 28.288 121.64 28.288C119.955 28.288 118.44 27.9147 117.096 27.168C115.774 26.4 114.728 25.3333 113.96 23.968C113.214 22.5813 112.84 20.9813 112.84 19.168C112.84 17.3547 113.203 15.7653 113.928 14.4C114.675 13.0133 115.71 11.9467 117.032 11.2C118.376 10.4533 119.912 10.08 121.64 10.08C123.304 10.08 124.787 10.4427 126.088 11.168C127.39 11.8933 128.403 12.9173 129.128 14.24C129.854 15.5413 130.216 17.0453 130.216 18.752ZM126.408 17.6C126.387 16.256 125.907 15.1787 124.968 14.368C124.03 13.5573 122.867 13.152 121.48 13.152C120.222 13.152 119.144 13.5573 118.248 14.368C117.352 15.1573 116.819 16.2347 116.648 17.6H126.408ZM142.702 10.08C144.089 10.08 145.326 10.368 146.414 10.944C147.524 11.52 148.388 12.3733 149.006 13.504C149.625 14.6347 149.934 16 149.934 17.6V28H146.318V18.144C146.318 16.5653 145.924 15.36 145.134 14.528C144.345 13.6747 143.268 13.248 141.902 13.248C140.537 13.248 139.449 13.6747 138.638 14.528C137.849 15.36 137.454 16.5653 137.454 18.144V28H133.806V10.368H137.454V12.384C138.052 11.6587 138.809 11.0933 139.726 10.688C140.665 10.2827 141.657 10.08 142.702 10.08ZM158.844 13.344V23.104C158.844 23.7653 158.993 24.2453 159.292 24.544C159.612 24.8213 160.145 24.96 160.892 24.96H163.132V28H160.252C158.609 28 157.35 27.616 156.476 26.848C155.601 26.08 155.164 24.832 155.164 23.104V13.344H153.084V10.368H155.164V5.984H158.844V10.368H163.132V13.344H158.844ZM182.23 25.216C184.342 25.216 185.74 24.288 186.422 22.432H190.358C189.889 24.0533 189.046 25.3867 187.83 26.432C186.636 27.456 185.132 28.0533 183.318 28.224V29.536C184.556 29.536 185.558 29.824 186.326 30.4C187.094 30.9973 187.478 31.8293 187.478 32.896C187.478 33.9627 187.094 34.8053 186.326 35.424C185.558 36.064 184.588 36.384 183.414 36.384H179.19V34.08H182.678C183.276 34.08 183.724 33.9947 184.022 33.824C184.321 33.6533 184.47 33.344 184.47 32.896C184.47 32.448 184.321 32.1387 184.022 31.968C183.724 31.7973 183.276 31.712 182.678 31.712H180.918V28.192C179.468 28.0213 178.188 27.5413 177.078 26.752C175.969 25.9413 175.105 24.896 174.486 23.616C173.889 22.3147 173.59 20.832 173.59 19.168C173.59 17.3547 173.953 15.7653 174.678 14.4C175.425 13.0133 176.449 11.9467 177.75 11.2C179.052 10.4533 180.545 10.08 182.23 10.08C184.364 10.08 186.124 10.592 187.51 11.616C188.918 12.6187 189.868 14.0587 190.358 15.936H186.422C186.102 15.0613 185.59 14.3787 184.886 13.888C184.182 13.3973 183.297 13.152 182.23 13.152C180.737 13.152 179.542 13.6853 178.646 14.752C177.772 15.7973 177.334 17.2693 177.334 19.168C177.334 21.0667 177.772 22.5493 178.646 23.616C179.542 24.6827 180.737 25.216 182.23 25.216ZM192.778 19.104C192.778 17.3333 193.14 15.7653 193.866 14.4C194.612 13.0347 195.615 11.9787 196.874 11.232C198.154 10.464 199.562 10.08 201.098 10.08C202.484 10.08 203.69 10.3573 204.714 10.912C205.759 11.4453 206.591 12.1173 207.21 12.928V10.368H210.89V28H207.21V25.376C206.591 26.208 205.748 26.9013 204.682 27.456C203.615 28.0107 202.399 28.288 201.034 28.288C199.519 28.288 198.132 27.904 196.874 27.136C195.615 26.3467 194.612 25.2587 193.866 23.872C193.14 22.464 192.778 20.8747 192.778 19.104ZM207.21 19.168C207.21 17.952 206.954 16.896 206.442 16C205.951 15.104 205.3 14.4213 204.49 13.952C203.679 13.4827 202.804 13.248 201.866 13.248C200.927 13.248 200.052 13.4827 199.242 13.952C198.431 14.4 197.77 15.072 197.258 15.968C196.767 16.8427 196.522 17.888 196.522 19.104C196.522 20.32 196.767 21.3867 197.258 22.304C197.77 23.2213 198.431 23.9253 199.242 24.416C200.074 24.8853 200.948 25.12 201.866 25.12C202.804 25.12 203.679 24.8853 204.49 24.416C205.3 23.9467 205.951 23.264 206.442 22.368C206.954 21.4507 207.21 20.384 207.21 19.168ZM231.386 13.344H228.122V28H224.442V13.344H222.362V10.368H224.442V9.12C224.442 7.09333 224.975 5.62133 226.042 4.704C227.13 3.76533 228.826 3.296 231.13 3.296V6.336C230.02 6.336 229.242 6.54933 228.794 6.976C228.346 7.38133 228.122 8.096 228.122 9.12V10.368H231.386V13.344ZM242.267 28.288C240.603 28.288 239.099 27.9147 237.755 27.168C236.411 26.4 235.355 25.3333 234.587 23.968C233.819 22.5813 233.435 20.9813 233.435 19.168C233.435 17.376 233.829 15.7867 234.619 14.4C235.408 13.0133 236.485 11.9467 237.851 11.2C239.216 10.4533 240.741 10.08 242.427 10.08C244.112 10.08 245.637 10.4533 247.003 11.2C248.368 11.9467 249.445 13.0133 250.235 14.4C251.024 15.7867 251.419 17.376 251.419 19.168C251.419 20.96 251.013 22.5493 250.203 23.936C249.392 25.3227 248.283 26.4 246.875 27.168C245.488 27.9147 243.952 28.288 242.267 28.288ZM242.267 25.12C243.205 25.12 244.08 24.896 244.891 24.448C245.723 24 246.395 23.328 246.907 22.432C247.419 21.536 247.675 20.448 247.675 19.168C247.675 17.888 247.429 16.8107 246.939 15.936C246.448 15.04 245.797 14.368 244.987 13.92C244.176 13.472 243.301 13.248 242.363 13.248C241.424 13.248 240.549 13.472 239.739 13.92C238.949 14.368 238.32 15.04 237.851 15.936C237.381 16.8107 237.147 17.888 237.147 19.168C237.147 21.0667 237.627 22.5387 238.587 23.584C239.568 24.608 240.795 25.12 242.267 25.12ZM263.921 10.08C265.308 10.08 266.545 10.368 267.633 10.944C268.742 11.52 269.606 12.3733 270.225 13.504C270.844 14.6347 271.153 16 271.153 17.6V28H267.537V18.144C267.537 16.5653 267.142 15.36 266.353 14.528C265.564 13.6747 264.486 13.248 263.121 13.248C261.756 13.248 260.668 13.6747 259.857 14.528C259.068 15.36 258.673 16.5653 258.673 18.144V28H255.025V10.368H258.673V12.384C259.27 11.6587 260.028 11.0933 260.945 10.688C261.884 10.2827 262.876 10.08 263.921 10.08ZM274.59 19.168C274.59 17.3547 274.953 15.7653 275.678 14.4C276.425 13.0133 277.449 11.9467 278.75 11.2C280.052 10.4533 281.545 10.08 283.23 10.08C285.364 10.08 287.124 10.592 288.51 11.616C289.918 12.6187 290.868 14.0587 291.358 15.936H287.422C287.102 15.0613 286.59 14.3787 285.886 13.888C285.182 13.3973 284.297 13.152 283.23 13.152C281.737 13.152 280.542 13.6853 279.646 14.752C278.772 15.7973 278.334 17.2693 278.334 19.168C278.334 21.0667 278.772 22.5493 279.646 23.616C280.542 24.6827 281.737 25.216 283.23 25.216C285.342 25.216 286.74 24.288 287.422 22.432H291.358C290.846 24.224 289.886 25.6533 288.478 26.72C287.07 27.7653 285.321 28.288 283.23 28.288C281.545 28.288 280.052 27.9147 278.75 27.168C277.449 26.4 276.425 25.3333 275.678 23.968C274.953 22.5813 274.59 20.9813 274.59 19.168ZM299.25 13.344V23.104C299.25 23.7653 299.399 24.2453 299.698 24.544C300.018 24.8213 300.551 24.96 301.298 24.96H303.538V28H300.658C299.015 28 297.756 27.616 296.882 26.848C296.007 26.08 295.57 24.832 295.57 23.104V13.344H293.49V10.368H295.57V5.984H299.25V10.368H303.538V13.344H299.25ZM308.756 8.032C308.095 8.032 307.54 7.808 307.092 7.36C306.644 6.912 306.42 6.35733 306.42 5.696C306.42 5.03467 306.644 4.48 307.092 4.032C307.54 3.584 308.095 3.36 308.756 3.36C309.396 3.36 309.94 3.584 310.388 4.032C310.836 4.48 311.06 5.03467 311.06 5.696C311.06 6.35733 310.836 6.912 310.388 7.36C309.94 7.808 309.396 8.032 308.756 8.032ZM310.548 10.368V28H306.9V10.368H310.548ZM322.986 28.288C321.322 28.288 319.818 27.9147 318.474 27.168C317.13 26.4 316.074 25.3333 315.306 23.968C314.538 22.5813 314.154 20.9813 314.154 19.168C314.154 17.376 314.548 15.7867 315.338 14.4C316.127 13.0133 317.204 11.9467 318.57 11.2C319.935 10.4533 321.46 10.08 323.146 10.08C324.831 10.08 326.356 10.4533 327.722 11.2C329.087 11.9467 330.164 13.0133 330.954 14.4C331.743 15.7867 332.138 17.376 332.138 19.168C332.138 20.96 331.732 22.5493 330.922 23.936C330.111 25.3227 329.002 26.4 327.594 27.168C326.207 27.9147 324.671 28.288 322.986 28.288ZM322.986 25.12C323.924 25.12 324.799 24.896 325.61 24.448C326.442 24 327.114 23.328 327.626 22.432C328.138 21.536 328.394 20.448 328.394 19.168C328.394 17.888 328.148 16.8107 327.658 15.936C327.167 15.04 326.516 14.368 325.706 13.92C324.895 13.472 324.02 13.248 323.082 13.248C322.143 13.248 321.268 13.472 320.458 13.92C319.668 14.368 319.039 15.04 318.57 15.936C318.1 16.8107 317.866 17.888 317.866 19.168C317.866 21.0667 318.346 22.5387 319.306 23.584C320.287 24.608 321.514 25.12 322.986 25.12ZM344.64 10.08C346.026 10.08 347.264 10.368 348.352 10.944C349.461 11.52 350.325 12.3733 350.944 13.504C351.562 14.6347 351.872 16 351.872 17.6V28H348.256V18.144C348.256 16.5653 347.861 15.36 347.072 14.528C346.282 13.6747 345.205 13.248 343.84 13.248C342.474 13.248 341.386 13.6747 340.576 14.528C339.786 15.36 339.392 16.5653 339.392 18.144V28H335.744V10.368H339.392V12.384C339.989 11.6587 340.746 11.0933 341.664 10.688C342.602 10.2827 343.594 10.08 344.64 10.08ZM365.421 10.08C366.808 10.08 368.045 10.368 369.133 10.944C370.242 11.52 371.106 12.3733 371.725 13.504C372.344 14.6347 372.653 16 372.653 17.6V28H369.037V18.144C369.037 16.5653 368.642 15.36 367.853 14.528C367.064 13.6747 365.986 13.248 364.621 13.248C363.256 13.248 362.168 13.6747 361.357 14.528C360.568 15.36 360.173 16.5653 360.173 18.144V28H356.525V10.368H360.173V12.384C360.77 11.6587 361.528 11.0933 362.445 10.688C363.384 10.2827 364.376 10.08 365.421 10.08ZM393.466 18.752C393.466 19.4133 393.424 20.0107 393.338 20.544H379.866C379.973 21.952 380.496 23.0827 381.434 23.936C382.373 24.7893 383.525 25.216 384.89 25.216C386.853 25.216 388.24 24.3947 389.05 22.752H392.986C392.453 24.3733 391.482 25.7067 390.074 26.752C388.688 27.776 386.96 28.288 384.89 28.288C383.205 28.288 381.69 27.9147 380.346 27.168C379.024 26.4 377.978 25.3333 377.21 23.968C376.464 22.5813 376.09 20.9813 376.09 19.168C376.09 17.3547 376.453 15.7653 377.178 14.4C377.925 13.0133 378.96 11.9467 380.282 11.2C381.626 10.4533 383.162 10.08 384.89 10.08C386.554 10.08 388.037 10.4427 389.338 11.168C390.64 11.8933 391.653 12.9173 392.378 14.24C393.104 15.5413 393.466 17.0453 393.466 18.752ZM389.658 17.6C389.637 16.256 389.157 15.1787 388.218 14.368C387.28 13.5573 386.117 13.152 384.73 13.152C383.472 13.152 382.394 13.5573 381.498 14.368C380.602 15.1573 380.069 16.2347 379.898 17.6H389.658Z" fill="#C1C1C1"/>
<rect x="54" y="74" width="288" height="116" rx="58" fill="#BA27ED"/>
<path d="M150.036 106.228C150.036 104.324 150.475 102.616 151.352 101.104C152.248 99.592 153.452 98.416 154.964 97.576C156.495 96.7173 158.165 96.288 159.976 96.288C162.048 96.288 163.887 96.8013 165.492 97.828C167.116 98.836 168.292 100.273 169.02 102.14H165.184C164.68 101.113 163.98 100.348 163.084 99.844C162.188 99.34 161.152 99.088 159.976 99.088C158.688 99.088 157.54 99.3773 156.532 99.956C155.524 100.535 154.731 101.365 154.152 102.448C153.592 103.531 153.312 104.791 153.312 106.228C153.312 107.665 153.592 108.925 154.152 110.008C154.731 111.091 155.524 111.931 156.532 112.528C157.54 113.107 158.688 113.396 159.976 113.396C161.152 113.396 162.188 113.144 163.084 112.64C163.98 112.136 164.68 111.371 165.184 110.344H169.02C168.292 112.211 167.116 113.648 165.492 114.656C163.887 115.664 162.048 116.168 159.976 116.168C158.147 116.168 156.476 115.748 154.964 114.908C153.452 114.049 152.248 112.864 151.352 111.352C150.475 109.84 150.036 108.132 150.036 106.228ZM175.948 95.28V116H172.756V95.28H175.948ZM181.763 98.528C181.184 98.528 180.699 98.332 180.307 97.94C179.915 97.548 179.719 97.0627 179.719 96.484C179.719 95.9053 179.915 95.42 180.307 95.028C180.699 94.636 181.184 94.44 181.763 94.44C182.323 94.44 182.799 94.636 183.191 95.028C183.583 95.42 183.779 95.9053 183.779 96.484C183.779 97.0627 183.583 97.548 183.191 97.94C182.799 98.332 182.323 98.528 181.763 98.528ZM183.331 100.572V116H180.139V100.572H183.331ZM201.662 107.908C201.662 108.487 201.625 109.009 201.55 109.476H189.762C189.855 110.708 190.313 111.697 191.134 112.444C191.955 113.191 192.963 113.564 194.158 113.564C195.875 113.564 197.089 112.845 197.798 111.408H201.242C200.775 112.827 199.926 113.993 198.694 114.908C197.481 115.804 195.969 116.252 194.158 116.252C192.683 116.252 191.358 115.925 190.182 115.272C189.025 114.6 188.11 113.667 187.438 112.472C186.785 111.259 186.458 109.859 186.458 108.272C186.458 106.685 186.775 105.295 187.41 104.1C188.063 102.887 188.969 101.953 190.126 101.3C191.302 100.647 192.646 100.32 194.158 100.32C195.614 100.32 196.911 100.637 198.05 101.272C199.189 101.907 200.075 102.803 200.71 103.96C201.345 105.099 201.662 106.415 201.662 107.908ZM198.33 106.9C198.311 105.724 197.891 104.781 197.07 104.072C196.249 103.363 195.231 103.008 194.018 103.008C192.917 103.008 191.974 103.363 191.19 104.072C190.406 104.763 189.939 105.705 189.79 106.9H198.33ZM212.587 100.32C213.8 100.32 214.883 100.572 215.835 101.076C216.806 101.58 217.562 102.327 218.103 103.316C218.644 104.305 218.915 105.5 218.915 106.9V116H215.751V107.376C215.751 105.995 215.406 104.94 214.715 104.212C214.024 103.465 213.082 103.092 211.887 103.092C210.692 103.092 209.74 103.465 209.031 104.212C208.34 104.94 207.995 105.995 207.995 107.376V116H204.803V100.572H207.995V102.336C208.518 101.701 209.18 101.207 209.983 100.852C210.804 100.497 211.672 100.32 212.587 100.32ZM226.711 103.176V111.716C226.711 112.295 226.841 112.715 227.103 112.976C227.383 113.219 227.849 113.34 228.503 113.34H230.463V116H227.943C226.505 116 225.404 115.664 224.639 114.992C223.873 114.32 223.491 113.228 223.491 111.716V103.176H221.671V100.572H223.491V96.736H226.711V100.572H230.463V103.176H226.711ZM239.005 116.252C237.791 116.252 236.699 116.037 235.729 115.608C234.777 115.16 234.021 114.563 233.461 113.816C232.901 113.051 232.602 112.201 232.565 111.268H235.869C235.925 111.921 236.233 112.472 236.793 112.92C237.371 113.349 238.09 113.564 238.949 113.564C239.845 113.564 240.535 113.396 241.021 113.06C241.525 112.705 241.777 112.257 241.777 111.716C241.777 111.137 241.497 110.708 240.937 110.428C240.395 110.148 239.527 109.84 238.333 109.504C237.175 109.187 236.233 108.879 235.505 108.58C234.777 108.281 234.142 107.824 233.601 107.208C233.078 106.592 232.817 105.78 232.817 104.772C232.817 103.951 233.059 103.204 233.545 102.532C234.03 101.841 234.721 101.3 235.617 100.908C236.531 100.516 237.577 100.32 238.753 100.32C240.507 100.32 241.917 100.768 242.981 101.664C244.063 102.541 244.642 103.745 244.717 105.276H241.525C241.469 104.585 241.189 104.035 240.685 103.624C240.181 103.213 239.499 103.008 238.641 103.008C237.801 103.008 237.157 103.167 236.709 103.484C236.261 103.801 236.037 104.221 236.037 104.744C236.037 105.155 236.186 105.5 236.485 105.78C236.783 106.06 237.147 106.284 237.577 106.452C238.006 106.601 238.641 106.797 239.481 107.04C240.601 107.339 241.515 107.647 242.225 107.964C242.953 108.263 243.578 108.711 244.101 109.308C244.623 109.905 244.894 110.699 244.913 111.688C244.913 112.565 244.67 113.349 244.185 114.04C243.699 114.731 243.009 115.272 242.113 115.664C241.235 116.056 240.199 116.252 239.005 116.252Z" fill="white"/>
<path d="M88.5437 147.112C87.797 147.112 87.125 146.984 86.5277 146.728C85.9304 146.461 85.461 146.088 85.1197 145.608C84.7784 145.128 84.6077 144.568 84.6077 143.928H86.5597C86.6024 144.408 86.789 144.803 87.1197 145.112C87.461 145.421 87.9357 145.576 88.5437 145.576C89.173 145.576 89.6637 145.427 90.0157 145.128C90.3677 144.819 90.5437 144.424 90.5437 143.944C90.5437 143.571 90.4317 143.267 90.2077 143.032C89.9944 142.797 89.7224 142.616 89.3917 142.488C89.0717 142.36 88.6237 142.221 88.0477 142.072C87.3224 141.88 86.7304 141.688 86.2717 141.496C85.8237 141.293 85.4397 140.984 85.1197 140.568C84.7997 140.152 84.6397 139.597 84.6397 138.904C84.6397 138.264 84.7997 137.704 85.1197 137.224C85.4397 136.744 85.8877 136.376 86.4637 136.12C87.0397 135.864 87.7064 135.736 88.4637 135.736C89.541 135.736 90.421 136.008 91.1037 136.552C91.797 137.085 92.181 137.821 92.2557 138.76H90.2397C90.2077 138.355 90.0157 138.008 89.6637 137.72C89.3117 137.432 88.8477 137.288 88.2717 137.288C87.749 137.288 87.3224 137.421 86.9917 137.688C86.661 137.955 86.4957 138.339 86.4957 138.84C86.4957 139.181 86.597 139.464 86.7997 139.688C87.013 139.901 87.2797 140.072 87.5997 140.2C87.9197 140.328 88.357 140.467 88.9117 140.616C89.6477 140.819 90.245 141.021 90.7037 141.224C91.173 141.427 91.5677 141.741 91.8877 142.168C92.2184 142.584 92.3837 143.144 92.3837 143.848C92.3837 144.413 92.229 144.947 91.9197 145.448C91.621 145.949 91.1784 146.355 90.5917 146.664C90.0157 146.963 89.333 147.112 88.5437 147.112ZM93.9279 142.552C93.9279 141.667 94.1093 140.883 94.4719 140.2C94.8453 139.517 95.3466 138.989 95.9759 138.616C96.6159 138.232 97.3199 138.04 98.0879 138.04C98.7813 138.04 99.3839 138.179 99.8959 138.456C100.419 138.723 100.835 139.059 101.144 139.464V138.184H102.984V147H101.144V145.688C100.835 146.104 100.413 146.451 99.8799 146.728C99.3466 147.005 98.7386 147.144 98.0559 147.144C97.2986 147.144 96.6053 146.952 95.9759 146.568C95.3466 146.173 94.8453 145.629 94.4719 144.936C94.1093 144.232 93.9279 143.437 93.9279 142.552ZM101.144 142.584C101.144 141.976 101.016 141.448 100.76 141C100.515 140.552 100.189 140.211 99.7839 139.976C99.3786 139.741 98.9413 139.624 98.4719 139.624C98.0026 139.624 97.5653 139.741 97.1599 139.976C96.7546 140.2 96.4239 140.536 96.1679 140.984C95.9226 141.421 95.7999 141.944 95.7999 142.552C95.7999 143.16 95.9226 143.693 96.1679 144.152C96.4239 144.611 96.7546 144.963 97.1599 145.208C97.5759 145.443 98.0133 145.56 98.4719 145.56C98.9413 145.56 99.3786 145.443 99.7839 145.208C100.189 144.973 100.515 144.632 100.76 144.184C101.016 143.725 101.144 143.192 101.144 142.584ZM106.308 137.016C105.977 137.016 105.7 136.904 105.476 136.68C105.252 136.456 105.14 136.179 105.14 135.848C105.14 135.517 105.252 135.24 105.476 135.016C105.7 134.792 105.977 134.68 106.308 134.68C106.628 134.68 106.9 134.792 107.124 135.016C107.348 135.24 107.46 135.517 107.46 135.848C107.46 136.179 107.348 136.456 107.124 136.68C106.9 136.904 106.628 137.016 106.308 137.016ZM107.204 138.184V147H105.38V138.184H107.204ZM112.798 147.144C112.105 147.144 111.481 147.021 110.926 146.776C110.382 146.52 109.95 146.179 109.63 145.752C109.31 145.315 109.14 144.829 109.118 144.296H111.006C111.038 144.669 111.214 144.984 111.534 145.24C111.865 145.485 112.276 145.608 112.766 145.608C113.278 145.608 113.673 145.512 113.95 145.32C114.238 145.117 114.382 144.861 114.382 144.552C114.382 144.221 114.222 143.976 113.902 143.816C113.593 143.656 113.097 143.48 112.414 143.288C111.753 143.107 111.214 142.931 110.798 142.76C110.382 142.589 110.02 142.328 109.71 141.976C109.412 141.624 109.262 141.16 109.262 140.584C109.262 140.115 109.401 139.688 109.678 139.304C109.956 138.909 110.35 138.6 110.862 138.376C111.385 138.152 111.982 138.04 112.654 138.04C113.657 138.04 114.462 138.296 115.07 138.808C115.689 139.309 116.02 139.997 116.062 140.872H114.238C114.206 140.477 114.046 140.163 113.758 139.928C113.47 139.693 113.081 139.576 112.59 139.576C112.11 139.576 111.742 139.667 111.486 139.848C111.23 140.029 111.102 140.269 111.102 140.568C111.102 140.803 111.188 141 111.358 141.16C111.529 141.32 111.737 141.448 111.982 141.544C112.228 141.629 112.59 141.741 113.07 141.88C113.71 142.051 114.233 142.227 114.638 142.408C115.054 142.579 115.412 142.835 115.71 143.176C116.009 143.517 116.164 143.971 116.174 144.536C116.174 145.037 116.036 145.485 115.758 145.88C115.481 146.275 115.086 146.584 114.574 146.808C114.073 147.032 113.481 147.144 112.798 147.144ZM119.073 137.016C118.743 137.016 118.465 136.904 118.241 136.68C118.017 136.456 117.905 136.179 117.905 135.848C117.905 135.517 118.017 135.24 118.241 135.016C118.465 134.792 118.743 134.68 119.073 134.68C119.393 134.68 119.665 134.792 119.889 135.016C120.113 135.24 120.225 135.517 120.225 135.848C120.225 136.179 120.113 136.456 119.889 136.68C119.665 136.904 119.393 137.016 119.073 137.016ZM119.969 138.184V147H118.145V138.184H119.969ZM125.564 147.144C124.871 147.144 124.247 147.021 123.692 146.776C123.148 146.52 122.716 146.179 122.396 145.752C122.076 145.315 121.905 144.829 121.884 144.296H123.772C123.804 144.669 123.98 144.984 124.3 145.24C124.631 145.485 125.041 145.608 125.532 145.608C126.044 145.608 126.439 145.512 126.716 145.32C127.004 145.117 127.148 144.861 127.148 144.552C127.148 144.221 126.988 143.976 126.668 143.816C126.359 143.656 125.863 143.48 125.18 143.288C124.519 143.107 123.98 142.931 123.564 142.76C123.148 142.589 122.785 142.328 122.476 141.976C122.177 141.624 122.028 141.16 122.028 140.584C122.028 140.115 122.167 139.688 122.444 139.304C122.721 138.909 123.116 138.6 123.628 138.376C124.151 138.152 124.748 138.04 125.42 138.04C126.423 138.04 127.228 138.296 127.836 138.808C128.455 139.309 128.785 139.997 128.828 140.872H127.004C126.972 140.477 126.812 140.163 126.524 139.928C126.236 139.693 125.847 139.576 125.356 139.576C124.876 139.576 124.508 139.667 124.252 139.848C123.996 140.029 123.868 140.269 123.868 140.568C123.868 140.803 123.953 141 124.124 141.16C124.295 141.32 124.503 141.448 124.748 141.544C124.993 141.629 125.356 141.741 125.836 141.88C126.476 142.051 126.999 142.227 127.404 142.408C127.82 142.579 128.177 142.835 128.476 143.176C128.775 143.517 128.929 143.971 128.94 144.536C128.94 145.037 128.801 145.485 128.524 145.88C128.247 146.275 127.852 146.584 127.34 146.808C126.839 147.032 126.247 147.144 125.564 147.144ZM134.111 147.144C133.418 147.144 132.794 147.021 132.239 146.776C131.695 146.52 131.263 146.179 130.943 145.752C130.623 145.315 130.452 144.829 130.431 144.296H132.319C132.351 144.669 132.527 144.984 132.847 145.24C133.178 145.485 133.588 145.608 134.079 145.608C134.591 145.608 134.986 145.512 135.263 145.32C135.551 145.117 135.695 144.861 135.695 144.552C135.695 144.221 135.535 143.976 135.215 143.816C134.906 143.656 134.41 143.48 133.727 143.288C133.066 143.107 132.527 142.931 132.111 142.76C131.695 142.589 131.332 142.328 131.023 141.976C130.724 141.624 130.575 141.16 130.575 140.584C130.575 140.115 130.714 139.688 130.991 139.304C131.268 138.909 131.663 138.6 132.175 138.376C132.698 138.152 133.295 138.04 133.967 138.04C134.97 138.04 135.775 138.296 136.383 138.808C137.002 139.309 137.332 139.997 137.375 140.872H135.551C135.519 140.477 135.359 140.163 135.071 139.928C134.783 139.693 134.394 139.576 133.903 139.576C133.423 139.576 133.055 139.667 132.799 139.848C132.543 140.029 132.415 140.269 132.415 140.568C132.415 140.803 132.5 141 132.671 141.16C132.842 141.32 133.05 141.448 133.295 141.544C133.54 141.629 133.903 141.741 134.383 141.88C135.023 142.051 135.546 142.227 135.951 142.408C136.367 142.579 136.724 142.835 137.023 143.176C137.322 143.517 137.476 143.971 137.487 144.536C137.487 145.037 137.348 145.485 137.071 145.88C136.794 146.275 136.399 146.584 135.887 146.808C135.386 147.032 134.794 147.144 134.111 147.144ZM147.538 142.376C147.538 142.707 147.516 143.005 147.474 143.272H140.738C140.791 143.976 141.052 144.541 141.522 144.968C141.991 145.395 142.567 145.608 143.25 145.608C144.231 145.608 144.924 145.197 145.33 144.376H147.298C147.031 145.187 146.546 145.853 145.842 146.376C145.148 146.888 144.284 147.144 143.25 147.144C142.407 147.144 141.65 146.957 140.978 146.584C140.316 146.2 139.794 145.667 139.41 144.984C139.036 144.291 138.85 143.491 138.85 142.584C138.85 141.677 139.031 140.883 139.394 140.2C139.767 139.507 140.284 138.973 140.946 138.6C141.618 138.227 142.386 138.04 143.25 138.04C144.082 138.04 144.823 138.221 145.474 138.584C146.124 138.947 146.631 139.459 146.994 140.12C147.356 140.771 147.538 141.523 147.538 142.376ZM145.634 141.8C145.623 141.128 145.383 140.589 144.914 140.184C144.444 139.779 143.863 139.576 143.17 139.576C142.54 139.576 142.002 139.779 141.554 140.184C141.106 140.579 140.839 141.117 140.754 141.8H145.634ZM150.949 145.512H154.949V147H148.837V145.512L152.853 139.672H148.837V138.184H154.949V139.672L150.949 145.512ZM165.468 138.04C166.162 138.04 166.78 138.184 167.324 138.472C167.879 138.76 168.311 139.187 168.62 139.752C168.93 140.317 169.084 141 169.084 141.8V147H167.276V142.072C167.276 141.283 167.079 140.68 166.684 140.264C166.29 139.837 165.751 139.624 165.068 139.624C164.386 139.624 163.842 139.837 163.436 140.264C163.042 140.68 162.844 141.283 162.844 142.072V147H161.02V138.184H162.844V139.192C163.143 138.829 163.522 138.547 163.98 138.344C164.45 138.141 164.946 138.04 165.468 138.04ZM172.403 134.248L172.211 137.528H170.963L170.755 134.248H172.403ZM175.089 137.016C174.758 137.016 174.481 136.904 174.257 136.68C174.033 136.456 173.921 136.179 173.921 135.848C173.921 135.517 174.033 135.24 174.257 135.016C174.481 134.792 174.758 134.68 175.089 134.68C175.409 134.68 175.681 134.792 175.905 135.016C176.129 135.24 176.241 135.517 176.241 135.848C176.241 136.179 176.129 136.456 175.905 136.68C175.681 136.904 175.409 137.016 175.089 137.016ZM175.985 138.184V147H174.161V138.184H175.985ZM189.052 138.04C189.745 138.04 190.364 138.184 190.908 138.472C191.462 138.76 191.894 139.187 192.204 139.752C192.524 140.317 192.684 141 192.684 141.8V147H190.876V142.072C190.876 141.283 190.678 140.68 190.284 140.264C189.889 139.837 189.35 139.624 188.668 139.624C187.985 139.624 187.441 139.837 187.036 140.264C186.641 140.68 186.444 141.283 186.444 142.072V147H184.636V142.072C184.636 141.283 184.438 140.68 184.044 140.264C183.649 139.837 183.11 139.624 182.428 139.624C181.745 139.624 181.201 139.837 180.796 140.264C180.401 140.68 180.204 141.283 180.204 142.072V147H178.38V138.184H180.204V139.192C180.502 138.829 180.881 138.547 181.34 138.344C181.798 138.141 182.289 138.04 182.812 138.04C183.516 138.04 184.145 138.189 184.7 138.488C185.254 138.787 185.681 139.219 185.98 139.784C186.246 139.251 186.662 138.829 187.228 138.52C187.793 138.2 188.401 138.04 189.052 138.04ZM196.829 139.48C197.138 139.075 197.559 138.733 198.093 138.456C198.626 138.179 199.229 138.04 199.901 138.04C200.669 138.04 201.367 138.232 201.997 138.616C202.637 138.989 203.138 139.517 203.501 140.2C203.863 140.883 204.045 141.667 204.045 142.552C204.045 143.437 203.863 144.232 203.501 144.936C203.138 145.629 202.637 146.173 201.997 146.568C201.367 146.952 200.669 147.144 199.901 147.144C199.229 147.144 198.631 147.011 198.109 146.744C197.586 146.467 197.159 146.125 196.829 145.72V151.192H195.005V138.184H196.829V139.48ZM202.189 142.552C202.189 141.944 202.061 141.421 201.805 140.984C201.559 140.536 201.229 140.2 200.813 139.976C200.407 139.741 199.97 139.624 199.501 139.624C199.042 139.624 198.605 139.741 198.189 139.976C197.783 140.211 197.453 140.552 197.197 141C196.951 141.448 196.829 141.976 196.829 142.584C196.829 143.192 196.951 143.725 197.197 144.184C197.453 144.632 197.783 144.973 198.189 145.208C198.605 145.443 199.042 145.56 199.501 145.56C199.97 145.56 200.407 145.443 200.813 145.208C201.229 144.963 201.559 144.611 201.805 144.152C202.061 143.693 202.189 143.16 202.189 142.552ZM209.672 147.144C208.84 147.144 208.088 146.957 207.416 146.584C206.744 146.2 206.216 145.667 205.832 144.984C205.448 144.291 205.256 143.491 205.256 142.584C205.256 141.688 205.454 140.893 205.848 140.2C206.243 139.507 206.782 138.973 207.464 138.6C208.147 138.227 208.91 138.04 209.752 138.04C210.595 138.04 211.358 138.227 212.04 138.6C212.723 138.973 213.262 139.507 213.656 140.2C214.051 140.893 214.248 141.688 214.248 142.584C214.248 143.48 214.046 144.275 213.64 144.968C213.235 145.661 212.68 146.2 211.976 146.584C211.283 146.957 210.515 147.144 209.672 147.144ZM209.672 145.56C210.142 145.56 210.579 145.448 210.984 145.224C211.4 145 211.736 144.664 211.992 144.216C212.248 143.768 212.376 143.224 212.376 142.584C212.376 141.944 212.254 141.405 212.008 140.968C211.763 140.52 211.438 140.184 211.032 139.96C210.627 139.736 210.19 139.624 209.72 139.624C209.251 139.624 208.814 139.736 208.408 139.96C208.014 140.184 207.699 140.52 207.464 140.968C207.23 141.405 207.112 141.944 207.112 142.584C207.112 143.533 207.352 144.269 207.832 144.792C208.323 145.304 208.936 145.56 209.672 145.56ZM217.876 139.464C218.142 139.016 218.494 138.669 218.932 138.424C219.38 138.168 219.908 138.04 220.516 138.04V139.928H220.052C219.337 139.928 218.793 140.109 218.42 140.472C218.057 140.835 217.876 141.464 217.876 142.36V147H216.052V138.184H217.876V139.464ZM224.32 139.672V144.552C224.32 144.883 224.395 145.123 224.544 145.272C224.704 145.411 224.971 145.48 225.344 145.48H226.464V147H225.024C224.203 147 223.574 146.808 223.136 146.424C222.699 146.04 222.48 145.416 222.48 144.552V139.672H221.44V138.184H222.48V135.992H224.32V138.184H226.464V139.672H224.32ZM236.225 142.376C236.225 142.707 236.204 143.005 236.161 143.272H229.425C229.479 143.976 229.74 144.541 230.209 144.968C230.679 145.395 231.255 145.608 231.937 145.608C232.919 145.608 233.612 145.197 234.017 144.376H235.985C235.719 145.187 235.233 145.853 234.529 146.376C233.836 146.888 232.972 147.144 231.937 147.144C231.095 147.144 230.337 146.957 229.665 146.584C229.004 146.2 228.481 145.667 228.097 144.984C227.724 144.291 227.537 143.491 227.537 142.584C227.537 141.677 227.719 140.883 228.081 140.2C228.455 139.507 228.972 138.973 229.633 138.6C230.305 138.227 231.073 138.04 231.937 138.04C232.769 138.04 233.511 138.221 234.161 138.584C234.812 138.947 235.319 139.459 235.681 140.12C236.044 140.771 236.225 141.523 236.225 142.376ZM234.321 141.8C234.311 141.128 234.071 140.589 233.601 140.184C233.132 139.779 232.551 139.576 231.857 139.576C231.228 139.576 230.689 139.779 230.241 140.184C229.793 140.579 229.527 141.117 229.441 141.8H234.321ZM241.569 142.552C241.569 141.667 241.75 140.883 242.113 140.2C242.486 139.517 242.987 138.989 243.617 138.616C244.257 138.232 244.966 138.04 245.745 138.04C246.427 138.04 247.03 138.179 247.553 138.456C248.086 138.733 248.497 139.069 248.785 139.464V138.184H250.625V151.192H248.785V145.72C248.497 146.115 248.081 146.451 247.537 146.728C246.993 147.005 246.374 147.144 245.681 147.144C244.923 147.144 244.23 146.952 243.601 146.568C242.982 146.173 242.486 145.629 242.113 144.936C241.75 144.232 241.569 143.437 241.569 142.552ZM248.785 142.584C248.785 141.976 248.657 141.448 248.401 141C248.155 140.552 247.83 140.211 247.425 139.976C247.019 139.741 246.582 139.624 246.113 139.624C245.643 139.624 245.206 139.741 244.801 139.976C244.395 140.2 244.065 140.536 243.809 140.984C243.563 141.421 243.441 141.944 243.441 142.552C243.441 143.16 243.563 143.693 243.809 144.152C244.065 144.611 244.395 144.963 244.801 145.208C245.217 145.443 245.654 145.56 246.113 145.56C246.582 145.56 247.019 145.443 247.425 145.208C247.83 144.973 248.155 144.632 248.401 144.184C248.657 143.725 248.785 143.192 248.785 142.584ZM261.004 138.184V147H259.18V145.96C258.892 146.323 258.514 146.611 258.044 146.824C257.586 147.027 257.095 147.128 256.572 147.128C255.879 147.128 255.255 146.984 254.7 146.696C254.156 146.408 253.724 145.981 253.404 145.416C253.095 144.851 252.94 144.168 252.94 143.368V138.184H254.748V143.096C254.748 143.885 254.946 144.493 255.34 144.92C255.735 145.336 256.274 145.544 256.956 145.544C257.639 145.544 258.178 145.336 258.572 144.92C258.978 144.493 259.18 143.885 259.18 143.096V138.184H261.004ZM271.491 142.376C271.491 142.707 271.47 143.005 271.427 143.272H264.691C264.744 143.976 265.006 144.541 265.475 144.968C265.944 145.395 266.52 145.608 267.203 145.608C268.184 145.608 268.878 145.197 269.283 144.376H271.251C270.984 145.187 270.499 145.853 269.795 146.376C269.102 146.888 268.238 147.144 267.203 147.144C266.36 147.144 265.603 146.957 264.931 146.584C264.27 146.2 263.747 145.667 263.363 144.984C262.99 144.291 262.803 143.491 262.803 142.584C262.803 141.677 262.984 140.883 263.347 140.2C263.72 139.507 264.238 138.973 264.899 138.6C265.571 138.227 266.339 138.04 267.203 138.04C268.035 138.04 268.776 138.221 269.427 138.584C270.078 138.947 270.584 139.459 270.947 140.12C271.31 140.771 271.491 141.523 271.491 142.376ZM269.587 141.8C269.576 141.128 269.336 140.589 268.867 140.184C268.398 139.779 267.816 139.576 267.123 139.576C266.494 139.576 265.955 139.779 265.507 140.184C265.059 140.579 264.792 141.117 264.707 141.8H269.587ZM275.11 135.16V147H273.286V135.16H275.11ZM283.485 139.48C283.794 139.075 284.216 138.733 284.749 138.456C285.282 138.179 285.885 138.04 286.557 138.04C287.325 138.04 288.024 138.232 288.653 138.616C289.293 138.989 289.794 139.517 290.157 140.2C290.52 140.883 290.701 141.667 290.701 142.552C290.701 143.437 290.52 144.232 290.157 144.936C289.794 145.629 289.293 146.173 288.653 146.568C288.024 146.952 287.325 147.144 286.557 147.144C285.885 147.144 285.288 147.011 284.765 146.744C284.242 146.467 283.816 146.125 283.485 145.72V151.192H281.661V138.184H283.485V139.48ZM288.845 142.552C288.845 141.944 288.717 141.421 288.461 140.984C288.216 140.536 287.885 140.2 287.469 139.976C287.064 139.741 286.626 139.624 286.157 139.624C285.698 139.624 285.261 139.741 284.845 139.976C284.44 140.211 284.109 140.552 283.853 141C283.608 141.448 283.485 141.976 283.485 142.584C283.485 143.192 283.608 143.725 283.853 144.184C284.109 144.632 284.44 144.973 284.845 145.208C285.261 145.443 285.698 145.56 286.157 145.56C286.626 145.56 287.064 145.443 287.469 145.208C287.885 144.963 288.216 144.611 288.461 144.152C288.717 143.693 288.845 143.16 288.845 142.552ZM294.329 135.16V147H292.505V135.16H294.329ZM296.115 142.552C296.115 141.667 296.297 140.883 296.659 140.2C297.033 139.517 297.534 138.989 298.163 138.616C298.803 138.232 299.507 138.04 300.275 138.04C300.969 138.04 301.571 138.179 302.083 138.456C302.606 138.723 303.022 139.059 303.331 139.464V138.184H305.171V147H303.331V145.688C303.022 146.104 302.601 146.451 302.067 146.728C301.534 147.005 300.926 147.144 300.243 147.144C299.486 147.144 298.793 146.952 298.163 146.568C297.534 146.173 297.033 145.629 296.659 144.936C296.297 144.232 296.115 143.437 296.115 142.552ZM303.331 142.584C303.331 141.976 303.203 141.448 302.947 141C302.702 140.552 302.377 140.211 301.971 139.976C301.566 139.741 301.129 139.624 300.659 139.624C300.19 139.624 299.753 139.741 299.347 139.976C298.942 140.2 298.611 140.536 298.355 140.984C298.11 141.421 297.987 141.944 297.987 142.552C297.987 143.16 298.11 143.693 298.355 144.152C298.611 144.611 298.942 144.963 299.347 145.208C299.763 145.443 300.201 145.56 300.659 145.56C301.129 145.56 301.566 145.443 301.971 145.208C302.377 144.973 302.702 144.632 302.947 144.184C303.203 143.725 303.331 143.192 303.331 142.584ZM309.695 139.672V144.552C309.695 144.883 309.77 145.123 309.919 145.272C310.079 145.411 310.346 145.48 310.719 145.48H311.839V147H310.399C309.578 147 308.949 146.808 308.511 146.424C308.074 146.04 307.855 145.416 307.855 144.552V139.672H306.815V138.184H307.855V135.992H309.695V138.184H311.839V139.672H309.695ZM80.5529 164.552C80.5529 163.667 80.7343 162.883 81.0969 162.2C81.4703 161.517 81.9716 160.989 82.6009 160.616C83.2409 160.232 83.9503 160.04 84.7289 160.04C85.3049 160.04 85.8703 160.168 86.4249 160.424C86.9903 160.669 87.4383 161 87.7689 161.416V157.16H89.6089V169H87.7689V167.672C87.4703 168.099 87.0543 168.451 86.5209 168.728C85.9983 169.005 85.3956 169.144 84.7129 169.144C83.9449 169.144 83.2409 168.952 82.6009 168.568C81.9716 168.173 81.4703 167.629 81.0969 166.936C80.7343 166.232 80.5529 165.437 80.5529 164.552ZM87.7689 164.584C87.7689 163.976 87.6409 163.448 87.3849 163C87.1396 162.552 86.8143 162.211 86.4089 161.976C86.0036 161.741 85.5663 161.624 85.0969 161.624C84.6276 161.624 84.1903 161.741 83.7849 161.976C83.3796 162.2 83.0489 162.536 82.7929 162.984C82.5476 163.421 82.4249 163.944 82.4249 164.552C82.4249 165.16 82.5476 165.693 82.7929 166.152C83.0489 166.611 83.3796 166.963 83.7849 167.208C84.2009 167.443 84.6383 167.56 85.0969 167.56C85.5663 167.56 86.0036 167.443 86.4089 167.208C86.8143 166.973 87.1396 166.632 87.3849 166.184C87.6409 165.725 87.7689 165.192 87.7689 164.584ZM91.3967 164.552C91.3967 163.667 91.578 162.883 91.9407 162.2C92.314 161.517 92.8154 160.989 93.4447 160.616C94.0847 160.232 94.7887 160.04 95.5567 160.04C96.25 160.04 96.8527 160.179 97.3647 160.456C97.8874 160.723 98.3034 161.059 98.6127 161.464V160.184H100.453V169H98.6127V167.688C98.3034 168.104 97.882 168.451 97.3487 168.728C96.8154 169.005 96.2074 169.144 95.5247 169.144C94.7674 169.144 94.074 168.952 93.4447 168.568C92.8154 168.173 92.314 167.629 91.9407 166.936C91.578 166.232 91.3967 165.437 91.3967 164.552ZM98.6127 164.584C98.6127 163.976 98.4847 163.448 98.2287 163C97.9834 162.552 97.658 162.211 97.2527 161.976C96.8474 161.741 96.41 161.624 95.9407 161.624C95.4714 161.624 95.034 161.741 94.6287 161.976C94.2234 162.2 93.8927 162.536 93.6367 162.984C93.3914 163.421 93.2687 163.944 93.2687 164.552C93.2687 165.16 93.3914 165.693 93.6367 166.152C93.8927 166.611 94.2234 166.963 94.6287 167.208C95.0447 167.443 95.482 167.56 95.9407 167.56C96.41 167.56 96.8474 167.443 97.2527 167.208C97.658 166.973 97.9834 166.632 98.2287 166.184C98.4847 165.725 98.6127 165.192 98.6127 164.584ZM107.296 160.04C107.99 160.04 108.608 160.184 109.152 160.472C109.707 160.76 110.139 161.187 110.448 161.752C110.758 162.317 110.912 163 110.912 163.8V169H109.104V164.072C109.104 163.283 108.907 162.68 108.512 162.264C108.118 161.837 107.579 161.624 106.896 161.624C106.214 161.624 105.67 161.837 105.264 162.264C104.87 162.68 104.672 163.283 104.672 164.072V169H102.848V160.184H104.672V161.192C104.971 160.829 105.35 160.547 105.808 160.344C106.278 160.141 106.774 160.04 107.296 160.04ZM116.439 169.144C115.746 169.144 115.122 169.021 114.567 168.776C114.023 168.52 113.591 168.179 113.271 167.752C112.951 167.315 112.78 166.829 112.759 166.296H114.647C114.679 166.669 114.855 166.984 115.175 167.24C115.506 167.485 115.916 167.608 116.407 167.608C116.919 167.608 117.314 167.512 117.591 167.32C117.879 167.117 118.023 166.861 118.023 166.552C118.023 166.221 117.863 165.976 117.543 165.816C117.234 165.656 116.738 165.48 116.055 165.288C115.394 165.107 114.855 164.931 114.439 164.76C114.023 164.589 113.66 164.328 113.351 163.976C113.052 163.624 112.903 163.16 112.903 162.584C112.903 162.115 113.042 161.688 113.319 161.304C113.596 160.909 113.991 160.6 114.503 160.376C115.026 160.152 115.623 160.04 116.295 160.04C117.298 160.04 118.103 160.296 118.711 160.808C119.33 161.309 119.66 161.997 119.703 162.872H117.879C117.847 162.477 117.687 162.163 117.399 161.928C117.111 161.693 116.722 161.576 116.231 161.576C115.751 161.576 115.383 161.667 115.127 161.848C114.871 162.029 114.743 162.269 114.743 162.568C114.743 162.803 114.828 163 114.999 163.16C115.17 163.32 115.378 163.448 115.623 163.544C115.868 163.629 116.231 163.741 116.711 163.88C117.351 164.051 117.874 164.227 118.279 164.408C118.695 164.579 119.052 164.835 119.351 165.176C119.65 165.517 119.804 165.971 119.815 166.536C119.815 167.037 119.676 167.485 119.399 167.88C119.122 168.275 118.727 168.584 118.215 168.808C117.714 169.032 117.122 169.144 116.439 169.144ZM130.39 160.04C131.084 160.04 131.702 160.184 132.246 160.472C132.801 160.76 133.233 161.187 133.542 161.752C133.852 162.317 134.006 163 134.006 163.8V169H132.198V164.072C132.198 163.283 132.001 162.68 131.606 162.264C131.212 161.837 130.673 161.624 129.99 161.624C129.308 161.624 128.764 161.837 128.358 162.264C127.964 162.68 127.766 163.283 127.766 164.072V169H125.942V160.184H127.766V161.192C128.065 160.829 128.444 160.547 128.902 160.344C129.372 160.141 129.868 160.04 130.39 160.04ZM137.325 156.248L137.133 159.528H135.885L135.677 156.248H137.325ZM140.011 159.016C139.68 159.016 139.403 158.904 139.179 158.68C138.955 158.456 138.843 158.179 138.843 157.848C138.843 157.517 138.955 157.24 139.179 157.016C139.403 156.792 139.68 156.68 140.011 156.68C140.331 156.68 140.603 156.792 140.827 157.016C141.051 157.24 141.163 157.517 141.163 157.848C141.163 158.179 141.051 158.456 140.827 158.68C140.603 158.904 140.331 159.016 140.011 159.016ZM140.907 160.184V169H139.083V160.184H140.907ZM153.974 160.04C154.667 160.04 155.286 160.184 155.83 160.472C156.384 160.76 156.816 161.187 157.126 161.752C157.446 162.317 157.606 163 157.606 163.8V169H155.798V164.072C155.798 163.283 155.6 162.68 155.206 162.264C154.811 161.837 154.272 161.624 153.59 161.624C152.907 161.624 152.363 161.837 151.958 162.264C151.563 162.68 151.366 163.283 151.366 164.072V169H149.558V164.072C149.558 163.283 149.36 162.68 148.966 162.264C148.571 161.837 148.032 161.624 147.35 161.624C146.667 161.624 146.123 161.837 145.718 162.264C145.323 162.68 145.126 163.283 145.126 164.072V169H143.302V160.184H145.126V161.192C145.424 160.829 145.803 160.547 146.262 160.344C146.72 160.141 147.211 160.04 147.734 160.04C148.438 160.04 149.067 160.189 149.622 160.488C150.176 160.787 150.603 161.219 150.902 161.784C151.168 161.251 151.584 160.829 152.15 160.52C152.715 160.2 153.323 160.04 153.974 160.04ZM161.751 161.48C162.06 161.075 162.481 160.733 163.015 160.456C163.548 160.179 164.151 160.04 164.823 160.04C165.591 160.04 166.289 160.232 166.919 160.616C167.559 160.989 168.06 161.517 168.423 162.2C168.785 162.883 168.967 163.667 168.967 164.552C168.967 165.437 168.785 166.232 168.423 166.936C168.06 167.629 167.559 168.173 166.919 168.568C166.289 168.952 165.591 169.144 164.823 169.144C164.151 169.144 163.553 169.011 163.031 168.744C162.508 168.467 162.081 168.125 161.751 167.72V173.192H159.927V160.184H161.751V161.48ZM167.111 164.552C167.111 163.944 166.983 163.421 166.727 162.984C166.481 162.536 166.151 162.2 165.735 161.976C165.329 161.741 164.892 161.624 164.423 161.624C163.964 161.624 163.527 161.741 163.111 161.976C162.705 162.211 162.375 162.552 162.119 163C161.873 163.448 161.751 163.976 161.751 164.584C161.751 165.192 161.873 165.725 162.119 166.184C162.375 166.632 162.705 166.973 163.111 167.208C163.527 167.443 163.964 167.56 164.423 167.56C164.892 167.56 165.329 167.443 165.735 167.208C166.151 166.963 166.481 166.611 166.727 166.152C166.983 165.693 167.111 165.16 167.111 164.552ZM174.594 169.144C173.762 169.144 173.01 168.957 172.338 168.584C171.666 168.2 171.138 167.667 170.754 166.984C170.37 166.291 170.178 165.491 170.178 164.584C170.178 163.688 170.376 162.893 170.77 162.2C171.165 161.507 171.704 160.973 172.386 160.6C173.069 160.227 173.832 160.04 174.674 160.04C175.517 160.04 176.28 160.227 176.962 160.6C177.645 160.973 178.184 161.507 178.578 162.2C178.973 162.893 179.17 163.688 179.17 164.584C179.17 165.48 178.968 166.275 178.562 166.968C178.157 167.661 177.602 168.2 176.898 168.584C176.205 168.957 175.437 169.144 174.594 169.144ZM174.594 167.56C175.064 167.56 175.501 167.448 175.906 167.224C176.322 167 176.658 166.664 176.914 166.216C177.17 165.768 177.298 165.224 177.298 164.584C177.298 163.944 177.176 163.405 176.93 162.968C176.685 162.52 176.36 162.184 175.954 161.96C175.549 161.736 175.112 161.624 174.642 161.624C174.173 161.624 173.736 161.736 173.33 161.96C172.936 162.184 172.621 162.52 172.386 162.968C172.152 163.405 172.034 163.944 172.034 164.584C172.034 165.533 172.274 166.269 172.754 166.792C173.245 167.304 173.858 167.56 174.594 167.56ZM182.797 161.464C183.064 161.016 183.416 160.669 183.853 160.424C184.301 160.168 184.829 160.04 185.437 160.04V161.928H184.973C184.259 161.928 183.715 162.109 183.341 162.472C182.979 162.835 182.797 163.464 182.797 164.36V169H180.973V160.184H182.797V161.464ZM189.242 161.672V166.552C189.242 166.883 189.317 167.123 189.466 167.272C189.626 167.411 189.893 167.48 190.266 167.48H191.386V169H189.946C189.125 169 188.495 168.808 188.058 168.424C187.621 168.04 187.402 167.416 187.402 166.552V161.672H186.362V160.184H187.402V157.992H189.242V160.184H191.386V161.672H189.242ZM201.147 164.376C201.147 164.707 201.126 165.005 201.083 165.272H194.347C194.401 165.976 194.662 166.541 195.131 166.968C195.601 167.395 196.177 167.608 196.859 167.608C197.841 167.608 198.534 167.197 198.939 166.376H200.907C200.641 167.187 200.155 167.853 199.451 168.376C198.758 168.888 197.894 169.144 196.859 169.144C196.017 169.144 195.259 168.957 194.587 168.584C193.926 168.2 193.403 167.667 193.019 166.984C192.646 166.291 192.459 165.491 192.459 164.584C192.459 163.677 192.641 162.883 193.003 162.2C193.377 161.507 193.894 160.973 194.555 160.6C195.227 160.227 195.995 160.04 196.859 160.04C197.691 160.04 198.433 160.221 199.083 160.584C199.734 160.947 200.241 161.459 200.603 162.12C200.966 162.771 201.147 163.523 201.147 164.376ZM199.243 163.8C199.233 163.128 198.993 162.589 198.523 162.184C198.054 161.779 197.473 161.576 196.779 161.576C196.15 161.576 195.611 161.779 195.163 162.184C194.715 162.579 194.449 163.117 194.363 163.8H199.243ZM206.49 164.552C206.49 163.667 206.672 162.883 207.034 162.2C207.408 161.517 207.909 160.989 208.538 160.616C209.178 160.232 209.888 160.04 210.666 160.04C211.349 160.04 211.952 160.179 212.474 160.456C213.008 160.733 213.418 161.069 213.706 161.464V160.184H215.546V173.192H213.706V167.72C213.418 168.115 213.002 168.451 212.458 168.728C211.914 169.005 211.296 169.144 210.602 169.144C209.845 169.144 209.152 168.952 208.522 168.568C207.904 168.173 207.408 167.629 207.034 166.936C206.672 166.232 206.49 165.437 206.49 164.552ZM213.706 164.584C213.706 163.976 213.578 163.448 213.322 163C213.077 162.552 212.752 162.211 212.346 161.976C211.941 161.741 211.504 161.624 211.034 161.624C210.565 161.624 210.128 161.741 209.722 161.976C209.317 162.2 208.986 162.536 208.73 162.984C208.485 163.421 208.362 163.944 208.362 164.552C208.362 165.16 208.485 165.693 208.73 166.152C208.986 166.611 209.317 166.963 209.722 167.208C210.138 167.443 210.576 167.56 211.034 167.56C211.504 167.56 211.941 167.443 212.346 167.208C212.752 166.973 213.077 166.632 213.322 166.184C213.578 165.725 213.706 165.192 213.706 164.584ZM225.926 160.184V169H224.102V167.96C223.814 168.323 223.436 168.611 222.966 168.824C222.508 169.027 222.017 169.128 221.494 169.128C220.801 169.128 220.177 168.984 219.622 168.696C219.078 168.408 218.646 167.981 218.326 167.416C218.017 166.851 217.862 166.168 217.862 165.368V160.184H219.67V165.096C219.67 165.885 219.868 166.493 220.262 166.92C220.657 167.336 221.196 167.544 221.878 167.544C222.561 167.544 223.1 167.336 223.494 166.92C223.9 166.493 224.102 165.885 224.102 165.096V160.184H225.926ZM236.413 164.376C236.413 164.707 236.391 165.005 236.349 165.272H229.613C229.666 165.976 229.927 166.541 230.397 166.968C230.866 167.395 231.442 167.608 232.125 167.608C233.106 167.608 233.799 167.197 234.205 166.376H236.173C235.906 167.187 235.421 167.853 234.717 168.376C234.023 168.888 233.159 169.144 232.125 169.144C231.282 169.144 230.525 168.957 229.853 168.584C229.191 168.2 228.669 167.667 228.285 166.984C227.911 166.291 227.725 165.491 227.725 164.584C227.725 163.677 227.906 162.883 228.269 162.2C228.642 161.507 229.159 160.973 229.821 160.6C230.493 160.227 231.261 160.04 232.125 160.04C232.957 160.04 233.698 160.221 234.349 160.584C234.999 160.947 235.506 161.459 235.869 162.12C236.231 162.771 236.413 163.523 236.413 164.376ZM234.509 163.8C234.498 163.128 234.258 162.589 233.789 162.184C233.319 161.779 232.738 161.576 232.045 161.576C231.415 161.576 230.877 161.779 230.429 162.184C229.981 162.579 229.714 163.117 229.629 163.8H234.509ZM240.032 157.16V169H238.208V157.16H240.032ZM244.251 157.16V169H242.427V157.16H244.251ZM254.725 164.376C254.725 164.707 254.704 165.005 254.661 165.272H247.925C247.979 165.976 248.24 166.541 248.709 166.968C249.179 167.395 249.755 167.608 250.437 167.608C251.419 167.608 252.112 167.197 252.517 166.376H254.485C254.219 167.187 253.733 167.853 253.029 168.376C252.336 168.888 251.472 169.144 250.437 169.144C249.595 169.144 248.837 168.957 248.165 168.584C247.504 168.2 246.981 167.667 246.597 166.984C246.224 166.291 246.037 165.491 246.037 164.584C246.037 163.677 246.219 162.883 246.581 162.2C246.955 161.507 247.472 160.973 248.133 160.6C248.805 160.227 249.573 160.04 250.437 160.04C251.269 160.04 252.011 160.221 252.661 160.584C253.312 160.947 253.819 161.459 254.181 162.12C254.544 162.771 254.725 163.523 254.725 164.376ZM252.821 163.8C252.811 163.128 252.571 162.589 252.101 162.184C251.632 161.779 251.051 161.576 250.357 161.576C249.728 161.576 249.189 161.779 248.741 162.184C248.293 162.579 248.027 163.117 247.941 163.8H252.821ZM262.501 157.16V169H260.677V157.16H262.501ZM264.287 164.552C264.287 163.667 264.469 162.883 264.831 162.2C265.205 161.517 265.706 160.989 266.335 160.616C266.975 160.232 267.679 160.04 268.447 160.04C269.141 160.04 269.743 160.179 270.255 160.456C270.778 160.723 271.194 161.059 271.503 161.464V160.184H273.343V169H271.503V167.688C271.194 168.104 270.773 168.451 270.239 168.728C269.706 169.005 269.098 169.144 268.415 169.144C267.658 169.144 266.965 168.952 266.335 168.568C265.706 168.173 265.205 167.629 264.831 166.936C264.469 166.232 264.287 165.437 264.287 164.552ZM271.503 164.584C271.503 163.976 271.375 163.448 271.119 163C270.874 162.552 270.549 162.211 270.143 161.976C269.738 161.741 269.301 161.624 268.831 161.624C268.362 161.624 267.925 161.741 267.519 161.976C267.114 162.2 266.783 162.536 266.527 162.984C266.282 163.421 266.159 163.944 266.159 164.552C266.159 165.16 266.282 165.693 266.527 166.152C266.783 166.611 267.114 166.963 267.519 167.208C267.935 167.443 268.373 167.56 268.831 167.56C269.301 167.56 269.738 167.443 270.143 167.208C270.549 166.973 270.874 166.632 271.119 166.184C271.375 165.725 271.503 165.192 271.503 164.584ZM280.187 160.04C280.88 160.04 281.499 160.184 282.043 160.472C282.598 160.76 283.03 161.187 283.339 161.752C283.648 162.317 283.803 163 283.803 163.8V169H281.995V164.072C281.995 163.283 281.798 162.68 281.403 162.264C281.008 161.837 280.47 161.624 279.787 161.624C279.104 161.624 278.56 161.837 278.155 162.264C277.76 162.68 277.563 163.283 277.563 164.072V169H275.739V160.184H277.563V161.192C277.862 160.829 278.24 160.547 278.699 160.344C279.168 160.141 279.664 160.04 280.187 160.04ZM289.682 160.04C290.364 160.04 290.967 160.179 291.49 160.456C292.023 160.723 292.439 161.059 292.738 161.464V160.184H294.578V169.144C294.578 169.955 294.407 170.675 294.066 171.304C293.724 171.944 293.228 172.445 292.578 172.808C291.938 173.171 291.17 173.352 290.274 173.352C289.079 173.352 288.087 173.069 287.298 172.504C286.508 171.949 286.06 171.192 285.954 170.232H287.762C287.9 170.691 288.194 171.059 288.642 171.336C289.1 171.624 289.644 171.768 290.274 171.768C291.01 171.768 291.602 171.544 292.05 171.096C292.508 170.648 292.738 169.997 292.738 169.144V167.672C292.428 168.088 292.007 168.44 291.474 168.728C290.951 169.005 290.354 169.144 289.682 169.144C288.914 169.144 288.21 168.952 287.57 168.568C286.94 168.173 286.439 167.629 286.066 166.936C285.703 166.232 285.522 165.437 285.522 164.552C285.522 163.667 285.703 162.883 286.066 162.2C286.439 161.517 286.94 160.989 287.57 160.616C288.21 160.232 288.914 160.04 289.682 160.04ZM292.738 164.584C292.738 163.976 292.61 163.448 292.354 163C292.108 162.552 291.783 162.211 291.378 161.976C290.972 161.741 290.535 161.624 290.066 161.624C289.596 161.624 289.159 161.741 288.754 161.976C288.348 162.2 288.018 162.536 287.762 162.984C287.516 163.421 287.394 163.944 287.394 164.552C287.394 165.16 287.516 165.693 287.762 166.152C288.018 166.611 288.348 166.963 288.754 167.208C289.17 167.443 289.607 167.56 290.066 167.56C290.535 167.56 290.972 167.443 291.378 167.208C291.783 166.973 292.108 166.632 292.354 166.184C292.61 165.725 292.738 165.192 292.738 164.584ZM304.957 160.184V169H303.133V167.96C302.845 168.323 302.467 168.611 301.997 168.824C301.539 169.027 301.048 169.128 300.525 169.128C299.832 169.128 299.208 168.984 298.653 168.696C298.109 168.408 297.677 167.981 297.357 167.416C297.048 166.851 296.893 166.168 296.893 165.368V160.184H298.701V165.096C298.701 165.885 298.899 166.493 299.293 166.92C299.688 167.336 300.227 167.544 300.909 167.544C301.592 167.544 302.131 167.336 302.525 166.92C302.931 166.493 303.133 165.885 303.133 165.096V160.184H304.957ZM315.444 164.376C315.444 164.707 315.423 165.005 315.38 165.272H308.644C308.697 165.976 308.959 166.541 309.428 166.968C309.897 167.395 310.473 167.608 311.156 167.608C312.137 167.608 312.831 167.197 313.236 166.376H315.204C314.937 167.187 314.452 167.853 313.748 168.376C313.055 168.888 312.191 169.144 311.156 169.144C310.313 169.144 309.556 168.957 308.884 168.584C308.223 168.2 307.7 167.667 307.316 166.984C306.943 166.291 306.756 165.491 306.756 164.584C306.756 163.677 306.937 162.883 307.3 162.2C307.673 161.507 308.191 160.973 308.852 160.6C309.524 160.227 310.292 160.04 311.156 160.04C311.988 160.04 312.729 160.221 313.38 160.584C314.031 160.947 314.537 161.459 314.9 162.12C315.263 162.771 315.444 163.523 315.444 164.376ZM313.54 163.8C313.529 163.128 313.289 162.589 312.82 162.184C312.351 161.779 311.769 161.576 311.076 161.576C310.447 161.576 309.908 161.779 309.46 162.184C309.012 162.579 308.745 163.117 308.66 163.8H313.54Z" fill="#EDEDED"/>
<rect x="54" y="254" width="288" height="63.4011" rx="31.7005" fill="#7E27ED"/>
<path fill-rule="evenodd" clip-rule="evenodd" d="M131.217 270.679C131.217 270.304 131.603 270 132.08 270C132.556 270 132.943 270.304 132.943 270.679L132.943 274.073C132.943 274.448 132.556 274.752 132.08 274.752C131.603 274.752 131.217 274.448 131.217 274.073L131.217 270.679ZM122.634 282.838C124.364 282.838 125.767 281.447 125.767 279.73C125.767 278.014 124.364 276.622 122.634 276.622C120.903 276.622 119.5 278.014 119.5 279.73C119.5 281.447 120.903 282.838 122.634 282.838ZM135.255 278.989C135.602 280.619 134.467 282.237 132.72 282.603C131.665 282.823 130.49 283.237 130.059 284.228L129.972 284.43C129.529 285.449 129.994 286.632 130.43 287.66C130.51 287.85 130.574 288.05 130.619 288.26C130.992 290.016 129.878 291.735 128.131 292.101C126.384 292.466 124.665 291.339 124.292 289.583C123.919 287.828 125.032 286.108 126.779 285.743C127.771 285.535 128.871 285.148 129.276 284.217L129.414 283.899C129.819 282.966 129.451 281.895 129.111 280.909C129.079 280.816 129.047 280.723 129.016 280.631C128.981 280.528 128.952 280.421 128.929 280.312C128.582 278.682 129.717 277.064 131.464 276.699C133.211 276.333 134.909 277.359 135.255 278.989ZM139.986 288.22C140.332 289.851 139.197 291.469 137.45 291.834C136.395 292.055 135.22 292.469 134.79 293.46L134.702 293.661C134.259 294.681 134.724 295.863 135.16 296.891C135.241 297.081 135.305 297.282 135.349 297.491C135.722 299.247 134.609 300.967 132.862 301.332C131.115 301.698 129.396 300.571 129.023 298.815C128.649 297.059 129.763 295.339 131.51 294.974C132.502 294.767 133.602 294.38 134.006 293.448L134.144 293.131C134.55 292.197 134.181 291.127 133.842 290.14C133.809 290.047 133.778 289.955 133.747 289.863C133.712 289.759 133.682 289.653 133.659 289.544C133.313 287.913 134.448 286.295 136.195 285.93C137.942 285.565 139.639 286.59 139.986 288.22ZM144.683 279.73C144.683 281.447 143.28 282.838 141.55 282.838C139.819 282.838 138.416 281.447 138.416 279.73C138.416 278.014 139.819 276.622 141.55 276.622C143.28 276.622 144.683 278.014 144.683 279.73Z" fill="white"/>
<path fill-rule="evenodd" clip-rule="evenodd" d="M176.836 270.68C176.836 270.305 177.222 270.001 177.699 270.001C178.175 270.001 178.562 270.305 178.562 270.68L178.562 274.074C178.562 274.449 178.175 274.753 177.699 274.753C177.222 274.753 176.836 274.449 176.836 274.074L176.836 270.68ZM177.618 276.623C176.65 276.623 175.865 277.4 175.865 278.359L175.865 299.662C175.865 300.621 176.65 301.398 177.618 301.398C178.587 301.398 179.372 300.621 179.372 299.662L179.372 278.359C179.372 277.4 178.587 276.623 177.618 276.623ZM194.681 277.602C194.681 277.061 195.124 276.623 195.67 276.623L197.125 276.623C197.671 276.623 198.114 277.061 198.114 277.602L198.114 300.419C198.114 300.96 197.671 301.398 197.125 301.398L195.098 301.398C194.691 301.398 194.324 301.149 194.176 300.774C191.316 293.54 189.214 288.162 187.869 284.642C187.862 284.627 187.855 284.612 187.849 284.596C187.713 284.236 187.122 284.224 187.156 284.765C187.159 284.801 187.161 284.836 187.162 284.868C187.286 286.61 187.299 288.617 187.299 290.691L187.299 300.419C187.299 300.96 186.857 301.398 186.31 301.398L184.892 301.398C184.346 301.398 183.903 300.96 183.903 300.419L183.903 277.602C183.903 277.061 184.346 276.623 184.892 276.623L186.959 276.623C187.365 276.623 187.73 276.87 187.879 277.244C191.152 285.455 193.149 290.559 193.869 292.555L194.027 292.992C194.243 293.591 194.951 293.444 194.903 292.811C194.78 290.862 194.706 288.986 194.681 287.183L194.681 277.602ZM202.433 277.928C202.433 277.207 203.024 276.623 203.752 276.623L213.18 276.623C213.544 276.623 213.839 276.915 213.839 277.275L213.839 279.003C213.839 279.364 213.544 279.656 213.18 279.656L205.903 279.656L205.903 287.366L212.146 287.366C212.51 287.366 212.805 287.658 212.805 288.019L212.805 289.747C212.805 290.107 212.51 290.399 212.146 290.399L205.903 290.399L205.903 298.402L213.18 298.402C213.544 298.402 213.839 298.694 213.839 299.054L213.839 300.746C213.839 301.106 213.544 301.398 213.18 301.398L203.752 301.398C203.024 301.398 202.433 300.814 202.433 300.093L202.433 277.928ZM245.367 276.949C245.367 276.769 245.22 276.623 245.038 276.623L232.667 276.623C232.485 276.623 232.338 276.769 232.338 276.949L232.338 279.33C232.338 279.51 232.485 279.656 232.667 279.656L236.77 279.656C236.952 279.656 237.099 279.802 237.099 279.982L237.099 301.072C237.099 301.252 237.247 301.398 237.429 301.398L240.276 301.398C240.458 301.398 240.606 301.252 240.606 301.072L240.606 279.982C240.606 279.802 240.753 279.656 240.935 279.656L245.038 279.656C245.22 279.656 245.367 279.51 245.367 279.33L245.367 276.949ZM247.92 276.949C247.92 276.769 248.068 276.623 248.25 276.623L259.326 276.623L259.326 279.656L251.719 279.656C251.537 279.656 251.39 279.802 251.39 279.982L251.39 287.04C251.39 287.22 251.537 287.366 251.719 287.366L258.292 287.366L258.292 290.399L251.719 290.399C251.537 290.399 251.39 290.545 251.39 290.725L251.39 298.075C251.39 298.256 251.537 298.402 251.719 298.402L259.326 298.402L259.326 301.398L248.25 301.398C248.068 301.398 247.92 301.252 247.92 301.072L247.92 276.949ZM266.313 291.751L266.313 301.398L262.843 301.398L262.843 276.623L269.561 276.623C271.529 276.623 273.03 277.11 274.064 278.085C275.122 279.059 275.651 280.411 275.651 282.141L275.651 286.087C275.651 288.791 274.605 290.533 272.514 291.313L276.5 301.398L272.661 301.398L269.081 291.751L266.313 291.751ZM266.313 279.619L266.313 288.864L269.266 288.864C270.299 288.864 271.037 288.633 271.48 288.17C271.948 287.707 272.181 287.001 272.181 286.051L272.181 282.36C272.181 280.533 271.209 279.619 269.266 279.619L266.313 279.619ZM228.017 300.877C228.08 301.18 228.35 301.398 228.663 301.398L230.705 301.398C231.125 301.398 231.438 301.015 231.349 300.608L226.244 277.138C226.179 276.838 225.911 276.623 225.6 276.623L221.791 276.623C221.481 276.623 221.213 276.837 221.147 277.136L215.972 300.606C215.882 301.013 216.195 301.398 216.616 301.398L218.656 301.398C218.969 301.398 219.238 301.18 219.301 300.877L220.505 295.081C220.536 294.929 220.671 294.821 220.827 294.821L226.491 294.821C226.647 294.821 226.782 294.929 226.814 295.081L228.017 300.877ZM221.553 291.861C221.344 291.861 221.188 291.672 221.23 291.469L223.302 281.397C223.373 281.049 223.875 281.048 223.947 281.396L226.05 291.468C226.093 291.671 225.936 291.861 225.728 291.861L221.553 291.861ZM160.612 278.209C160.755 277.296 161.551 276.622 162.484 276.622C163.417 276.622 164.214 277.296 164.356 278.209L166.102 289.412C166.243 290.374 167.714 290.376 167.837 289.412L169.656 277.951C169.778 277.186 170.444 276.622 171.226 276.622C172.2 276.622 172.945 277.481 172.798 278.434L169.532 299.51C169.364 300.595 168.42 301.397 167.311 301.397C166.209 301.397 165.27 300.607 165.093 299.531L163.482 289.777C163.399 289.133 162.95 288.778 162.484 288.778C162.019 288.778 161.569 289.133 161.487 289.777L159.876 299.531C159.698 300.607 158.759 301.397 157.658 301.397C156.548 301.397 155.605 300.595 155.437 299.51L152.171 278.434C152.023 277.481 152.768 276.622 153.742 276.622C154.525 276.622 155.191 277.186 155.313 277.951L157.132 289.412C157.255 290.376 158.726 290.374 158.866 289.412L160.612 278.209Z" fill="white"/>
<rect x="54" y="381.401" width="288" height="116" rx="58" fill="#2FC0BF"/>
<path d="M151.596 403.941V423.401H148.404V410.073L142.468 423.401H140.256L134.292 410.073V423.401H131.1V403.941H134.544L141.376 419.201L148.18 403.941H151.596ZM154.727 415.617C154.727 414.068 155.045 412.696 155.679 411.501C156.333 410.306 157.21 409.382 158.311 408.729C159.431 408.057 160.663 407.721 162.007 407.721C163.221 407.721 164.275 407.964 165.171 408.449C166.086 408.916 166.814 409.504 167.355 410.213V407.973H170.575V423.401H167.355V421.105C166.814 421.833 166.077 422.44 165.143 422.925C164.21 423.41 163.146 423.653 161.951 423.653C160.626 423.653 159.413 423.317 158.311 422.645C157.21 421.954 156.333 421.002 155.679 419.789C155.045 418.557 154.727 417.166 154.727 415.617ZM167.355 415.673C167.355 414.609 167.131 413.685 166.683 412.901C166.254 412.117 165.685 411.52 164.975 411.109C164.266 410.698 163.501 410.493 162.679 410.493C161.858 410.493 161.093 410.698 160.383 411.109C159.674 411.501 159.095 412.089 158.647 412.873C158.218 413.638 158.003 414.553 158.003 415.617C158.003 416.681 158.218 417.614 158.647 418.417C159.095 419.22 159.674 419.836 160.383 420.265C161.111 420.676 161.877 420.881 162.679 420.881C163.501 420.881 164.266 420.676 164.975 420.265C165.685 419.854 166.254 419.257 166.683 418.473C167.131 417.67 167.355 416.737 167.355 415.673ZM180.984 407.721C182.179 407.721 183.233 407.964 184.148 408.449C185.081 408.916 185.809 409.504 186.332 410.213V407.973H189.552V423.653C189.552 425.072 189.253 426.332 188.656 427.433C188.059 428.553 187.191 429.43 186.052 430.065C184.932 430.7 183.588 431.017 182.02 431.017C179.929 431.017 178.193 430.522 176.812 429.533C175.431 428.562 174.647 427.237 174.46 425.557H177.624C177.867 426.36 178.38 427.004 179.164 427.489C179.967 427.993 180.919 428.245 182.02 428.245C183.308 428.245 184.344 427.853 185.128 427.069C185.931 426.285 186.332 425.146 186.332 423.653V421.077C185.791 421.805 185.053 422.421 184.12 422.925C183.205 423.41 182.16 423.653 180.984 423.653C179.64 423.653 178.408 423.317 177.288 422.645C176.187 421.954 175.309 421.002 174.656 419.789C174.021 418.557 173.704 417.166 173.704 415.617C173.704 414.068 174.021 412.696 174.656 411.501C175.309 410.306 176.187 409.382 177.288 408.729C178.408 408.057 179.64 407.721 180.984 407.721ZM186.332 415.673C186.332 414.609 186.108 413.685 185.66 412.901C185.231 412.117 184.661 411.52 183.952 411.109C183.243 410.698 182.477 410.493 181.656 410.493C180.835 410.493 180.069 410.698 179.36 411.109C178.651 411.501 178.072 412.089 177.624 412.873C177.195 413.638 176.98 414.553 176.98 415.617C176.98 416.681 177.195 417.614 177.624 418.417C178.072 419.22 178.651 419.836 179.36 420.265C180.088 420.676 180.853 420.881 181.656 420.881C182.477 420.881 183.243 420.676 183.952 420.265C184.661 419.854 185.231 419.257 185.66 418.473C186.108 417.67 186.332 416.737 186.332 415.673ZM192.681 415.617C192.681 414.068 192.998 412.696 193.633 411.501C194.286 410.306 195.163 409.382 196.265 408.729C197.385 408.057 198.617 407.721 199.961 407.721C201.174 407.721 202.229 407.964 203.125 408.449C204.039 408.916 204.767 409.504 205.309 410.213V407.973H208.529V423.401H205.309V421.105C204.767 421.833 204.03 422.44 203.097 422.925C202.163 423.41 201.099 423.653 199.905 423.653C198.579 423.653 197.366 423.317 196.265 422.645C195.163 421.954 194.286 421.002 193.633 419.789C192.998 418.557 192.681 417.166 192.681 415.617ZM205.309 415.673C205.309 414.609 205.085 413.685 204.637 412.901C204.207 412.117 203.638 411.52 202.929 411.109C202.219 410.698 201.454 410.493 200.633 410.493C199.811 410.493 199.046 410.698 198.337 411.109C197.627 411.501 197.049 412.089 196.601 412.873C196.171 413.638 195.957 414.553 195.957 415.617C195.957 416.681 196.171 417.614 196.601 418.417C197.049 419.22 197.627 419.836 198.337 420.265C199.065 420.676 199.83 420.881 200.633 420.881C201.454 420.881 202.219 420.676 202.929 420.265C203.638 419.854 204.207 419.257 204.637 418.473C205.085 417.67 205.309 416.737 205.309 415.673ZM218.321 423.653C217.108 423.653 216.016 423.438 215.045 423.009C214.093 422.561 213.337 421.964 212.777 421.217C212.217 420.452 211.918 419.602 211.881 418.669H215.185C215.241 419.322 215.549 419.873 216.109 420.321C216.688 420.75 217.406 420.965 218.265 420.965C219.161 420.965 219.852 420.797 220.337 420.461C220.841 420.106 221.093 419.658 221.093 419.117C221.093 418.538 220.813 418.109 220.253 417.829C219.712 417.549 218.844 417.241 217.649 416.905C216.492 416.588 215.549 416.28 214.821 415.981C214.093 415.682 213.458 415.225 212.917 414.609C212.394 413.993 212.133 413.181 212.133 412.173C212.133 411.352 212.376 410.605 212.861 409.933C213.346 409.242 214.037 408.701 214.933 408.309C215.848 407.917 216.893 407.721 218.069 407.721C219.824 407.721 221.233 408.169 222.297 409.065C223.38 409.942 223.958 411.146 224.033 412.677H220.841C220.785 411.986 220.505 411.436 220.001 411.025C219.497 410.614 218.816 410.409 217.957 410.409C217.117 410.409 216.473 410.568 216.025 410.885C215.577 411.202 215.353 411.622 215.353 412.145C215.353 412.556 215.502 412.901 215.801 413.181C216.1 413.461 216.464 413.685 216.893 413.853C217.322 414.002 217.957 414.198 218.797 414.441C219.917 414.74 220.832 415.048 221.541 415.365C222.269 415.664 222.894 416.112 223.417 416.709C223.94 417.306 224.21 418.1 224.229 419.089C224.229 419.966 223.986 420.75 223.501 421.441C223.016 422.132 222.325 422.673 221.429 423.065C220.552 423.457 219.516 423.653 218.321 423.653ZM229.302 405.929C228.723 405.929 228.238 405.733 227.846 405.341C227.454 404.949 227.258 404.464 227.258 403.885C227.258 403.306 227.454 402.821 227.846 402.429C228.238 402.037 228.723 401.841 229.302 401.841C229.862 401.841 230.338 402.037 230.73 402.429C231.122 402.821 231.318 403.306 231.318 403.885C231.318 404.464 231.122 404.949 230.73 405.341C230.338 405.733 229.862 405.929 229.302 405.929ZM230.87 407.973V423.401H227.678V407.973H230.87ZM242.845 407.721C244.058 407.721 245.141 407.973 246.093 408.477C247.064 408.981 247.82 409.728 248.361 410.717C248.902 411.706 249.173 412.901 249.173 414.301V423.401H246.009V414.777C246.009 413.396 245.664 412.341 244.973 411.613C244.282 410.866 243.34 410.493 242.145 410.493C240.95 410.493 239.998 410.866 239.289 411.613C238.598 412.341 238.253 413.396 238.253 414.777V423.401H235.061V407.973H238.253V409.737C238.776 409.102 239.438 408.608 240.241 408.253C241.062 407.898 241.93 407.721 242.845 407.721ZM258.845 423.653C257.631 423.653 256.539 423.438 255.569 423.009C254.617 422.561 253.861 421.964 253.301 421.217C252.741 420.452 252.442 419.602 252.405 418.669H255.709C255.765 419.322 256.073 419.873 256.633 420.321C257.211 420.75 257.93 420.965 258.789 420.965C259.685 420.965 260.375 420.797 260.861 420.461C261.365 420.106 261.617 419.658 261.617 419.117C261.617 418.538 261.337 418.109 260.777 417.829C260.235 417.549 259.367 417.241 258.173 416.905C257.015 416.588 256.073 416.28 255.345 415.981C254.617 415.682 253.982 415.225 253.441 414.609C252.918 413.993 252.657 413.181 252.657 412.173C252.657 411.352 252.899 410.605 253.385 409.933C253.87 409.242 254.561 408.701 255.457 408.309C256.371 407.917 257.417 407.721 258.593 407.721C260.347 407.721 261.757 408.169 262.821 409.065C263.903 409.942 264.482 411.146 264.557 412.677H261.365C261.309 411.986 261.029 411.436 260.525 411.025C260.021 410.614 259.339 410.409 258.481 410.409C257.641 410.409 256.997 410.568 256.549 410.885C256.101 411.202 255.877 411.622 255.877 412.145C255.877 412.556 256.026 412.901 256.325 413.181C256.623 413.461 256.987 413.685 257.417 413.853C257.846 414.002 258.481 414.198 259.321 414.441C260.441 414.74 261.355 415.048 262.065 415.365C262.793 415.664 263.418 416.112 263.941 416.709C264.463 417.306 264.734 418.1 264.753 419.089C264.753 419.966 264.51 420.75 264.025 421.441C263.539 422.132 262.849 422.673 261.953 423.065C261.075 423.457 260.039 423.653 258.845 423.653Z" fill="white"/>
<path d="M116.422 443.281V454.401H114.598V443.281H116.422ZM129.489 445.441C130.183 445.441 130.801 445.585 131.345 445.873C131.9 446.161 132.332 446.588 132.641 447.153C132.961 447.718 133.121 448.401 133.121 449.201V454.401H131.313V449.473C131.313 448.684 131.116 448.081 130.721 447.665C130.327 447.238 129.788 447.025 129.105 447.025C128.423 447.025 127.879 447.238 127.473 447.665C127.079 448.081 126.881 448.684 126.881 449.473V454.401H125.073V449.473C125.073 448.684 124.876 448.081 124.481 447.665C124.087 447.238 123.548 447.025 122.865 447.025C122.183 447.025 121.639 447.238 121.233 447.665C120.839 448.081 120.641 448.684 120.641 449.473V454.401H118.817V445.585H120.641V446.593C120.94 446.23 121.319 445.948 121.777 445.745C122.236 445.542 122.727 445.441 123.249 445.441C123.953 445.441 124.583 445.59 125.137 445.889C125.692 446.188 126.119 446.62 126.417 447.185C126.684 446.652 127.1 446.23 127.665 445.921C128.231 445.601 128.839 445.441 129.489 445.441ZM137.266 446.881C137.576 446.476 137.997 446.134 138.53 445.857C139.064 445.58 139.666 445.441 140.338 445.441C141.106 445.441 141.805 445.633 142.434 446.017C143.074 446.39 143.576 446.918 143.938 447.601C144.301 448.284 144.482 449.068 144.482 449.953C144.482 450.838 144.301 451.633 143.938 452.337C143.576 453.03 143.074 453.574 142.434 453.969C141.805 454.353 141.106 454.545 140.338 454.545C139.666 454.545 139.069 454.412 138.546 454.145C138.024 453.868 137.597 453.526 137.266 453.121V458.593H135.442V445.585H137.266V446.881ZM142.626 449.953C142.626 449.345 142.498 448.822 142.242 448.385C141.997 447.937 141.666 447.601 141.25 447.377C140.845 447.142 140.408 447.025 139.938 447.025C139.48 447.025 139.042 447.142 138.626 447.377C138.221 447.612 137.89 447.953 137.634 448.401C137.389 448.849 137.266 449.377 137.266 449.985C137.266 450.593 137.389 451.126 137.634 451.585C137.89 452.033 138.221 452.374 138.626 452.609C139.042 452.844 139.48 452.961 139.938 452.961C140.408 452.961 140.845 452.844 141.25 452.609C141.666 452.364 141.997 452.012 142.242 451.553C142.498 451.094 142.626 450.561 142.626 449.953ZM150.11 454.545C149.278 454.545 148.526 454.358 147.854 453.985C147.182 453.601 146.654 453.068 146.27 452.385C145.886 451.692 145.694 450.892 145.694 449.985C145.694 449.089 145.891 448.294 146.286 447.601C146.681 446.908 147.219 446.374 147.902 446.001C148.585 445.628 149.347 445.441 150.19 445.441C151.033 445.441 151.795 445.628 152.478 446.001C153.161 446.374 153.699 446.908 154.094 447.601C154.489 448.294 154.686 449.089 154.686 449.985C154.686 450.881 154.483 451.676 154.078 452.369C153.673 453.062 153.118 453.601 152.414 453.985C151.721 454.358 150.953 454.545 150.11 454.545ZM150.11 452.961C150.579 452.961 151.017 452.849 151.422 452.625C151.838 452.401 152.174 452.065 152.43 451.617C152.686 451.169 152.814 450.625 152.814 449.985C152.814 449.345 152.691 448.806 152.446 448.369C152.201 447.921 151.875 447.585 151.47 447.361C151.065 447.137 150.627 447.025 150.158 447.025C149.689 447.025 149.251 447.137 148.846 447.361C148.451 447.585 148.137 447.921 147.902 448.369C147.667 448.806 147.55 449.345 147.55 449.985C147.55 450.934 147.79 451.67 148.27 452.193C148.761 452.705 149.374 452.961 150.11 452.961ZM158.313 446.865C158.58 446.417 158.932 446.07 159.369 445.825C159.817 445.569 160.345 445.441 160.953 445.441V447.329H160.489C159.774 447.329 159.23 447.51 158.857 447.873C158.494 448.236 158.313 448.865 158.313 449.761V454.401H156.489V445.585H158.313V446.865ZM164.758 447.073V451.953C164.758 452.284 164.832 452.524 164.982 452.673C165.142 452.812 165.408 452.881 165.782 452.881H166.902V454.401H165.462C164.64 454.401 164.011 454.209 163.574 453.825C163.136 453.441 162.918 452.817 162.918 451.953V447.073H161.878V445.585H162.918V443.393H164.758V445.585H166.902V447.073H164.758ZM176.663 449.777C176.663 450.108 176.641 450.406 176.599 450.673H169.863C169.916 451.377 170.177 451.942 170.647 452.369C171.116 452.796 171.692 453.009 172.375 453.009C173.356 453.009 174.049 452.598 174.455 451.777H176.423C176.156 452.588 175.671 453.254 174.967 453.777C174.273 454.289 173.409 454.545 172.375 454.545C171.532 454.545 170.775 454.358 170.103 453.985C169.441 453.601 168.919 453.068 168.535 452.385C168.161 451.692 167.975 450.892 167.975 449.985C167.975 449.078 168.156 448.284 168.519 447.601C168.892 446.908 169.409 446.374 170.071 446.001C170.743 445.628 171.511 445.441 172.375 445.441C173.207 445.441 173.948 445.622 174.599 445.985C175.249 446.348 175.756 446.86 176.119 447.521C176.481 448.172 176.663 448.924 176.663 449.777ZM174.759 449.201C174.748 448.529 174.508 447.99 174.039 447.585C173.569 447.18 172.988 446.977 172.295 446.977C171.665 446.977 171.127 447.18 170.679 447.585C170.231 447.98 169.964 448.518 169.879 449.201H174.759ZM180.282 446.865C180.548 446.417 180.9 446.07 181.338 445.825C181.786 445.569 182.314 445.441 182.922 445.441V447.329H182.458C181.743 447.329 181.199 447.51 180.826 447.873C180.463 448.236 180.282 448.865 180.282 449.761V454.401H178.458V445.585H180.282V446.865ZM190.579 442.561V454.401H188.755V442.561H190.579ZM192.365 449.953C192.365 449.068 192.547 448.284 192.909 447.601C193.283 446.918 193.784 446.39 194.413 446.017C195.053 445.633 195.757 445.441 196.525 445.441C197.219 445.441 197.821 445.58 198.333 445.857C198.856 446.124 199.272 446.46 199.581 446.865V445.585H201.421V454.401H199.581V453.089C199.272 453.505 198.851 453.852 198.317 454.129C197.784 454.406 197.176 454.545 196.493 454.545C195.736 454.545 195.043 454.353 194.413 453.969C193.784 453.574 193.283 453.03 192.909 452.337C192.547 451.633 192.365 450.838 192.365 449.953ZM199.581 449.985C199.581 449.377 199.453 448.849 199.197 448.401C198.952 447.953 198.627 447.612 198.221 447.377C197.816 447.142 197.379 447.025 196.909 447.025C196.44 447.025 196.003 447.142 195.597 447.377C195.192 447.601 194.861 447.937 194.605 448.385C194.36 448.822 194.237 449.345 194.237 449.953C194.237 450.561 194.36 451.094 194.605 451.553C194.861 452.012 195.192 452.364 195.597 452.609C196.013 452.844 196.451 452.961 196.909 452.961C197.379 452.961 197.816 452.844 198.221 452.609C198.627 452.374 198.952 452.033 199.197 451.585C199.453 451.126 199.581 450.593 199.581 449.985ZM207.365 449.985C207.365 449.078 207.547 448.284 207.909 447.601C208.283 446.908 208.795 446.374 209.445 446.001C210.096 445.628 210.843 445.441 211.685 445.441C212.752 445.441 213.632 445.697 214.325 446.209C215.029 446.71 215.504 447.43 215.749 448.369H213.781C213.621 447.932 213.365 447.59 213.013 447.345C212.661 447.1 212.219 446.977 211.685 446.977C210.939 446.977 210.341 447.244 209.893 447.777C209.456 448.3 209.237 449.036 209.237 449.985C209.237 450.934 209.456 451.676 209.893 452.209C210.341 452.742 210.939 453.009 211.685 453.009C212.741 453.009 213.44 452.545 213.781 451.617H215.749C215.493 452.513 215.013 453.228 214.309 453.761C213.605 454.284 212.731 454.545 211.685 454.545C210.843 454.545 210.096 454.358 209.445 453.985C208.795 453.601 208.283 453.068 207.909 452.385C207.547 451.692 207.365 450.892 207.365 449.985ZM216.959 449.953C216.959 449.068 217.141 448.284 217.503 447.601C217.877 446.918 218.378 446.39 219.007 446.017C219.647 445.633 220.351 445.441 221.119 445.441C221.813 445.441 222.415 445.58 222.927 445.857C223.45 446.124 223.866 446.46 224.175 446.865V445.585H226.015V454.401H224.175V453.089C223.866 453.505 223.445 453.852 222.911 454.129C222.378 454.406 221.77 454.545 221.087 454.545C220.33 454.545 219.637 454.353 219.007 453.969C218.378 453.574 217.877 453.03 217.503 452.337C217.141 451.633 216.959 450.838 216.959 449.953ZM224.175 449.985C224.175 449.377 224.047 448.849 223.791 448.401C223.546 447.953 223.221 447.612 222.815 447.377C222.41 447.142 221.973 447.025 221.503 447.025C221.034 447.025 220.597 447.142 220.191 447.377C219.786 447.601 219.455 447.937 219.199 448.385C218.954 448.822 218.831 449.345 218.831 449.953C218.831 450.561 218.954 451.094 219.199 451.553C219.455 452.012 219.786 452.364 220.191 452.609C220.607 452.844 221.045 452.961 221.503 452.961C221.973 452.961 222.41 452.844 222.815 452.609C223.221 452.374 223.546 452.033 223.791 451.585C224.047 451.126 224.175 450.593 224.175 449.985ZM230.235 446.865C230.502 446.417 230.854 446.07 231.291 445.825C231.739 445.569 232.267 445.441 232.875 445.441V447.329H232.411C231.696 447.329 231.152 447.51 230.779 447.873C230.416 448.236 230.235 448.865 230.235 449.761V454.401H228.411V445.585H230.235V446.865ZM236.68 447.073V451.953C236.68 452.284 236.754 452.524 236.904 452.673C237.064 452.812 237.33 452.881 237.704 452.881H238.824V454.401H237.384C236.562 454.401 235.933 454.209 235.496 453.825C235.058 453.441 234.84 452.817 234.84 451.953V447.073H233.8V445.585H234.84V443.393H236.68V445.585H238.824V447.073H236.68ZM248.585 449.777C248.585 450.108 248.563 450.406 248.521 450.673H241.785C241.838 451.377 242.099 451.942 242.569 452.369C243.038 452.796 243.614 453.009 244.297 453.009C245.278 453.009 245.971 452.598 246.377 451.777H248.345C248.078 452.588 247.593 453.254 246.889 453.777C246.195 454.289 245.331 454.545 244.297 454.545C243.454 454.545 242.697 454.358 242.025 453.985C241.363 453.601 240.841 453.068 240.457 452.385C240.083 451.692 239.897 450.892 239.897 449.985C239.897 449.078 240.078 448.284 240.441 447.601C240.814 446.908 241.331 446.374 241.993 446.001C242.665 445.628 243.433 445.441 244.297 445.441C245.129 445.441 245.87 445.622 246.521 445.985C247.171 446.348 247.678 446.86 248.041 447.521C248.403 448.172 248.585 448.924 248.585 449.777ZM246.681 449.201C246.67 448.529 246.43 447.99 245.961 447.585C245.491 447.18 244.91 446.977 244.217 446.977C243.587 446.977 243.049 447.18 242.601 447.585C242.153 447.98 241.886 448.518 241.801 449.201H246.681ZM253.928 449.953C253.928 449.068 254.109 448.284 254.472 447.601C254.845 446.918 255.347 446.39 255.976 446.017C256.616 445.633 257.325 445.441 258.104 445.441C258.68 445.441 259.245 445.569 259.8 445.825C260.365 446.07 260.813 446.401 261.144 446.817V442.561H262.984V454.401H261.144V453.073C260.845 453.5 260.429 453.852 259.896 454.129C259.373 454.406 258.771 454.545 258.088 454.545C257.32 454.545 256.616 454.353 255.976 453.969C255.347 453.574 254.845 453.03 254.472 452.337C254.109 451.633 253.928 450.838 253.928 449.953ZM261.144 449.985C261.144 449.377 261.016 448.849 260.76 448.401C260.515 447.953 260.189 447.612 259.784 447.377C259.379 447.142 258.941 447.025 258.472 447.025C258.003 447.025 257.565 447.142 257.16 447.377C256.755 447.601 256.424 447.937 256.168 448.385C255.923 448.822 255.8 449.345 255.8 449.953C255.8 450.561 255.923 451.094 256.168 451.553C256.424 452.012 256.755 452.364 257.16 452.609C257.576 452.844 258.013 452.961 258.472 452.961C258.941 452.961 259.379 452.844 259.784 452.609C260.189 452.374 260.515 452.033 260.76 451.585C261.016 451.126 261.144 450.593 261.144 449.985ZM273.46 449.777C273.46 450.108 273.438 450.406 273.396 450.673H266.66C266.713 451.377 266.974 451.942 267.444 452.369C267.913 452.796 268.489 453.009 269.172 453.009C270.153 453.009 270.846 452.598 271.252 451.777H273.22C272.953 452.588 272.468 453.254 271.764 453.777C271.07 454.289 270.206 454.545 269.172 454.545C268.329 454.545 267.572 454.358 266.9 453.985C266.238 453.601 265.716 453.068 265.332 452.385C264.958 451.692 264.772 450.892 264.772 449.985C264.772 449.078 264.953 448.284 265.316 447.601C265.689 446.908 266.206 446.374 266.868 446.001C267.54 445.628 268.308 445.441 269.172 445.441C270.004 445.441 270.745 445.622 271.396 445.985C272.046 446.348 272.553 446.86 272.916 447.521C273.278 448.172 273.46 448.924 273.46 449.777ZM271.556 449.201C271.545 448.529 271.305 447.99 270.836 447.585C270.366 447.18 269.785 446.977 269.092 446.977C268.462 446.977 267.924 447.18 267.476 447.585C267.028 447.98 266.761 448.518 266.676 449.201H271.556ZM278.455 454.545C277.761 454.545 277.137 454.422 276.583 454.177C276.039 453.921 275.607 453.58 275.287 453.153C274.967 452.716 274.796 452.23 274.775 451.697H276.663C276.695 452.07 276.871 452.385 277.191 452.641C277.521 452.886 277.932 453.009 278.423 453.009C278.935 453.009 279.329 452.913 279.607 452.721C279.895 452.518 280.039 452.262 280.039 451.953C280.039 451.622 279.879 451.377 279.559 451.217C279.249 451.057 278.753 450.881 278.071 450.689C277.409 450.508 276.871 450.332 276.455 450.161C276.039 449.99 275.676 449.729 275.367 449.377C275.068 449.025 274.919 448.561 274.919 447.985C274.919 447.516 275.057 447.089 275.335 446.705C275.612 446.31 276.007 446.001 276.519 445.777C277.041 445.553 277.639 445.441 278.311 445.441C279.313 445.441 280.119 445.697 280.727 446.209C281.345 446.71 281.676 447.398 281.719 448.273H279.895C279.863 447.878 279.703 447.564 279.415 447.329C279.127 447.094 278.737 446.977 278.247 446.977C277.767 446.977 277.399 447.068 277.143 447.249C276.887 447.43 276.759 447.67 276.759 447.969C276.759 448.204 276.844 448.401 277.015 448.561C277.185 448.721 277.393 448.849 277.639 448.945C277.884 449.03 278.247 449.142 278.727 449.281C279.367 449.452 279.889 449.628 280.295 449.809C280.711 449.98 281.068 450.236 281.367 450.577C281.665 450.918 281.82 451.372 281.831 451.937C281.831 452.438 281.692 452.886 281.415 453.281C281.137 453.676 280.743 453.985 280.231 454.209C279.729 454.433 279.137 454.545 278.455 454.545ZM135.491 474.769L137.987 467.585H139.923L136.563 476.401H134.387L131.043 467.585H132.995L135.491 474.769ZM142.23 466.417C141.899 466.417 141.622 466.305 141.398 466.081C141.174 465.857 141.062 465.58 141.062 465.249C141.062 464.918 141.174 464.641 141.398 464.417C141.622 464.193 141.899 464.081 142.23 464.081C142.55 464.081 142.822 464.193 143.046 464.417C143.27 464.641 143.382 464.918 143.382 465.249C143.382 465.58 143.27 465.857 143.046 466.081C142.822 466.305 142.55 466.417 142.23 466.417ZM143.126 467.585V476.401H141.302V467.585H143.126ZM149.968 467.441C150.662 467.441 151.28 467.585 151.824 467.873C152.379 468.161 152.811 468.588 153.12 469.153C153.43 469.718 153.584 470.401 153.584 471.201V476.401H151.776V471.473C151.776 470.684 151.579 470.081 151.184 469.665C150.79 469.238 150.251 469.025 149.568 469.025C148.886 469.025 148.342 469.238 147.936 469.665C147.542 470.081 147.344 470.684 147.344 471.473V476.401H145.52V467.585H147.344V468.593C147.643 468.23 148.022 467.948 148.48 467.745C148.95 467.542 149.446 467.441 149.968 467.441ZM159.111 476.545C158.418 476.545 157.794 476.422 157.239 476.177C156.695 475.921 156.263 475.58 155.943 475.153C155.623 474.716 155.452 474.23 155.431 473.697H157.319C157.351 474.07 157.527 474.385 157.847 474.641C158.178 474.886 158.588 475.009 159.079 475.009C159.591 475.009 159.986 474.913 160.263 474.721C160.551 474.518 160.695 474.262 160.695 473.953C160.695 473.622 160.535 473.377 160.215 473.217C159.906 473.057 159.41 472.881 158.727 472.689C158.066 472.508 157.527 472.332 157.111 472.161C156.695 471.99 156.332 471.729 156.023 471.377C155.724 471.025 155.575 470.561 155.575 469.985C155.575 469.516 155.714 469.089 155.991 468.705C156.268 468.31 156.663 468.001 157.175 467.777C157.698 467.553 158.295 467.441 158.967 467.441C159.97 467.441 160.775 467.697 161.383 468.209C162.002 468.71 162.332 469.398 162.375 470.273H160.551C160.519 469.878 160.359 469.564 160.071 469.329C159.783 469.094 159.394 468.977 158.903 468.977C158.423 468.977 158.055 469.068 157.799 469.249C157.543 469.43 157.415 469.67 157.415 469.969C157.415 470.204 157.5 470.401 157.671 470.561C157.842 470.721 158.05 470.849 158.295 470.945C158.54 471.03 158.903 471.142 159.383 471.281C160.023 471.452 160.546 471.628 160.951 471.809C161.367 471.98 161.724 472.236 162.023 472.577C162.322 472.918 162.476 473.372 162.487 473.937C162.487 474.438 162.348 474.886 162.071 475.281C161.794 475.676 161.399 475.985 160.887 476.209C160.386 476.433 159.794 476.545 159.111 476.545ZM168.006 471.953C168.006 471.068 168.187 470.284 168.55 469.601C168.923 468.918 169.425 468.39 170.054 468.017C170.694 467.633 171.403 467.441 172.182 467.441C172.758 467.441 173.323 467.569 173.878 467.825C174.443 468.07 174.891 468.401 175.222 468.817V464.561H177.062V476.401H175.222V475.073C174.923 475.5 174.507 475.852 173.974 476.129C173.451 476.406 172.849 476.545 172.166 476.545C171.398 476.545 170.694 476.353 170.054 475.969C169.425 475.574 168.923 475.03 168.55 474.337C168.187 473.633 168.006 472.838 168.006 471.953ZM175.222 471.985C175.222 471.377 175.094 470.849 174.838 470.401C174.593 469.953 174.267 469.612 173.862 469.377C173.457 469.142 173.019 469.025 172.55 469.025C172.081 469.025 171.643 469.142 171.238 469.377C170.833 469.601 170.502 469.937 170.246 470.385C170.001 470.822 169.878 471.345 169.878 471.953C169.878 472.561 170.001 473.094 170.246 473.553C170.502 474.012 170.833 474.364 171.238 474.609C171.654 474.844 172.091 474.961 172.55 474.961C173.019 474.961 173.457 474.844 173.862 474.609C174.267 474.374 174.593 474.033 174.838 473.585C175.094 473.126 175.222 472.593 175.222 471.985ZM187.442 467.585V476.401H185.618V475.361C185.33 475.724 184.951 476.012 184.482 476.225C184.023 476.428 183.532 476.529 183.01 476.529C182.316 476.529 181.692 476.385 181.138 476.097C180.594 475.809 180.162 475.382 179.842 474.817C179.532 474.252 179.378 473.569 179.378 472.769V467.585H181.186V472.497C181.186 473.286 181.383 473.894 181.778 474.321C182.172 474.737 182.711 474.945 183.394 474.945C184.076 474.945 184.615 474.737 185.01 474.321C185.415 473.894 185.618 473.286 185.618 472.497V467.585H187.442ZM204.677 467.441C205.37 467.441 205.989 467.585 206.533 467.873C207.087 468.161 207.519 468.588 207.829 469.153C208.149 469.718 208.309 470.401 208.309 471.201V476.401H206.501V471.473C206.501 470.684 206.303 470.081 205.909 469.665C205.514 469.238 204.975 469.025 204.293 469.025C203.61 469.025 203.066 469.238 202.661 469.665C202.266 470.081 202.069 470.684 202.069 471.473V476.401H200.261V471.473C200.261 470.684 200.063 470.081 199.669 469.665C199.274 469.238 198.735 469.025 198.053 469.025C197.37 469.025 196.826 469.238 196.421 469.665C196.026 470.081 195.829 470.684 195.829 471.473V476.401H194.005V467.585H195.829V468.593C196.127 468.23 196.506 467.948 196.965 467.745C197.423 467.542 197.914 467.441 198.437 467.441C199.141 467.441 199.77 467.59 200.325 467.889C200.879 468.188 201.306 468.62 201.605 469.185C201.871 468.652 202.287 468.23 202.853 467.921C203.418 467.601 204.026 467.441 204.677 467.441ZM210.022 471.953C210.022 471.068 210.203 470.284 210.566 469.601C210.939 468.918 211.44 468.39 212.07 468.017C212.71 467.633 213.414 467.441 214.182 467.441C214.875 467.441 215.478 467.58 215.99 467.857C216.512 468.124 216.928 468.46 217.238 468.865V467.585H219.078V476.401H217.238V475.089C216.928 475.505 216.507 475.852 215.974 476.129C215.44 476.406 214.832 476.545 214.15 476.545C213.392 476.545 212.699 476.353 212.07 475.969C211.44 475.574 210.939 475.03 210.566 474.337C210.203 473.633 210.022 472.838 210.022 471.953ZM217.238 471.985C217.238 471.377 217.11 470.849 216.854 470.401C216.608 469.953 216.283 469.612 215.878 469.377C215.472 469.142 215.035 469.025 214.566 469.025C214.096 469.025 213.659 469.142 213.254 469.377C212.848 469.601 212.518 469.937 212.262 470.385C212.016 470.822 211.894 471.345 211.894 471.953C211.894 472.561 212.016 473.094 212.262 473.553C212.518 474.012 212.848 474.364 213.254 474.609C213.67 474.844 214.107 474.961 214.566 474.961C215.035 474.961 215.472 474.844 215.878 474.609C216.283 474.374 216.608 474.033 216.854 473.585C217.11 473.126 217.238 472.593 217.238 471.985ZM225.025 467.441C225.708 467.441 226.311 467.58 226.833 467.857C227.367 468.124 227.783 468.46 228.081 468.865V467.585H229.921V476.545C229.921 477.356 229.751 478.076 229.409 478.705C229.068 479.345 228.572 479.846 227.921 480.209C227.281 480.572 226.513 480.753 225.617 480.753C224.423 480.753 223.431 480.47 222.641 479.905C221.852 479.35 221.404 478.593 221.297 477.633H223.105C223.244 478.092 223.537 478.46 223.985 478.737C224.444 479.025 224.988 479.169 225.617 479.169C226.353 479.169 226.945 478.945 227.393 478.497C227.852 478.049 228.081 477.398 228.081 476.545V475.073C227.772 475.489 227.351 475.841 226.817 476.129C226.295 476.406 225.697 476.545 225.025 476.545C224.257 476.545 223.553 476.353 222.913 475.969C222.284 475.574 221.783 475.03 221.409 474.337C221.047 473.633 220.865 472.838 220.865 471.953C220.865 471.068 221.047 470.284 221.409 469.601C221.783 468.918 222.284 468.39 222.913 468.017C223.553 467.633 224.257 467.441 225.025 467.441ZM228.081 471.985C228.081 471.377 227.953 470.849 227.697 470.401C227.452 469.953 227.127 469.612 226.721 469.377C226.316 469.142 225.879 469.025 225.409 469.025C224.94 469.025 224.503 469.142 224.097 469.377C223.692 469.601 223.361 469.937 223.105 470.385C222.86 470.822 222.737 471.345 222.737 471.953C222.737 472.561 222.86 473.094 223.105 473.553C223.361 474.012 223.692 474.364 224.097 474.609C224.513 474.844 224.951 474.961 225.409 474.961C225.879 474.961 226.316 474.844 226.721 474.609C227.127 474.374 227.452 474.033 227.697 473.585C227.953 473.126 228.081 472.593 228.081 471.985ZM231.709 471.953C231.709 471.068 231.891 470.284 232.253 469.601C232.627 468.918 233.128 468.39 233.757 468.017C234.397 467.633 235.101 467.441 235.869 467.441C236.563 467.441 237.165 467.58 237.677 467.857C238.2 468.124 238.616 468.46 238.925 468.865V467.585H240.765V476.401H238.925V475.089C238.616 475.505 238.195 475.852 237.661 476.129C237.128 476.406 236.52 476.545 235.837 476.545C235.08 476.545 234.387 476.353 233.757 475.969C233.128 475.574 232.627 475.03 232.253 474.337C231.891 473.633 231.709 472.838 231.709 471.953ZM238.925 471.985C238.925 471.377 238.797 470.849 238.541 470.401C238.296 469.953 237.971 469.612 237.565 469.377C237.16 469.142 236.723 469.025 236.253 469.025C235.784 469.025 235.347 469.142 234.941 469.377C234.536 469.601 234.205 469.937 233.949 470.385C233.704 470.822 233.581 471.345 233.581 471.953C233.581 472.561 233.704 473.094 233.949 473.553C234.205 474.012 234.536 474.364 234.941 474.609C235.357 474.844 235.795 474.961 236.253 474.961C236.723 474.961 237.16 474.844 237.565 474.609C237.971 474.374 238.296 474.033 238.541 473.585C238.797 473.126 238.925 472.593 238.925 471.985ZM246.361 476.545C245.668 476.545 245.044 476.422 244.489 476.177C243.945 475.921 243.513 475.58 243.193 475.153C242.873 474.716 242.702 474.23 242.681 473.697H244.569C244.601 474.07 244.777 474.385 245.097 474.641C245.428 474.886 245.838 475.009 246.329 475.009C246.841 475.009 247.236 474.913 247.513 474.721C247.801 474.518 247.945 474.262 247.945 473.953C247.945 473.622 247.785 473.377 247.465 473.217C247.156 473.057 246.66 472.881 245.977 472.689C245.316 472.508 244.777 472.332 244.361 472.161C243.945 471.99 243.582 471.729 243.273 471.377C242.974 471.025 242.825 470.561 242.825 469.985C242.825 469.516 242.964 469.089 243.241 468.705C243.518 468.31 243.913 468.001 244.425 467.777C244.948 467.553 245.545 467.441 246.217 467.441C247.22 467.441 248.025 467.697 248.633 468.209C249.252 468.71 249.582 469.398 249.625 470.273H247.801C247.769 469.878 247.609 469.564 247.321 469.329C247.033 469.094 246.644 468.977 246.153 468.977C245.673 468.977 245.305 469.068 245.049 469.249C244.793 469.43 244.665 469.67 244.665 469.969C244.665 470.204 244.75 470.401 244.921 470.561C245.092 470.721 245.3 470.849 245.545 470.945C245.79 471.03 246.153 471.142 246.633 471.281C247.273 471.452 247.796 471.628 248.201 471.809C248.617 471.98 248.974 472.236 249.273 472.577C249.572 472.918 249.726 473.372 249.737 473.937C249.737 474.438 249.598 474.886 249.321 475.281C249.044 475.676 248.649 475.985 248.137 476.209C247.636 476.433 247.044 476.545 246.361 476.545ZM252.636 466.417C252.305 466.417 252.028 466.305 251.804 466.081C251.58 465.857 251.468 465.58 251.468 465.249C251.468 464.918 251.58 464.641 251.804 464.417C252.028 464.193 252.305 464.081 252.636 464.081C252.956 464.081 253.228 464.193 253.452 464.417C253.676 464.641 253.788 464.918 253.788 465.249C253.788 465.58 253.676 465.857 253.452 466.081C253.228 466.305 252.956 466.417 252.636 466.417ZM253.532 467.585V476.401H251.708V467.585H253.532ZM260.375 467.441C261.068 467.441 261.687 467.585 262.231 467.873C262.785 468.161 263.217 468.588 263.527 469.153C263.836 469.718 263.991 470.401 263.991 471.201V476.401H262.183V471.473C262.183 470.684 261.985 470.081 261.591 469.665C261.196 469.238 260.657 469.025 259.975 469.025C259.292 469.025 258.748 469.238 258.343 469.665C257.948 470.081 257.751 470.684 257.751 471.473V476.401H255.927V467.585H257.751V468.593C258.049 468.23 258.428 467.948 258.887 467.745C259.356 467.542 259.852 467.441 260.375 467.441Z" fill="#EDEDED"/>
<path d="M208 220.78C204.4 222.06 204.4 222.06 200.58 230.37C200.13 226.83 199.76 224.31 199.49 221.79C199.21 219.08 198.95 216.37 198.82 213.65C198.64 209.97 198.63 206.29 198.44 202.65C198.37 201.19 199 198.96 196.56 199C194.4 199 194.4 201.19 194.43 202.69C194.52 208.12 194.72 213.56 195.07 218.99C195.27 221.99 195.84 224.99 196.32 228.53C192.5 225.45 191.67 220.4 187 217.85C187.09 219.46 186.88 220.58 187.24 221.47C189.821 228.04 193.433 234.157 197.94 239.59C198.344 240.088 198.808 240.535 199.32 240.92C201.24 242.26 203.32 241.82 203.94 239.6C205.63 233.77 207.07 227.87 208.58 221.99C208.63 221.73 208.32 221.41 208 220.78Z" fill="#C1C1C1"/>
<path d="M192.586 350.897C196.186 349.617 196.186 349.617 200.006 341.307C200.456 344.847 200.826 347.367 201.096 349.887C201.376 352.597 201.636 355.307 201.766 358.027C201.946 361.707 201.956 365.387 202.146 369.027C202.216 370.487 201.586 372.717 204.026 372.677C206.186 372.677 206.186 370.487 206.156 368.987C206.066 363.557 205.866 358.117 205.516 352.687C205.316 349.687 204.746 346.687 204.266 343.147C208.086 346.227 208.916 351.277 213.586 353.827C213.496 352.217 213.706 351.097 213.346 350.207C210.765 343.636 207.153 337.52 202.646 332.087C202.242 331.589 201.778 331.142 201.266 330.757C199.346 329.417 197.266 329.857 196.646 332.077C194.956 337.907 193.516 343.807 192.006 349.687C191.956 349.947 192.266 350.267 192.586 350.897Z" fill="#C1C1C1"/>
</svg>
