<svg fill="none" height="498" viewBox="0 0 395 498" width="395" xmlns="http://www.w3.org/2000/svg"><path d="m1.184 16.832c0-2.176.50133-4.128 1.504-5.856 1.024-1.728 2.4-3.072 4.128-4.032 1.74933-.98134 3.6587-1.472 5.728-1.472 2.368 0 4.4693.58666 6.304 1.76 1.856 1.152 3.2 2.7947 4.032 4.928h-4.384c-.576-1.1733-1.376-2.048-2.4-2.624s-2.208-.864-3.552-.864c-1.472 0-2.784.33067-3.936.992-1.152.6613-2.05867 1.6107-2.72 2.848-.64 1.2373-.96 2.6773-.96 4.32s.32 3.0827.96 4.32c.66133 1.2373 1.568 2.1973 2.72 2.88 1.152.6613 2.464.992 3.936.992 1.344 0 2.528-.288 3.552-.864s1.824-1.4507 2.4-2.624h4.384c-.832 2.1333-2.176 3.776-4.032 4.928-1.8347 1.152-3.936 1.728-6.304 1.728-2.0907 0-4-.48-5.728-1.44-1.728-.9813-3.104-2.336-4.128-4.064-1.00267-1.728-1.504-3.68-1.504-5.856zm33.614 11.456c-1.664 0-3.168-.3733-4.512-1.12-1.344-.768-2.4-1.8347-3.168-3.2-.768-1.3867-1.152-2.9867-1.152-4.8 0-1.792.3947-3.3813 1.184-4.768s1.8667-2.4533 3.232-3.2 2.8907-1.12 4.576-1.12 3.2107.3733 4.576 1.12 2.4427 1.8133 3.232 3.2 1.184 2.976 1.184 4.768-.4053 3.3813-1.216 4.768-1.92 2.464-3.328 3.232c-1.3867.7467-2.9227 1.12-4.608 1.12zm0-3.168c.9387 0 1.8133-.224 2.624-.672.832-.448 1.504-1.12 2.016-2.016s.768-1.984.768-3.264-.2453-2.3573-.736-3.232c-.4907-.896-1.1413-1.568-1.952-2.016s-1.6853-.672-2.624-.672-1.8133.224-2.624.672c-.7893.448-1.4187 1.12-1.888 2.016-.4693.8747-.704 1.952-.704 3.232 0 1.8987.48 3.3707 1.44 4.416.9813 1.024 2.208 1.536 3.68 1.536zm34.1023-15.04c1.3866 0 2.624.288 3.712.864 1.1093.576 1.9733 1.4293 2.592 2.56.64 1.1307.96 2.496.96 4.096v10.4h-3.616v-9.856c0-1.5787-.3947-2.784-1.184-3.616-.7894-.8533-1.8667-1.28-3.232-1.28-1.3654 0-2.4534.4267-3.264 1.28-.7894.832-1.184 2.0373-1.184 3.616v9.856h-3.616v-9.856c0-1.5787-.3947-2.784-1.184-3.616-.7894-.8533-1.8667-1.28-3.232-1.28-1.3654 0-2.4534.4267-3.264 1.28-.7894.832-1.184 2.0373-1.184 3.616v9.856h-3.648v-17.632h3.648v2.016c.5973-.7253 1.3546-1.2907 2.272-1.696.9173-.4053 1.8986-.608 2.944-.608 1.408 0 2.6666.2987 3.776.896 1.1093.5973 1.9626 1.4613 2.56 2.592.5333-1.0667 1.3653-1.9093 2.496-2.528 1.1306-.64 2.3466-.96 3.648-.96zm33.2497 0c1.387 0 2.624.288 3.712.864 1.11.576 1.974 1.4293 2.592 2.56.64 1.1307.96 2.496.96 4.096v10.4h-3.616v-9.856c0-1.5787-.394-2.784-1.184-3.616-.789-.8533-1.866-1.28-3.232-1.28-1.365 0-2.4531.4267-3.2637 1.28-.7894.832-1.184 2.0373-1.184 3.616v9.856h-3.616v-9.856c0-1.5787-.3947-2.784-1.184-3.616-.7894-.8533-1.8667-1.28-3.232-1.28-1.3654 0-2.4534.4267-3.264 1.28-.7894.832-1.184 2.0373-1.184 3.616v9.856h-3.648v-17.632h3.648v2.016c.5973-.7253 1.3546-1.2907 2.272-1.696.9173-.4053 1.8986-.608 2.944-.608 1.408 0 2.6666.2987 3.776.896 1.1093.5973 1.9626 1.4613 2.56 2.592.5333-1.0667 1.3653-1.9093 2.496-2.528 1.1306-.64 2.3467-.96 3.6477-.96zm28.066 8.672c0 .6613-.042 1.2587-.128 1.792h-13.472c.107 1.408.63 2.5387 1.568 3.392.939.8533 2.091 1.28 3.456 1.28 1.963 0 3.35-.8213 4.16-2.464h3.936c-.533 1.6213-1.504 2.9547-2.912 4-1.386 1.024-3.114 1.536-5.184 1.536-1.685 0-3.2-.3733-4.544-1.12-1.322-.768-2.368-1.8347-3.136-3.2-.746-1.3867-1.12-2.9867-1.12-4.8s.363-3.4027 1.088-4.768c.747-1.3867 1.782-2.4533 3.104-3.2 1.344-.7467 2.88-1.12 4.608-1.12 1.664 0 3.147.3627 4.448 1.088 1.302.7253 2.315 1.7493 3.04 3.072.726 1.3013 1.088 2.8053 1.088 4.512zm-3.808-1.152c-.021-1.344-.501-2.4213-1.44-3.232-.938-.8107-2.101-1.216-3.488-1.216-1.258 0-2.336.4053-3.232 1.216-.896.7893-1.429 1.8667-1.6 3.232zm16.294-7.52c1.387 0 2.624.288 3.712.864 1.11.576 1.974 1.4293 2.592 2.56.619 1.1307.928 2.496.928 4.096v10.4h-3.616v-9.856c0-1.5787-.394-2.784-1.184-3.616-.789-.8533-1.866-1.28-3.232-1.28-1.365 0-2.453.4267-3.264 1.28-.789.832-1.184 2.0373-1.184 3.616v9.856h-3.648v-17.632h3.648v2.016c.598-.7253 1.355-1.2907 2.272-1.696.939-.4053 1.931-.608 2.976-.608zm16.142 3.264v9.76c0 .6613.149 1.1413.448 1.44.32.2773.853.416 1.6.416h2.24v3.04h-2.88c-1.643 0-2.902-.384-3.776-1.152-.875-.768-1.312-2.016-1.312-3.744v-9.76h-2.08v-2.976h2.08v-4.384h3.68v4.384h4.288v2.976zm23.386 11.872c2.112 0 3.51-.928 4.192-2.784h3.936c-.469 1.6213-1.312 2.9547-2.528 4-1.194 1.024-2.698 1.6213-4.512 1.792v1.312c1.238 0 2.24.288 3.008.864.768.5973 1.152 1.4293 1.152 2.496s-.384 1.9093-1.152 2.528c-.768.64-1.738.96-2.912.96h-4.224v-2.304h3.488c.598 0 1.046-.0853 1.344-.256.299-.1707.448-.48.448-.928s-.149-.7573-.448-.928c-.298-.1707-.746-.256-1.344-.256h-1.76v-3.52c-1.45-.1707-2.73-.6507-3.84-1.44-1.109-.8107-1.973-1.856-2.592-3.136-.597-1.3013-.896-2.784-.896-4.448 0-1.8133.363-3.4027 1.088-4.768.747-1.3867 1.771-2.4533 3.072-3.2 1.302-.7467 2.795-1.12 4.48-1.12 2.134 0 3.894.512 5.28 1.536 1.408 1.0027 2.358 2.4427 2.848 4.32h-3.936c-.32-.8747-.832-1.5573-1.536-2.048s-1.589-.736-2.656-.736c-1.493 0-2.688.5333-3.584 1.6-.874 1.0453-1.312 2.5173-1.312 4.416s.438 3.3813 1.312 4.448c.896 1.0667 2.091 1.6 3.584 1.6zm10.548-6.112c0-1.7707.362-3.3387 1.088-4.704.746-1.3653 1.749-2.4213 3.008-3.168 1.28-.768 2.688-1.152 4.224-1.152 1.386 0 2.592.2773 3.616.832 1.045.5333 1.877 1.2053 2.496 2.016v-2.56h3.68v17.632h-3.68v-2.624c-.619.832-1.462 1.5253-2.528 2.08-1.067.5547-2.283.832-3.648.832-1.515 0-2.902-.384-4.16-1.152-1.259-.7893-2.262-1.8773-3.008-3.264-.726-1.408-1.088-2.9973-1.088-4.768zm14.432.064c0-1.216-.256-2.272-.768-3.168-.491-.896-1.142-1.5787-1.952-2.048-.811-.4693-1.686-.704-2.624-.704-.939 0-1.814.2347-2.624.704-.811.448-1.472 1.12-1.984 2.016-.491.8747-.736 1.92-.736 3.136s.245 2.2827.736 3.2c.512.9173 1.173 1.6213 1.984 2.112.832.4693 1.706.704 2.624.704.938 0 1.813-.2347 2.624-.704.81-.4693 1.461-1.152 1.952-2.048.512-.9173.768-1.984.768-3.2zm24.176-5.824h-3.264v14.656h-3.68v-14.656h-2.08v-2.976h2.08v-1.248c0-2.02667.533-3.49867 1.6-4.416 1.088-.93867 2.784-1.408 5.088-1.408v3.04c-1.11 0-1.888.21333-2.336.64-.448.40533-.672 1.12-.672 2.144v1.248h3.264zm10.881 14.944c-1.664 0-3.168-.3733-4.512-1.12-1.344-.768-2.4-1.8347-3.168-3.2-.768-1.3867-1.152-2.9867-1.152-4.8 0-1.792.394-3.3813 1.184-4.768.789-1.3867 1.866-2.4533 3.232-3.2 1.365-.7467 2.89-1.12 4.576-1.12 1.685 0 3.21.3733 4.576 1.12 1.365.7467 2.442 1.8133 3.232 3.2.789 1.3867 1.184 2.976 1.184 4.768s-.406 3.3813-1.216 4.768c-.811 1.3867-1.92 2.464-3.328 3.232-1.387.7467-2.923 1.12-4.608 1.12zm0-3.168c.938 0 1.813-.224 2.624-.672.832-.448 1.504-1.12 2.016-2.016s.768-1.984.768-3.264-.246-2.3573-.736-3.232c-.491-.896-1.142-1.568-1.952-2.016-.811-.448-1.686-.672-2.624-.672-.939 0-1.814.224-2.624.672-.79.448-1.419 1.12-1.888 2.016-.47.8747-.704 1.952-.704 3.232 0 1.8987.48 3.3707 1.44 4.416.981 1.024 2.208 1.536 3.68 1.536zm21.654-15.04c1.387 0 2.624.288 3.712.864 1.109.576 1.973 1.4293 2.592 2.56s.928 2.496.928 4.096v10.4h-3.616v-9.856c0-1.5787-.395-2.784-1.184-3.616-.789-.8533-1.867-1.28-3.232-1.28s-2.453.4267-3.264 1.28c-.789.832-1.184 2.0373-1.184 3.616v9.856h-3.648v-17.632h3.648v2.016c.597-.7253 1.355-1.2907 2.272-1.696.939-.4053 1.931-.608 2.976-.608zm10.669 9.088c0-1.8133.363-3.4027 1.088-4.768.747-1.3867 1.771-2.4533 3.072-3.2 1.302-.7467 2.795-1.12 4.48-1.12 2.134 0 3.894.512 5.28 1.536 1.408 1.0027 2.358 2.4427 2.848 4.32h-3.936c-.32-.8747-.832-1.5573-1.536-2.048s-1.589-.736-2.656-.736c-1.493 0-2.688.5333-3.584 1.6-.874 1.0453-1.312 2.5173-1.312 4.416s.438 3.3813 1.312 4.448c.896 1.0667 2.091 1.6 3.584 1.6 2.112 0 3.51-.928 4.192-2.784h3.936c-.512 1.792-1.472 3.2213-2.88 4.288-1.408 1.0453-3.157 1.568-5.248 1.568-1.685 0-3.178-.3733-4.48-1.12-1.301-.768-2.325-1.8347-3.072-3.2-.725-1.3867-1.088-2.9867-1.088-4.8zm24.66-5.824v9.76c0 .6613.149 1.1413.448 1.44.32.2773.853.416 1.6.416h2.24v3.04h-2.88c-1.643 0-2.902-.384-3.776-1.152-.875-.768-1.312-2.016-1.312-3.744v-9.76h-2.08v-2.976h2.08v-4.384h3.68v4.384h4.288v2.976zm9.506-5.312c-.661 0-1.216-.224-1.664-.672s-.672-1.00267-.672-1.664.224-1.216.672-1.664 1.003-.672 1.664-.672c.64 0 1.184.224 1.632.672s.672 1.00267.672 1.664-.224 1.216-.672 1.664-.992.672-1.632.672zm1.792 2.336v17.632h-3.648v-17.632zm12.438 17.92c-1.664 0-3.168-.3733-4.512-1.12-1.344-.768-2.4-1.8347-3.168-3.2-.768-1.3867-1.152-2.9867-1.152-4.8 0-1.792.394-3.3813 1.184-4.768.789-1.3867 1.866-2.4533 3.232-3.2 1.365-.7467 2.89-1.12 4.576-1.12 1.685 0 3.21.3733 4.576 1.12 1.365.7467 2.442 1.8133 3.232 3.2.789 1.3867 1.184 2.976 1.184 4.768s-.406 3.3813-1.216 4.768c-.811 1.3867-1.92 2.464-3.328 3.232-1.387.7467-2.923 1.12-4.608 1.12zm0-3.168c.938 0 1.813-.224 2.624-.672.832-.448 1.504-1.12 2.016-2.016s.768-1.984.768-3.264-.246-2.3573-.736-3.232c-.491-.896-1.142-1.568-1.952-2.016-.811-.448-1.686-.672-2.624-.672-.939 0-1.814.224-2.624.672-.79.448-1.419 1.12-1.888 2.016-.47.8747-.704 1.952-.704 3.232 0 1.8987.48 3.3707 1.44 4.416.981 1.024 2.208 1.536 3.68 1.536zm21.654-15.04c1.386 0 2.624.288 3.712.864 1.109.576 1.973 1.4293 2.592 2.56.618 1.1307.928 2.496.928 4.096v10.4h-3.616v-9.856c0-1.5787-.395-2.784-1.184-3.616-.79-.8533-1.867-1.28-3.232-1.28-1.366 0-2.454.4267-3.264 1.28-.79.832-1.184 2.0373-1.184 3.616v9.856h-3.648v-17.632h3.648v2.016c.597-.7253 1.354-1.2907 2.272-1.696.938-.4053 1.93-.608 2.976-.608zm20.781 0c1.387 0 2.624.288 3.712.864 1.109.576 1.973 1.4293 2.592 2.56s.928 2.496.928 4.096v10.4h-3.616v-9.856c0-1.5787-.395-2.784-1.184-3.616-.789-.8533-1.867-1.28-3.232-1.28s-2.453.4267-3.264 1.28c-.789.832-1.184 2.0373-1.184 3.616v9.856h-3.648v-17.632h3.648v2.016c.597-.7253 1.355-1.2907 2.272-1.696.939-.4053 1.931-.608 2.976-.608zm28.045 8.672c0 .6613-.042 1.2587-.128 1.792h-13.472c.107 1.408.63 2.5387 1.568 3.392.939.8533 2.091 1.28 3.456 1.28 1.963 0 3.35-.8213 4.16-2.464h3.936c-.533 1.6213-1.504 2.9547-2.912 4-1.386 1.024-3.114 1.536-5.184 1.536-1.685 0-3.2-.3733-4.544-1.12-1.322-.768-2.368-1.8347-3.136-3.2-.746-1.3867-1.12-2.9867-1.12-4.8s.363-3.4027 1.088-4.768c.747-1.3867 1.782-2.4533 3.104-3.2 1.344-.7467 2.88-1.12 4.608-1.12 1.664 0 3.147.3627 4.448 1.088 1.302.7253 2.315 1.7493 3.04 3.072.726 1.3013 1.088 2.8053 1.088 4.512zm-3.808-1.152c-.021-1.344-.501-2.4213-1.44-3.232-.938-.8107-2.101-1.216-3.488-1.216-1.258 0-2.336.4053-3.232 1.216-.896.7893-1.429 1.8667-1.6 3.232z" fill="#c1c1c1"/><rect fill="#ba27ed" height="116" rx="58" width="288" x="54" y="74"/><path d="m150.036 106.228c0-1.904.439-3.612 1.316-5.124.896-1.512 2.1-2.688 3.612-3.528 1.531-.8587 3.201-1.288 5.012-1.288 2.072 0 3.911.5133 5.516 1.54 1.624 1.008 2.8 2.445 3.528 4.312h-3.836c-.504-1.027-1.204-1.792-2.1-2.296s-1.932-.756-3.108-.756c-1.288 0-2.436.2893-3.444.868-1.008.579-1.801 1.409-2.38 2.492-.56 1.083-.84 2.343-.84 3.78s.28 2.697.84 3.78c.579 1.083 1.372 1.923 2.38 2.52 1.008.579 2.156.868 3.444.868 1.176 0 2.212-.252 3.108-.756s1.596-1.269 2.1-2.296h3.836c-.728 1.867-1.904 3.304-3.528 4.312-1.605 1.008-3.444 1.512-5.516 1.512-1.829 0-3.5-.42-5.012-1.26-1.512-.859-2.716-2.044-3.612-3.556-.877-1.512-1.316-3.22-1.316-5.124zm25.912-10.948v20.72h-3.192v-20.72zm5.815 3.248c-.579 0-1.064-.196-1.456-.588s-.588-.8773-.588-1.456.196-1.064.588-1.456.877-.588 1.456-.588c.56 0 1.036.196 1.428.588s.588.8773.588 1.456-.196 1.064-.588 1.456-.868.588-1.428.588zm1.568 2.044v15.428h-3.192v-15.428zm18.331 7.336c0 .579-.037 1.101-.112 1.568h-11.788c.093 1.232.551 2.221 1.372 2.968s1.829 1.12 3.024 1.12c1.717 0 2.931-.719 3.64-2.156h3.444c-.467 1.419-1.316 2.585-2.548 3.5-1.213.896-2.725 1.344-4.536 1.344-1.475 0-2.8-.327-3.976-.98-1.157-.672-2.072-1.605-2.744-2.8-.653-1.213-.98-2.613-.98-4.2s.317-2.977.952-4.172c.653-1.213 1.559-2.147 2.716-2.8 1.176-.653 2.52-.98 4.032-.98 1.456 0 2.753.317 3.892.952s2.025 1.531 2.66 2.688c.635 1.139.952 2.455.952 3.948zm-3.332-1.008c-.019-1.176-.439-2.119-1.26-2.828s-1.839-1.064-3.052-1.064c-1.101 0-2.044.355-2.828 1.064-.784.691-1.251 1.633-1.4 2.828zm14.257-6.58c1.213 0 2.296.252 3.248.756.971.504 1.727 1.251 2.268 2.24s.812 2.184.812 3.584v9.1h-3.164v-8.624c0-1.381-.345-2.436-1.036-3.164-.691-.747-1.633-1.12-2.828-1.12s-2.147.373-2.856 1.12c-.691.728-1.036 1.783-1.036 3.164v8.624h-3.192v-15.428h3.192v1.764c.523-.635 1.185-1.129 1.988-1.484.821-.355 1.689-.532 2.604-.532zm14.124 2.856v8.54c0 .579.13.999.392 1.26.28.243.746.364 1.4.364h1.96v2.66h-2.52c-1.438 0-2.539-.336-3.304-1.008-.766-.672-1.148-1.764-1.148-3.276v-8.54h-1.82v-2.604h1.82v-3.836h3.22v3.836h3.752v2.604zm12.294 13.076c-1.214 0-2.306-.215-3.276-.644-.952-.448-1.708-1.045-2.268-1.792-.56-.765-.859-1.615-.896-2.548h3.304c.056.653.364 1.204.924 1.652.578.429 1.297.644 2.156.644.896 0 1.586-.168 2.072-.504.504-.355.756-.803.756-1.344 0-.579-.28-1.008-.84-1.288-.542-.28-1.41-.588-2.604-.924-1.158-.317-2.1-.625-2.828-.924s-1.363-.756-1.904-1.372c-.523-.616-.784-1.428-.784-2.436 0-.821.242-1.568.728-2.24.485-.691 1.176-1.232 2.072-1.624.914-.392 1.96-.588 3.136-.588 1.754 0 3.164.448 4.228 1.344 1.082.877 1.661 2.081 1.736 3.612h-3.192c-.056-.691-.336-1.241-.84-1.652s-1.186-.616-2.044-.616c-.84 0-1.484.159-1.932.476s-.672.737-.672 1.26c0 .411.149.756.448 1.036.298.28.662.504 1.092.672.429.149 1.064.345 1.904.588 1.12.299 2.034.607 2.744.924.728.299 1.353.747 1.876 1.344.522.597.793 1.391.812 2.38 0 .877-.243 1.661-.728 2.352-.486.691-1.176 1.232-2.072 1.624-.878.392-1.914.588-3.108.588z" fill="#fff"/><path d="m88.5437 147.112c-.7467 0-1.4187-.128-2.016-.384-.5973-.267-1.0667-.64-1.408-1.12s-.512-1.04-.512-1.68h1.952c.0427.48.2293.875.56 1.184.3413.309.816.464 1.424.464.6293 0 1.12-.149 1.472-.448.352-.309.528-.704.528-1.184 0-.373-.112-.677-.336-.912-.2133-.235-.4853-.416-.816-.544-.32-.128-.768-.267-1.344-.416-.7253-.192-1.3173-.384-1.776-.576-.448-.203-.832-.512-1.152-.928s-.48-.971-.48-1.664c0-.64.16-1.2.48-1.68s.768-.848 1.344-1.104 1.2427-.384 2-.384c1.0773 0 1.9573.272 2.64.816.6933.533 1.0773 1.269 1.152 2.208h-2.016c-.032-.405-.224-.752-.576-1.04s-.816-.432-1.392-.432c-.5227 0-.9493.133-1.28.4s-.496.651-.496 1.152c0 .341.1013.624.304.848.2133.213.48.384.8.512s.7573.267 1.312.416c.736.203 1.3333.405 1.792.608.4693.203.864.517 1.184.944.3307.416.496.976.496 1.68 0 .565-.1547 1.099-.464 1.6-.2987.501-.7413.907-1.328 1.216-.576.299-1.2587.448-2.048.448zm5.3842-4.56c0-.885.1814-1.669.544-2.352.3734-.683.8747-1.211 1.504-1.584.64-.384 1.344-.576 2.112-.576.6934 0 1.296.139 1.808.416.5231.267.9391.603 1.2481 1.008v-1.28h1.84v8.816h-1.84v-1.312c-.309.416-.731.763-1.2641 1.04-.5333.277-1.1413.416-1.824.416-.7573 0-1.4506-.192-2.08-.576-.6293-.395-1.1306-.939-1.504-1.632-.3626-.704-.544-1.499-.544-2.384zm7.2161.032c0-.608-.128-1.136-.384-1.584-.245-.448-.571-.789-.9761-1.024-.4053-.235-.8426-.352-1.312-.352-.4693 0-.9066.117-1.312.352-.4053.224-.736.56-.992 1.008-.2453.437-.368.96-.368 1.568s.1227 1.141.368 1.6c.256.459.5867.811.992 1.056.416.235.8534.352 1.312.352.4694 0 .9067-.117 1.312-.352.4051-.235.7311-.576.9761-1.024.256-.459.384-.992.384-1.6zm5.164-5.568c-.331 0-.608-.112-.832-.336s-.336-.501-.336-.832.112-.608.336-.832.501-.336.832-.336c.32 0 .592.112.816.336s.336.501.336.832-.112.608-.336.832-.496.336-.816.336zm.896 1.168v8.816h-1.824v-8.816zm5.594 8.96c-.693 0-1.317-.123-1.872-.368-.544-.256-.976-.597-1.296-1.024-.32-.437-.49-.923-.512-1.456h1.888c.032.373.208.688.528.944.331.245.742.368 1.232.368.512 0 .907-.096 1.184-.288.288-.203.432-.459.432-.768 0-.331-.16-.576-.48-.736-.309-.16-.805-.336-1.488-.528-.661-.181-1.2-.357-1.616-.528s-.778-.432-1.088-.784c-.298-.352-.448-.816-.448-1.392 0-.469.139-.896.416-1.28.278-.395.672-.704 1.184-.928.523-.224 1.12-.336 1.792-.336 1.003 0 1.808.256 2.416.768.619.501.95 1.189.992 2.064h-1.824c-.032-.395-.192-.709-.48-.944s-.677-.352-1.168-.352c-.48 0-.848.091-1.104.272s-.384.421-.384.72c0 .235.086.432.256.592.171.16.379.288.624.384.246.085.608.197 1.088.336.64.171 1.163.347 1.568.528.416.171.774.427 1.072.768.299.341.454.795.464 1.36 0 .501-.138.949-.416 1.344-.277.395-.672.704-1.184.928-.501.224-1.093.336-1.776.336zm6.275-10.128c-.33 0-.608-.112-.832-.336s-.336-.501-.336-.832.112-.608.336-.832.502-.336.832-.336c.32 0 .592.112.816.336s.336.501.336.832-.112.608-.336.832-.496.336-.816.336zm.896 1.168v8.816h-1.824v-8.816zm5.595 8.96c-.693 0-1.317-.123-1.872-.368-.544-.256-.976-.597-1.296-1.024-.32-.437-.491-.923-.512-1.456h1.888c.032.373.208.688.528.944.331.245.741.368 1.232.368.512 0 .907-.096 1.184-.288.288-.203.432-.459.432-.768 0-.331-.16-.576-.48-.736-.309-.16-.805-.336-1.488-.528-.661-.181-1.2-.357-1.616-.528s-.779-.432-1.088-.784c-.299-.352-.448-.816-.448-1.392 0-.469.139-.896.416-1.28.277-.395.672-.704 1.184-.928.523-.224 1.12-.336 1.792-.336 1.003 0 1.808.256 2.416.768.619.501.949 1.189.992 2.064h-1.824c-.032-.395-.192-.709-.48-.944s-.677-.352-1.168-.352c-.48 0-.848.091-1.104.272s-.384.421-.384.72c0 .235.085.432.256.592s.379.288.624.384c.245.085.608.197 1.088.336.64.171 1.163.347 1.568.528.416.171.773.427 1.072.768s.453.795.464 1.36c0 .501-.139.949-.416 1.344s-.672.704-1.184.928c-.501.224-1.093.336-1.776.336zm8.547 0c-.693 0-1.317-.123-1.872-.368-.544-.256-.976-.597-1.296-1.024-.32-.437-.491-.923-.512-1.456h1.888c.032.373.208.688.528.944.331.245.741.368 1.232.368.512 0 .907-.096 1.184-.288.288-.203.432-.459.432-.768 0-.331-.16-.576-.48-.736-.309-.16-.805-.336-1.488-.528-.661-.181-1.2-.357-1.616-.528s-.779-.432-1.088-.784c-.299-.352-.448-.816-.448-1.392 0-.469.139-.896.416-1.28.277-.395.672-.704 1.184-.928.523-.224 1.12-.336 1.792-.336 1.003 0 1.808.256 2.416.768.619.501.949 1.189.992 2.064h-1.824c-.032-.395-.192-.709-.48-.944s-.677-.352-1.168-.352c-.48 0-.848.091-1.104.272s-.384.421-.384.72c0 .235.085.432.256.592s.379.288.624.384c.245.085.608.197 1.088.336.64.171 1.163.347 1.568.528.416.171.773.427 1.072.768s.453.795.464 1.36c0 .501-.139.949-.416 1.344s-.672.704-1.184.928c-.501.224-1.093.336-1.776.336zm13.427-4.768c0 .331-.022.629-.064.896h-6.736c.053.704.314 1.269.784 1.696.469.427 1.045.64 1.728.64.981 0 1.674-.411 2.08-1.232h1.968c-.267.811-.752 1.477-1.456 2-.694.512-1.558.768-2.592.768-.843 0-1.6-.187-2.272-.56-.662-.384-1.184-.917-1.568-1.6-.374-.693-.56-1.493-.56-2.4s.181-1.701.544-2.384c.373-.693.89-1.227 1.552-1.6.672-.373 1.44-.56 2.304-.56.832 0 1.573.181 2.224.544.65.363 1.157.875 1.52 1.536.362.651.544 1.403.544 2.256zm-1.904-.576c-.011-.672-.251-1.211-.72-1.616-.47-.405-1.051-.608-1.744-.608-.63 0-1.168.203-1.616.608-.448.395-.715.933-.8 1.616zm5.315 3.712h4v1.488h-6.112v-1.488l4.016-5.84h-4.016v-1.488h6.112v1.488zm14.519-7.472c.694 0 1.312.144 1.856.432.555.288.987.715 1.296 1.28.31.565.464 1.248.464 2.048v5.2h-1.808v-4.928c0-.789-.197-1.392-.592-1.808-.394-.427-.933-.64-1.616-.64-.682 0-1.226.213-1.632.64-.394.416-.592 1.019-.592 1.808v4.928h-1.824v-8.816h1.824v1.008c.299-.363.678-.645 1.136-.848.47-.203.966-.304 1.488-.304zm6.935-3.792-.192 3.28h-1.248l-.208-3.28zm2.686 2.768c-.331 0-.608-.112-.832-.336s-.336-.501-.336-.832.112-.608.336-.832.501-.336.832-.336c.32 0 .592.112.816.336s.336.501.336.832-.112.608-.336.832-.496.336-.816.336zm.896 1.168v8.816h-1.824v-8.816zm13.067-.144c.693 0 1.312.144 1.856.432.554.288.986.715 1.296 1.28.32.565.48 1.248.48 2.048v5.2h-1.808v-4.928c0-.789-.198-1.392-.592-1.808-.395-.427-.934-.64-1.616-.64-.683 0-1.227.213-1.632.64-.395.416-.592 1.019-.592 1.808v4.928h-1.808v-4.928c0-.789-.198-1.392-.592-1.808-.395-.427-.934-.64-1.616-.64-.683 0-1.227.213-1.632.64-.395.416-.592 1.019-.592 1.808v4.928h-1.824v-8.816h1.824v1.008c.298-.363.677-.645 1.136-.848.458-.203.949-.304 1.472-.304.704 0 1.333.149 1.888.448.554.299.981.731 1.28 1.296.266-.533.682-.955 1.248-1.264.565-.32 1.173-.48 1.824-.48zm7.777 1.44c.309-.405.73-.747 1.264-1.024.533-.277 1.136-.416 1.808-.416.768 0 1.466.192 2.096.576.64.373 1.141.901 1.504 1.584.362.683.544 1.467.544 2.352s-.182 1.68-.544 2.384c-.363.693-.864 1.237-1.504 1.632-.63.384-1.328.576-2.096.576-.672 0-1.27-.133-1.792-.4-.523-.277-.95-.619-1.28-1.024v5.472h-1.824v-13.008h1.824zm5.36 3.072c0-.608-.128-1.131-.384-1.568-.246-.448-.576-.784-.992-1.008-.406-.235-.843-.352-1.312-.352-.459 0-.896.117-1.312.352-.406.235-.736.576-.992 1.024-.246.448-.368.976-.368 1.584s.122 1.141.368 1.6c.256.448.586.789.992 1.024.416.235.853.352 1.312.352.469 0 .906-.117 1.312-.352.416-.245.746-.597.992-1.056.256-.459.384-.992.384-1.6zm7.483 4.592c-.832 0-1.584-.187-2.256-.56-.672-.384-1.2-.917-1.584-1.6-.384-.693-.576-1.493-.576-2.4 0-.896.198-1.691.592-2.384.395-.693.934-1.227 1.616-1.6.683-.373 1.446-.56 2.288-.56.843 0 1.606.187 2.288.56.683.373 1.222.907 1.616 1.6.395.693.592 1.488.592 2.384s-.202 1.691-.608 2.384c-.405.693-.96 1.232-1.664 1.616-.693.373-1.461.56-2.304.56zm0-1.584c.47 0 .907-.112 1.312-.336.416-.224.752-.56 1.008-1.008s.384-.992.384-1.632-.122-1.179-.368-1.616c-.245-.448-.57-.784-.976-1.008-.405-.224-.842-.336-1.312-.336-.469 0-.906.112-1.312.336-.394.224-.709.56-.944 1.008-.234.437-.352.976-.352 1.616 0 .949.24 1.685.72 2.208.491.512 1.104.768 1.84.768zm8.204-6.096c.266-.448.618-.795 1.056-1.04.448-.256.976-.384 1.584-.384v1.888h-.464c-.715 0-1.259.181-1.632.544-.363.363-.544.992-.544 1.888v4.64h-1.824v-8.816h1.824zm6.444.208v4.88c0 .331.075.571.224.72.16.139.427.208.8.208h1.12v1.52h-1.44c-.821 0-1.45-.192-1.888-.576-.437-.384-.656-1.008-.656-1.872v-4.88h-1.04v-1.488h1.04v-2.192h1.84v2.192h2.144v1.488zm11.905 2.704c0 .331-.021.629-.064.896h-6.736c.054.704.315 1.269.784 1.696.47.427 1.046.64 1.728.64.982 0 1.675-.411 2.08-1.232h1.968c-.266.811-.752 1.477-1.456 2-.693.512-1.557.768-2.592.768-.842 0-1.6-.187-2.272-.56-.661-.384-1.184-.917-1.568-1.6-.373-.693-.56-1.493-.56-2.4s.182-1.701.544-2.384c.374-.693.891-1.227 1.552-1.6.672-.373 1.44-.56 2.304-.56.832 0 1.574.181 2.224.544.651.363 1.158.875 1.52 1.536.363.651.544 1.403.544 2.256zm-1.904-.576c-.01-.672-.25-1.211-.72-1.616-.469-.405-1.05-.608-1.744-.608-.629 0-1.168.203-1.616.608-.448.395-.714.933-.8 1.616zm7.248.752c0-.885.181-1.669.544-2.352.373-.683.874-1.211 1.504-1.584.64-.384 1.349-.576 2.128-.576.682 0 1.285.139 1.808.416.533.277.944.613 1.232 1.008v-1.28h1.84v13.008h-1.84v-5.472c-.288.395-.704.731-1.248 1.008s-1.163.416-1.856.416c-.758 0-1.451-.192-2.08-.576-.619-.395-1.115-.939-1.488-1.632-.363-.704-.544-1.499-.544-2.384zm7.216.032c0-.608-.128-1.136-.384-1.584-.246-.448-.571-.789-.976-1.024-.406-.235-.843-.352-1.312-.352-.47 0-.907.117-1.312.352-.406.224-.736.56-.992 1.008-.246.437-.368.96-.368 1.568s.122 1.141.368 1.6c.256.459.586.811.992 1.056.416.235.853.352 1.312.352.469 0 .906-.117 1.312-.352.405-.235.73-.576.976-1.024.256-.459.384-.992.384-1.6zm12.219-4.4v8.816h-1.824v-1.04c-.288.363-.666.651-1.136.864-.458.203-.949.304-1.472.304-.693 0-1.317-.144-1.872-.432-.544-.288-.976-.715-1.296-1.28-.309-.565-.464-1.248-.464-2.048v-5.184h1.808v4.912c0 .789.198 1.397.592 1.824.395.416.934.624 1.616.624.683 0 1.222-.208 1.616-.624.406-.427.608-1.035.608-1.824v-4.912zm10.487 4.192c0 .331-.021.629-.064.896h-6.736c.053.704.315 1.269.784 1.696s1.045.64 1.728.64c.981 0 1.675-.411 2.08-1.232h1.968c-.267.811-.752 1.477-1.456 2-.693.512-1.557.768-2.592.768-.843 0-1.6-.187-2.272-.56-.661-.384-1.184-.917-1.568-1.6-.373-.693-.56-1.493-.56-2.4s.181-1.701.544-2.384c.373-.693.891-1.227 1.552-1.6.672-.373 1.44-.56 2.304-.56.832 0 1.573.181 2.224.544s1.157.875 1.52 1.536c.363.651.544 1.403.544 2.256zm-1.904-.576c-.011-.672-.251-1.211-.72-1.616s-1.051-.608-1.744-.608c-.629 0-1.168.203-1.616.608-.448.395-.715.933-.8 1.616zm5.523-6.64v11.84h-1.824v-11.84zm8.375 4.32c.309-.405.731-.747 1.264-1.024s1.136-.416 1.808-.416c.768 0 1.467.192 2.096.576.64.373 1.141.901 1.504 1.584s.544 1.467.544 2.352-.181 1.68-.544 2.384c-.363.693-.864 1.237-1.504 1.632-.629.384-1.328.576-2.096.576-.672 0-1.269-.133-1.792-.4-.523-.277-.949-.619-1.28-1.024v5.472h-1.824v-13.008h1.824zm5.36 3.072c0-.608-.128-1.131-.384-1.568-.245-.448-.576-.784-.992-1.008-.405-.235-.843-.352-1.312-.352-.459 0-.896.117-1.312.352-.405.235-.736.576-.992 1.024-.245.448-.368.976-.368 1.584s.123 1.141.368 1.6c.256.448.587.789.992 1.024.416.235.853.352 1.312.352.469 0 .907-.117 1.312-.352.416-.245.747-.597.992-1.056.256-.459.384-.992.384-1.6zm5.484-7.392v11.84h-1.824v-11.84zm1.786 7.392c0-.885.182-1.669.544-2.352.374-.683.875-1.211 1.504-1.584.64-.384 1.344-.576 2.112-.576.694 0 1.296.139 1.808.416.523.267.939.603 1.248 1.008v-1.28h1.84v8.816h-1.84v-1.312c-.309.416-.73.763-1.264 1.04-.533.277-1.141.416-1.824.416-.757 0-1.45-.192-2.08-.576-.629-.395-1.13-.939-1.504-1.632-.362-.704-.544-1.499-.544-2.384zm7.216.032c0-.608-.128-1.136-.384-1.584-.245-.448-.57-.789-.976-1.024-.405-.235-.842-.352-1.312-.352-.469 0-.906.117-1.312.352-.405.224-.736.56-.992 1.008-.245.437-.368.96-.368 1.568s.123 1.141.368 1.6c.256.459.587.811.992 1.056.416.235.854.352 1.312.352.47 0 .907-.117 1.312-.352.406-.235.731-.576.976-1.024.256-.459.384-.992.384-1.6zm6.364-2.912v4.88c0 .331.075.571.224.72.16.139.427.208.8.208h1.12v1.52h-1.44c-.821 0-1.45-.192-1.888-.576-.437-.384-.656-1.008-.656-1.872v-4.88h-1.04v-1.488h1.04v-2.192h1.84v2.192h2.144v1.488zm-229.1421 24.88c0-.885.1814-1.669.544-2.352.3734-.683.8747-1.211 1.504-1.584.64-.384 1.3494-.576 2.128-.576.576 0 1.1414.128 1.696.384.5654.245 1.0134.576 1.344.992v-4.256h1.84v11.84h-1.84v-1.328c-.2986.427-.7146.779-1.248 1.056-.5226.277-1.1253.416-1.808.416-.768 0-1.472-.192-2.112-.576-.6293-.395-1.1306-.939-1.504-1.632-.3626-.704-.544-1.499-.544-2.384zm7.216.032c0-.608-.128-1.136-.384-1.584-.2453-.448-.5706-.789-.976-1.024-.4053-.235-.8426-.352-1.312-.352-.4693 0-.9066.117-1.312.352-.4053.224-.736.56-.992 1.008-.2453.437-.368.96-.368 1.568s.1227 1.141.368 1.6c.256.459.5867.811.992 1.056.416.235.8534.352 1.312.352.4694 0 .9067-.117 1.312-.352.4054-.235.7307-.576.976-1.024.256-.459.384-.992.384-1.6zm3.6278-.032c0-.885.1813-1.669.544-2.352.3733-.683.8747-1.211 1.504-1.584.64-.384 1.344-.576 2.112-.576.6933 0 1.296.139 1.808.416.5227.267.9387.603 1.248 1.008v-1.28h1.8403v8.816h-1.8403v-1.312c-.3093.416-.7307.763-1.264 1.04s-1.1413.416-1.824.416c-.7573 0-1.4507-.192-2.08-.576-.6293-.395-1.1307-.939-1.504-1.632-.3627-.704-.544-1.499-.544-2.384zm7.216.032c0-.608-.128-1.136-.384-1.584-.2453-.448-.5707-.789-.976-1.024s-.8427-.352-1.312-.352-.9067.117-1.312.352c-.4053.224-.736.56-.992 1.008-.2453.437-.368.96-.368 1.568s.1227 1.141.368 1.6c.256.459.5867.811.992 1.056.416.235.8533.352 1.312.352.4693 0 .9067-.117 1.312-.352s.7307-.576.976-1.024c.256-.459.384-.992.384-1.6zm8.6833-4.544c.694 0 1.312.144 1.856.432.555.288.987.715 1.296 1.28.31.565.464 1.248.464 2.048v5.2h-1.808v-4.928c0-.789-.197-1.392-.592-1.808-.394-.427-.933-.64-1.616-.64-.682 0-1.226.213-1.632.64-.394.416-.592 1.019-.592 1.808v4.928h-1.824v-8.816h1.824v1.008c.299-.363.678-.645 1.136-.848.47-.203.966-.304 1.488-.304zm9.143 9.104c-.693 0-1.317-.123-1.872-.368-.544-.256-.976-.597-1.296-1.024-.32-.437-.491-.923-.512-1.456h1.888c.032.373.208.688.528.944.331.245.741.368 1.232.368.512 0 .907-.096 1.184-.288.288-.203.432-.459.432-.768 0-.331-.16-.576-.48-.736-.309-.16-.805-.336-1.488-.528-.661-.181-1.2-.357-1.616-.528s-.779-.432-1.088-.784c-.299-.352-.448-.816-.448-1.392 0-.469.139-.896.416-1.28.277-.395.672-.704 1.184-.928.523-.224 1.12-.336 1.792-.336 1.003 0 1.808.256 2.416.768.619.501.949 1.189.992 2.064h-1.824c-.032-.395-.192-.709-.48-.944s-.677-.352-1.168-.352c-.48 0-.848.091-1.104.272s-.384.421-.384.72c0 .235.085.432.256.592s.379.288.624.384c.245.085.608.197 1.088.336.64.171 1.163.347 1.568.528.416.171.773.427 1.072.768s.453.795.464 1.36c0 .501-.139.949-.416 1.344s-.672.704-1.184.928c-.501.224-1.093.336-1.776.336zm13.951-9.104c.694 0 1.312.144 1.856.432.555.288.987.715 1.296 1.28.31.565.464 1.248.464 2.048v5.2h-1.808v-4.928c0-.789-.197-1.392-.592-1.808-.394-.427-.933-.64-1.616-.64-.682 0-1.226.213-1.632.64-.394.416-.592 1.019-.592 1.808v4.928h-1.824v-8.816h1.824v1.008c.299-.363.678-.645 1.136-.848.47-.203.966-.304 1.488-.304zm6.935-3.792-.192 3.28h-1.248l-.208-3.28zm2.686 2.768c-.331 0-.608-.112-.832-.336s-.336-.501-.336-.832.112-.608.336-.832.501-.336.832-.336c.32 0 .592.112.816.336s.336.501.336.832-.112.608-.336.832-.496.336-.816.336zm.896 1.168v8.816h-1.824v-8.816zm13.067-.144c.693 0 1.312.144 1.856.432.554.288.986.715 1.296 1.28.32.565.48 1.248.48 2.048v5.2h-1.808v-4.928c0-.789-.198-1.392-.592-1.808-.395-.427-.934-.64-1.616-.64-.683 0-1.227.213-1.632.64-.395.416-.592 1.019-.592 1.808v4.928h-1.808v-4.928c0-.789-.198-1.392-.592-1.808-.395-.427-.934-.64-1.616-.64-.683 0-1.227.213-1.632.64-.395.416-.592 1.019-.592 1.808v4.928h-1.824v-8.816h1.824v1.008c.298-.363.677-.645 1.136-.848.458-.203.949-.304 1.472-.304.704 0 1.333.149 1.888.448.554.299.981.731 1.28 1.296.266-.533.682-.955 1.248-1.264.565-.32 1.173-.48 1.824-.48zm7.777 1.44c.309-.405.73-.747 1.264-1.024.533-.277 1.136-.416 1.808-.416.768 0 1.466.192 2.096.576.64.373 1.141.901 1.504 1.584.362.683.544 1.467.544 2.352s-.182 1.68-.544 2.384c-.363.693-.864 1.237-1.504 1.632-.63.384-1.328.576-2.096.576-.672 0-1.27-.133-1.792-.4-.523-.277-.95-.619-1.28-1.024v5.472h-1.824v-13.008h1.824zm5.36 3.072c0-.608-.128-1.131-.384-1.568-.246-.448-.576-.784-.992-1.008-.406-.235-.843-.352-1.312-.352-.459 0-.896.117-1.312.352-.406.235-.736.576-.992 1.024-.246.448-.368.976-.368 1.584s.122 1.141.368 1.6c.256.448.586.789.992 1.024.416.235.853.352 1.312.352.469 0 .906-.117 1.312-.352.416-.245.746-.597.992-1.056.256-.459.384-.992.384-1.6zm7.483 4.592c-.832 0-1.584-.187-2.256-.56-.672-.384-1.2-.917-1.584-1.6-.384-.693-.576-1.493-.576-2.4 0-.896.198-1.691.592-2.384.395-.693.934-1.227 1.616-1.6.683-.373 1.446-.56 2.288-.56.843 0 1.606.187 2.288.56.683.373 1.222.907 1.616 1.6.395.693.592 1.488.592 2.384s-.202 1.691-.608 2.384c-.405.693-.96 1.232-1.664 1.616-.693.373-1.461.56-2.304.56zm0-1.584c.47 0 .907-.112 1.312-.336.416-.224.752-.56 1.008-1.008s.384-.992.384-1.632-.122-1.179-.368-1.616c-.245-.448-.57-.784-.976-1.008-.405-.224-.842-.336-1.312-.336-.469 0-.906.112-1.312.336-.394.224-.709.56-.944 1.008-.234.437-.352.976-.352 1.616 0 .949.24 1.685.72 2.208.491.512 1.104.768 1.84.768zm8.203-6.096c.267-.448.619-.795 1.056-1.04.448-.256.976-.384 1.584-.384v1.888h-.464c-.714 0-1.258.181-1.632.544-.362.363-.544.992-.544 1.888v4.64h-1.824v-8.816h1.824zm6.445.208v4.88c0 .331.075.571.224.72.16.139.427.208.8.208h1.12v1.52h-1.44c-.821 0-1.451-.192-1.888-.576s-.656-1.008-.656-1.872v-4.88h-1.04v-1.488h1.04v-2.192h1.84v2.192h2.144v1.488zm11.905 2.704c0 .331-.021.629-.064.896h-6.736c.054.704.315 1.269.784 1.696.47.427 1.046.64 1.728.64.982 0 1.675-.411 2.08-1.232h1.968c-.266.811-.752 1.477-1.456 2-.693.512-1.557.768-2.592.768-.842 0-1.6-.187-2.272-.56-.661-.384-1.184-.917-1.568-1.6-.373-.693-.56-1.493-.56-2.4s.182-1.701.544-2.384c.374-.693.891-1.227 1.552-1.6.672-.373 1.44-.56 2.304-.56.832 0 1.574.181 2.224.544.651.363 1.158.875 1.52 1.536.363.651.544 1.403.544 2.256zm-1.904-.576c-.01-.672-.25-1.211-.72-1.616-.469-.405-1.05-.608-1.744-.608-.629 0-1.168.203-1.616.608-.448.395-.714.933-.8 1.616zm7.247.752c0-.885.182-1.669.544-2.352.374-.683.875-1.211 1.504-1.584.64-.384 1.35-.576 2.128-.576.683 0 1.286.139 1.808.416.534.277.944.613 1.232 1.008v-1.28h1.84v13.008h-1.84v-5.472c-.288.395-.704.731-1.248 1.008s-1.162.416-1.856.416c-.757 0-1.45-.192-2.08-.576-.618-.395-1.114-.939-1.488-1.632-.362-.704-.544-1.499-.544-2.384zm7.216.032c0-.608-.128-1.136-.384-1.584-.245-.448-.57-.789-.976-1.024-.405-.235-.842-.352-1.312-.352-.469 0-.906.117-1.312.352-.405.224-.736.56-.992 1.008-.245.437-.368.96-.368 1.568s.123 1.141.368 1.6c.256.459.587.811.992 1.056.416.235.854.352 1.312.352.47 0 .907-.117 1.312-.352.406-.235.731-.576.976-1.024.256-.459.384-.992.384-1.6zm12.22-4.4v8.816h-1.824v-1.04c-.288.363-.666.651-1.136.864-.458.203-.949.304-1.472.304-.693 0-1.317-.144-1.872-.432-.544-.288-.976-.715-1.296-1.28-.309-.565-.464-1.248-.464-2.048v-5.184h1.808v4.912c0 .789.198 1.397.592 1.824.395.416.934.624 1.616.624.683 0 1.222-.208 1.616-.624.406-.427.608-1.035.608-1.824v-4.912zm10.487 4.192c0 .331-.022.629-.064.896h-6.736c.053.704.314 1.269.784 1.696.469.427 1.045.64 1.728.64.981 0 1.674-.411 2.08-1.232h1.968c-.267.811-.752 1.477-1.456 2-.694.512-1.558.768-2.592.768-.843 0-1.6-.187-2.272-.56-.662-.384-1.184-.917-1.568-1.6-.374-.693-.56-1.493-.56-2.4s.181-1.701.544-2.384c.373-.693.89-1.227 1.552-1.6.672-.373 1.44-.56 2.304-.56.832 0 1.573.181 2.224.544.65.363 1.157.875 1.52 1.536.362.651.544 1.403.544 2.256zm-1.904-.576c-.011-.672-.251-1.211-.72-1.616-.47-.405-1.051-.608-1.744-.608-.63 0-1.168.203-1.616.608-.448.395-.715.933-.8 1.616zm5.523-6.64v11.84h-1.824v-11.84zm4.219 0v11.84h-1.824v-11.84zm10.474 7.216c0 .331-.021.629-.064.896h-6.736c.054.704.315 1.269.784 1.696.47.427 1.046.64 1.728.64.982 0 1.675-.411 2.08-1.232h1.968c-.266.811-.752 1.477-1.456 2-.693.512-1.557.768-2.592.768-.842 0-1.6-.187-2.272-.56-.661-.384-1.184-.917-1.568-1.6-.373-.693-.56-1.493-.56-2.4s.182-1.701.544-2.384c.374-.693.891-1.227 1.552-1.6.672-.373 1.44-.56 2.304-.56.832 0 1.574.181 2.224.544.651.363 1.158.875 1.52 1.536.363.651.544 1.403.544 2.256zm-1.904-.576c-.01-.672-.25-1.211-.72-1.616-.469-.405-1.05-.608-1.744-.608-.629 0-1.168.203-1.616.608-.448.395-.714.933-.8 1.616zm9.68-6.64v11.84h-1.824v-11.84zm1.786 7.392c0-.885.182-1.669.544-2.352.374-.683.875-1.211 1.504-1.584.64-.384 1.344-.576 2.112-.576.694 0 1.296.139 1.808.416.523.267.939.603 1.248 1.008v-1.28h1.84v8.816h-1.84v-1.312c-.309.416-.73.763-1.264 1.04-.533.277-1.141.416-1.824.416-.757 0-1.45-.192-2.08-.576-.629-.395-1.13-.939-1.504-1.632-.362-.704-.544-1.499-.544-2.384zm7.216.032c0-.608-.128-1.136-.384-1.584-.245-.448-.57-.789-.976-1.024-.405-.235-.842-.352-1.312-.352-.469 0-.906.117-1.312.352-.405.224-.736.56-.992 1.008-.245.437-.368.96-.368 1.568s.123 1.141.368 1.6c.256.459.587.811.992 1.056.416.235.854.352 1.312.352.47 0 .907-.117 1.312-.352.406-.235.731-.576.976-1.024.256-.459.384-.992.384-1.6zm8.684-4.544c.693 0 1.312.144 1.856.432.555.288.987.715 1.296 1.28s.464 1.248.464 2.048v5.2h-1.808v-4.928c0-.789-.197-1.392-.592-1.808-.395-.427-.933-.64-1.616-.64s-1.227.213-1.632.64c-.395.416-.592 1.019-.592 1.808v4.928h-1.824v-8.816h1.824v1.008c.299-.363.677-.645 1.136-.848.469-.203.965-.304 1.488-.304zm9.495 0c.682 0 1.285.139 1.808.416.533.267.949.603 1.248 1.008v-1.28h1.84v8.96c0 .811-.171 1.531-.512 2.16-.342.64-.838 1.141-1.488 1.504-.64.363-1.408.544-2.304.544-1.195 0-2.187-.283-2.976-.848-.79-.555-1.238-1.312-1.344-2.272h1.808c.138.459.432.827.88 1.104.458.288 1.002.432 1.632.432.736 0 1.328-.224 1.776-.672.458-.448.688-1.099.688-1.952v-1.472c-.31.416-.731.768-1.264 1.056-.523.277-1.12.416-1.792.416-.768 0-1.472-.192-2.112-.576-.63-.395-1.131-.939-1.504-1.632-.363-.704-.544-1.499-.544-2.384s.181-1.669.544-2.352c.373-.683.874-1.211 1.504-1.584.64-.384 1.344-.576 2.112-.576zm3.056 4.544c0-.608-.128-1.136-.384-1.584-.246-.448-.571-.789-.976-1.024-.406-.235-.843-.352-1.312-.352-.47 0-.907.117-1.312.352-.406.224-.736.56-.992 1.008-.246.437-.368.96-.368 1.568s.122 1.141.368 1.6c.256.459.586.811.992 1.056.416.235.853.352 1.312.352.469 0 .906-.117 1.312-.352.405-.235.73-.576.976-1.024.256-.459.384-.992.384-1.6zm12.219-4.4v8.816h-1.824v-1.04c-.288.363-.666.651-1.136.864-.458.203-.949.304-1.472.304-.693 0-1.317-.144-1.872-.432-.544-.288-.976-.715-1.296-1.28-.309-.565-.464-1.248-.464-2.048v-5.184h1.808v4.912c0 .789.198 1.397.592 1.824.395.416.934.624 1.616.624.683 0 1.222-.208 1.616-.624.406-.427.608-1.035.608-1.824v-4.912zm10.487 4.192c0 .331-.021.629-.064.896h-6.736c.053.704.315 1.269.784 1.696s1.045.64 1.728.64c.981 0 1.675-.411 2.08-1.232h1.968c-.267.811-.752 1.477-1.456 2-.693.512-1.557.768-2.592.768-.843 0-1.6-.187-2.272-.56-.661-.384-1.184-.917-1.568-1.6-.373-.693-.56-1.493-.56-2.4s.181-1.701.544-2.384c.373-.693.891-1.227 1.552-1.6.672-.373 1.44-.56 2.304-.56.832 0 1.573.181 2.224.544s1.157.875 1.52 1.536c.363.651.544 1.403.544 2.256zm-1.904-.576c-.011-.672-.251-1.211-.72-1.616s-1.051-.608-1.744-.608c-.629 0-1.168.203-1.616.608-.448.395-.715.933-.8 1.616z" fill="#ededed"/><rect fill="#7e27ed" height="63.4011" rx="31.7005" width="288" x="54" y="254"/><path clip-rule="evenodd" d="m131.217 270.679c0-.375.386-.679.863-.679.476 0 .863.304.863.679v3.394c0 .375-.387.679-.863.679-.477 0-.863-.304-.863-.679zm-8.583 12.159c1.73 0 3.133-1.391 3.133-3.108 0-1.716-1.403-3.108-3.133-3.108-1.731 0-3.134 1.392-3.134 3.108 0 1.717 1.403 3.108 3.134 3.108zm12.621-3.849c.347 1.63-.788 3.248-2.535 3.614-1.055.22-2.23.634-2.661 1.625l-.087.202c-.443 1.019.022 2.202.458 3.23.08.19.144.39.189.6.373 1.756-.741 3.475-2.488 3.841-1.747.365-3.466-.762-3.839-2.518-.373-1.755.74-3.475 2.487-3.84.992-.208 2.092-.595 2.497-1.526l.138-.318c.405-.933.037-2.004-.303-2.99-.032-.093-.064-.186-.095-.278-.035-.103-.064-.21-.087-.319-.347-1.63.788-3.248 2.535-3.613 1.747-.366 3.445.66 3.791 2.29zm4.731 9.231c.346 1.631-.789 3.249-2.536 3.614-1.055.221-2.23.635-2.66 1.626l-.088.201c-.443 1.02.022 2.202.458 3.23.081.19.145.391.189.6.373 1.756-.74 3.476-2.487 3.841-1.747.366-3.466-.761-3.839-2.517-.374-1.756.74-3.476 2.487-3.841.992-.207 2.092-.594 2.496-1.526l.138-.317c.406-.934.037-2.004-.302-2.991-.033-.093-.064-.185-.095-.277-.035-.104-.065-.21-.088-.319-.346-1.631.789-3.249 2.536-3.614s3.444.66 3.791 2.29zm4.697-8.49c0 1.717-1.403 3.108-3.133 3.108-1.731 0-3.134-1.391-3.134-3.108 0-1.716 1.403-3.108 3.134-3.108 1.73 0 3.133 1.392 3.133 3.108z" fill="#fff" fill-rule="evenodd"/><path clip-rule="evenodd" d="m176.836 270.68c0-.375.386-.679.863-.679.476 0 .863.304.863.679v3.394c0 .375-.387.679-.863.679-.477 0-.863-.304-.863-.679zm.782 5.943c-.968 0-1.753.777-1.753 1.736v21.303c0 .959.785 1.736 1.753 1.736.969 0 1.754-.777 1.754-1.736v-21.303c0-.959-.785-1.736-1.754-1.736zm17.063.979c0-.541.443-.979.989-.979h1.455c.546 0 .989.438.989.979v22.817c0 .541-.443.979-.989.979h-2.027c-.407 0-.774-.249-.922-.624-2.86-7.234-4.962-12.612-6.307-16.132-.007-.015-.014-.03-.02-.046-.136-.36-.727-.372-.693.169.003.036.005.071.006.103.124 1.742.137 3.749.137 5.823v9.728c0 .541-.442.979-.989.979h-1.418c-.546 0-.989-.438-.989-.979v-22.817c0-.541.443-.979.989-.979h2.067c.406 0 .771.247.92.621 3.273 8.211 5.27 13.315 5.99 15.311l.158.437c.216.599.924.452.876-.181-.123-1.949-.197-3.825-.222-5.628zm7.752.326c0-.721.591-1.305 1.319-1.305h9.428c.364 0 .659.292.659.652v1.728c0 .361-.295.653-.659.653h-7.277v7.71h6.243c.364 0 .659.292.659.653v1.728c0 .36-.295.652-.659.652h-6.243v8.003h7.277c.364 0 .659.292.659.652v1.692c0 .36-.295.652-.659.652h-9.428c-.728 0-1.319-.584-1.319-1.305zm42.934-.979c0-.18-.147-.326-.329-.326h-12.371c-.182 0-.329.146-.329.326v2.381c0 .18.147.326.329.326h4.103c.182 0 .329.146.329.326v21.09c0 .18.148.326.33.326h2.847c.182 0 .33-.146.33-.326v-21.09c0-.18.147-.326.329-.326h4.103c.182 0 .329-.146.329-.326zm2.553 0c0-.18.148-.326.33-.326h11.076v3.033h-7.607c-.182 0-.329.146-.329.326v7.058c0 .18.147.326.329.326h6.573v3.033h-6.573c-.182 0-.329.146-.329.326v7.35c0 .181.147.327.329.327h7.607v2.996h-11.076c-.182 0-.33-.146-.33-.326zm18.393 14.802v9.647h-3.47v-24.775h6.718c1.968 0 3.469.487 4.503 1.462 1.058.974 1.587 2.326 1.587 4.056v3.946c0 2.704-1.046 4.446-3.137 5.226l3.986 10.085h-3.839l-3.58-9.647zm0-12.132v9.245h2.953c1.033 0 1.771-.231 2.214-.694.468-.463.701-1.169.701-2.119v-3.691c0-1.827-.972-2.741-2.915-2.741zm-38.296 21.258c.063.303.333.521.646.521h2.042c.42 0 .733-.383.644-.79l-5.105-23.47c-.065-.3-.333-.515-.644-.515h-3.809c-.31 0-.578.214-.644.513l-5.175 23.47c-.09.407.223.792.644.792h2.04c.313 0 .582-.218.645-.521l1.204-5.796c.031-.152.166-.26.322-.26h5.664c.156 0 .291.108.323.26zm-6.464-9.016c-.209 0-.365-.189-.323-.392l2.072-10.072c.071-.348.573-.349.645-.001l2.103 10.072c.043.203-.114.393-.322.393zm-60.941-13.652c.143-.913.939-1.587 1.872-1.587s1.73.674 1.872 1.587l1.746 11.203c.141.962 1.612.964 1.735 0l1.819-11.461c.122-.765.788-1.329 1.57-1.329.974 0 1.719.859 1.572 1.812l-3.266 21.076c-.168 1.085-1.112 1.887-2.221 1.887-1.102 0-2.041-.79-2.218-1.866l-1.611-9.754c-.083-.644-.532-.999-.998-.999-.465 0-.915.355-.997.999l-1.611 9.754c-.178 1.076-1.117 1.866-2.218 1.866-1.11 0-2.053-.802-2.221-1.887l-3.266-21.076c-.148-.953.597-1.812 1.571-1.812.783 0 1.449.564 1.571 1.329l1.819 11.461c.123.964 1.594.962 1.734 0z" fill="#fff" fill-rule="evenodd"/><rect fill="#2fc0bf" height="116" rx="58" width="288" x="54" y="381.401"/><path d="m151.596 403.941v19.46h-3.192v-13.328l-5.936 13.328h-2.212l-5.964-13.328v13.328h-3.192v-19.46h3.444l6.832 15.26 6.804-15.26zm3.131 11.676c0-1.549.318-2.921.952-4.116.654-1.195 1.531-2.119 2.632-2.772 1.12-.672 2.352-1.008 3.696-1.008 1.214 0 2.268.243 3.164.728.915.467 1.643 1.055 2.184 1.764v-2.24h3.22v15.428h-3.22v-2.296c-.541.728-1.278 1.335-2.212 1.82-.933.485-1.997.728-3.192.728-1.325 0-2.538-.336-3.64-1.008-1.101-.691-1.978-1.643-2.632-2.856-.634-1.232-.952-2.623-.952-4.172zm12.628.056c0-1.064-.224-1.988-.672-2.772-.429-.784-.998-1.381-1.708-1.792-.709-.411-1.474-.616-2.296-.616-.821 0-1.586.205-2.296.616-.709.392-1.288.98-1.736 1.764-.429.765-.644 1.68-.644 2.744s.215 1.997.644 2.8c.448.803 1.027 1.419 1.736 1.848.728.411 1.494.616 2.296.616.822 0 1.587-.205 2.296-.616.71-.411 1.279-1.008 1.708-1.792.448-.803.672-1.736.672-2.8zm13.629-7.952c1.195 0 2.249.243 3.164.728.933.467 1.661 1.055 2.184 1.764v-2.24h3.22v15.68c0 1.419-.299 2.679-.896 3.78-.597 1.12-1.465 1.997-2.604 2.632-1.12.635-2.464.952-4.032.952-2.091 0-3.827-.495-5.208-1.484-1.381-.971-2.165-2.296-2.352-3.976h3.164c.243.803.756 1.447 1.54 1.932.803.504 1.755.756 2.856.756 1.288 0 2.324-.392 3.108-1.176.803-.784 1.204-1.923 1.204-3.416v-2.576c-.541.728-1.279 1.344-2.212 1.848-.915.485-1.96.728-3.136.728-1.344 0-2.576-.336-3.696-1.008-1.101-.691-1.979-1.643-2.632-2.856-.635-1.232-.952-2.623-.952-4.172s.317-2.921.952-4.116c.653-1.195 1.531-2.119 2.632-2.772 1.12-.672 2.352-1.008 3.696-1.008zm5.348 7.952c0-1.064-.224-1.988-.672-2.772-.429-.784-.999-1.381-1.708-1.792s-1.475-.616-2.296-.616-1.587.205-2.296.616c-.709.392-1.288.98-1.736 1.764-.429.765-.644 1.68-.644 2.744s.215 1.997.644 2.8c.448.803 1.027 1.419 1.736 1.848.728.411 1.493.616 2.296.616.821 0 1.587-.205 2.296-.616s1.279-1.008 1.708-1.792c.448-.803.672-1.736.672-2.8zm6.349-.056c0-1.549.317-2.921.952-4.116.653-1.195 1.53-2.119 2.632-2.772 1.12-.672 2.352-1.008 3.696-1.008 1.213 0 2.268.243 3.164.728.914.467 1.642 1.055 2.184 1.764v-2.24h3.22v15.428h-3.22v-2.296c-.542.728-1.279 1.335-2.212 1.82-.934.485-1.998.728-3.192.728-1.326 0-2.539-.336-3.64-1.008-1.102-.691-1.979-1.643-2.632-2.856-.635-1.232-.952-2.623-.952-4.172zm12.628.056c0-1.064-.224-1.988-.672-2.772-.43-.784-.999-1.381-1.708-1.792-.71-.411-1.475-.616-2.296-.616-.822 0-1.587.205-2.296.616-.71.392-1.288.98-1.736 1.764-.43.765-.644 1.68-.644 2.744s.214 1.997.644 2.8c.448.803 1.026 1.419 1.736 1.848.728.411 1.493.616 2.296.616.821 0 1.586-.205 2.296-.616.709-.411 1.278-1.008 1.708-1.792.448-.803.672-1.736.672-2.8zm13.012 7.98c-1.213 0-2.305-.215-3.276-.644-.952-.448-1.708-1.045-2.268-1.792-.56-.765-.859-1.615-.896-2.548h3.304c.056.653.364 1.204.924 1.652.579.429 1.297.644 2.156.644.896 0 1.587-.168 2.072-.504.504-.355.756-.803.756-1.344 0-.579-.28-1.008-.84-1.288-.541-.28-1.409-.588-2.604-.924-1.157-.317-2.1-.625-2.828-.924s-1.363-.756-1.904-1.372c-.523-.616-.784-1.428-.784-2.436 0-.821.243-1.568.728-2.24.485-.691 1.176-1.232 2.072-1.624.915-.392 1.96-.588 3.136-.588 1.755 0 3.164.448 4.228 1.344 1.083.877 1.661 2.081 1.736 3.612h-3.192c-.056-.691-.336-1.241-.84-1.652s-1.185-.616-2.044-.616c-.84 0-1.484.159-1.932.476s-.672.737-.672 1.26c0 .411.149.756.448 1.036s.663.504 1.092.672c.429.149 1.064.345 1.904.588 1.12.299 2.035.607 2.744.924.728.299 1.353.747 1.876 1.344s.793 1.391.812 2.38c0 .877-.243 1.661-.728 2.352s-1.176 1.232-2.072 1.624c-.877.392-1.913.588-3.108.588zm10.981-17.724c-.579 0-1.064-.196-1.456-.588s-.588-.877-.588-1.456.196-1.064.588-1.456.877-.588 1.456-.588c.56 0 1.036.196 1.428.588s.588.877.588 1.456-.196 1.064-.588 1.456-.868.588-1.428.588zm1.568 2.044v15.428h-3.192v-15.428zm11.975-.252c1.213 0 2.296.252 3.248.756.971.504 1.727 1.251 2.268 2.24s.812 2.184.812 3.584v9.1h-3.164v-8.624c0-1.381-.345-2.436-1.036-3.164-.691-.747-1.633-1.12-2.828-1.12s-2.147.373-2.856 1.12c-.691.728-1.036 1.783-1.036 3.164v8.624h-3.192v-15.428h3.192v1.764c.523-.635 1.185-1.129 1.988-1.484.821-.355 1.689-.532 2.604-.532zm16 15.932c-1.214 0-2.306-.215-3.276-.644-.952-.448-1.708-1.045-2.268-1.792-.56-.765-.859-1.615-.896-2.548h3.304c.056.653.364 1.204.924 1.652.578.429 1.297.644 2.156.644.896 0 1.586-.168 2.072-.504.504-.355.756-.803.756-1.344 0-.579-.28-1.008-.84-1.288-.542-.28-1.41-.588-2.604-.924-1.158-.317-2.1-.625-2.828-.924s-1.363-.756-1.904-1.372c-.523-.616-.784-1.428-.784-2.436 0-.821.242-1.568.728-2.24.485-.691 1.176-1.232 2.072-1.624.914-.392 1.96-.588 3.136-.588 1.754 0 3.164.448 4.228 1.344 1.082.877 1.661 2.081 1.736 3.612h-3.192c-.056-.691-.336-1.241-.84-1.652s-1.186-.616-2.044-.616c-.84 0-1.484.159-1.932.476s-.672.737-.672 1.26c0 .411.149.756.448 1.036.298.28.662.504 1.092.672.429.149 1.064.345 1.904.588 1.12.299 2.034.607 2.744.924.728.299 1.353.747 1.876 1.344.522.597.793 1.391.812 2.38 0 .877-.243 1.661-.728 2.352-.486.691-1.176 1.232-2.072 1.624-.878.392-1.914.588-3.108.588z" fill="#fff"/><path d="m116.422 443.281v11.12h-1.824v-11.12zm13.067 2.16c.694 0 1.312.144 1.856.432.555.288.987.715 1.296 1.28.32.565.48 1.248.48 2.048v5.2h-1.808v-4.928c0-.789-.197-1.392-.592-1.808-.394-.427-.933-.64-1.616-.64-.682 0-1.226.213-1.632.64-.394.416-.592 1.019-.592 1.808v4.928h-1.808v-4.928c0-.789-.197-1.392-.592-1.808-.394-.427-.933-.64-1.616-.64-.682 0-1.226.213-1.632.64-.394.416-.592 1.019-.592 1.808v4.928h-1.824v-8.816h1.824v1.008c.299-.363.678-.645 1.136-.848.459-.203.95-.304 1.472-.304.704 0 1.334.149 1.888.448.555.299.982.731 1.28 1.296.267-.533.683-.955 1.248-1.264.566-.32 1.174-.48 1.824-.48zm7.777 1.44c.31-.405.731-.747 1.264-1.024.534-.277 1.136-.416 1.808-.416.768 0 1.467.192 2.096.576.64.373 1.142.901 1.504 1.584.363.683.544 1.467.544 2.352s-.181 1.68-.544 2.384c-.362.693-.864 1.237-1.504 1.632-.629.384-1.328.576-2.096.576-.672 0-1.269-.133-1.792-.4-.522-.277-.949-.619-1.28-1.024v5.472h-1.824v-13.008h1.824zm5.36 3.072c0-.608-.128-1.131-.384-1.568-.245-.448-.576-.784-.992-1.008-.405-.235-.842-.352-1.312-.352-.458 0-.896.117-1.312.352-.405.235-.736.576-.992 1.024-.245.448-.368.976-.368 1.584s.123 1.141.368 1.6c.256.448.587.789.992 1.024.416.235.854.352 1.312.352.47 0 .907-.117 1.312-.352.416-.245.747-.597.992-1.056.256-.459.384-.992.384-1.6zm7.484 4.592c-.832 0-1.584-.187-2.256-.56-.672-.384-1.2-.917-1.584-1.6-.384-.693-.576-1.493-.576-2.4 0-.896.197-1.691.592-2.384s.933-1.227 1.616-1.6 1.445-.56 2.288-.56 1.605.187 2.288.56 1.221.907 1.616 1.6.592 1.488.592 2.384-.203 1.691-.608 2.384-.96 1.232-1.664 1.616c-.693.373-1.461.56-2.304.56zm0-1.584c.469 0 .907-.112 1.312-.336.416-.224.752-.56 1.008-1.008s.384-.992.384-1.632-.123-1.179-.368-1.616c-.245-.448-.571-.784-.976-1.008s-.843-.336-1.312-.336-.907.112-1.312.336c-.395.224-.709.56-.944 1.008-.235.437-.352.976-.352 1.616 0 .949.24 1.685.72 2.208.491.512 1.104.768 1.84.768zm8.203-6.096c.267-.448.619-.795 1.056-1.04.448-.256.976-.384 1.584-.384v1.888h-.464c-.715 0-1.259.181-1.632.544-.363.363-.544.992-.544 1.888v4.64h-1.824v-8.816h1.824zm6.445.208v4.88c0 .331.074.571.224.72.16.139.426.208.8.208h1.12v1.52h-1.44c-.822 0-1.451-.192-1.888-.576-.438-.384-.656-1.008-.656-1.872v-4.88h-1.04v-1.488h1.04v-2.192h1.84v2.192h2.144v1.488zm11.905 2.704c0 .331-.022.629-.064.896h-6.736c.053.704.314 1.269.784 1.696.469.427 1.045.64 1.728.64.981 0 1.674-.411 2.08-1.232h1.968c-.267.811-.752 1.477-1.456 2-.694.512-1.558.768-2.592.768-.843 0-1.6-.187-2.272-.56-.662-.384-1.184-.917-1.568-1.6-.374-.693-.56-1.493-.56-2.4s.181-1.701.544-2.384c.373-.693.89-1.227 1.552-1.6.672-.373 1.44-.56 2.304-.56.832 0 1.573.181 2.224.544.65.363 1.157.875 1.52 1.536.362.651.544 1.403.544 2.256zm-1.904-.576c-.011-.672-.251-1.211-.72-1.616-.47-.405-1.051-.608-1.744-.608-.63 0-1.168.203-1.616.608-.448.395-.715.933-.8 1.616zm5.523-2.336c.266-.448.618-.795 1.056-1.04.448-.256.976-.384 1.584-.384v1.888h-.464c-.715 0-1.259.181-1.632.544-.363.363-.544.992-.544 1.888v4.64h-1.824v-8.816h1.824zm10.297-4.304v11.84h-1.824v-11.84zm1.786 7.392c0-.885.182-1.669.544-2.352.374-.683.875-1.211 1.504-1.584.64-.384 1.344-.576 2.112-.576.694 0 1.296.139 1.808.416.523.267.939.603 1.248 1.008v-1.28h1.84v8.816h-1.84v-1.312c-.309.416-.73.763-1.264 1.04-.533.277-1.141.416-1.824.416-.757 0-1.45-.192-2.08-.576-.629-.395-1.13-.939-1.504-1.632-.362-.704-.544-1.499-.544-2.384zm7.216.032c0-.608-.128-1.136-.384-1.584-.245-.448-.57-.789-.976-1.024-.405-.235-.842-.352-1.312-.352-.469 0-.906.117-1.312.352-.405.224-.736.56-.992 1.008-.245.437-.368.96-.368 1.568s.123 1.141.368 1.6c.256.459.587.811.992 1.056.416.235.854.352 1.312.352.47 0 .907-.117 1.312-.352.406-.235.731-.576.976-1.024.256-.459.384-.992.384-1.6zm7.784 0c0-.907.182-1.701.544-2.384.374-.693.886-1.227 1.536-1.6.651-.373 1.398-.56 2.24-.56 1.067 0 1.947.256 2.64.768.704.501 1.179 1.221 1.424 2.16h-1.968c-.16-.437-.416-.779-.768-1.024s-.794-.368-1.328-.368c-.746 0-1.344.267-1.792.8-.437.523-.656 1.259-.656 2.208s.219 1.691.656 2.224c.448.533 1.046.8 1.792.8 1.056 0 1.755-.464 2.096-1.392h1.968c-.256.896-.736 1.611-1.44 2.144-.704.523-1.578.784-2.624.784-.842 0-1.589-.187-2.24-.56-.65-.384-1.162-.917-1.536-1.6-.362-.693-.544-1.493-.544-2.4zm9.594-.032c0-.885.182-1.669.544-2.352.374-.683.875-1.211 1.504-1.584.64-.384 1.344-.576 2.112-.576.694 0 1.296.139 1.808.416.523.267.939.603 1.248 1.008v-1.28h1.84v8.816h-1.84v-1.312c-.309.416-.73.763-1.264 1.04-.533.277-1.141.416-1.824.416-.757 0-1.45-.192-2.08-.576-.629-.395-1.13-.939-1.504-1.632-.362-.704-.544-1.499-.544-2.384zm7.216.032c0-.608-.128-1.136-.384-1.584-.245-.448-.57-.789-.976-1.024-.405-.235-.842-.352-1.312-.352-.469 0-.906.117-1.312.352-.405.224-.736.56-.992 1.008-.245.437-.368.96-.368 1.568s.123 1.141.368 1.6c.256.459.587.811.992 1.056.416.235.854.352 1.312.352.47 0 .907-.117 1.312-.352.406-.235.731-.576.976-1.024.256-.459.384-.992.384-1.6zm6.06-3.12c.267-.448.619-.795 1.056-1.04.448-.256.976-.384 1.584-.384v1.888h-.464c-.715 0-1.259.181-1.632.544-.363.363-.544.992-.544 1.888v4.64h-1.824v-8.816h1.824zm6.445.208v4.88c0 .331.074.571.224.72.16.139.426.208.8.208h1.12v1.52h-1.44c-.822 0-1.451-.192-1.888-.576-.438-.384-.656-1.008-.656-1.872v-4.88h-1.04v-1.488h1.04v-2.192h1.84v2.192h2.144v1.488zm11.905 2.704c0 .331-.022.629-.064.896h-6.736c.053.704.314 1.269.784 1.696.469.427 1.045.64 1.728.64.981 0 1.674-.411 2.08-1.232h1.968c-.267.811-.752 1.477-1.456 2-.694.512-1.558.768-2.592.768-.843 0-1.6-.187-2.272-.56-.662-.384-1.184-.917-1.568-1.6-.374-.693-.56-1.493-.56-2.4s.181-1.701.544-2.384c.373-.693.89-1.227 1.552-1.6.672-.373 1.44-.56 2.304-.56.832 0 1.573.181 2.224.544.65.363 1.157.875 1.52 1.536.362.651.544 1.403.544 2.256zm-1.904-.576c-.011-.672-.251-1.211-.72-1.616-.47-.405-1.051-.608-1.744-.608-.63 0-1.168.203-1.616.608-.448.395-.715.933-.8 1.616zm7.247.752c0-.885.181-1.669.544-2.352.373-.683.875-1.211 1.504-1.584.64-.384 1.349-.576 2.128-.576.576 0 1.141.128 1.696.384.565.245 1.013.576 1.344.992v-4.256h1.84v11.84h-1.84v-1.328c-.299.427-.715.779-1.248 1.056-.523.277-1.125.416-1.808.416-.768 0-1.472-.192-2.112-.576-.629-.395-1.131-.939-1.504-1.632-.363-.704-.544-1.499-.544-2.384zm7.216.032c0-.608-.128-1.136-.384-1.584-.245-.448-.571-.789-.976-1.024s-.843-.352-1.312-.352-.907.117-1.312.352c-.405.224-.736.56-.992 1.008-.245.437-.368.96-.368 1.568s.123 1.141.368 1.6c.256.459.587.811.992 1.056.416.235.853.352 1.312.352.469 0 .907-.117 1.312-.352s.731-.576.976-1.024c.256-.459.384-.992.384-1.6zm12.316-.208c0 .331-.022.629-.064.896h-6.736c.053.704.314 1.269.784 1.696.469.427 1.045.64 1.728.64.981 0 1.674-.411 2.08-1.232h1.968c-.267.811-.752 1.477-1.456 2-.694.512-1.558.768-2.592.768-.843 0-1.6-.187-2.272-.56-.662-.384-1.184-.917-1.568-1.6-.374-.693-.56-1.493-.56-2.4s.181-1.701.544-2.384c.373-.693.89-1.227 1.552-1.6.672-.373 1.44-.56 2.304-.56.832 0 1.573.181 2.224.544.65.363 1.157.875 1.52 1.536.362.651.544 1.403.544 2.256zm-1.904-.576c-.011-.672-.251-1.211-.72-1.616-.47-.405-1.051-.608-1.744-.608-.63 0-1.168.203-1.616.608-.448.395-.715.933-.8 1.616zm6.899 5.344c-.694 0-1.318-.123-1.872-.368-.544-.256-.976-.597-1.296-1.024-.32-.437-.491-.923-.512-1.456h1.888c.032.373.208.688.528.944.33.245.741.368 1.232.368.512 0 .906-.096 1.184-.288.288-.203.432-.459.432-.768 0-.331-.16-.576-.48-.736-.31-.16-.806-.336-1.488-.528-.662-.181-1.2-.357-1.616-.528s-.779-.432-1.088-.784c-.299-.352-.448-.816-.448-1.392 0-.469.138-.896.416-1.28.277-.395.672-.704 1.184-.928.522-.224 1.12-.336 1.792-.336 1.002 0 1.808.256 2.416.768.618.501.949 1.189.992 2.064h-1.824c-.032-.395-.192-.709-.48-.944s-.678-.352-1.168-.352c-.48 0-.848.091-1.104.272s-.384.421-.384.72c0 .235.085.432.256.592.17.16.378.288.624.384.245.085.608.197 1.088.336.64.171 1.162.347 1.568.528.416.171.773.427 1.072.768.298.341.453.795.464 1.36 0 .501-.139.949-.416 1.344-.278.395-.672.704-1.184.928-.502.224-1.094.336-1.776.336zm-142.964 20.224 2.496-7.184h1.936l-3.36 8.816h-2.176l-3.344-8.816h1.952zm6.739-8.352c-.331 0-.608-.112-.832-.336s-.336-.501-.336-.832.112-.608.336-.832.501-.336.832-.336c.32 0 .592.112.816.336s.336.501.336.832-.112.608-.336.832-.496.336-.816.336zm.896 1.168v8.816h-1.824v-8.816zm6.842-.144c.694 0 1.312.144 1.856.432.555.288.987.715 1.296 1.28.31.565.464 1.248.464 2.048v5.2h-1.808v-4.928c0-.789-.197-1.392-.592-1.808-.394-.427-.933-.64-1.616-.64-.682 0-1.226.213-1.632.64-.394.416-.592 1.019-.592 1.808v4.928h-1.824v-8.816h1.824v1.008c.299-.363.678-.645 1.136-.848.47-.203.966-.304 1.488-.304zm9.143 9.104c-.693 0-1.317-.123-1.872-.368-.544-.256-.976-.597-1.296-1.024-.32-.437-.491-.923-.512-1.456h1.888c.032.373.208.688.528.944.331.245.741.368 1.232.368.512 0 .907-.096 1.184-.288.288-.203.432-.459.432-.768 0-.331-.16-.576-.48-.736-.309-.16-.805-.336-1.488-.528-.661-.181-1.2-.357-1.616-.528s-.779-.432-1.088-.784c-.299-.352-.448-.816-.448-1.392 0-.469.139-.896.416-1.28.277-.395.672-.704 1.184-.928.523-.224 1.12-.336 1.792-.336 1.003 0 1.808.256 2.416.768.619.501.949 1.189.992 2.064h-1.824c-.032-.395-.192-.709-.48-.944s-.677-.352-1.168-.352c-.48 0-.848.091-1.104.272s-.384.421-.384.72c0 .235.085.432.256.592s.379.288.624.384c.245.085.608.197 1.088.336.64.171 1.163.347 1.568.528.416.171.773.427 1.072.768s.453.795.464 1.36c0 .501-.139.949-.416 1.344s-.672.704-1.184.928c-.501.224-1.093.336-1.776.336zm8.895-4.592c0-.885.181-1.669.544-2.352.373-.683.875-1.211 1.504-1.584.64-.384 1.349-.576 2.128-.576.576 0 1.141.128 1.696.384.565.245 1.013.576 1.344.992v-4.256h1.84v11.84h-1.84v-1.328c-.299.427-.715.779-1.248 1.056-.523.277-1.125.416-1.808.416-.768 0-1.472-.192-2.112-.576-.629-.395-1.131-.939-1.504-1.632-.363-.704-.544-1.499-.544-2.384zm7.216.032c0-.608-.128-1.136-.384-1.584-.245-.448-.571-.789-.976-1.024s-.843-.352-1.312-.352-.907.117-1.312.352c-.405.224-.736.56-.992 1.008-.245.437-.368.96-.368 1.568s.123 1.141.368 1.6c.256.459.587.811.992 1.056.416.235.853.352 1.312.352.469 0 .907-.117 1.312-.352s.731-.576.976-1.024c.256-.459.384-.992.384-1.6zm12.22-4.4v8.816h-1.824v-1.04c-.288.363-.667.651-1.136.864-.459.203-.95.304-1.472.304-.694 0-1.318-.144-1.872-.432-.544-.288-.976-.715-1.296-1.28-.31-.565-.464-1.248-.464-2.048v-5.184h1.808v4.912c0 .789.197 1.397.592 1.824.394.416.933.624 1.616.624.682 0 1.221-.208 1.616-.624.405-.427.608-1.035.608-1.824v-4.912zm17.235-.144c.693 0 1.312.144 1.856.432.554.288.986.715 1.296 1.28.32.565.48 1.248.48 2.048v5.2h-1.808v-4.928c0-.789-.198-1.392-.592-1.808-.395-.427-.934-.64-1.616-.64-.683 0-1.227.213-1.632.64-.395.416-.592 1.019-.592 1.808v4.928h-1.808v-4.928c0-.789-.198-1.392-.592-1.808-.395-.427-.934-.64-1.616-.64-.683 0-1.227.213-1.632.64-.395.416-.592 1.019-.592 1.808v4.928h-1.824v-8.816h1.824v1.008c.298-.363.677-.645 1.136-.848.458-.203.949-.304 1.472-.304.704 0 1.333.149 1.888.448.554.299.981.731 1.28 1.296.266-.533.682-.955 1.248-1.264.565-.32 1.173-.48 1.824-.48zm5.345 4.512c0-.885.181-1.669.544-2.352.373-.683.874-1.211 1.504-1.584.64-.384 1.344-.576 2.112-.576.693 0 1.296.139 1.808.416.522.267.938.603 1.248 1.008v-1.28h1.84v8.816h-1.84v-1.312c-.31.416-.731.763-1.264 1.04-.534.277-1.142.416-1.824.416-.758 0-1.451-.192-2.08-.576-.63-.395-1.131-.939-1.504-1.632-.363-.704-.544-1.499-.544-2.384zm7.216.032c0-.608-.128-1.136-.384-1.584-.246-.448-.571-.789-.976-1.024-.406-.235-.843-.352-1.312-.352-.47 0-.907.117-1.312.352-.406.224-.736.56-.992 1.008-.246.437-.368.96-.368 1.568s.122 1.141.368 1.6c.256.459.586.811.992 1.056.416.235.853.352 1.312.352.469 0 .906-.117 1.312-.352.405-.235.73-.576.976-1.024.256-.459.384-.992.384-1.6zm7.787-4.544c.683 0 1.286.139 1.808.416.534.267.95.603 1.248 1.008v-1.28h1.84v8.96c0 .811-.17 1.531-.512 2.16-.341.64-.837 1.141-1.488 1.504-.64.363-1.408.544-2.304.544-1.194 0-2.186-.283-2.976-.848-.789-.555-1.237-1.312-1.344-2.272h1.808c.139.459.432.827.88 1.104.459.288 1.003.432 1.632.432.736 0 1.328-.224 1.776-.672.459-.448.688-1.099.688-1.952v-1.472c-.309.416-.73.768-1.264 1.056-.522.277-1.12.416-1.792.416-.768 0-1.472-.192-2.112-.576-.629-.395-1.13-.939-1.504-1.632-.362-.704-.544-1.499-.544-2.384s.182-1.669.544-2.352c.374-.683.875-1.211 1.504-1.584.64-.384 1.344-.576 2.112-.576zm3.056 4.544c0-.608-.128-1.136-.384-1.584-.245-.448-.57-.789-.976-1.024-.405-.235-.842-.352-1.312-.352-.469 0-.906.117-1.312.352-.405.224-.736.56-.992 1.008-.245.437-.368.96-.368 1.568s.123 1.141.368 1.6c.256.459.587.811.992 1.056.416.235.854.352 1.312.352.47 0 .907-.117 1.312-.352.406-.235.731-.576.976-1.024.256-.459.384-.992.384-1.6zm3.628-.032c0-.885.182-1.669.544-2.352.374-.683.875-1.211 1.504-1.584.64-.384 1.344-.576 2.112-.576.694 0 1.296.139 1.808.416.523.267.939.603 1.248 1.008v-1.28h1.84v8.816h-1.84v-1.312c-.309.416-.73.763-1.264 1.04-.533.277-1.141.416-1.824.416-.757 0-1.45-.192-2.08-.576-.629-.395-1.13-.939-1.504-1.632-.362-.704-.544-1.499-.544-2.384zm7.216.032c0-.608-.128-1.136-.384-1.584-.245-.448-.57-.789-.976-1.024-.405-.235-.842-.352-1.312-.352-.469 0-.906.117-1.312.352-.405.224-.736.56-.992 1.008-.245.437-.368.96-.368 1.568s.123 1.141.368 1.6c.256.459.587.811.992 1.056.416.235.854.352 1.312.352.47 0 .907-.117 1.312-.352.406-.235.731-.576.976-1.024.256-.459.384-.992.384-1.6zm7.436 4.56c-.693 0-1.317-.123-1.872-.368-.544-.256-.976-.597-1.296-1.024-.32-.437-.491-.923-.512-1.456h1.888c.032.373.208.688.528.944.331.245.741.368 1.232.368.512 0 .907-.096 1.184-.288.288-.203.432-.459.432-.768 0-.331-.16-.576-.48-.736-.309-.16-.805-.336-1.488-.528-.661-.181-1.2-.357-1.616-.528s-.779-.432-1.088-.784c-.299-.352-.448-.816-.448-1.392 0-.469.139-.896.416-1.28.277-.395.672-.704 1.184-.928.523-.224 1.12-.336 1.792-.336 1.003 0 1.808.256 2.416.768.619.501.949 1.189.992 2.064h-1.824c-.032-.395-.192-.709-.48-.944s-.677-.352-1.168-.352c-.48 0-.848.091-1.104.272s-.384.421-.384.72c0 .235.085.432.256.592s.379.288.624.384c.245.085.608.197 1.088.336.64.171 1.163.347 1.568.528.416.171.773.427 1.072.768s.453.795.464 1.36c0 .501-.139.949-.416 1.344s-.672.704-1.184.928c-.501.224-1.093.336-1.776.336zm6.275-10.128c-.331 0-.608-.112-.832-.336s-.336-.501-.336-.832.112-.608.336-.832.501-.336.832-.336c.32 0 .592.112.816.336s.336.501.336.832-.112.608-.336.832-.496.336-.816.336zm.896 1.168v8.816h-1.824v-8.816zm6.843-.144c.693 0 1.312.144 1.856.432.554.288.986.715 1.296 1.28.309.565.464 1.248.464 2.048v5.2h-1.808v-4.928c0-.789-.198-1.392-.592-1.808-.395-.427-.934-.64-1.616-.64-.683 0-1.227.213-1.632.64-.395.416-.592 1.019-.592 1.808v4.928h-1.824v-8.816h1.824v1.008c.298-.363.677-.645 1.136-.848.469-.203.965-.304 1.488-.304z" fill="#ededed"/><g fill="#c1c1c1"><path d="m208 220.78c-3.6 1.28-3.6 1.28-7.42 9.59-.45-3.54-.82-6.06-1.09-8.58-.28-2.71-.54-5.42-.67-8.14-.18-3.68-.19-7.36-.38-11-.07-1.46.56-3.69-1.88-3.65-2.16 0-2.16 2.19-2.13 3.69.09 5.43.29 10.87.64 16.3.2 3 .77 6 1.25 9.54-3.82-3.08-4.65-8.13-9.32-10.68.09 1.61-.12 2.73.24 3.62 2.581 6.57 6.193 12.687 10.7 18.12.404.498.868.945 1.38 1.33 1.92 1.34 4 .9 4.62-1.32 1.69-5.83 3.13-11.73 4.64-17.61.05-.26-.26-.58-.58-1.21z"/><path d="m192.586 350.897c3.6-1.28 3.6-1.28 7.42-9.59.45 3.54.82 6.06 1.09 8.58.28 2.71.54 5.42.67 8.14.18 3.68.19 7.36.38 11 .07 1.46-.56 3.69 1.88 3.65 2.16 0 2.16-2.19 2.13-3.69-.09-5.43-.29-10.87-.64-16.3-.2-3-.77-6-1.25-9.54 3.82 3.08 4.65 8.13 9.32 10.68-.09-1.61.12-2.73-.24-3.62-2.581-6.571-6.193-12.687-10.7-18.12-.404-.498-.868-.945-1.38-1.33-1.92-1.34-4-.9-4.62 1.32-1.69 5.83-3.13 11.73-4.64 17.61-.05.26.26.58.58 1.21z"/></g></svg>