<svg fill="none" height="720" viewBox="0 0 1024 720" width="1024" xmlns="http://www.w3.org/2000/svg"><path d="m399.35 40.725v31.275h-5.13v-13.68h-14.715v13.68h-5.13v-31.275h5.13v13.41h14.715v-13.41zm17.509 31.68c-2.34 0-4.455-.525-6.345-1.575-1.89-1.08-3.375-2.58-4.455-4.5-1.08-1.95-1.62-4.2-1.62-6.75 0-2.52.555-4.755 1.665-6.705s2.625-3.45 4.545-4.5 4.065-1.575 6.435-1.575 4.515.525 6.435 1.575 3.435 2.55 4.545 4.5 1.665 4.185 1.665 6.705-.57 4.755-1.71 6.705-2.7 3.465-4.68 4.545c-1.95 1.05-4.11 1.575-6.48 1.575zm0-4.455c1.32 0 2.55-.315 3.69-.945 1.17-.63 2.115-1.575 2.835-2.835s1.08-2.79 1.08-4.59-.345-3.315-1.035-4.545c-.69-1.26-1.605-2.205-2.745-2.835s-2.37-.945-3.69-.945-2.55.315-3.69.945c-1.11.63-1.995 1.575-2.655 2.835-.66 1.23-.99 2.745-.99 4.545 0 2.67.675 4.74 2.025 6.21 1.38 1.44 3.105 2.16 5.175 2.16zm51.241-20.745-7.695 24.795h-5.4l-4.995-18.315-4.995 18.315h-5.4l-7.74-24.795h5.22l5.175 19.935 5.265-19.935h5.355l5.04 19.845 5.13-19.845zm18.133-3.285c-.93 0-1.71-.315-2.34-.945s-.945-1.41-.945-2.34.315-1.71.945-2.34 1.41-.945 2.34-.945c.9 0 1.665.315 2.295.945s.945 1.41.945 2.34-.315 1.71-.945 2.34-1.395.945-2.295.945zm2.52 3.285v24.795h-5.13v-24.795zm12.72 4.185v13.725c0 .93.21 1.605.63 2.025.45.39 1.2.585 2.25.585h3.15v4.275h-4.05c-2.31 0-4.08-.54-5.31-1.62s-1.845-2.835-1.845-5.265v-13.725h-2.925v-4.185h2.925v-6.165h5.175v6.165h6.03v4.185zm55.748-4.185-7.695 24.795h-5.4l-4.995-18.315-4.995 18.315h-5.4l-7.74-24.795h5.22l5.175 19.935 5.265-19.935h5.355l5.04 19.845 5.13-19.845zm14.589 25.2c-2.34 0-4.455-.525-6.345-1.575-1.89-1.08-3.375-2.58-4.455-4.5-1.08-1.95-1.62-4.2-1.62-6.75 0-2.52.555-4.755 1.665-6.705s2.625-3.45 4.545-4.5 4.065-1.575 6.435-1.575 4.515.525 6.435 1.575 3.435 2.55 4.545 4.5 1.665 4.185 1.665 6.705-.57 4.755-1.71 6.705-2.7 3.465-4.68 4.545c-1.95 1.05-4.11 1.575-6.48 1.575zm0-4.455c1.32 0 2.55-.315 3.69-.945 1.17-.63 2.115-1.575 2.835-2.835s1.08-2.79 1.08-4.59-.345-3.315-1.035-4.545c-.69-1.26-1.605-2.205-2.745-2.835s-2.37-.945-3.69-.945-2.55.315-3.69.945c-1.11.63-1.995 1.575-2.655 2.835-.66 1.23-.99 2.745-.99 4.545 0 2.67.675 4.74 2.025 6.21 1.38 1.44 3.105 2.16 5.175 2.16zm23.071-17.145c.75-1.26 1.74-2.235 2.97-2.925 1.26-.72 2.745-1.08 4.455-1.08v5.31h-1.305c-2.01 0-3.54.51-4.59 1.53-1.02 1.02-1.53 2.79-1.53 5.31v13.05h-5.13v-24.795h5.13zm21.95 8.82 11.43 12.375h-6.93l-9.18-10.665v10.665h-5.13v-33.3h5.13v19.35l9-10.845h7.11zm24.107 12.78c-1.95 0-3.705-.345-5.265-1.035-1.53-.72-2.745-1.68-3.645-2.88-.9-1.23-1.38-2.595-1.44-4.095h5.31c.09 1.05.585 1.935 1.485 2.655.93.69 2.085 1.035 3.465 1.035 1.44 0 2.55-.27 3.33-.81.81-.57 1.215-1.29 1.215-2.16 0-.93-.45-1.62-1.35-2.07-.87-.45-2.265-.945-4.185-1.485-1.86-.51-3.375-1.005-4.545-1.485s-2.19-1.215-3.06-2.205c-.84-.99-1.26-2.295-1.26-3.915 0-1.32.39-2.52 1.17-3.6.78-1.11 1.89-1.98 3.33-2.61 1.47-.63 3.15-.945 5.04-.945 2.82 0 5.085.72 6.795 2.16 1.74 1.41 2.67 3.345 2.79 5.805h-5.13c-.09-1.11-.54-1.995-1.35-2.655s-1.905-.99-3.285-.99c-1.35 0-2.385.255-3.105.765s-1.08 1.185-1.08 2.025c0 .66.24 1.215.72 1.665s1.065.81 1.755 1.08c.69.24 1.71.555 3.06.945 1.8.48 3.27.975 4.41 1.485 1.17.48 2.175 1.2 3.015 2.16s1.275 2.235 1.305 3.825c0 1.41-.39 2.67-1.17 3.78s-1.89 1.98-3.33 2.61c-1.41.63-3.075.945-4.995.945z" fill="#c1c1c1"/><rect fill="#7e27ed" height="209" rx="104.5" width="350" x="337" y="128"/><path clip-rule="evenodd" d="m412.539 210.016c0-.561.578-1.016 1.292-1.016.713 0 1.291.455 1.291 1.016v5.081c0 .561-.578 1.016-1.291 1.016-.714 0-1.292-.455-1.292-1.016zm-12.849 18.201c2.591 0 4.691-2.083 4.691-4.653 0-2.569-2.1-4.652-4.691-4.652-2.59 0-4.69 2.083-4.69 4.652 0 2.57 2.1 4.653 4.69 4.653zm18.894-5.763c.519 2.44-1.181 4.862-3.796 5.409-1.579.33-3.337.95-3.982 2.433l-.131.302c-.663 1.526.033 3.296.686 4.834.12.285.216.585.283.899.558 2.628-1.109 5.202-3.724 5.749s-5.187-1.14-5.746-3.768 1.108-5.202 3.723-5.749c1.484-.31 3.131-.89 3.737-2.284l.206-.475c.607-1.397.055-3-.453-4.476-.048-.14-.096-.278-.142-.415-.052-.155-.096-.315-.131-.478-.519-2.44 1.181-4.862 3.796-5.409s5.155.988 5.674 3.428zm7.08 13.817c.519 2.441-1.18 4.863-3.795 5.409-1.58.331-3.338.951-3.983 2.434l-.13.301c-.664 1.527.032 3.297.685 4.835.12.284.216.585.283.899.558 2.628-1.109 5.201-3.723 5.748-2.615.547-5.188-1.14-5.747-3.768s1.108-5.202 3.723-5.749c1.484-.31 3.131-.889 3.737-2.284l.206-.474c.607-1.398.055-3.001-.453-4.476v-.001c-.048-.14-.096-.278-.142-.415-.052-.155-.096-.314-.131-.478-.519-2.44 1.181-4.862 3.796-5.409s5.155.988 5.674 3.428zm7.029-12.707c0 2.57-2.1 4.653-4.69 4.653s-4.69-2.083-4.69-4.653c0-2.569 2.1-4.652 4.69-4.652s4.69 2.083 4.69 4.652z" fill="#fff" fill-rule="evenodd"/><path clip-rule="evenodd" d="m480.822 210.016c0-.561.578-1.016 1.292-1.016.713 0 1.291.455 1.291 1.016v5.081c0 .561-.578 1.016-1.291 1.016-.714 0-1.292-.455-1.292-1.016zm1.171 8.895c-1.449 0-2.624 1.163-2.624 2.598v31.888c0 1.435 1.175 2.598 2.624 2.598 1.45 0 2.625-1.163 2.625-2.598v-31.888c0-1.435-1.175-2.598-2.625-2.598zm25.54 1.465c0-.809.663-1.465 1.48-1.465h2.178c.818 0 1.48.656 1.48 1.465v34.154c0 .809-.662 1.465-1.48 1.465h-3.035c-.609 0-1.157-.373-1.379-.934-4.281-10.83-7.428-18.879-9.442-24.149-.01-.021-.019-.043-.028-.066-.204-.54-1.088-.557-1.037.253.004.058.007.112.009.164.186 2.605.205 5.605.205 8.706v14.561c0 .809-.663 1.465-1.48 1.465h-2.123c-.818 0-1.48-.656-1.48-1.465v-34.154c0-.809.662-1.465 1.48-1.465h3.093c.608 0 1.154.37 1.377.93 4.9 12.29 7.889 19.929 8.967 22.918l.236.654c.323.896 1.384.677 1.311-.272-.184-2.917-.295-5.724-.332-8.423zm11.604.489c0-1.079.883-1.954 1.973-1.954h14.112c.545 0 .986.437.986.977v2.586c0 .54-.441.977-.986.977h-10.892v11.541h9.345c.545 0 .986.437.986.976v2.587c0 .539-.441.976-.986.976h-9.345v11.979h10.892c.545 0 .986.437.986.977v2.531c0 .54-.441.977-.986.977h-14.112c-1.09 0-1.973-.875-1.973-1.954zm64.264-1.466c0-.269-.221-.488-.493-.488h-18.517c-.272 0-.493.219-.493.488v3.564c0 .269.221.488.493.488h6.141c.272 0 .493.219.493.488v31.568c0 .269.221.488.494.488h4.262c.272 0 .493-.219.493-.488v-31.568c0-.269.221-.488.493-.488h6.141c.272 0 .493-.219.493-.488zm3.821 0c0-.269.221-.488.493-.488h16.579v4.54h-11.385c-.273 0-.494.219-.494.488v10.564c0 .27.221.489.494.489h9.838v4.539h-9.838c-.273 0-.494.219-.494.489v11.001c0 .27.221.489.494.489h11.385v4.485h-16.579c-.272 0-.493-.219-.493-.488zm27.53 22.156v14.44h-5.193v-37.084h10.055c2.947 0 5.193.729 6.74 2.188 1.584 1.459 2.376 3.482 2.376 6.071v5.907c0 4.048-1.565 6.655-4.696 7.822l5.967 15.096h-5.746l-5.359-14.44zm0-18.159v13.838h4.42c1.547 0 2.652-.346 3.315-1.039.7-.693 1.05-1.75 1.05-3.172v-5.525c0-2.734-1.455-4.102-4.365-4.102zm-57.321 31.819c.094.454.498.78.966.78h3.057c.629 0 1.097-.574.965-1.182l-7.642-35.131c-.098-.45-.499-.771-.964-.771h-5.702c-.464 0-.865.32-.964.769l-7.746 35.13c-.134.609.335 1.185.964 1.185h3.053c.469 0 .873-.326.967-.78l1.801-8.675c.047-.227.249-.39.483-.39h8.478c.234 0 .436.163.483.39zm-9.676-13.496c-.312 0-.546-.283-.483-.586l3.101-15.076c.107-.521.858-.522.966-.002l3.148 15.077c.063.303-.171.587-.483.587zm-91.215-20.433c.213-1.366 1.405-2.375 2.802-2.375s2.589 1.009 2.802 2.375l2.613 16.769c.21 1.44 2.413 1.443 2.597 0l2.723-17.154c.182-1.146 1.179-1.99 2.35-1.99 1.458 0 2.573 1.286 2.352 2.713l-4.888 31.546c-.252 1.625-1.664 2.825-3.325 2.825-1.648 0-3.054-1.183-3.32-2.793l-2.411-14.6c-.123-.965-.796-1.495-1.493-1.495s-1.37.53-1.493 1.495l-2.411 14.6c-.266 1.61-1.672 2.793-3.32 2.793-1.661 0-3.073-1.2-3.325-2.825l-4.888-31.546c-.221-1.427.894-2.713 2.352-2.713 1.171 0 2.168.844 2.35 1.99l2.723 17.154c.184 1.443 2.386 1.44 2.597 0z" fill="#fff" fill-rule="evenodd"/><rect fill="#ba27ed" height="209" rx="104.5" width="218" x="40" y="128"/><path d="m72.536 205.228c0-1.904.4387-3.612 1.316-5.124.896-1.512 2.1-2.688 3.612-3.528 1.5307-.859 3.2013-1.288 5.012-1.288 2.072 0 3.9107.513 5.516 1.54 1.624 1.008 2.8 2.445 3.528 4.312h-3.836c-.504-1.027-1.204-1.792-2.1-2.296s-1.932-.756-3.108-.756c-1.288 0-2.436.289-3.444.868s-1.8013 1.409-2.38 2.492c-.56 1.083-.84 2.343-.84 3.78s.28 2.697.84 3.78c.5787 1.083 1.372 1.923 2.38 2.52 1.008.579 2.156.868 3.444.868 1.176 0 2.212-.252 3.108-.756s1.596-1.269 2.1-2.296h3.836c-.728 1.867-1.904 3.304-3.528 4.312-1.6053 1.008-3.444 1.512-5.516 1.512-1.8293 0-3.5-.42-5.012-1.26-1.512-.859-2.716-2.044-3.612-3.556-.8773-1.512-1.316-3.22-1.316-5.124zm36.692-5.656v15.428h-3.192v-1.82c-.504.635-1.166 1.139-1.988 1.512-.802.355-1.661.532-2.576.532-1.213 0-2.3051-.252-3.2757-.756-.952-.504-1.708-1.251-2.268-2.24-.5414-.989-.812-2.184-.812-3.584v-9.072h3.164v8.596c0 1.381.3453 2.445 1.036 3.192.6907.728 1.6337 1.092 2.8277 1.092 1.195 0 2.138-.364 2.828-1.092.71-.747 1.064-1.811 1.064-3.192v-8.596zm9.812 15.68c-1.213 0-2.305-.215-3.276-.644-.952-.448-1.708-1.045-2.268-1.792-.56-.765-.859-1.615-.896-2.548h3.304c.056.653.364 1.204.924 1.652.579.429 1.297.644 2.156.644.896 0 1.587-.168 2.072-.504.504-.355.756-.803.756-1.344 0-.579-.28-1.008-.84-1.288-.541-.28-1.409-.588-2.604-.924-1.157-.317-2.1-.625-2.828-.924s-1.363-.756-1.904-1.372c-.523-.616-.784-1.428-.784-2.436 0-.821.243-1.568.728-2.24.485-.691 1.176-1.232 2.072-1.624.915-.392 1.96-.588 3.136-.588 1.755 0 3.164.448 4.228 1.344 1.083.877 1.661 2.081 1.736 3.612h-3.192c-.056-.691-.336-1.241-.84-1.652s-1.185-.616-2.044-.616c-.84 0-1.484.159-1.932.476s-.672.737-.672 1.26c0 .411.149.756.448 1.036s.663.504 1.092.672c.429.149 1.064.345 1.904.588 1.12.299 2.035.607 2.744.924.728.299 1.353.747 1.876 1.344s.793 1.391.812 2.38c0 .877-.243 1.661-.728 2.352s-1.176 1.232-2.072 1.624c-.877.392-1.913.588-3.108.588zm13.081-13.076v8.54c0 .579.131.999.392 1.26.28.243.747.364 1.4.364h1.96v2.66h-2.52c-1.437 0-2.539-.336-3.304-1.008s-1.148-1.764-1.148-3.276v-8.54h-1.82v-2.604h1.82v-3.836h3.22v3.836h3.752v2.604zm13.386 13.076c-1.456 0-2.772-.327-3.948-.98-1.176-.672-2.1-1.605-2.772-2.8-.672-1.213-1.008-2.613-1.008-4.2 0-1.568.345-2.959 1.036-4.172s1.633-2.147 2.828-2.8 2.529-.98 4.004-.98 2.809.327 4.004.98 2.137 1.587 2.828 2.8 1.036 2.604 1.036 4.172-.355 2.959-1.064 4.172-1.68 2.156-2.912 2.828c-1.213.653-2.557.98-4.032.98zm0-2.772c.821 0 1.587-.196 2.296-.588.728-.392 1.316-.98 1.764-1.764s.672-1.736.672-2.856-.215-2.063-.644-2.828c-.429-.784-.999-1.372-1.708-1.764s-1.475-.588-2.296-.588-1.587.196-2.296.588c-.691.392-1.241.98-1.652 1.764-.411.765-.616 1.708-.616 2.828 0 1.661.42 2.949 1.26 3.864.859.896 1.932 1.344 3.22 1.344zm29.839-13.16c1.214 0 2.296.252 3.248.756.971.504 1.727 1.251 2.268 2.24.56.989.84 2.184.84 3.584v9.1h-3.164v-8.624c0-1.381-.345-2.436-1.036-3.164-.69-.747-1.633-1.12-2.828-1.12-1.194 0-2.146.373-2.856 1.12-.69.728-1.036 1.783-1.036 3.164v8.624h-3.164v-8.624c0-1.381-.345-2.436-1.036-3.164-.69-.747-1.633-1.12-2.828-1.12-1.194 0-2.146.373-2.856 1.12-.69.728-1.036 1.783-1.036 3.164v8.624h-3.192v-15.428h3.192v1.764c.523-.635 1.186-1.129 1.988-1.484.803-.355 1.662-.532 2.576-.532 1.232 0 2.334.261 3.304.784.971.523 1.718 1.279 2.24 2.268.467-.933 1.195-1.671 2.184-2.212.99-.56 2.054-.84 3.192-.84zm24.558 7.588c0 .579-.037 1.101-.112 1.568h-11.788c.093 1.232.551 2.221 1.372 2.968s1.829 1.12 3.024 1.12c1.717 0 2.931-.719 3.64-2.156h3.444c-.467 1.419-1.316 2.585-2.548 3.5-1.213.896-2.725 1.344-4.536 1.344-1.475 0-2.8-.327-3.976-.98-1.157-.672-2.072-1.605-2.744-2.8-.653-1.213-.98-2.613-.98-4.2s.317-2.977.952-4.172c.653-1.213 1.559-2.147 2.716-2.8 1.176-.653 2.52-.98 4.032-.98 1.456 0 2.753.317 3.892.952s2.025 1.531 2.66 2.688c.635 1.139.952 2.455.952 3.948zm-3.332-1.008c-.019-1.176-.439-2.119-1.26-2.828s-1.839-1.064-3.052-1.064c-1.101 0-2.044.355-2.828 1.064-.784.691-1.251 1.633-1.4 2.828zm9.665-4.088c.467-.784 1.083-1.391 1.848-1.82.784-.448 1.708-.672 2.772-.672v3.304h-.812c-1.25 0-2.202.317-2.856.952-.634.635-.952 1.736-.952 3.304v8.12h-3.192v-15.428h3.192zm13.154 13.44c-1.213 0-2.305-.215-3.276-.644-.952-.448-1.708-1.045-2.268-1.792-.56-.765-.858-1.615-.896-2.548h3.304c.056.653.364 1.204.924 1.652.579.429 1.298.644 2.156.644.896 0 1.587-.168 2.072-.504.504-.355.756-.803.756-1.344 0-.579-.28-1.008-.84-1.288-.541-.28-1.409-.588-2.604-.924-1.157-.317-2.1-.625-2.828-.924s-1.362-.756-1.904-1.372c-.522-.616-.784-1.428-.784-2.436 0-.821.243-1.568.728-2.24.486-.691 1.176-1.232 2.072-1.624.915-.392 1.96-.588 3.136-.588 1.755 0 3.164.448 4.228 1.344 1.083.877 1.662 2.081 1.736 3.612h-3.192c-.056-.691-.336-1.241-.84-1.652s-1.185-.616-2.044-.616c-.84 0-1.484.159-1.932.476s-.672.737-.672 1.26c0 .411.15.756.448 1.036.299.28.663.504 1.092.672.43.149 1.064.345 1.904.588 1.12.299 2.035.607 2.744.924.728.299 1.354.747 1.876 1.344.523.597.794 1.391.812 2.38 0 .877-.242 1.661-.728 2.352-.485.691-1.176 1.232-2.072 1.624-.877.392-1.913.588-3.108.588z" fill="#fff"/><path d="m68.4615 236.88v11.12h-1.824v-11.12zm6.8428 2.16c.6933 0 1.312.144 1.856.432.5546.288.9866.715 1.296 1.28.3093.565.464 1.248.464 2.048v5.2h-1.808v-4.928c0-.789-.1974-1.392-.592-1.808-.3947-.427-.9334-.64-1.616-.64-.6827 0-1.2267.213-1.632.64-.3947.416-.592 1.019-.592 1.808v4.928h-1.824v-8.816h1.824v1.008c.2986-.363.6773-.645 1.136-.848.4693-.203.9653-.304 1.488-.304zm7.7666 1.44c.3093-.405.7306-.747 1.264-1.024.5333-.277 1.136-.416 1.808-.416.768 0 1.4666.192 2.096.576.64.373 1.1413.901 1.504 1.584.3626.683.544 1.467.544 2.352s-.1814 1.68-.544 2.384c-.3627.693-.864 1.237-1.504 1.632-.6294.384-1.328.576-2.096.576-.672 0-1.2694-.133-1.792-.4-.5227-.277-.9494-.619-1.28-1.024v5.472h-1.824v-13.008h1.824zm5.36 3.072c0-.608-.128-1.131-.384-1.568-.2454-.448-.576-.784-.992-1.008-.4054-.235-.8427-.352-1.312-.352-.4587 0-.896.117-1.312.352-.4054.235-.736.576-.992 1.024-.2454.448-.368.976-.368 1.584s.1226 1.141.368 1.6c.256.448.5866.789.992 1.024.416.235.8533.352 1.312.352.4693 0 .9066-.117 1.312-.352.416-.245.7466-.597.992-1.056.256-.459.384-.992.384-1.6zm11.6441-4.368v8.816h-1.8244v-1.04c-.288.363-.6666.651-1.136.864-.4586.203-.9493.304-1.472.304-.6933 0-1.3173-.144-1.872-.432-.544-.288-.976-.715-1.296-1.28-.3093-.565-.464-1.248-.464-2.048v-5.184h1.808v4.912c0 .789.1974 1.397.592 1.824.3947.416.9334.624 1.616.624.6827 0 1.2214-.208 1.616-.624.4054-.427.608-1.035.608-1.824v-4.912zm4.534 1.488v4.88c0 .331.075.571.224.72.16.139.427.208.8.208h1.12v1.52h-1.44c-.821 0-1.45-.192-1.888-.576-.437-.384-.656-1.008-.656-1.872v-4.88h-1.04v-1.488h1.04v-2.192h1.84v2.192h2.144v1.488zm7.374 2.88c0-.885.181-1.669.544-2.352.373-.683.874-1.211 1.504-1.584.64-.384 1.344-.576 2.112-.576.693 0 1.296.139 1.808.416.522.267.938.603 1.248 1.008v-1.28h1.84v8.816h-1.84v-1.312c-.31.416-.731.763-1.264 1.04-.534.277-1.142.416-1.824.416-.758 0-1.451-.192-2.08-.576-.63-.395-1.131-.939-1.504-1.632-.363-.704-.544-1.499-.544-2.384zm7.216.032c0-.608-.128-1.136-.384-1.584-.246-.448-.571-.789-.976-1.024-.406-.235-.843-.352-1.312-.352-.47 0-.907.117-1.312.352-.406.224-.736.56-.992 1.008-.246.437-.368.96-.368 1.568s.122 1.141.368 1.6c.256.459.586.811.992 1.056.416.235.853.352 1.312.352.469 0 .906-.117 1.312-.352.405-.235.73-.576.976-1.024.256-.459.384-.992.384-1.6zm8.683-4.544c.694 0 1.312.144 1.856.432.555.288.987.715 1.296 1.28.31.565.464 1.248.464 2.048v5.2h-1.808v-4.928c0-.789-.197-1.392-.592-1.808-.394-.427-.933-.64-1.616-.64-.682 0-1.226.213-1.632.64-.394.416-.592 1.019-.592 1.808v4.928h-1.824v-8.816h1.824v1.008c.299-.363.678-.645 1.136-.848.47-.203.966-.304 1.488-.304zm13.879.144-5.408 12.96h-1.888l1.792-4.288-3.472-8.672h2.032l2.48 6.72 2.576-6.72zm4.925 4.368c0-.885.181-1.669.544-2.352.373-.683.874-1.211 1.504-1.584.64-.384 1.349-.576 2.128-.576.576 0 1.141.128 1.696.384.565.245 1.013.576 1.344.992v-4.256h1.84v11.84h-1.84v-1.328c-.299.427-.715.779-1.248 1.056-.523.277-1.126.416-1.808.416-.768 0-1.472-.192-2.112-.576-.63-.395-1.131-.939-1.504-1.632-.363-.704-.544-1.499-.544-2.384zm7.216.032c0-.608-.128-1.136-.384-1.584-.246-.448-.571-.789-.976-1.024-.406-.235-.843-.352-1.312-.352-.47 0-.907.117-1.312.352-.406.224-.736.56-.992 1.008-.246.437-.368.96-.368 1.568s.122 1.141.368 1.6c.256.459.586.811.992 1.056.416.235.853.352 1.312.352.469 0 .906-.117 1.312-.352.405-.235.73-.576.976-1.024.256-.459.384-.992.384-1.6zm5.164-5.568c-.331 0-.608-.112-.832-.336s-.336-.501-.336-.832.112-.608.336-.832.501-.336.832-.336c.32 0 .592.112.816.336s.336.501.336.832-.112.608-.336.832-.496.336-.816.336zm.896 1.168v8.816h-1.824v-8.816zm5.594 8.96c-.693 0-1.317-.123-1.872-.368-.544-.256-.976-.597-1.296-1.024-.32-.437-.49-.923-.512-1.456h1.888c.032.373.208.688.528.944.331.245.742.368 1.232.368.512 0 .907-.096 1.184-.288.288-.203.432-.459.432-.768 0-.331-.16-.576-.48-.736-.309-.16-.805-.336-1.488-.528-.661-.181-1.2-.357-1.616-.528s-.778-.432-1.088-.784c-.298-.352-.448-.816-.448-1.392 0-.469.139-.896.416-1.28.278-.395.672-.704 1.184-.928.523-.224 1.12-.336 1.792-.336 1.003 0 1.808.256 2.416.768.619.501.95 1.189.992 2.064h-1.824c-.032-.395-.192-.709-.48-.944s-.677-.352-1.168-.352c-.48 0-.848.091-1.104.272s-.384.421-.384.72c0 .235.086.432.256.592.171.16.379.288.624.384.246.085.608.197 1.088.336.64.171 1.163.347 1.568.528.416.171.774.427 1.072.768.299.341.454.795.464 1.36 0 .501-.138.949-.416 1.344-.277.395-.672.704-1.184.928-.501.224-1.093.336-1.776.336zm9.907-9.104c.672 0 1.269.144 1.792.432.533.288.949.715 1.248 1.28.309.565.464 1.248.464 2.048v5.2h-1.808v-4.928c0-.789-.197-1.392-.592-1.808-.395-.427-.933-.64-1.616-.64s-1.227.213-1.632.64c-.395.416-.592 1.019-.592 1.808v4.928h-1.824v-11.84h1.824v4.048c.309-.373.699-.661 1.168-.864.48-.203 1.003-.304 1.568-.304zm10.915-1.024c-.331 0-.608-.112-.832-.336s-.336-.501-.336-.832.112-.608.336-.832.501-.336.832-.336c.32 0 .592.112.816.336s.336.501.336.832-.112.608-.336.832-.496.336-.816.336zm.896 1.168v8.816h-1.824v-8.816zm6.843-.144c.693 0 1.312.144 1.856.432.554.288.986.715 1.296 1.28.309.565.464 1.248.464 2.048v5.2h-1.808v-4.928c0-.789-.198-1.392-.592-1.808-.395-.427-.934-.64-1.616-.64-.683 0-1.227.213-1.632.64-.395.416-.592 1.019-.592 1.808v4.928h-1.824v-8.816h1.824v1.008c.298-.363.677-.645 1.136-.848.469-.203.965-.304 1.488-.304zm9.491 4.512c0-.885.181-1.669.544-2.352.373-.683.874-1.211 1.504-1.584.64-.384 1.344-.576 2.112-.576.693 0 1.296.139 1.808.416.522.267.938.603 1.248 1.008v-1.28h1.84v8.816h-1.84v-1.312c-.31.416-.731.763-1.264 1.04-.534.277-1.142.416-1.824.416-.758 0-1.451-.192-2.08-.576-.63-.395-1.131-.939-1.504-1.632-.363-.704-.544-1.499-.544-2.384zm7.216.032c0-.608-.128-1.136-.384-1.584-.246-.448-.571-.789-.976-1.024-.406-.235-.843-.352-1.312-.352-.47 0-.907.117-1.312.352-.406.224-.736.56-.992 1.008-.246.437-.368.96-.368 1.568s.122 1.141.368 1.6c.256.459.586.811.992 1.056.416.235.853.352 1.312.352.469 0 .906-.117 1.312-.352.405-.235.73-.576.976-1.024.256-.459.384-.992.384-1.6zm8.683-4.544c.694 0 1.312.144 1.856.432.555.288.987.715 1.296 1.28.31.565.464 1.248.464 2.048v5.2h-1.808v-4.928c0-.789-.197-1.392-.592-1.808-.394-.427-.933-.64-1.616-.64-.682 0-1.226.213-1.632.64-.394.416-.592 1.019-.592 1.808v4.928h-1.824v-8.816h1.824v1.008c.299-.363.678-.645 1.136-.848.47-.203.966-.304 1.488-.304zm13.879.144-5.408 12.96h-1.888l1.792-4.288-3.472-8.672h2.032l2.48 6.72 2.576-6.72zm-119.987 18.976v11.84h-1.824v-11.84zm1.787 7.392c0-.885.181-1.669.544-2.352.373-.683.874-1.211 1.504-1.584.64-.384 1.344-.576 2.112-.576.693 0 1.296.139 1.808.416.522.267.938.603 1.248 1.008v-1.28h1.84v8.816h-1.84v-1.312c-.31.416-.731.763-1.264 1.04-.534.277-1.142.416-1.824.416-.758 0-1.451-.192-2.08-.576-.63-.395-1.131-.939-1.504-1.632-.363-.704-.544-1.499-.544-2.384zm7.216.032c0-.608-.128-1.136-.384-1.584-.246-.448-.571-.789-.976-1.024-.406-.235-.843-.352-1.312-.352-.47 0-.907.117-1.312.352-.406.224-.736.56-.992 1.008-.246.437-.368.96-.368 1.568s.122 1.141.368 1.6c.256.459.586.811.992 1.056.416.235.853.352 1.312.352.469 0 .906-.117 1.312-.352.405-.235.73-.576.976-1.024.256-.459.384-.992.384-1.6zm8.684-4.544c.693 0 1.312.144 1.856.432.554.288.986.715 1.296 1.28.309.565.464 1.248.464 2.048v5.2h-1.808v-4.928c0-.789-.198-1.392-.592-1.808-.395-.427-.934-.64-1.616-.64-.683 0-1.227.213-1.632.64-.395.416-.592 1.019-.592 1.808v4.928h-1.824v-8.816h1.824v1.008c.298-.363.677-.645 1.136-.848.469-.203.965-.304 1.488-.304zm9.494 0c.683 0 1.285.139 1.808.416.533.267.949.603 1.248 1.008v-1.28h1.84v8.96c0 .811-.171 1.531-.512 2.16-.341.64-.837 1.141-1.488 1.504-.64.363-1.408.544-2.304.544-1.195 0-2.187-.283-2.976-.848-.789-.555-1.237-1.312-1.344-2.272h1.808c.139.459.432.827.88 1.104.459.288 1.003.432 1.632.432.736 0 1.328-.224 1.776-.672.459-.448.688-1.099.688-1.952v-1.472c-.309.416-.731.768-1.264 1.056-.523.277-1.12.416-1.792.416-.768 0-1.472-.192-2.112-.576-.629-.395-1.131-.939-1.504-1.632-.363-.704-.544-1.499-.544-2.384s.181-1.669.544-2.352c.373-.683.875-1.211 1.504-1.584.64-.384 1.344-.576 2.112-.576zm3.056 4.544c0-.608-.128-1.136-.384-1.584-.245-.448-.571-.789-.976-1.024s-.843-.352-1.312-.352-.907.117-1.312.352c-.405.224-.736.56-.992 1.008-.245.437-.368.96-.368 1.568s.123 1.141.368 1.6c.256.459.587.811.992 1.056.416.235.853.352 1.312.352.469 0 .907-.117 1.312-.352s.731-.576.976-1.024c.256-.459.384-.992.384-1.6zm12.22-4.4v8.816h-1.824v-1.04c-.288.363-.667.651-1.136.864-.459.203-.949.304-1.472.304-.693 0-1.317-.144-1.872-.432-.544-.288-.976-.715-1.296-1.28-.309-.565-.464-1.248-.464-2.048v-5.184h1.808v4.912c0 .789.197 1.397.592 1.824.395.416.933.624 1.616.624s1.221-.208 1.616-.624c.405-.427.608-1.035.608-1.824v-4.912zm1.799 4.368c0-.885.181-1.669.544-2.352.373-.683.874-1.211 1.504-1.584.64-.384 1.344-.576 2.112-.576.693 0 1.296.139 1.808.416.522.267.938.603 1.248 1.008v-1.28h1.84v8.816h-1.84v-1.312c-.31.416-.731.763-1.264 1.04-.534.277-1.142.416-1.824.416-.758 0-1.451-.192-2.08-.576-.63-.395-1.131-.939-1.504-1.632-.363-.704-.544-1.499-.544-2.384zm7.216.032c0-.608-.128-1.136-.384-1.584-.246-.448-.571-.789-.976-1.024-.406-.235-.843-.352-1.312-.352-.47 0-.907.117-1.312.352-.406.224-.736.56-.992 1.008-.246.437-.368.96-.368 1.568s.122 1.141.368 1.6c.256.459.586.811.992 1.056.416.235.853.352 1.312.352.469 0 .906-.117 1.312-.352.405-.235.73-.576.976-1.024.256-.459.384-.992.384-1.6zm7.787-4.544c.683 0 1.286.139 1.808.416.534.267.95.603 1.248 1.008v-1.28h1.84v8.96c0 .811-.17 1.531-.512 2.16-.341.64-.837 1.141-1.488 1.504-.64.363-1.408.544-2.304.544-1.194 0-2.186-.283-2.976-.848-.789-.555-1.237-1.312-1.344-2.272h1.808c.139.459.432.827.88 1.104.459.288 1.003.432 1.632.432.736 0 1.328-.224 1.776-.672.459-.448.688-1.099.688-1.952v-1.472c-.309.416-.73.768-1.264 1.056-.522.277-1.12.416-1.792.416-.768 0-1.472-.192-2.112-.576-.629-.395-1.13-.939-1.504-1.632-.362-.704-.544-1.499-.544-2.384s.182-1.669.544-2.352c.374-.683.875-1.211 1.504-1.584.64-.384 1.344-.576 2.112-.576zm3.056 4.544c0-.608-.128-1.136-.384-1.584-.245-.448-.57-.789-.976-1.024-.405-.235-.842-.352-1.312-.352-.469 0-.906.117-1.312.352-.405.224-.736.56-.992 1.008-.245.437-.368.96-.368 1.568s.123 1.141.368 1.6c.256.459.587.811.992 1.056.416.235.854.352 1.312.352.47 0 .907-.117 1.312-.352.406-.235.731-.576.976-1.024.256-.459.384-.992.384-1.6zm12.316-.208c0 .331-.021.629-.064.896h-6.736c.053.704.315 1.269.784 1.696s1.045.64 1.728.64c.981 0 1.675-.411 2.08-1.232h1.968c-.267.811-.752 1.477-1.456 2-.693.512-1.557.768-2.592.768-.843 0-1.6-.187-2.272-.56-.661-.384-1.184-.917-1.568-1.6-.373-.693-.56-1.493-.56-2.4s.181-1.701.544-2.384c.373-.693.891-1.227 1.552-1.6.672-.373 1.44-.56 2.304-.56.832 0 1.573.181 2.224.544s1.157.875 1.52 1.536c.363.651.544 1.403.544 2.256zm-1.904-.576c-.011-.672-.251-1.211-.72-1.616s-1.051-.608-1.744-.608c-.629 0-1.168.203-1.616.608-.448.395-.715.933-.8 1.616z" fill="#ededed"/><rect fill="#2fc0bf" height="209" rx="104.5" width="218" x="766" y="129"/><path d="m839.012 215.196c-1.307 0-2.483-.224-3.528-.672-1.045-.467-1.867-1.12-2.464-1.96s-.896-1.82-.896-2.94h3.416c.075.84.401 1.531.98 2.072.597.541 1.428.812 2.492.812 1.101 0 1.96-.261 2.576-.784.616-.541.924-1.232.924-2.072 0-.653-.196-1.185-.588-1.596-.373-.411-.849-.728-1.428-.952-.56-.224-1.344-.467-2.352-.728-1.269-.336-2.305-.672-3.108-1.008-.784-.355-1.456-.896-2.016-1.624s-.84-1.699-.84-2.912c0-1.12.28-2.1.84-2.94s1.344-1.484 2.352-1.932 2.175-.672 3.5-.672c1.885 0 3.425.476 4.62 1.428 1.213.933 1.885 2.221 2.016 3.864h-3.528c-.056-.709-.392-1.316-1.008-1.82s-1.428-.756-2.436-.756c-.915 0-1.661.233-2.24.7s-.868 1.139-.868 2.016c0 .597.177 1.092.532 1.484.373.373.84.672 1.4.896s1.325.467 2.296.728c1.288.355 2.333.709 3.136 1.064.821.355 1.512.905 2.072 1.652.579.728.868 1.708.868 2.94 0 .989-.271 1.923-.812 2.8-.523.877-1.297 1.587-2.324 2.128-1.008.523-2.203.784-3.584.784zm14.21-13.02v8.54c0 .579.131.999.392 1.26.28.243.747.364 1.4.364h1.96v2.66h-2.52c-1.437 0-2.538-.336-3.304-1.008-.765-.672-1.148-1.764-1.148-3.276v-8.54h-1.82v-2.604h1.82v-3.836h3.22v3.836h3.752v2.604zm13.386 13.076c-1.456 0-2.772-.327-3.948-.98-1.176-.672-2.1-1.605-2.772-2.8-.672-1.213-1.008-2.613-1.008-4.2 0-1.568.346-2.959 1.036-4.172.691-1.213 1.634-2.147 2.828-2.8 1.195-.653 2.53-.98 4.004-.98 1.475 0 2.81.327 4.004.98 1.195.653 2.138 1.587 2.828 2.8.691 1.213 1.036 2.604 1.036 4.172s-.354 2.959-1.064 4.172c-.709 1.213-1.68 2.156-2.912 2.828-1.213.653-2.557.98-4.032.98zm0-2.772c.822 0 1.587-.196 2.296-.588.728-.392 1.316-.98 1.764-1.764s.672-1.736.672-2.856-.214-2.063-.644-2.828c-.429-.784-.998-1.372-1.708-1.764-.709-.392-1.474-.588-2.296-.588-.821 0-1.586.196-2.296.588-.69.392-1.241.98-1.652 1.764-.41.765-.616 1.708-.616 2.828 0 1.661.42 2.949 1.26 3.864.859.896 1.932 1.344 3.22 1.344zm14.356-10.668c.467-.784 1.083-1.391 1.848-1.82.784-.448 1.708-.672 2.772-.672v3.304h-.812c-1.251 0-2.203.317-2.856.952-.635.635-.952 1.736-.952 3.304v8.12h-3.192v-15.428h3.192zm21.694 5.096c0 .579-.037 1.101-.112 1.568h-11.788c.093 1.232.551 2.221 1.372 2.968s1.829 1.12 3.024 1.12c1.717 0 2.931-.719 3.64-2.156h3.444c-.467 1.419-1.316 2.585-2.548 3.5-1.213.896-2.725 1.344-4.536 1.344-1.475 0-2.8-.327-3.976-.98-1.157-.672-2.072-1.605-2.744-2.8-.653-1.213-.98-2.613-.98-4.2s.317-2.977.952-4.172c.653-1.213 1.559-2.147 2.716-2.8 1.176-.653 2.52-.98 4.032-.98 1.456 0 2.753.317 3.892.952s2.025 1.531 2.66 2.688c.635 1.139.952 2.455.952 3.948zm-3.332-1.008c-.019-1.176-.439-2.119-1.26-2.828s-1.839-1.064-3.052-1.064c-1.101 0-2.044.355-2.828 1.064-.784.691-1.251 1.633-1.4 2.828zm12.073 9.352c-1.213 0-2.305-.215-3.276-.644-.952-.448-1.708-1.045-2.268-1.792-.56-.765-.858-1.615-.896-2.548h3.304c.056.653.364 1.204.924 1.652.579.429 1.298.644 2.156.644.896 0 1.587-.168 2.072-.504.504-.355.756-.803.756-1.344 0-.579-.28-1.008-.84-1.288-.541-.28-1.409-.588-2.604-.924-1.157-.317-2.1-.625-2.828-.924s-1.362-.756-1.904-1.372c-.522-.616-.784-1.428-.784-2.436 0-.821.243-1.568.728-2.24.486-.691 1.176-1.232 2.072-1.624.915-.392 1.96-.588 3.136-.588 1.755 0 3.164.448 4.228 1.344 1.083.877 1.662 2.081 1.736 3.612h-3.192c-.056-.691-.336-1.241-.84-1.652s-1.185-.616-2.044-.616c-.84 0-1.484.159-1.932.476s-.672.737-.672 1.26c0 .411.15.756.448 1.036.299.28.663.504 1.092.672.43.149 1.064.345 1.904.588 1.12.299 2.035.607 2.744.924.728.299 1.354.747 1.876 1.344.523.597.794 1.391.812 2.38 0 .877-.242 1.661-.728 2.352-.485.691-1.176 1.232-2.072 1.624-.877.392-1.913.588-3.108.588z" fill="#fff"/><path d="m828.594 236.88v11.12h-1.824v-11.12zm13.067 2.16c.693 0 1.312.144 1.856.432.555.288.987.715 1.296 1.28.32.565.48 1.248.48 2.048v5.2h-1.808v-4.928c0-.789-.197-1.392-.592-1.808-.395-.427-.933-.64-1.616-.64s-1.227.213-1.632.64c-.395.416-.592 1.019-.592 1.808v4.928h-1.808v-4.928c0-.789-.197-1.392-.592-1.808-.395-.427-.933-.64-1.616-.64s-1.227.213-1.632.64c-.395.416-.592 1.019-.592 1.808v4.928h-1.824v-8.816h1.824v1.008c.299-.363.677-.645 1.136-.848s.949-.304 1.472-.304c.704 0 1.333.149 1.888.448s.981.731 1.28 1.296c.267-.533.683-.955 1.248-1.264.565-.32 1.173-.48 1.824-.48zm7.777 1.44c.309-.405.731-.747 1.264-1.024s1.136-.416 1.808-.416c.768 0 1.467.192 2.096.576.64.373 1.141.901 1.504 1.584s.544 1.467.544 2.352-.181 1.68-.544 2.384c-.363.693-.864 1.237-1.504 1.632-.629.384-1.328.576-2.096.576-.672 0-1.269-.133-1.792-.4-.523-.277-.949-.619-1.28-1.024v5.472h-1.824v-13.008h1.824zm5.36 3.072c0-.608-.128-1.131-.384-1.568-.245-.448-.576-.784-.992-1.008-.405-.235-.843-.352-1.312-.352-.459 0-.896.117-1.312.352-.405.235-.736.576-.992 1.024-.245.448-.368.976-.368 1.584s.123 1.141.368 1.6c.256.448.587.789.992 1.024.416.235.853.352 1.312.352.469 0 .907-.117 1.312-.352.416-.245.747-.597.992-1.056.256-.459.384-.992.384-1.6zm7.484 4.592c-.832 0-1.584-.187-2.256-.56-.672-.384-1.2-.917-1.584-1.6-.384-.693-.576-1.493-.576-2.4 0-.896.197-1.691.592-2.384.394-.693.933-1.227 1.616-1.6.682-.373 1.445-.56 2.288-.56.842 0 1.605.187 2.288.56.682.373 1.221.907 1.616 1.6.394.693.592 1.488.592 2.384s-.203 1.691-.608 2.384c-.406.693-.96 1.232-1.664 1.616-.694.373-1.462.56-2.304.56zm0-1.584c.469 0 .906-.112 1.312-.336.416-.224.752-.56 1.008-1.008s.384-.992.384-1.632-.123-1.179-.368-1.616c-.246-.448-.571-.784-.976-1.008-.406-.224-.843-.336-1.312-.336-.47 0-.907.112-1.312.336-.395.224-.71.56-.944 1.008-.235.437-.352.976-.352 1.616 0 .949.24 1.685.72 2.208.49.512 1.104.768 1.84.768zm8.203-6.096c.267-.448.619-.795 1.056-1.04.448-.256.976-.384 1.584-.384v1.888h-.464c-.715 0-1.259.181-1.632.544-.363.363-.544.992-.544 1.888v4.64h-1.824v-8.816h1.824zm6.445.208v4.88c0 .331.074.571.224.72.16.139.426.208.8.208h1.12v1.52h-1.44c-.822 0-1.451-.192-1.888-.576-.438-.384-.656-1.008-.656-1.872v-4.88h-1.04v-1.488h1.04v-2.192h1.84v2.192h2.144v1.488zm11.181 7.472c-.693 0-1.317-.123-1.872-.368-.544-.256-.976-.597-1.296-1.024-.32-.437-.491-.923-.512-1.456h1.888c.032.373.208.688.528.944.331.245.741.368 1.232.368.512 0 .907-.096 1.184-.288.288-.203.432-.459.432-.768 0-.331-.16-.576-.48-.736-.309-.16-.805-.336-1.488-.528-.661-.181-1.2-.357-1.616-.528s-.779-.432-1.088-.784c-.299-.352-.448-.816-.448-1.392 0-.469.139-.896.416-1.28.277-.395.672-.704 1.184-.928.523-.224 1.12-.336 1.792-.336 1.003 0 1.808.256 2.416.768.619.501.949 1.189.992 2.064h-1.824c-.032-.395-.192-.709-.48-.944s-.677-.352-1.168-.352c-.48 0-.848.091-1.104.272s-.384.421-.384.72c0 .235.085.432.256.592s.379.288.624.384c.245.085.608.197 1.088.336.64.171 1.163.347 1.568.528.416.171.773.427 1.072.768s.453.795.464 1.36c0 .501-.139.949-.416 1.344s-.672.704-1.184.928c-.501.224-1.093.336-1.776.336zm7.475-7.472v4.88c0 .331.074.571.224.72.16.139.426.208.8.208h1.12v1.52h-1.44c-.822 0-1.451-.192-1.888-.576-.438-.384-.656-1.008-.656-1.872v-4.88h-1.04v-1.488h1.04v-2.192h1.84v2.192h2.144v1.488zm7.649 7.472c-.832 0-1.584-.187-2.256-.56-.672-.384-1.2-.917-1.584-1.6-.384-.693-.576-1.493-.576-2.4 0-.896.197-1.691.592-2.384s.933-1.227 1.616-1.6 1.445-.56 2.288-.56 1.605.187 2.288.56 1.221.907 1.616 1.6.592 1.488.592 2.384-.203 1.691-.608 2.384-.96 1.232-1.664 1.616c-.693.373-1.461.56-2.304.56zm0-1.584c.469 0 .907-.112 1.312-.336.416-.224.752-.56 1.008-1.008s.384-.992.384-1.632-.123-1.179-.368-1.616c-.245-.448-.571-.784-.976-1.008s-.843-.336-1.312-.336-.907.112-1.312.336c-.395.224-.709.56-.944 1.008-.235.437-.352.976-.352 1.616 0 .949.24 1.685.72 2.208.491.512 1.104.768 1.84.768zm8.203-6.096c.267-.448.619-.795 1.056-1.04.448-.256.976-.384 1.584-.384v1.888h-.464c-.715 0-1.259.181-1.632.544-.363.363-.544.992-.544 1.888v4.64h-1.824v-8.816h1.824zm12.397 2.912c0 .331-.022.629-.064.896h-6.736c.053.704.314 1.269.784 1.696.469.427 1.045.64 1.728.64.981 0 1.674-.411 2.08-1.232h1.968c-.267.811-.752 1.477-1.456 2-.694.512-1.558.768-2.592.768-.843 0-1.6-.187-2.272-.56-.662-.384-1.184-.917-1.568-1.6-.374-.693-.56-1.493-.56-2.4s.181-1.701.544-2.384c.373-.693.89-1.227 1.552-1.6.672-.373 1.44-.56 2.304-.56.832 0 1.573.181 2.224.544.65.363 1.157.875 1.52 1.536.362.651.544 1.403.544 2.256zm-1.904-.576c-.011-.672-.251-1.211-.72-1.616-.47-.405-1.051-.608-1.744-.608-.63 0-1.168.203-1.616.608-.448.395-.715.933-.8 1.616zm-66.282 18.384-2.736 8.816h-1.92l-1.776-6.512-1.776 6.512h-1.92l-2.752-8.816h1.856l1.84 7.088 1.872-7.088h1.904l1.792 7.056 1.824-7.056zm2.292-1.168c-.331 0-.608-.112-.832-.336s-.336-.501-.336-.832.112-.608.336-.832.501-.336.832-.336c.32 0 .592.112.816.336s.336.501.336.832-.112.608-.336.832-.496.336-.816.336zm.896 1.168v8.816h-1.824v-8.816zm6.842-.144c.694 0 1.312.144 1.856.432.555.288.987.715 1.296 1.28.31.565.464 1.248.464 2.048v5.2h-1.808v-4.928c0-.789-.197-1.392-.592-1.808-.394-.427-.933-.64-1.616-.64-.682 0-1.226.213-1.632.64-.394.416-.592 1.019-.592 1.808v4.928h-1.824v-8.816h1.824v1.008c.299-.363.678-.645 1.136-.848.47-.203.966-.304 1.488-.304zm14.023 4.336c0 .331-.021.629-.064.896h-6.736c.053.704.315 1.269.784 1.696s1.045.64 1.728.64c.981 0 1.675-.411 2.08-1.232h1.968c-.267.811-.752 1.477-1.456 2-.693.512-1.557.768-2.592.768-.843 0-1.6-.187-2.272-.56-.661-.384-1.184-.917-1.568-1.6-.373-.693-.56-1.493-.56-2.4s.181-1.701.544-2.384c.373-.693.891-1.227 1.552-1.6.672-.373 1.44-.56 2.304-.56.832 0 1.573.181 2.224.544s1.157.875 1.52 1.536c.363.651.544 1.403.544 2.256zm-1.904-.576c-.011-.672-.251-1.211-.72-1.616s-1.051-.608-1.744-.608c-.629 0-1.168.203-1.616.608-.448.395-.715.933-.8 1.616zm9.679-6.64v11.84h-1.824v-11.84zm3.323 1.856c-.331 0-.608-.112-.832-.336s-.336-.501-.336-.832.112-.608.336-.832.501-.336.832-.336c.32 0 .592.112.816.336s.336.501.336.832-.112.608-.336.832-.496.336-.816.336zm.896 1.168v8.816h-1.824v-8.816zm5.595 8.96c-.694 0-1.318-.123-1.872-.368-.544-.256-.976-.597-1.296-1.024-.32-.437-.491-.923-.512-1.456h1.888c.032.373.208.688.528.944.33.245.741.368 1.232.368.512 0 .906-.096 1.184-.288.288-.203.432-.459.432-.768 0-.331-.16-.576-.48-.736-.31-.16-.806-.336-1.488-.528-.662-.181-1.2-.357-1.616-.528s-.779-.432-1.088-.784c-.299-.352-.448-.816-.448-1.392 0-.469.138-.896.416-1.28.277-.395.672-.704 1.184-.928.522-.224 1.12-.336 1.792-.336 1.002 0 1.808.256 2.416.768.618.501.949 1.189.992 2.064h-1.824c-.032-.395-.192-.709-.48-.944s-.678-.352-1.168-.352c-.48 0-.848.091-1.104.272s-.384.421-.384.72c0 .235.085.432.256.592.17.16.378.288.624.384.245.085.608.197 1.088.336.64.171 1.162.347 1.568.528.416.171.773.427 1.072.768.298.341.453.795.464 1.36 0 .501-.139.949-.416 1.344-.278.395-.672.704-1.184.928-.502.224-1.094.336-1.776.336zm7.475-7.472v4.88c0 .331.074.571.224.72.16.139.426.208.8.208h1.12v1.52h-1.44c-.822 0-1.451-.192-1.888-.576-.438-.384-.656-1.008-.656-1.872v-4.88h-1.04v-1.488h1.04v-2.192h1.84v2.192h2.144v1.488z" fill="#ededed"/><path d="m509.408 380.072c0-1 0-2.07 0-3.11.127-8.826.26-17.653.4-26.48 0-1 0-1.93.07-2.89.1-1.32.35-2.87 2-2.55.68.12 1.54 1.57 1.59 2.46.41 7.37.67 14.75 1 22.13-.095 1.788.22 3.573.92 5.22 1.058-2.065 2.234-4.068 3.52-6 .64-.88 2.14-1.93 3-1.73 1.84.45 1.57 2.35 1 3.62-2.65 6-5.19 12.1-8.31 17.86-2 3.69-5 3.66-7 0-2.66-4.92-4.7-10.17-6.87-15.33-.26-.63.37-1.62.59-2.45.83.28 2 .31 2.42.88.911 1.32 1.707 2.715 2.38 4.17.8 1.48 1.58 3 2.37 4.44z" fill="#c1c1c1"/><rect fill="#7e27ed" height="54" rx="27" width="245" x="389.5" y="399.358"/><path d="m421.404 430.086h-4.656l-.8 2.272h-1.904l3.984-11.136h2.112l3.984 11.136h-1.92zm-.512-1.488-1.808-5.168-1.824 5.168zm6.788-7.36v11.12h-1.824v-11.12zm8.375 3.616c.31-.426.731-.773 1.264-1.04.544-.277 1.147-.416 1.808-.416.779 0 1.483.187 2.112.56.63.374 1.126.907 1.488 1.6.363.683.544 1.467.544 2.352 0 .886-.181 1.68-.544 2.384-.362.694-.864 1.238-1.504 1.632-.629.384-1.328.576-2.096.576-.682 0-1.29-.133-1.824-.4-.522-.266-.938-.608-1.248-1.024v1.28h-1.824v-11.84h1.824zm5.36 3.056c0-.608-.128-1.13-.384-1.568-.245-.448-.576-.784-.992-1.008-.405-.234-.842-.352-1.312-.352-.458 0-.896.118-1.312.352-.405.235-.736.576-.992 1.024-.245.448-.368.976-.368 1.584s.123 1.142.368 1.6c.256.448.587.79.992 1.024.416.235.854.352 1.312.352.47 0 .907-.117 1.312-.352.416-.245.747-.597.992-1.056.256-.458.384-.992.384-1.6zm3.052 0c0-.885.181-1.669.544-2.352.373-.682.875-1.21 1.504-1.584.64-.384 1.344-.576 2.112-.576.693 0 1.296.139 1.808.416.523.267.939.603 1.248 1.008v-1.28h1.84v8.816h-1.84v-1.312c-.309.416-.731.763-1.264 1.04-.533.278-1.141.416-1.824.416-.757 0-1.451-.192-2.08-.576-.629-.394-1.131-.938-1.504-1.632-.363-.704-.544-1.498-.544-2.384zm7.216.032c0-.608-.128-1.136-.384-1.584-.245-.448-.571-.789-.976-1.024-.405-.234-.843-.352-1.312-.352s-.907.118-1.312.352c-.405.224-.736.56-.992 1.008-.245.438-.368.96-.368 1.568s.123 1.142.368 1.6c.256.459.587.811.992 1.056.416.235.853.352 1.312.352.469 0 .907-.117 1.312-.352.405-.234.731-.576.976-1.024.256-.458.384-.992.384-1.6zm7.436 4.56c-.694 0-1.318-.122-1.872-.368-.544-.256-.976-.597-1.296-1.024-.32-.437-.491-.922-.512-1.456h1.888c.032.374.208.688.528.944.33.246.741.368 1.232.368.512 0 .906-.096 1.184-.288.288-.202.432-.458.432-.768 0-.33-.16-.576-.48-.736-.31-.16-.806-.336-1.488-.528-.662-.181-1.2-.357-1.616-.528-.416-.17-.779-.432-1.088-.784-.299-.352-.448-.816-.448-1.392 0-.469.138-.896.416-1.28.277-.394.672-.704 1.184-.928.522-.224 1.12-.336 1.792-.336 1.002 0 1.808.256 2.416.768.618.502.949 1.19.992 2.064h-1.824c-.032-.394-.192-.709-.48-.944-.288-.234-.678-.352-1.168-.352-.48 0-.848.091-1.104.272-.256.182-.384.422-.384.72 0 .235.085.432.256.592.17.16.378.288.624.384.245.086.608.198 1.088.336.64.171 1.162.347 1.568.528.416.171.773.427 1.072.768.298.342.453.795.464 1.36 0 .502-.139.95-.416 1.344-.278.395-.672.704-1.184.928-.502.224-1.094.336-1.776.336zm13.427-4.768c0 .331-.022.63-.064.896h-6.736c.053.704.314 1.27.784 1.696.469.427 1.045.64 1.728.64.981 0 1.674-.41 2.08-1.232h1.968c-.267.811-.752 1.478-1.456 2-.694.512-1.558.768-2.592.768-.843 0-1.6-.186-2.272-.56-.662-.384-1.184-.917-1.568-1.6-.374-.693-.56-1.493-.56-2.4 0-.906.181-1.701.544-2.384.373-.693.89-1.226 1.552-1.6.672-.373 1.44-.56 2.304-.56.832 0 1.573.182 2.224.544.65.363 1.157.875 1.52 1.536.362.651.544 1.403.544 2.256zm-1.904-.576c-.011-.672-.251-1.21-.72-1.616-.47-.405-1.051-.608-1.744-.608-.63 0-1.168.203-1.616.608-.448.395-.715.934-.8 1.616zm3.091.752c0-.885.181-1.669.544-2.352.373-.682.874-1.21 1.504-1.584.64-.384 1.349-.576 2.128-.576.576 0 1.141.128 1.696.384.565.246 1.013.576 1.344.992v-4.256h1.84v11.84h-1.84v-1.328c-.299.427-.715.779-1.248 1.056-.523.278-1.126.416-1.808.416-.768 0-1.472-.192-2.112-.576-.63-.394-1.131-.938-1.504-1.632-.363-.704-.544-1.498-.544-2.384zm7.216.032c0-.608-.128-1.136-.384-1.584-.246-.448-.571-.789-.976-1.024-.406-.234-.843-.352-1.312-.352-.47 0-.907.118-1.312.352-.406.224-.736.56-.992 1.008-.246.438-.368.96-.368 1.568s.122 1.142.368 1.6c.256.459.586.811.992 1.056.416.235.853.352 1.312.352.469 0 .906-.117 1.312-.352.405-.234.73-.576.976-1.024.256-.458.384-.992.384-1.6zm7.784-.032c0-.885.181-1.669.544-2.352.373-.682.874-1.21 1.504-1.584.64-.384 1.349-.576 2.128-.576.576 0 1.141.128 1.696.384.565.246 1.013.576 1.344.992v-4.256h1.84v11.84h-1.84v-1.328c-.299.427-.715.779-1.248 1.056-.523.278-1.126.416-1.808.416-.768 0-1.472-.192-2.112-.576-.63-.394-1.131-.938-1.504-1.632-.363-.704-.544-1.498-.544-2.384zm7.216.032c0-.608-.128-1.136-.384-1.584-.246-.448-.571-.789-.976-1.024-.406-.234-.843-.352-1.312-.352-.47 0-.907.118-1.312.352-.406.224-.736.56-.992 1.008-.246.438-.368.96-.368 1.568s.122 1.142.368 1.6c.256.459.586.811.992 1.056.416.235.853.352 1.312.352.469 0 .906-.117 1.312-.352.405-.234.73-.576.976-1.024.256-.458.384-.992.384-1.6zm12.315-.208c0 .331-.021.63-.064.896h-6.736c.054.704.315 1.27.784 1.696.47.427 1.046.64 1.728.64.982 0 1.675-.41 2.08-1.232h1.968c-.266.811-.752 1.478-1.456 2-.693.512-1.557.768-2.592.768-.842 0-1.6-.186-2.272-.56-.661-.384-1.184-.917-1.568-1.6-.373-.693-.56-1.493-.56-2.4 0-.906.182-1.701.544-2.384.374-.693.891-1.226 1.552-1.6.672-.373 1.44-.56 2.304-.56.832 0 1.574.182 2.224.544.651.363 1.158.875 1.52 1.536.363.651.544 1.403.544 2.256zm-1.904-.576c-.01-.672-.25-1.21-.72-1.616-.469-.405-1.05-.608-1.744-.608-.629 0-1.168.203-1.616.608-.448.395-.714.934-.8 1.616zm3.091.784c0-.906.182-1.701.544-2.384.374-.693.886-1.226 1.536-1.6.651-.373 1.398-.56 2.24-.56 1.067 0 1.947.256 2.64.768.704.502 1.179 1.222 1.424 2.16h-1.968c-.16-.437-.416-.778-.768-1.024-.352-.245-.794-.368-1.328-.368-.746 0-1.344.267-1.792.8-.437.523-.656 1.259-.656 2.208 0 .95.219 1.691.656 2.224.448.534 1.046.8 1.792.8 1.056 0 1.755-.464 2.096-1.392h1.968c-.256.896-.736 1.611-1.44 2.144-.704.523-1.578.784-2.624.784-.842 0-1.589-.186-2.24-.56-.65-.384-1.162-.917-1.536-1.6-.362-.693-.544-1.493-.544-2.4zm14.026 4.56c-.832 0-1.584-.186-2.256-.56-.672-.384-1.2-.917-1.584-1.6-.384-.693-.576-1.493-.576-2.4 0-.896.197-1.69.592-2.384.395-.693.933-1.226 1.616-1.6.683-.373 1.445-.56 2.288-.56s1.605.187 2.288.56c.683.374 1.221.907 1.616 1.6.395.694.592 1.488.592 2.384s-.203 1.691-.608 2.384c-.405.694-.96 1.232-1.664 1.616-.693.374-1.461.56-2.304.56zm0-1.584c.469 0 .907-.112 1.312-.336.416-.224.752-.56 1.008-1.008s.384-.992.384-1.632-.123-1.178-.368-1.616c-.245-.448-.571-.784-.976-1.008s-.843-.336-1.312-.336-.907.112-1.312.336c-.395.224-.709.56-.944 1.008-.235.438-.352.976-.352 1.616 0 .95.24 1.686.72 2.208.491.512 1.104.768 1.84.768zm17.051-7.52c.694 0 1.312.144 1.856.432.555.288.987.715 1.296 1.28.32.566.48 1.248.48 2.048v5.2h-1.808v-4.928c0-.789-.197-1.392-.592-1.808-.394-.426-.933-.64-1.616-.64-.682 0-1.226.214-1.632.64-.394.416-.592 1.019-.592 1.808v4.928h-1.808v-4.928c0-.789-.197-1.392-.592-1.808-.394-.426-.933-.64-1.616-.64-.682 0-1.226.214-1.632.64-.394.416-.592 1.019-.592 1.808v4.928h-1.824v-8.816h1.824v1.008c.299-.362.678-.645 1.136-.848.459-.202.95-.304 1.472-.304.704 0 1.334.15 1.888.448.555.299.982.731 1.28 1.296.267-.533.683-.954 1.248-1.264.566-.32 1.174-.48 1.824-.48zm7.777 1.44c.31-.405.731-.746 1.264-1.024.534-.277 1.136-.416 1.808-.416.768 0 1.467.192 2.096.576.64.374 1.142.902 1.504 1.584.363.683.544 1.467.544 2.352 0 .886-.181 1.68-.544 2.384-.362.694-.864 1.238-1.504 1.632-.629.384-1.328.576-2.096.576-.672 0-1.269-.133-1.792-.4-.522-.277-.949-.618-1.28-1.024v5.472h-1.824v-13.008h1.824zm5.36 3.072c0-.608-.128-1.13-.384-1.568-.245-.448-.576-.784-.992-1.008-.405-.234-.842-.352-1.312-.352-.458 0-.896.118-1.312.352-.405.235-.736.576-.992 1.024-.245.448-.368.976-.368 1.584s.123 1.142.368 1.6c.256.448.587.79.992 1.024.416.235.854.352 1.312.352.47 0 .907-.117 1.312-.352.416-.245.747-.597.992-1.056.256-.458.384-.992.384-1.6zm7.484 4.592c-.832 0-1.584-.186-2.256-.56-.672-.384-1.2-.917-1.584-1.6-.384-.693-.576-1.493-.576-2.4 0-.896.197-1.69.592-2.384.395-.693.933-1.226 1.616-1.6.683-.373 1.445-.56 2.288-.56s1.605.187 2.288.56c.683.374 1.221.907 1.616 1.6.395.694.592 1.488.592 2.384s-.203 1.691-.608 2.384c-.405.694-.96 1.232-1.664 1.616-.693.374-1.461.56-2.304.56zm0-1.584c.469 0 .907-.112 1.312-.336.416-.224.752-.56 1.008-1.008s.384-.992.384-1.632-.123-1.178-.368-1.616c-.245-.448-.571-.784-.976-1.008s-.843-.336-1.312-.336-.907.112-1.312.336c-.395.224-.709.56-.944 1.008-.235.438-.352.976-.352 1.616 0 .95.24 1.686.72 2.208.491.512 1.104.768 1.84.768zm9.579 1.584c-.693 0-1.317-.122-1.872-.368-.544-.256-.976-.597-1.296-1.024-.32-.437-.491-.922-.512-1.456h1.888c.032.374.208.688.528.944.331.246.741.368 1.232.368.512 0 .907-.096 1.184-.288.288-.202.432-.458.432-.768 0-.33-.16-.576-.48-.736-.309-.16-.805-.336-1.488-.528-.661-.181-1.2-.357-1.616-.528-.416-.17-.779-.432-1.088-.784-.299-.352-.448-.816-.448-1.392 0-.469.139-.896.416-1.28.277-.394.672-.704 1.184-.928.523-.224 1.12-.336 1.792-.336 1.003 0 1.808.256 2.416.768.619.502.949 1.19.992 2.064h-1.824c-.032-.394-.192-.709-.48-.944-.288-.234-.677-.352-1.168-.352-.48 0-.848.091-1.104.272-.256.182-.384.422-.384.72 0 .235.085.432.256.592s.379.288.624.384c.245.086.608.198 1.088.336.64.171 1.163.347 1.568.528.416.171.773.427 1.072.768.299.342.453.795.464 1.36 0 .502-.139.95-.416 1.344-.277.395-.672.704-1.184.928-.501.224-1.093.336-1.776.336zm6.275-10.128c-.331 0-.608-.112-.832-.336s-.336-.501-.336-.832c0-.33.112-.608.336-.832s.501-.336.832-.336c.32 0 .592.112.816.336s.336.502.336.832c0 .331-.112.608-.336.832s-.496.336-.816.336zm.896 1.168v8.816h-1.824v-8.816zm4.523 1.488v4.88c0 .331.074.571.224.72.16.139.426.208.8.208h1.12v1.52h-1.44c-.822 0-1.451-.192-1.888-.576-.438-.384-.656-1.008-.656-1.872v-4.88h-1.04v-1.488h1.04v-2.192h1.84v2.192h2.144v1.488zm4.753-2.656c-.331 0-.608-.112-.832-.336s-.336-.501-.336-.832c0-.33.112-.608.336-.832s.501-.336.832-.336c.32 0 .592.112.816.336s.336.502.336.832c0 .331-.112.608-.336.832s-.496.336-.816.336zm.896 1.168v8.816h-1.824v-8.816zm6.219 8.96c-.832 0-1.584-.186-2.256-.56-.672-.384-1.2-.917-1.584-1.6-.384-.693-.576-1.493-.576-2.4 0-.896.197-1.69.592-2.384.394-.693.933-1.226 1.616-1.6.682-.373 1.445-.56 2.288-.56.842 0 1.605.187 2.288.56.682.374 1.221.907 1.616 1.6.394.694.592 1.488.592 2.384s-.203 1.691-.608 2.384c-.406.694-.96 1.232-1.664 1.616-.694.374-1.462.56-2.304.56zm0-1.584c.469 0 .906-.112 1.312-.336.416-.224.752-.56 1.008-1.008s.384-.992.384-1.632-.123-1.178-.368-1.616c-.246-.448-.571-.784-.976-1.008-.406-.224-.843-.336-1.312-.336-.47 0-.907.112-1.312.336-.395.224-.71.56-.944 1.008-.235.438-.352.976-.352 1.616 0 .95.24 1.686.72 2.208.49.512 1.104.768 1.84.768zm10.827-7.52c.693 0 1.312.144 1.856.432.554.288.986.715 1.296 1.28.309.566.464 1.248.464 2.048v5.2h-1.808v-4.928c0-.789-.198-1.392-.592-1.808-.395-.426-.934-.64-1.616-.64-.683 0-1.227.214-1.632.64-.395.416-.592 1.019-.592 1.808v4.928h-1.824v-8.816h1.824v1.008c.298-.362.677-.645 1.136-.848.469-.202.965-.304 1.488-.304z" fill="#ededed"/><path d="m509.408 496.431c0-1 0-2.07 0-3.11.127-8.827.26-17.653.4-26.48 0-1 0-1.93.07-2.89.1-1.32.35-2.87 2-2.55.68.12 1.54 1.57 1.59 2.46.41 7.37.67 14.75 1 22.13-.095 1.787.22 3.573.92 5.22 1.058-2.065 2.234-4.069 3.52-6 .64-.88 2.14-1.93 3-1.73 1.84.45 1.57 2.35 1 3.62-2.65 6-5.19 12.1-8.31 17.86-2 3.69-5 3.66-7 0-2.66-4.92-4.7-10.17-6.87-15.33-.26-.63.37-1.62.59-2.45.83.28 2 .31 2.42.88.911 1.319 1.707 2.714 2.38 4.17.8 1.48 1.58 3 2.37 4.44z" fill="#c1c1c1"/><rect fill="#7e27ed" height="54" rx="27" width="392" x="316" y="515.718"/><path d="m355.68 537.598-3.296 11.12h-2.064l-2.336-8.416-2.48 8.416-2.048.016-3.152-11.136h1.936l2.304 9.056 2.496-9.056h2.048l2.32 9.008 2.32-9.008zm2.432 1.136c-.33 0-.608-.112-.832-.336s-.336-.502-.336-.832c0-.331.112-.608.336-.832s.502-.336.832-.336c.32 0 .592.112.816.336s.336.501.336.832c0 .33-.112.608-.336.832s-.496.336-.816.336zm.896 1.168v8.816h-1.824v-8.816zm6.843-.144c.693 0 1.312.144 1.856.432.555.288.987.714 1.296 1.28.309.565.464 1.248.464 2.048v5.2h-1.808v-4.928c0-.79-.197-1.392-.592-1.808-.395-.427-.933-.64-1.616-.64s-1.227.213-1.632.64c-.395.416-.592 1.018-.592 1.808v4.928h-1.824v-8.816h1.824v1.008c.299-.363.677-.646 1.136-.848.469-.203.965-.304 1.488-.304zm14.023 4.336c0 .33-.022.629-.064.896h-6.736c.053.704.314 1.269.784 1.696.469.426 1.045.64 1.728.64.981 0 1.674-.411 2.08-1.232h1.968c-.267.81-.752 1.477-1.456 2-.694.512-1.558.768-2.592.768-.843 0-1.6-.187-2.272-.56-.662-.384-1.184-.918-1.568-1.6-.374-.694-.56-1.494-.56-2.4 0-.907.181-1.702.544-2.384.373-.694.89-1.227 1.552-1.6.672-.374 1.44-.56 2.304-.56.832 0 1.573.181 2.224.544.65.362 1.157.874 1.52 1.536.362.65.544 1.402.544 2.256zm-1.904-.576c-.011-.672-.251-1.211-.72-1.616-.47-.406-1.051-.608-1.744-.608-.63 0-1.168.202-1.616.608-.448.394-.715.933-.8 1.616zm9.679-2.336c.267-.448.619-.795 1.056-1.04.448-.256.976-.384 1.584-.384v1.888h-.464c-.715 0-1.259.181-1.632.544-.363.362-.544.992-.544 1.888v4.64h-1.824v-8.816h1.824zm12.397 2.912c0 .33-.022.629-.064.896h-6.736c.053.704.314 1.269.784 1.696.469.426 1.045.64 1.728.64.981 0 1.674-.411 2.08-1.232h1.968c-.267.81-.752 1.477-1.456 2-.694.512-1.558.768-2.592.768-.843 0-1.6-.187-2.272-.56-.662-.384-1.184-.918-1.568-1.6-.374-.694-.56-1.494-.56-2.4 0-.907.181-1.702.544-2.384.373-.694.89-1.227 1.552-1.6.672-.374 1.44-.56 2.304-.56.832 0 1.573.181 2.224.544.65.362 1.157.874 1.52 1.536.362.65.544 1.402.544 2.256zm-1.904-.576c-.011-.672-.251-1.211-.72-1.616-.47-.406-1.051-.608-1.744-.608-.63 0-1.168.202-1.616.608-.448.394-.715.933-.8 1.616zm3.091.784c0-.907.181-1.702.544-2.384.373-.694.885-1.227 1.536-1.6.65-.374 1.397-.56 2.24-.56 1.066 0 1.946.256 2.64.768.704.501 1.178 1.221 1.424 2.16h-1.968c-.16-.438-.416-.779-.768-1.024-.352-.246-.795-.368-1.328-.368-.747 0-1.344.266-1.792.8-.438.522-.656 1.258-.656 2.208 0 .949.218 1.69.656 2.224.448.533 1.045.8 1.792.8 1.056 0 1.754-.464 2.096-1.392h1.968c-.256.896-.736 1.61-1.44 2.144-.704.522-1.579.784-2.624.784-.843 0-1.59-.187-2.24-.56-.651-.384-1.163-.918-1.536-1.6-.363-.694-.544-1.494-.544-2.4zm14.025 4.56c-.832 0-1.584-.187-2.256-.56-.672-.384-1.2-.918-1.584-1.6-.384-.694-.576-1.494-.576-2.4 0-.896.198-1.691.592-2.384.395-.694.934-1.227 1.616-1.6.683-.374 1.446-.56 2.288-.56.843 0 1.606.186 2.288.56.683.373 1.222.906 1.616 1.6.395.693.592 1.488.592 2.384s-.202 1.69-.608 2.384c-.405.693-.96 1.232-1.664 1.616-.693.373-1.461.56-2.304.56zm0-1.584c.47 0 .907-.112 1.312-.336.416-.224.752-.56 1.008-1.008s.384-.992.384-1.632-.122-1.179-.368-1.616c-.245-.448-.57-.784-.976-1.008-.405-.224-.842-.336-1.312-.336-.469 0-.906.112-1.312.336-.394.224-.709.56-.944 1.008-.234.437-.352.976-.352 1.616 0 .949.24 1.685.72 2.208.491.512 1.104.768 1.84.768zm17.052-7.52c.693 0 1.312.144 1.856.432.554.288.986.714 1.296 1.28.32.565.48 1.248.48 2.048v5.2h-1.808v-4.928c0-.79-.198-1.392-.592-1.808-.395-.427-.934-.64-1.616-.64-.683 0-1.227.213-1.632.64-.395.416-.592 1.018-.592 1.808v4.928h-1.808v-4.928c0-.79-.198-1.392-.592-1.808-.395-.427-.934-.64-1.616-.64-.683 0-1.227.213-1.632.64-.395.416-.592 1.018-.592 1.808v4.928h-1.824v-8.816h1.824v1.008c.298-.363.677-.646 1.136-.848.458-.203.949-.304 1.472-.304.704 0 1.333.149 1.888.448.554.298.981.73 1.28 1.296.266-.534.682-.955 1.248-1.264.565-.32 1.173-.48 1.824-.48zm16.625 0c.693 0 1.312.144 1.856.432.554.288.986.714 1.296 1.28.32.565.48 1.248.48 2.048v5.2h-1.808v-4.928c0-.79-.198-1.392-.592-1.808-.395-.427-.934-.64-1.616-.64-.683 0-1.227.213-1.632.64-.395.416-.592 1.018-.592 1.808v4.928h-1.808v-4.928c0-.79-.198-1.392-.592-1.808-.395-.427-.934-.64-1.616-.64-.683 0-1.227.213-1.632.64-.395.416-.592 1.018-.592 1.808v4.928h-1.824v-8.816h1.824v1.008c.298-.363.677-.646 1.136-.848.458-.203.949-.304 1.472-.304.704 0 1.333.149 1.888.448.554.298.981.73 1.28 1.296.266-.534.682-.955 1.248-1.264.565-.32 1.173-.48 1.824-.48zm14.033 4.336c0 .33-.022.629-.064.896h-6.736c.053.704.314 1.269.784 1.696.469.426 1.045.64 1.728.64.981 0 1.674-.411 2.08-1.232h1.967c-.266.81-.751 1.477-1.455 2-.694.512-1.558.768-2.592.768-.843 0-1.6-.187-2.272-.56-.662-.384-1.184-.918-1.568-1.6-.374-.694-.56-1.494-.56-2.4 0-.907.181-1.702.544-2.384.373-.694.89-1.227 1.552-1.6.672-.374 1.44-.56 2.304-.56.832 0 1.573.181 2.224.544.65.362 1.157.874 1.52 1.536.362.65.544 1.402.544 2.256zm-1.904-.576c-.011-.672-.251-1.211-.72-1.616-.47-.406-1.051-.608-1.744-.608-.63 0-1.168.202-1.616.608-.448.394-.715.933-.8 1.616zm8.147-3.76c.693 0 1.312.144 1.856.432.554.288.986.714 1.296 1.28.309.565.464 1.248.464 2.048v5.2h-1.808v-4.928c0-.79-.198-1.392-.592-1.808-.395-.427-.934-.64-1.616-.64-.683 0-1.227.213-1.632.64-.395.416-.592 1.018-.592 1.808v4.928h-1.824v-8.816h1.824v1.008c.298-.363.677-.646 1.136-.848.469-.203.965-.304 1.488-.304zm5.334 4.512c0-.886.181-1.67.544-2.352.373-.683.875-1.211 1.504-1.584.64-.384 1.349-.576 2.128-.576.576 0 1.141.128 1.696.384.565.245 1.013.576 1.344.992v-4.256h1.84v11.84h-1.84v-1.328c-.299.426-.715.778-1.248 1.056-.523.277-1.125.416-1.808.416-.768 0-1.472-.192-2.112-.576-.629-.395-1.131-.939-1.504-1.632-.363-.704-.544-1.499-.544-2.384zm7.216.032c0-.608-.128-1.136-.384-1.584-.245-.448-.571-.79-.976-1.024-.405-.235-.843-.352-1.312-.352s-.907.117-1.312.352c-.405.224-.736.56-.992 1.008-.245.437-.368.96-.368 1.568s.123 1.141.368 1.6c.256.458.587.81.992 1.056.416.234.853.352 1.312.352.469 0 .907-.118 1.312-.352.405-.235.731-.576.976-1.024.256-.459.384-.992.384-1.6zm3.628-.032c0-.886.181-1.67.544-2.352.373-.683.875-1.211 1.504-1.584.64-.384 1.344-.576 2.112-.576.693 0 1.296.138 1.808.416.523.266.939.602 1.248 1.008v-1.28h1.84v8.816h-1.84v-1.312c-.309.416-.731.762-1.264 1.04-.533.277-1.141.416-1.824.416-.757 0-1.451-.192-2.08-.576-.629-.395-1.131-.939-1.504-1.632-.363-.704-.544-1.499-.544-2.384zm7.216.032c0-.608-.128-1.136-.384-1.584-.245-.448-.571-.79-.976-1.024-.405-.235-.843-.352-1.312-.352s-.907.117-1.312.352c-.405.224-.736.56-.992 1.008-.245.437-.368.96-.368 1.568s.123 1.141.368 1.6c.256.458.587.81.992 1.056.416.234.853.352 1.312.352.469 0 .907-.118 1.312-.352.405-.235.731-.576.976-1.024.256-.459.384-.992.384-1.6zm6.364-2.912v4.88c0 .33.074.57.224.72.16.138.426.208.8.208h1.12v1.52h-1.44c-.822 0-1.451-.192-1.888-.576-.438-.384-.656-1.008-.656-1.872v-4.88h-1.04v-1.488h1.04v-2.192h1.84v2.192h2.144v1.488zm4.753-2.656c-.331 0-.608-.112-.832-.336s-.336-.502-.336-.832c0-.331.112-.608.336-.832s.501-.336.832-.336c.32 0 .592.112.816.336s.336.501.336.832c0 .33-.112.608-.336.832s-.496.336-.816.336zm.896 1.168v8.816h-1.824v-8.816zm6.219 8.96c-.832 0-1.584-.187-2.256-.56-.672-.384-1.2-.918-1.584-1.6-.384-.694-.576-1.494-.576-2.4 0-.896.197-1.691.592-2.384.394-.694.933-1.227 1.616-1.6.682-.374 1.445-.56 2.288-.56.842 0 1.605.186 2.288.56.682.373 1.221.906 1.616 1.6.394.693.592 1.488.592 2.384s-.203 1.69-.608 2.384c-.406.693-.96 1.232-1.664 1.616-.694.373-1.462.56-2.304.56zm0-1.584c.469 0 .906-.112 1.312-.336.416-.224.752-.56 1.008-1.008s.384-.992.384-1.632-.123-1.179-.368-1.616c-.246-.448-.571-.784-.976-1.008-.406-.224-.843-.336-1.312-.336-.47 0-.907.112-1.312.336-.395.224-.71.56-.944 1.008-.235.437-.352.976-.352 1.616 0 .949.24 1.685.72 2.208.49.512 1.104.768 1.84.768zm10.827-7.52c.693 0 1.312.144 1.856.432.554.288.986.714 1.296 1.28.309.565.464 1.248.464 2.048v5.2h-1.808v-4.928c0-.79-.198-1.392-.592-1.808-.395-.427-.934-.64-1.616-.64-.683 0-1.227.213-1.632.64-.395.416-.592 1.018-.592 1.808v4.928h-1.824v-8.816h1.824v1.008c.298-.363.677-.646 1.136-.848.469-.203.965-.304 1.488-.304zm9.142 9.104c-.693 0-1.317-.123-1.872-.368-.544-.256-.976-.598-1.296-1.024-.32-.438-.49-.923-.512-1.456h1.888c.032.373.208.688.528.944.331.245.742.368 1.232.368.512 0 .907-.096 1.184-.288.288-.203.432-.459.432-.768 0-.331-.16-.576-.48-.736-.309-.16-.805-.336-1.488-.528-.661-.182-1.2-.358-1.616-.528-.416-.171-.778-.432-1.088-.784-.298-.352-.448-.816-.448-1.392 0-.47.139-.896.416-1.28.278-.395.672-.704 1.184-.928.523-.224 1.12-.336 1.792-.336 1.003 0 1.808.256 2.416.768.619.501.95 1.189.992 2.064h-1.824c-.032-.395-.192-.71-.48-.944-.288-.235-.677-.352-1.168-.352-.48 0-.848.09-1.104.272-.256.181-.384.421-.384.72 0 .234.086.432.256.592.171.16.379.288.624.384.246.085.608.197 1.088.336.64.17 1.163.346 1.568.528.416.17.774.426 1.072.768.299.341.454.794.464 1.36 0 .501-.138.949-.416 1.344-.277.394-.672.704-1.184.928-.501.224-1.093.336-1.776.336zm18.095-5.152h-3.232v3.312h-1.696v-3.312h-3.232v-1.536h3.232v-3.312h1.696v3.312h3.232zm10.187 5.152c-.694 0-1.318-.123-1.872-.368-.544-.256-.976-.598-1.296-1.024-.32-.438-.491-.923-.512-1.456h1.888c.032.373.208.688.528.944.33.245.741.368 1.232.368.512 0 .906-.096 1.184-.288.288-.203.432-.459.432-.768 0-.331-.16-.576-.48-.736-.31-.16-.806-.336-1.488-.528-.662-.182-1.2-.358-1.616-.528-.416-.171-.779-.432-1.088-.784-.299-.352-.448-.816-.448-1.392 0-.47.138-.896.416-1.28.277-.395.672-.704 1.184-.928.522-.224 1.12-.336 1.792-.336 1.002 0 1.808.256 2.416.768.618.501.949 1.189.992 2.064h-1.824c-.032-.395-.192-.71-.48-.944-.288-.235-.678-.352-1.168-.352-.48 0-.848.09-1.104.272-.256.181-.384.421-.384.72 0 .234.085.432.256.592.17.16.378.288.624.384.245.085.608.197 1.088.336.64.17 1.162.346 1.568.528.416.17.773.426 1.072.768.298.341.453.794.464 1.36 0 .501-.139.949-.416 1.344-.278.394-.672.704-1.184.928-.502.224-1.094.336-1.776.336zm13.426-4.768c0 .33-.021.629-.064.896h-6.736c.054.704.315 1.269.784 1.696.47.426 1.046.64 1.728.64.982 0 1.675-.411 2.08-1.232h1.968c-.266.81-.752 1.477-1.456 2-.693.512-1.557.768-2.592.768-.842 0-1.6-.187-2.272-.56-.661-.384-1.184-.918-1.568-1.6-.373-.694-.56-1.494-.56-2.4 0-.907.182-1.702.544-2.384.374-.694.891-1.227 1.552-1.6.672-.374 1.44-.56 2.304-.56.832 0 1.574.181 2.224.544.651.362 1.158.874 1.52 1.536.363.65.544 1.402.544 2.256zm-1.904-.576c-.01-.672-.25-1.211-.72-1.616-.469-.406-1.05-.608-1.744-.608-.629 0-1.168.202-1.616.608-.448.394-.714.933-.8 1.616zm3.091.752c0-.886.182-1.67.544-2.352.374-.683.875-1.211 1.504-1.584.64-.384 1.344-.576 2.112-.576.694 0 1.296.138 1.808.416.523.266.939.602 1.248 1.008v-1.28h1.84v8.816h-1.84v-1.312c-.309.416-.73.762-1.264 1.04-.533.277-1.141.416-1.824.416-.757 0-1.45-.192-2.08-.576-.629-.395-1.13-.939-1.504-1.632-.362-.704-.544-1.499-.544-2.384zm7.216.032c0-.608-.128-1.136-.384-1.584-.245-.448-.57-.79-.976-1.024-.405-.235-.842-.352-1.312-.352-.469 0-.906.117-1.312.352-.405.224-.736.56-.992 1.008-.245.437-.368.96-.368 1.568s.123 1.141.368 1.6c.256.458.587.81.992 1.056.416.234.854.352 1.312.352.47 0 .907-.118 1.312-.352.406-.235.731-.576.976-1.024.256-.459.384-.992.384-1.6zm6.06-3.12c.267-.448.619-.795 1.056-1.04.448-.256.976-.384 1.584-.384v1.888h-.464c-.715 0-1.259.181-1.632.544-.363.362-.544.992-.544 1.888v4.64h-1.824v-8.816h1.824zm3.709 3.12c0-.907.181-1.702.544-2.384.373-.694.885-1.227 1.536-1.6.65-.374 1.397-.56 2.24-.56 1.066 0 1.946.256 2.64.768.704.501 1.178 1.221 1.424 2.16h-1.968c-.16-.438-.416-.779-.768-1.024-.352-.246-.795-.368-1.328-.368-.747 0-1.344.266-1.792.8-.438.522-.656 1.258-.656 2.208 0 .949.218 1.69.656 2.224.448.533 1.045.8 1.792.8 1.056 0 1.754-.464 2.096-1.392h1.968c-.256.896-.736 1.61-1.44 2.144-.704.522-1.579.784-2.624.784-.843 0-1.59-.187-2.24-.56-.651-.384-1.163-.918-1.536-1.6-.363-.694-.544-1.494-.544-2.4zm14.762-4.544c.672 0 1.269.144 1.792.432.533.288.949.714 1.248 1.28.309.565.464 1.248.464 2.048v5.2h-1.808v-4.928c0-.79-.198-1.392-.592-1.808-.395-.427-.934-.64-1.616-.64-.683 0-1.227.213-1.632.64-.395.416-.592 1.018-.592 1.808v4.928h-1.824v-11.84h1.824v4.048c.309-.374.698-.662 1.168-.864.48-.203 1.002-.304 1.568-.304zm14.018 11.936c-1.045-1.003-1.85-2.278-2.416-3.824-.554-1.547-.832-3.206-.832-4.976 0-1.814.299-3.526.896-5.136.608-1.611 1.499-2.939 2.672-3.984h1.888v.176c-1.226 1.13-2.149 2.485-2.768 4.064-.618 1.578-.928 3.205-.928 4.88 0 1.61.288 3.168.864 4.672s1.414 2.821 2.512 3.952v.176zm11.923-7.6c0 .33-.021.629-.064.896h-6.736c.054.704.315 1.269.784 1.696.47.426 1.046.64 1.728.64.982 0 1.675-.411 2.08-1.232h1.968c-.266.81-.752 1.477-1.456 2-.693.512-1.557.768-2.592.768-.842 0-1.6-.187-2.272-.56-.661-.384-1.184-.918-1.568-1.6-.373-.694-.56-1.494-.56-2.4 0-.907.182-1.702.544-2.384.374-.694.891-1.227 1.552-1.6.672-.374 1.44-.56 2.304-.56.832 0 1.574.181 2.224.544.651.362 1.158.874 1.52 1.536.363.65.544 1.402.544 2.256zm-1.904-.576c-.01-.672-.25-1.211-.72-1.616-.469-.406-1.05-.608-1.744-.608-.629 0-1.168.202-1.616.608-.448.394-.714.933-.8 1.616zm5.523-6.64v11.84h-1.824v-11.84zm1.787 7.392c0-.886.181-1.67.544-2.352.373-.683.875-1.211 1.504-1.584.64-.384 1.344-.576 2.112-.576.693 0 1.296.138 1.808.416.523.266.939.602 1.248 1.008v-1.28h1.84v8.816h-1.84v-1.312c-.309.416-.731.762-1.264 1.04-.533.277-1.141.416-1.824.416-.757 0-1.451-.192-2.08-.576-.629-.395-1.131-.939-1.504-1.632-.363-.704-.544-1.499-.544-2.384zm7.216.032c0-.608-.128-1.136-.384-1.584-.245-.448-.571-.79-.976-1.024-.405-.235-.843-.352-1.312-.352s-.907.117-1.312.352c-.405.224-.736.56-.992 1.008-.245.437-.368.96-.368 1.568s.123 1.141.368 1.6c.256.458.587.81.992 1.056.416.234.853.352 1.312.352.469 0 .907-.118 1.312-.352.405-.235.731-.576.976-1.024.256-.459.384-.992.384-1.6zm7.436 4.56c-.693 0-1.317-.123-1.872-.368-.544-.256-.976-.598-1.296-1.024-.32-.438-.491-.923-.512-1.456h1.888c.032.373.208.688.528.944.331.245.741.368 1.232.368.512 0 .907-.096 1.184-.288.288-.203.432-.459.432-.768 0-.331-.16-.576-.48-.736-.309-.16-.805-.336-1.488-.528-.661-.182-1.2-.358-1.616-.528-.416-.171-.779-.432-1.088-.784-.299-.352-.448-.816-.448-1.392 0-.47.139-.896.416-1.28.277-.395.672-.704 1.184-.928.523-.224 1.12-.336 1.792-.336 1.003 0 1.808.256 2.416.768.619.501.949 1.189.992 2.064h-1.824c-.032-.395-.192-.71-.48-.944-.288-.235-.677-.352-1.168-.352-.48 0-.848.09-1.104.272-.256.181-.384.421-.384.72 0 .234.085.432.256.592s.379.288.624.384c.245.085.608.197 1.088.336.64.17 1.163.346 1.568.528.416.17.773.426 1.072.768.299.341.453.794.464 1.36 0 .501-.139.949-.416 1.344-.277.394-.672.704-1.184.928-.501.224-1.093.336-1.776.336zm7.475-7.472v4.88c0 .33.074.57.224.72.16.138.426.208.8.208h1.12v1.52h-1.44c-.822 0-1.451-.192-1.888-.576-.438-.384-.656-1.008-.656-1.872v-4.88h-1.04v-1.488h1.04v-2.192h1.84v2.192h2.144v1.488zm4.753-2.656c-.331 0-.608-.112-.832-.336s-.336-.502-.336-.832c0-.331.112-.608.336-.832s.501-.336.832-.336c.32 0 .592.112.816.336s.336.501.336.832c0 .33-.112.608-.336.832s-.496.336-.816.336zm.896 1.168v8.816h-1.824v-8.816zm1.787 4.4c0-.907.181-1.702.544-2.384.373-.694.885-1.227 1.536-1.6.65-.374 1.397-.56 2.24-.56 1.066 0 1.946.256 2.64.768.704.501 1.178 1.221 1.424 2.16h-1.968c-.16-.438-.416-.779-.768-1.024-.352-.246-.795-.368-1.328-.368-.747 0-1.344.266-1.792.8-.438.522-.656 1.258-.656 2.208 0 .949.218 1.69.656 2.224.448.533 1.045.8 1.792.8 1.056 0 1.754-.464 2.096-1.392h1.968c-.256.896-.736 1.61-1.44 2.144-.704.522-1.579.784-2.624.784-.843 0-1.59-.187-2.24-.56-.651-.384-1.163-.918-1.536-1.6-.363-.694-.544-1.494-.544-2.4zm9.753 7.392v-.176c1.099-1.131 1.936-2.448 2.512-3.952s.864-3.062.864-4.672c0-1.675-.309-3.302-.928-4.88-.618-1.579-1.541-2.934-2.768-4.064v-.176h1.888c1.174 1.045 2.059 2.373 2.656 3.984.608 1.61.912 3.322.912 5.136 0 1.77-.282 3.429-.848 4.976-.554 1.546-1.354 2.821-2.4 3.824z" fill="#ededed"/><path d="m509.408 612.79c0-1 0-2.07 0-3.11.127-8.826.26-17.653.4-26.48 0-1 0-1.93.07-2.89.1-1.32.35-2.87 2-2.55.68.12 1.54 1.57 1.59 2.46.41 7.37.67 14.75 1 22.13-.095 1.788.22 3.573.92 5.22 1.058-2.065 2.234-4.068 3.52-6 .64-.88 2.14-1.93 3-1.73 1.84.45 1.57 2.35 1 3.62-2.65 6-5.19 12.1-8.31 17.86-2 3.69-5 3.66-7 0-2.66-4.92-4.7-10.17-6.87-15.33-.26-.63.37-1.62.59-2.45.83.28 2 .31 2.42.88.911 1.32 1.707 2.715 2.38 4.17.8 1.48 1.58 3 2.37 4.44z" fill="#c1c1c1"/><rect fill="#7e27ed" height="54" rx="27" width="307" x="358.5" y="632.076"/><path d="m395.412 653.956v11.12h-1.824v-7.616l-3.392 7.616h-1.264l-3.408-7.616v7.616h-1.824v-11.12h1.968l3.904 8.72 3.888-8.72zm6.221 11.264c-.832 0-1.584-.186-2.256-.56-.672-.384-1.2-.917-1.584-1.6-.384-.693-.576-1.493-.576-2.4 0-.896.198-1.69.592-2.384.395-.693.934-1.226 1.616-1.6.683-.373 1.446-.56 2.288-.56.843 0 1.606.187 2.288.56.683.374 1.222.907 1.616 1.6.395.694.592 1.488.592 2.384s-.202 1.691-.608 2.384c-.405.694-.96 1.232-1.664 1.616-.693.374-1.461.56-2.304.56zm0-1.584c.47 0 .907-.112 1.312-.336.416-.224.752-.56 1.008-1.008s.384-.992.384-1.632-.122-1.178-.368-1.616c-.245-.448-.57-.784-.976-1.008-.405-.224-.842-.336-1.312-.336-.469 0-.906.112-1.312.336-.394.224-.709.56-.944 1.008-.234.438-.352.976-.352 1.616 0 .95.24 1.686.72 2.208.491.512 1.104.768 1.84.768zm9.58 1.584c-.694 0-1.318-.122-1.872-.368-.544-.256-.976-.597-1.296-1.024-.32-.437-.491-.922-.512-1.456h1.888c.032.374.208.688.528.944.33.246.741.368 1.232.368.512 0 .906-.096 1.184-.288.288-.202.432-.458.432-.768 0-.33-.16-.576-.48-.736-.31-.16-.806-.336-1.488-.528-.662-.181-1.2-.357-1.616-.528-.416-.17-.779-.432-1.088-.784-.299-.352-.448-.816-.448-1.392 0-.469.138-.896.416-1.28.277-.394.672-.704 1.184-.928.522-.224 1.12-.336 1.792-.336 1.002 0 1.808.256 2.416.768.618.502.949 1.19.992 2.064h-1.824c-.032-.394-.192-.709-.48-.944-.288-.234-.678-.352-1.168-.352-.48 0-.848.091-1.104.272-.256.182-.384.422-.384.72 0 .235.085.432.256.592.17.16.378.288.624.384.245.086.608.198 1.088.336.64.171 1.162.347 1.568.528.416.171.773.427 1.072.768.298.342.453.795.464 1.36 0 .502-.139.95-.416 1.344-.278.395-.672.704-1.184.928-.502.224-1.094.336-1.776.336zm7.474-7.472v4.88c0 .331.075.571.224.72.16.139.427.208.8.208h1.12v1.52h-1.44c-.821 0-1.45-.192-1.888-.576-.437-.384-.656-1.008-.656-1.872v-4.88h-1.04v-1.488h1.04v-2.192h1.84v2.192h2.144v1.488zm18.654-1.632c.693 0 1.312.144 1.856.432.554.288.986.715 1.296 1.28.32.566.48 1.248.48 2.048v5.2h-1.808v-4.928c0-.789-.198-1.392-.592-1.808-.395-.426-.934-.64-1.616-.64-.683 0-1.227.214-1.632.64-.395.416-.592 1.019-.592 1.808v4.928h-1.808v-4.928c0-.789-.198-1.392-.592-1.808-.395-.426-.934-.64-1.616-.64-.683 0-1.227.214-1.632.64-.395.416-.592 1.019-.592 1.808v4.928h-1.824v-8.816h1.824v1.008c.298-.362.677-.645 1.136-.848.458-.202.949-.304 1.472-.304.704 0 1.333.15 1.888.448.554.299.981.731 1.28 1.296.266-.533.682-.954 1.248-1.264.565-.32 1.173-.48 1.824-.48zm5.345 4.512c0-.885.181-1.669.544-2.352.373-.682.874-1.21 1.504-1.584.64-.384 1.344-.576 2.112-.576.693 0 1.296.139 1.808.416.522.267.938.603 1.248 1.008v-1.28h1.84v8.816h-1.84v-1.312c-.31.416-.731.763-1.264 1.04-.534.278-1.142.416-1.824.416-.758 0-1.451-.192-2.08-.576-.63-.394-1.131-.938-1.504-1.632-.363-.704-.544-1.498-.544-2.384zm7.216.032c0-.608-.128-1.136-.384-1.584-.246-.448-.571-.789-.976-1.024-.406-.234-.843-.352-1.312-.352-.47 0-.907.118-1.312.352-.406.224-.736.56-.992 1.008-.246.438-.368.96-.368 1.568s.122 1.142.368 1.6c.256.459.586.811.992 1.056.416.235.853.352 1.312.352.469 0 .906-.117 1.312-.352.405-.234.73-.576.976-1.024.256-.458.384-.992.384-1.6zm6.364-2.912v4.88c0 .331.074.571.224.72.16.139.426.208.8.208h1.12v1.52h-1.44c-.822 0-1.451-.192-1.888-.576-.438-.384-.656-1.008-.656-1.872v-4.88h-1.04v-1.488h1.04v-2.192h1.84v2.192h2.144v1.488zm3.217 2.912c0-.906.181-1.701.544-2.384.373-.693.885-1.226 1.536-1.6.65-.373 1.397-.56 2.24-.56 1.066 0 1.946.256 2.64.768.704.502 1.178 1.222 1.424 2.16h-1.968c-.16-.437-.416-.778-.768-1.024-.352-.245-.795-.368-1.328-.368-.747 0-1.344.267-1.792.8-.438.523-.656 1.259-.656 2.208 0 .95.218 1.691.656 2.224.448.534 1.045.8 1.792.8 1.056 0 1.754-.464 2.096-1.392h1.968c-.256.896-.736 1.611-1.44 2.144-.704.523-1.579.784-2.624.784-.843 0-1.59-.186-2.24-.56-.651-.384-1.163-.917-1.536-1.6-.363-.693-.544-1.493-.544-2.4zm14.761-4.544c.672 0 1.27.144 1.792.432.534.288.95.715 1.248 1.28.31.566.464 1.248.464 2.048v5.2h-1.808v-4.928c0-.789-.197-1.392-.592-1.808-.394-.426-.933-.64-1.616-.64-.682 0-1.226.214-1.632.64-.394.416-.592 1.019-.592 1.808v4.928h-1.824v-11.84h1.824v4.048c.31-.373.699-.661 1.168-.864.48-.202 1.003-.304 1.568-.304zm13.911 4.336c0 .331-.021.63-.064.896h-6.736c.053.704.315 1.27.784 1.696.469.427 1.045.64 1.728.64.981 0 1.675-.41 2.08-1.232h1.968c-.267.811-.752 1.478-1.456 2-.693.512-1.557.768-2.592.768-.843 0-1.6-.186-2.272-.56-.661-.384-1.184-.917-1.568-1.6-.373-.693-.56-1.493-.56-2.4 0-.906.181-1.701.544-2.384.373-.693.891-1.226 1.552-1.6.672-.373 1.44-.56 2.304-.56.832 0 1.573.182 2.224.544.651.363 1.157.875 1.52 1.536.363.651.544 1.403.544 2.256zm-1.904-.576c-.011-.672-.251-1.21-.72-1.616-.469-.405-1.051-.608-1.744-.608-.629 0-1.168.203-1.616.608-.448.395-.715.934-.8 1.616zm3.091.752c0-.885.181-1.669.544-2.352.373-.682.875-1.21 1.504-1.584.64-.384 1.349-.576 2.128-.576.576 0 1.141.128 1.696.384.565.246 1.013.576 1.344.992v-4.256h1.84v11.84h-1.84v-1.328c-.299.427-.715.779-1.248 1.056-.523.278-1.125.416-1.808.416-.768 0-1.472-.192-2.112-.576-.629-.394-1.131-.938-1.504-1.632-.363-.704-.544-1.498-.544-2.384zm7.216.032c0-.608-.128-1.136-.384-1.584-.245-.448-.571-.789-.976-1.024-.405-.234-.843-.352-1.312-.352s-.907.118-1.312.352c-.405.224-.736.56-.992 1.008-.245.438-.368.96-.368 1.568s.123 1.142.368 1.6c.256.459.587.811.992 1.056.416.235.853.352 1.312.352.469 0 .907-.117 1.312-.352.405-.234.731-.576.976-1.024.256-.458.384-.992.384-1.6zm20.232-4.4-2.736 8.816h-1.92l-1.776-6.512-1.776 6.512h-1.92l-2.752-8.816h1.856l1.84 7.088 1.872-7.088h1.904l1.792 7.056 1.824-7.056zm2.291-1.168c-.331 0-.608-.112-.832-.336s-.336-.501-.336-.832c0-.33.112-.608.336-.832s.501-.336.832-.336c.32 0 .592.112.816.336s.336.502.336.832c0 .331-.112.608-.336.832s-.496.336-.816.336zm.896 1.168v8.816h-1.824v-8.816zm6.843-.144c.693 0 1.312.144 1.856.432.555.288.987.715 1.296 1.28.309.566.464 1.248.464 2.048v5.2h-1.808v-4.928c0-.789-.197-1.392-.592-1.808-.395-.426-.933-.64-1.616-.64s-1.227.214-1.632.64c-.395.416-.592 1.019-.592 1.808v4.928h-1.824v-8.816h1.824v1.008c.299-.362.677-.645 1.136-.848.469-.202.965-.304 1.488-.304zm14.023 4.336c0 .331-.022.63-.064.896h-6.736c.053.704.314 1.27.784 1.696.469.427 1.045.64 1.728.64.981 0 1.674-.41 2.08-1.232h1.967c-.266.811-.751 1.478-1.455 2-.694.512-1.558.768-2.592.768-.843 0-1.6-.186-2.272-.56-.662-.384-1.184-.917-1.568-1.6-.374-.693-.56-1.493-.56-2.4 0-.906.181-1.701.544-2.384.373-.693.89-1.226 1.552-1.6.672-.373 1.44-.56 2.304-.56.832 0 1.573.182 2.224.544.65.363 1.157.875 1.52 1.536.362.651.544 1.403.544 2.256zm-1.904-.576c-.011-.672-.251-1.21-.72-1.616-.47-.405-1.051-.608-1.744-.608-.63 0-1.168.203-1.616.608-.448.395-.715.934-.8 1.616zm9.679-2.32c.309-.405.73-.746 1.264-1.024.533-.277 1.136-.416 1.808-.416.768 0 1.466.192 2.096.576.64.374 1.141.902 1.504 1.584.362.683.544 1.467.544 2.352 0 .886-.182 1.68-.544 2.384-.363.694-.864 1.238-1.504 1.632-.63.384-1.328.576-2.096.576-.672 0-1.27-.133-1.792-.4-.523-.277-.95-.618-1.28-1.024v5.472h-1.824v-13.008h1.824zm5.36 3.072c0-.608-.128-1.13-.384-1.568-.246-.448-.576-.784-.992-1.008-.406-.234-.843-.352-1.312-.352-.459 0-.896.118-1.312.352-.406.235-.736.576-.992 1.024-.246.448-.368.976-.368 1.584s.122 1.142.368 1.6c.256.448.586.79.992 1.024.416.235.853.352 1.312.352.469 0 .906-.117 1.312-.352.416-.245.746-.597.992-1.056.256-.458.384-.992.384-1.6zm3.052 0c0-.885.181-1.669.544-2.352.373-.682.874-1.21 1.504-1.584.64-.384 1.344-.576 2.112-.576.693 0 1.296.139 1.808.416.522.267.938.603 1.248 1.008v-1.28h1.84v8.816h-1.84v-1.312c-.31.416-.731.763-1.264 1.04-.534.278-1.142.416-1.824.416-.758 0-1.451-.192-2.08-.576-.63-.394-1.131-.938-1.504-1.632-.363-.704-.544-1.498-.544-2.384zm7.216.032c0-.608-.128-1.136-.384-1.584-.246-.448-.571-.789-.976-1.024-.406-.234-.843-.352-1.312-.352-.47 0-.907.118-1.312.352-.406.224-.736.56-.992 1.008-.246.438-.368.96-.368 1.568s.122 1.142.368 1.6c.256.459.586.811.992 1.056.416.235.853.352 1.312.352.469 0 .906-.117 1.312-.352.405-.234.73-.576.976-1.024.256-.458.384-.992.384-1.6zm6.059-3.12c.267-.448.619-.794 1.056-1.04.448-.256.976-.384 1.584-.384v1.888h-.464c-.714 0-1.258.182-1.632.544-.362.363-.544.992-.544 1.888v4.64h-1.824v-8.816h1.824zm3.709 3.088c0-.885.181-1.669.544-2.352.373-.682.875-1.21 1.504-1.584.64-.384 1.344-.576 2.112-.576.693 0 1.296.139 1.808.416.523.267.939.603 1.248 1.008v-1.28h1.84v8.816h-1.84v-1.312c-.309.416-.731.763-1.264 1.04-.533.278-1.141.416-1.824.416-.757 0-1.451-.192-2.08-.576-.629-.394-1.131-.938-1.504-1.632-.363-.704-.544-1.498-.544-2.384zm7.216.032c0-.608-.128-1.136-.384-1.584-.245-.448-.571-.789-.976-1.024-.405-.234-.843-.352-1.312-.352s-.907.118-1.312.352c-.405.224-.736.56-.992 1.008-.245.438-.368.96-.368 1.568s.123 1.142.368 1.6c.256.459.587.811.992 1.056.416.235.853.352 1.312.352.469 0 .907-.117 1.312-.352.405-.234.731-.576.976-1.024.256-.458.384-.992.384-1.6zm14.908-4.544c.693 0 1.312.144 1.856.432.554.288.986.715 1.296 1.28.32.566.48 1.248.48 2.048v5.2h-1.808v-4.928c0-.789-.198-1.392-.592-1.808-.395-.426-.934-.64-1.616-.64-.683 0-1.227.214-1.632.64-.395.416-.592 1.019-.592 1.808v4.928h-1.808v-4.928c0-.789-.198-1.392-.592-1.808-.395-.426-.934-.64-1.616-.64-.683 0-1.227.214-1.632.64-.395.416-.592 1.019-.592 1.808v4.928h-1.824v-8.816h1.824v1.008c.298-.362.677-.645 1.136-.848.458-.202.949-.304 1.472-.304.704 0 1.333.15 1.888.448.554.299.981.731 1.28 1.296.266-.533.682-.954 1.248-1.264.565-.32 1.173-.48 1.824-.48zm14.033 4.336c0 .331-.022.63-.064.896h-6.736c.053.704.314 1.27.784 1.696.469.427 1.045.64 1.728.64.981 0 1.674-.41 2.08-1.232h1.968c-.267.811-.752 1.478-1.456 2-.694.512-1.558.768-2.592.768-.843 0-1.6-.186-2.272-.56-.662-.384-1.184-.917-1.568-1.6-.374-.693-.56-1.493-.56-2.4 0-.906.181-1.701.544-2.384.373-.693.89-1.226 1.552-1.6.672-.373 1.44-.56 2.304-.56.832 0 1.573.182 2.224.544.65.363 1.157.875 1.52 1.536.362.651.544 1.403.544 2.256zm-1.904-.576c-.011-.672-.251-1.21-.72-1.616-.47-.405-1.051-.608-1.744-.608-.63 0-1.168.203-1.616.608-.448.395-.715.934-.8 1.616zm5.827-2.128v4.88c0 .331.074.571.224.72.16.139.426.208.8.208h1.12v1.52h-1.44c-.822 0-1.451-.192-1.888-.576-.438-.384-.656-1.008-.656-1.872v-4.88h-1.04v-1.488h1.04v-2.192h1.84v2.192h2.144v1.488zm11.905 2.704c0 .331-.022.63-.064.896h-6.736c.053.704.314 1.27.784 1.696.469.427 1.045.64 1.728.64.981 0 1.674-.41 2.08-1.232h1.968c-.267.811-.752 1.478-1.456 2-.694.512-1.558.768-2.592.768-.843 0-1.6-.186-2.272-.56-.662-.384-1.184-.917-1.568-1.6-.374-.693-.56-1.493-.56-2.4 0-.906.181-1.701.544-2.384.373-.693.89-1.226 1.552-1.6.672-.373 1.44-.56 2.304-.56.832 0 1.573.182 2.224.544.65.363 1.157.875 1.52 1.536.362.651.544 1.403.544 2.256zm-1.904-.576c-.011-.672-.251-1.21-.72-1.616-.47-.405-1.051-.608-1.744-.608-.63 0-1.168.203-1.616.608-.448.395-.715.934-.8 1.616zm5.523-2.336c.266-.448.618-.794 1.056-1.04.448-.256.976-.384 1.584-.384v1.888h-.464c-.715 0-1.259.182-1.632.544-.363.363-.544.992-.544 1.888v4.64h-1.824v-8.816h1.824zm7.516 7.68c-.693 0-1.317-.122-1.872-.368-.544-.256-.976-.597-1.296-1.024-.32-.437-.49-.922-.512-1.456h1.888c.032.374.208.688.528.944.331.246.742.368 1.232.368.512 0 .907-.096 1.184-.288.288-.202.432-.458.432-.768 0-.33-.16-.576-.48-.736-.309-.16-.805-.336-1.488-.528-.661-.181-1.2-.357-1.616-.528-.416-.17-.778-.432-1.088-.784-.298-.352-.448-.816-.448-1.392 0-.469.139-.896.416-1.28.278-.394.672-.704 1.184-.928.523-.224 1.12-.336 1.792-.336 1.003 0 1.808.256 2.416.768.619.502.95 1.19.992 2.064h-1.824c-.032-.394-.192-.709-.48-.944-.288-.234-.677-.352-1.168-.352-.48 0-.848.091-1.104.272-.256.182-.384.422-.384.72 0 .235.086.432.256.592.171.16.379.288.624.384.246.086.608.198 1.088.336.64.171 1.163.347 1.568.528.416.171.774.427 1.072.768.299.342.454.795.464 1.36 0 .502-.138.95-.416 1.344-.277.395-.672.704-1.184.928-.501.224-1.093.336-1.776.336z" fill="#ededed"/><path d="m326.501 637.5c-49.001-15.677-110.513-96.961-129.8-131.499-20.939-37.556-30.741-62.259-27.404-117.356-2.822 1.915-4.961 3.521-7.26 4.905-2.452 1.562-5.034 2.91-7.718 4.03-.835.333-2.777-.578-3.265-1.441-.2-.589-.249-1.218-.143-1.831.107-.613.366-1.189.753-1.676 6.331-5.706 12.767-11.299 19.308-16.779.408-.471.925-.835 1.507-1.059.581-.225 1.209-.302 1.827-.227.619.076 1.209.303 1.72.661.51.358.924.835 1.206 1.391 6.509 9.078 13.146 18.069 19.469 27.31 1.493 2.166 2.007 5.028 3.111 8.335-7.597.108-9.061-5.764-12.411-9.036s-6.483-7.528-10.382-12.177c-3.35 15.299-3.949 31.072-1.769 46.58 7.528 55.496 81.954 152.539 127.259 184.192 5.917 4.131 12.288 7.561 18.394 11.401 1.57 1.059 3.051 2.387 5.598 4.276z" fill="#c1c1c1"/><path d="m820.491 538.764c-38.378 48.555-109.867 105.19-136.492 106.824 3.74-2.61 6.028-4.455 8.282-5.915 8.623-5.279 17.334-9.966 25.894-15.664 65.553-43.664 114.952-102.223 150.819-180.951 9.857-21.454 18.935-49.821 30.581-84.754.59-1.769 1.361-3.581 2.911-4.617.739-.494 1.501-.799 2.219-.888.717-.089 1.369.041 1.897.377 1.077.687.928 2.221.557 3.443-23.501 77.448-45.308 129.773-86.668 182.145z" fill="#c1c1c1"/><path d="m802.564 613.418c-.303.084-.52.145-.705.15-.911.253-2.274-.114-4.08-1.059-1.817-.988-2.8-1.835-3.006-2.572-.085-.303.048-.667.452-1.06.149-.135.31-.227.44-.263.304-.084.981.334 2.131 1.275 1.15.94 1.938 1.421 2.475 1.505.212-.246-.613-1.698-2.42-4.324-1.146-1.596-1.872-3.028-2.199-4.198-.725-2.601.003-4.346 2.216-5.29 2.367-.894 4.7.605 5.389 3.075.387 1.388.19 2.19-.59 2.407-.39.109-.829.045-1.328-.237-.277-.156-.479-.38-.54-.597-.048-.173-.056-.871-.165-1.262-.06-.216-.176-.464-.347-.744-.386-.546-.774-.765-1.208-.644-.823.23-.943 1.478.088 3.666 1.234 2.413 2.005 3.505 2.177 3.785 1.325 2.573 2.008 4.018 2.093 4.321.35 1.257.124 1.788-.873 2.066zm9.404-3.51c-1.431.399-2.821.272-4.257-.355-1.646-.709-2.153-1.689-2.6-3.293-.629-2.254-.255-4.6 1.065-7.07 1.363-2.483 2.862-3.975 4.553-4.447.476-.133.989-.136 1.495.003.704.178 1.196.601 1.531 1.302.092.161.165.421.249.725.194.693.257 1.423.222 2.134-.107 2.132-1.159 4.387-3.15 5.456-.118.08-.292.128-.552.201-.954.266-1.893.248-2.763-.024-.054 1.65.347 2.753 1.191 3.265.456.294 1.111.298 1.978.056 2.817-.786 5.154-2.792 6.998-6.063.032-.055.087-.024.167.094.268.626.194 1.534-.289 2.65l-.113.265c-1.022 2.201-3.471 4.472-5.725 5.101zm-3.718-7.466c.649.146 1.313-.32 1.919-1.329.318-.369.724-1.09 1.207-2.206.526-1.128.673-1.776.47-2-.323-.657-3.135 3.164-3.596 5.535zm16.57 4.209c-1.43.398-2.772.446-3.938.117-1.969-.526-2.787-2.12-3.512-4.72-.52-1.864-.737-4.653-.609-8.38.083-2.219.302-4.616.701-7.203.405-2.402.964-4.753 1.732-7.023.505-1.542 1.185-2.62 2.054-3.189.118-.08.366-.196.713-.292 1.604-.448 3.616.066 4.094 1.614.66 2.199.862 4.431.544 6.809-.423 3.342-1.072 6.373-2.024 9.161-1.356 4.349-2.729 7.301-4.049 8.931.556 1.994 1.614 2.773 3.218 2.326 1.517-.423 2.927-1.564 4.132-3.442.243-.301.462-.689.743-1.188.356-.567.568-.812.691-.707l.135.15c.275.483-.015 2.293-.546 3.235-1.188 2.107-2.562 3.377-4.079 3.801zm-4.998-7.203c.714-1.46 1.329-2.94 1.845-4.438.762-2.128 1.33-4.109 1.608-5.961l.29-1.81.359-2.062c.295-1.624.472-4.336.119-6.106.007-.143-.029-.273-.09-.489-.108-.39-.243-.54-.417-.491-.477.133-1.087 1.798-1.818 5.038-.7 3.186-1.227 6.322-1.593 9.367-.318 2.378-.419 4.696-.303 6.952zm16.977 3.862c-1.43.399-2.772.446-3.938.117-1.968-.525-2.787-2.119-3.512-4.72-.52-1.864-.737-4.653-.608-8.38.082-2.218.301-4.615.701-7.203.404-2.402.963-4.753 1.732-7.023.504-1.542 1.185-2.62 2.054-3.189.118-.08.366-.195.712-.292 1.604-.447 3.616.066 4.095 1.614.659 2.199.862 4.432.544 6.81-.423 3.341-1.073 6.372-2.024 9.16-1.357 4.349-2.729 7.301-4.05 8.931.556 1.994 1.614 2.773 3.218 2.326 1.517-.423 2.928-1.564 4.133-3.442.243-.301.461-.689.743-1.188.356-.566.567-.812.69-.706l.135.149c.276.484-.014 2.293-.546 3.236-1.187 2.106-2.561 3.377-4.079 3.8zm-4.998-7.202c.714-1.461 1.329-2.94 1.846-4.439.761-2.128 1.33-4.108 1.607-5.961l.29-1.809.359-2.063c.295-1.623.473-4.336.119-6.106.008-.142-.029-.272-.089-.489-.109-.39-.244-.539-.417-.491-.477.133-1.087 1.798-1.819 5.039-.7 3.185-1.227 6.322-1.592 9.367-.318 2.378-.419 4.695-.304 6.952zm21.483 2.138c-.662.138-1.291-.107-1.776-.673-.301-.243-.49-.751-.652-1.5-.486-2.247-.518-5.041-.169-8.315-.186.005-.855.285-1.029.333-.65.182-1.05-.08-1.243-.774-.194-.693-.247-1.052.039-1.366.262-.4 1.271-.635 2.413-1.233l.446-4.095.669-5.139c.205-2.113.479-3.31.82-3.592.162-.092.28-.172.366-.196.477-.133 1.014-.049 1.581.307.566.356.848.697.803 1.037.012.043-.273 2.038-.786 6.059-.142.834-.331 2.335-.555 4.546.65-.181 1.946-.729 2.423-.862.737-.206 2.509-.887 3.376-1.129.65-.181.734.122.241.867-.668 1.121-1.638 1.999-2.866 2.621-.031.056-.074.068-.118.08l-1.661.744-1.693.799c-.196.802-.363 2.717-.425 5.678.176 2.473.254 3.76.266 3.803.054.359.365.973.413 1.146.035.458-.264.728-.883.854zm9.993-3.348c-.564.158-1.164.185-1.812.038-1.52-.09-2.503-.936-2.975-2.627-.495-1.777-.44-3.755.1-6.008.07-.253.376-1.833.655-2.845.437-1.617 1.092-3.622 1.935-3.95.638-.225 2.019.371 2.523.838.282.342.441.578.49.751l.024.087c.036.13.258.255.689.462.586.257 1.831.704 2.405.917.574.214 1.212.83 1.454 1.697.073.26.133.477.126.619.204 1.065-.005 1.824-.351 2.761-.132.364-.214.573-.308.74l-.795 1.67c-1.397 2.865-2.773 4.464-4.16 4.85zm-1.438-2.308c.607-.169 1.48-1.394 2.663-3.686 1.182-2.292 1.699-3.791 1.505-4.484-.06-.217-.195-.366-.417-.491l-.556.015c-.742.02-1.614.076-2.093.537-.84.841-1.39 2.723-1.618 5.59-.093 1.007-.085 1.705.024 2.095.097.347.275.484.492.424zm-52.434 50.215c-1.604.447-2.939.352-3.992-.242-1.275-.718-2.102-1.843-2.513-3.316-.81-2.904.183-6.545 1.689-9.021.88-1.366 1.732-2.164 2.599-2.406.693-.194 1.472-.084 2.279.299.93.488 1.526 1.116 1.731 1.853.145.52-.086.865-.649 1.022-.13.036-.316.041-.631.082-.557.015-1.13-.199-1.303-.15-.174.048-.398.251-.727.576-.318.369-.782 1.386-1.404 3.008-.836 2.195-1.063 3.893-.737 5.064.133.477.384.874.741 1.148.4.262.882.315 1.445.158 1.864-.52 4.213-2.483 7.047-5.89.118-.079.198.039.258.255.206.737.033 1.626-.493 2.754-.332.653-1.037 1.644-2.127 2.929-.741.861-1.826 1.49-3.213 1.877zm8.547-1.683c-2.635.268-3.955-2.12-3.992-7.109-.008-1.539.016-3.461.185-5.704s.418-3.527.803-3.821c.354-.239.966-.223 1.773.159.851.371 1.355.837 1.536 1.488.073.26.083.631-.025 1.081-.185.846-.765 3.624-1.15 6.768-.084 2.546.007 3.875.303 3.933l.173-.048c.044-.013.2-.29.563-.998.401-.906 1.341-2.897 2.793-5.731l.666-1.634c.42-1.005.771-1.757.978-2.188.238-.487.998-3.455 1.642-3.495.638-.224 1.717.129 2.245.682.818.753.464.992.506 2.148-.121 1.576-.194 3.325-.065 5.297.149 1.874.642 3.138 1.465 2.909 1.171-.327 2.848-1.682 4.304-3.163l1.064-1.044c.18-.19.31-.226.315-.041.09.489-.287 1.482-1.088 2.966-.988 1.818-2.028 2.948-3.118 3.393-1.351.517-2.635.267-3.785-.673-1.15-.941-1.831-2.713-2.019-5.23-.269.542-.89 1.836-1.817 3.87-1.825 4.013-3.049 5.989-4.255 6.185zm22.105-5.977c-.304.085-.52.145-.706.15-.91.254-2.274-.113-4.079-1.058-1.817-.988-2.801-1.835-3.006-2.572-.085-.304.047-.667.451-1.06.15-.136.311-.227.441-.263.303-.085.981.333 2.131 1.274s1.938 1.422 2.475 1.505c.212-.245-.614-1.697-2.42-4.323-1.146-1.596-1.873-3.029-2.199-4.199-.725-2.601.003-4.346 2.216-5.29 2.367-.893 4.7.605 5.389 3.076.387 1.387.19 2.189-.59 2.407-.391.109-.829.044-1.328-.237-.277-.157-.48-.38-.54-.597-.048-.174-.056-.872-.165-1.262-.061-.217-.176-.465-.348-.744-.386-.547-.774-.765-1.207-.645-.824.23-.943 1.478.088 3.667 1.233 2.412 2.005 3.505 2.176 3.784 1.325 2.574 2.009 4.018 2.093 4.322.351 1.257.125 1.787-.872 2.065zm5.596-2.588c-.662.138-1.291-.107-1.776-.673-.301-.243-.49-.751-.652-1.5-.486-2.247-.518-5.041-.17-8.315-.185.005-.855.285-1.028.333-.65.182-1.05-.08-1.244-.774-.193-.694-.247-1.052.04-1.366.262-.4 1.271-.635 2.412-1.233l.446-4.096.67-5.138c.205-2.113.478-3.31.82-3.593.161-.091.279-.171.366-.195.477-.133 1.014-.049 1.58.307.567.356.849.697.804 1.037.012.043-.273 2.038-.787 6.059-.141.834-.33 2.334-.554 4.546.65-.181 1.945-.729 2.422-.862.737-.206 2.509-.887 3.376-1.129.65-.181.735.122.242.867-.668 1.121-1.638 1.999-2.866 2.621-.031.056-.075.068-.118.08l-1.661.744-1.693.799c-.197.802-.363 2.717-.425 5.678.175 2.473.254 3.759.266 3.803.053.359.365.973.413 1.146.034.458-.264.728-.883.854zm9.992-3.348c-.563.158-1.163.185-1.811.038-1.52-.09-2.504-.937-2.975-2.627-.496-1.777-.44-3.755.1-6.008.069-.253.376-1.833.654-2.845.437-1.617 1.093-3.622 1.936-3.95.638-.225 2.019.371 2.522.838.283.342.442.578.49.751l.024.087c.037.13.258.255.69.462.585.257 1.831.704 2.405.917.573.214 1.212.83 1.454 1.697.072.26.133.477.126.619.203 1.064-.006 1.823-.352 2.761-.132.364-.213.573-.307.74l-.796 1.67c-1.396 2.865-2.773 4.464-4.16 4.85zm-1.438-2.308c.607-.169 1.48-1.394 2.663-3.686s1.699-3.791 1.506-4.484c-.06-.217-.196-.366-.417-.491l-.557.015c-.742.02-1.613.076-2.092.537-.84.841-1.39 2.723-1.618 5.59-.093 1.007-.085 1.705.024 2.095.096.347.275.484.491.424zm12.723.563c-1.561.435-2.992-.007-3.367-1.35-.374-1.344-.275-5.343.318-12.095.153-1.631.27-2.551.426-2.829.156-.277.602-.354 1.262-.165 1.395.312 1.738.871 1.628 1.649.003.513-.192 2.997-.585 7.451.146-.648.542-1.74 1.244-3.244.745-1.516 1.253-2.545 1.596-3.154l1.107-1.897c.649-1.022 1.327-1.772 2.187-1.872 1.132-.129 2.237 1.152 2.645 2.113.176.464.273.811.314 1.127.073.26.174.792.336 1.541l.366 1.813c.661-1.819 1.37-3.465 2.084-4.925.713-1.461 1.293-2.23 1.727-2.351.693-.193 1.385-.059 2.105.347.721.407 1.126.854 1.216 1.343.458 2.816.697 4.01 1.089 5.583.38 1.529.691 2.143 1.13 2.208 1.012.278 2.639-.923 3.652-1.813.479-.461.989-.977 1.487-1.536l.859-.94c.181-.191.311-.227.304-.085.101.532-.276 1.525-1.076 3.01-.989 1.817-2.028 2.948-3.119 3.392-1.394.529-2.649.552-3.863.05-1.955-.81-2.971-3.283-3.069-7.32-.433.962-.954 2.275-1.553 3.983-1.121 3.35-1.813 5.224-2.636 5.454-.347.097-.675.095-1.039-.037-.814-.24-1.342-.794-1.572-1.617-.024-.087-.092-1.002-.26-2.778l-.541-5.455c-.897 1.138-1.936 3.109-3.171 5.883-1.492 3.36-2.424 6.049-2.808 8.024-.069.253-.206.432-.423.492zm30.152-9.109c-1.431.399-2.821.273-4.257-.355-1.646-.709-2.153-1.688-2.6-3.292-.629-2.254-.255-4.601 1.065-7.071 1.363-2.483 2.862-3.975 4.553-4.447.476-.132.99-.135 1.496.004.703.177 1.195.601 1.53 1.301.092.162.165.422.249.725.194.694.257 1.424.222 2.134-.107 2.132-1.159 4.388-3.15 5.457-.118.079-.292.128-.552.2-.953.266-1.893.248-2.763-.023-.053 1.65.348 2.753 1.191 3.265.456.293 1.111.297 1.978.056 2.817-.786 5.154-2.793 6.998-6.063.032-.056.087-.024.167.094.268.626.194 1.534-.289 2.65l-.113.265c-1.021 2.2-3.471 4.471-5.725 5.1zm-3.717-7.466c.648.146 1.312-.319 1.918-1.329.318-.369.724-1.09 1.207-2.205.526-1.128.673-1.776.47-2-.323-.657-3.135 3.163-3.595 5.534zm12.386 4.955c-1.951.544-2.561.2-2.802-.667-.061-.216-.095-.674-.146-1.361-.052-.686-.096-1.515-.109-2.399l-.001-1.681c-.114-2.584-.113-4.593-.043-6.015.103-1.476.232-2.353.388-2.63.144-.321.38-.48.621-.454 1.971.198 2.284.484 2.384 1.344.111.903.038 2.652-.219 5.247.503-2.383 1.469-4.615 2.855-6.683.68-1.077 2.07-.951 2.835.284.808 1.223 1.792 2.07 2.92 2.596.407.12-.362 1.549-.969 1.719-1.43.399-2.373-.133-3.728-1.81-.392.436-.861 1.267-1.376 2.439-.526 1.127-.86 2.108-1.025 2.855-.401 1.747-.607 3.019-.705 3.84-.193 2.157-.49 3.267-.88 3.376z" fill="#2fc0bf"/><g fill="#c1c1c1"><path d="m308.072 234.925c-1 0-2.07 0-3.11 0-8.826-.127-17.653-.26-26.48-.4-1 0-1.93 0-2.89-.07-1.32-.1-2.87-.35-2.55-2 .12-.68 1.57-1.54 2.46-1.59 7.37-.41 14.75-.67 22.13-1 1.788.095 3.573-.22 5.22-.92-2.065-1.058-4.068-2.233-6-3.52-.88-.64-1.93-2.14-1.73-3 .45-1.84 2.35-1.57 3.62-1 6 2.65 12.1 5.19 17.86 8.31 3.69 2 3.66 5 0 7-4.92 2.66-10.17 4.7-15.33 6.87-.63.26-1.62-.37-2.45-.59.28-.83.31-2 .88-2.42 1.32-.911 2.715-1.707 4.17-2.38 1.48-.8 3-1.58 4.44-2.37z"/><path d="m719.287 230.075h3.11c8.827.127 17.653.26 26.48.4 1 0 1.93 0 2.89.07 1.32.1 2.87.35 2.55 2-.12.68-1.57 1.54-2.46 1.59-7.37.41-14.75.67-22.13 1-1.787-.095-3.573.22-5.22.92 2.065 1.058 4.068 2.233 6 3.52.88.64 1.93 2.14 1.73 3-.45 1.84-2.35 1.57-3.62 1-6-2.65-12.1-5.19-17.86-8.31-3.69-2-3.66-5 0-7 4.92-2.66 10.17-4.7 15.33-6.87.63-.26 1.62.37 2.45.59-.28.83-.31 2-.88 2.42-1.319.911-2.715 1.707-4.17 2.38-1.48.8-3 1.58-4.44 2.37z"/></g></svg>