<svg fill="none" height="1080" viewBox="0 0 1920 1080" width="1920" xmlns="http://www.w3.org/2000/svg"><rect fill="#7e27ed" height="280" rx="140" width="570" x="675" y="231"/><path clip-rule="evenodd" d="m774.72 319.838c0-1.015 1.046-1.838 2.336-1.838s2.336.823 2.336 1.838v9.189c0 1.015-1.046 1.838-2.336 1.838s-2.336-.823-2.336-1.838zm-23.236 32.914c4.685 0 8.483-3.767 8.483-8.413 0-4.647-3.798-8.414-8.483-8.414-4.684 0-8.482 3.767-8.482 8.414 0 4.646 3.798 8.413 8.482 8.413zm34.17-10.421c.938 4.414-2.135 8.793-6.864 9.782-2.856.598-6.037 1.719-7.202 4.401l-.237.545c-1.199 2.761.06 5.962 1.239 8.743.219.515.391 1.059.512 1.626 1.011 4.753-2.004 9.408-6.733 10.397s-9.382-2.062-10.393-6.815c-1.01-4.753 2.004-9.408 6.733-10.397 2.685-.561 5.663-1.609 6.758-4.13l.373-.859c1.098-2.527.1-5.426-.819-8.095v-.001c-.087-.252-.173-.503-.257-.751-.094-.28-.173-.568-.236-.864-.939-4.413 2.134-8.793 6.864-9.782 4.729-.989 9.323 1.787 10.262 6.2zm12.802 24.989c.938 4.413-2.135 8.793-6.864 9.782-2.856.598-6.037 1.718-7.202 4.4l-.237.546c-1.199 2.76.06 5.961 1.239 8.743.219.515.391 1.058.512 1.626 1.01 4.753-2.004 9.407-6.733 10.397-4.73.989-9.383-2.062-10.393-6.815-1.011-4.753 2.004-9.408 6.733-10.397 2.685-.562 5.663-1.609 6.758-4.131l.373-.859c1.098-2.526.1-5.425-.819-8.094v-.001c-.087-.253-.173-.503-.257-.751-.094-.28-.174-.568-.236-.864-.939-4.413 2.134-8.793 6.864-9.782 4.729-.989 9.323 1.787 10.262 6.2zm12.716-22.981c0 4.646-3.798 8.413-8.483 8.413s-8.483-3.767-8.483-8.413c0-4.647 3.798-8.414 8.483-8.414s8.483 3.767 8.483 8.414z" fill="#fff" fill-rule="evenodd"/><path clip-rule="evenodd" d="m898.212 319.838c0-1.015 1.046-1.838 2.336-1.838s2.335.823 2.335 1.838v9.189c0 1.015-1.045 1.838-2.335 1.838s-2.336-.823-2.336-1.838zm2.116 16.087c-2.621 0-4.746 2.103-4.746 4.698v57.669c0 2.595 2.125 4.699 4.746 4.699s4.746-2.104 4.746-4.699v-57.669c0-2.595-2.125-4.698-4.746-4.698zm46.189 2.649c0-1.463 1.198-2.649 2.676-2.649h3.94c1.478 0 2.676 1.186 2.676 2.649v61.767c0 1.464-1.198 2.65-2.676 2.65h-5.489c-1.102 0-2.093-.674-2.495-1.689-7.743-19.589-13.435-34.149-17.077-43.679-.018-.037-.034-.075-.049-.115-.369-.975-1.967-1.006-1.875.458.007.111.013.215.017.312.334 4.709.368 10.128.368 15.73v26.333c0 1.464-1.198 2.65-2.676 2.65h-3.84c-1.478 0-2.676-1.186-2.676-2.65v-61.767c0-1.463 1.198-2.649 2.676-2.649h5.595c1.099 0 2.088.669 2.491 1.681 8.861 22.227 14.266 36.043 16.216 41.447l.427 1.184c.584 1.62 2.502 1.224 2.37-.492-.333-5.275-.533-10.353-.599-15.233zm20.985.884c0-1.951 1.597-3.533 3.568-3.533h25.522c.985 0 1.784.791 1.784 1.766v4.678c0 .975-.799 1.766-1.784 1.766h-19.698v20.872h16.9c.985 0 1.784.79 1.784 1.766v4.677c0 .976-.799 1.767-1.784 1.767h-16.9v21.663h19.698c.985 0 1.784.791 1.784 1.766v4.579c0 .975-.799 1.766-1.784 1.766h-25.522c-1.971 0-3.568-1.582-3.568-3.533zm116.218-2.65c0-.488-.4-.883-.89-.883h-33.48c-.5 0-.9.395-.9.883v6.444c0 .488.4.883.9.883h11.1c.49 0 .89.395.89.883v57.09c0 .488.4.883.89.883h7.71c.5 0 .89-.395.89-.883v-57.09c0-.488.4-.883.9-.883h11.1c.49 0 .89-.395.89-.883zm6.91 0c0-.488.4-.883.9-.883h29.98v8.21h-20.59c-.49 0-.89.395-.89.883v19.105c0 .488.4.884.89.884h17.79v8.21h-17.79c-.49 0-.89.395-.89.883v19.897c0 .487.4.883.89.883h20.59v8.111h-29.98c-.5 0-.9-.395-.9-.883zm49.79 40.069v26.114h-9.39v-67.066h18.19c5.32 0 9.39 1.319 12.19 3.957 2.86 2.637 4.29 6.297 4.29 10.979v10.684c0 7.319-2.83 12.035-8.49 14.145l10.79 27.301h-10.39l-9.69-26.114zm0-32.841v25.026h8c2.79 0 4.79-.626 5.99-1.879 1.27-1.253 1.9-3.166 1.9-5.737v-9.991c0-4.946-2.63-7.419-7.89-7.419zm-103.66 57.544c.17.822.9 1.411 1.74 1.411h5.53c1.14 0 1.99-1.038 1.75-2.138l-13.82-63.534c-.18-.813-.91-1.394-1.75-1.394h-10.31c-.84 0-1.56.578-1.74 1.39l-14.01 63.533c-.24 1.101.6 2.143 1.74 2.143h5.53c.84 0 1.57-.589 1.74-1.411l3.26-15.689c.09-.41.45-.705.87-.705h15.34c.42 0 .78.295.87.705zm-17.5-24.406c-.57 0-.99-.513-.88-1.06l5.61-27.266c.2-.941 1.55-.943 1.75-.003l5.69 27.267c.12.548-.31 1.062-.87 1.062zm-164.966-36.954c.385-2.471 2.541-4.295 5.067-4.295s4.683 1.824 5.068 4.295l4.726 30.326c.38 2.605 4.363 2.611 4.696 0l4.924-31.023c.329-2.072 2.132-3.598 4.251-3.598 2.636 0 4.653 2.326 4.253 4.906l-8.84 57.05c-.455 2.94-3.009 5.11-6.013 5.11-2.981 0-5.523-2.138-6.004-5.051l-4.361-26.405c-.223-1.744-1.44-2.703-2.7-2.703s-2.477.959-2.699 2.703l-4.362 26.405c-.481 2.913-3.023 5.051-6.004 5.051-3.004 0-5.558-2.17-6.013-5.11l-8.84-57.05c-.399-2.58 1.617-4.906 4.253-4.906 2.119 0 3.922 1.526 4.251 3.598l4.924 31.023c.334 2.611 4.316 2.605 4.696 0z" fill="#fff" fill-rule="evenodd"/><rect fill="#ba27ed" height="280" rx="140" width="446" x="80" y="231"/><path d="m127.22 327.06c0-4.08.94-7.74 2.82-10.98 1.92-3.24 4.5-5.76 7.74-7.56 3.28-1.84 6.86-2.76 10.74-2.76 4.44 0 8.38 1.1 11.82 3.3 3.48 2.16 6 5.24 7.56 9.24h-8.22c-1.08-2.2-2.58-3.84-4.5-4.92s-4.14-1.62-6.66-1.62c-2.76 0-5.22.62-7.38 1.86s-3.86 3.02-5.1 5.34c-1.2 2.32-1.8 5.02-1.8 8.1s.6 5.78 1.8 8.1c1.24 2.32 2.94 4.12 5.1 5.4 2.16 1.24 4.62 1.86 7.38 1.86 2.52 0 4.74-.54 6.66-1.62s3.42-2.72 4.5-4.92h8.22c-1.56 4-4.08 7.08-7.56 9.24-3.44 2.16-7.38 3.24-11.82 3.24-3.92 0-7.5-.9-10.74-2.7-3.24-1.84-5.82-4.38-7.74-7.62-1.88-3.24-2.82-6.9-2.82-10.98zm78.626-12.12v33.06h-6.84v-3.9c-1.08 1.36-2.5 2.44-4.26 3.24-1.72.76-3.56 1.14-5.52 1.14-2.6 0-4.94-.54-7.02-1.62-2.04-1.08-3.66-2.68-4.86-4.8-1.16-2.12-1.74-4.68-1.74-7.68v-19.44h6.78v18.42c0 2.96.74 5.24 2.22 6.84 1.48 1.56 3.5 2.34 6.06 2.34s4.58-.78 6.06-2.34c1.52-1.6 2.28-3.88 2.28-6.84v-18.42zm21.025 33.6c-2.6 0-4.94-.46-7.02-1.38-2.04-.96-3.66-2.24-4.86-3.84-1.2-1.64-1.84-3.46-1.92-5.46h7.08c.12 1.4.78 2.58 1.98 3.54 1.24.92 2.78 1.38 4.62 1.38 1.92 0 3.4-.36 4.44-1.08 1.08-.76 1.62-1.72 1.62-2.88 0-1.24-.6-2.16-1.8-2.76-1.16-.6-3.02-1.26-5.58-1.98-2.48-.68-4.5-1.34-6.06-1.98s-2.92-1.62-4.08-2.94c-1.12-1.32-1.68-3.06-1.68-5.22 0-1.76.52-3.36 1.56-4.8 1.04-1.48 2.52-2.64 4.44-3.48 1.96-.84 4.2-1.26 6.72-1.26 3.76 0 6.78.96 9.06 2.88 2.32 1.88 3.56 4.46 3.72 7.74h-6.84c-.12-1.48-.72-2.66-1.8-3.54s-2.54-1.32-4.38-1.32c-1.8 0-3.18.34-4.14 1.02s-1.44 1.58-1.44 2.7c0 .88.32 1.62.96 2.22s1.42 1.08 2.34 1.44c.92.32 2.28.74 4.08 1.26 2.4.64 4.36 1.3 5.88 1.98 1.56.64 2.9 1.6 4.02 2.88s1.7 2.98 1.74 5.1c0 1.88-.52 3.56-1.56 5.04s-2.52 2.64-4.44 3.48c-1.88.84-4.1 1.26-6.66 1.26zm28.031-28.02v18.3c0 1.24.28 2.14.84 2.7.6.52 1.6.78 3 .78h4.2v5.7h-5.4c-3.08 0-5.44-.72-7.08-2.16s-2.46-3.78-2.46-7.02v-18.3h-3.9v-5.58h3.9v-8.22h6.9v8.22h8.04v5.58zm28.684 28.02c-3.12 0-5.94-.7-8.46-2.1-2.52-1.44-4.5-3.44-5.94-6-1.44-2.6-2.16-5.6-2.16-9 0-3.36.74-6.34 2.22-8.94s3.5-4.6 6.06-6 5.42-2.1 8.58-2.1 6.02.7 8.58 2.1 4.58 3.4 6.06 6 2.22 5.58 2.22 8.94-.76 6.34-2.28 8.94-3.6 4.62-6.24 6.06c-2.6 1.4-5.48 2.1-8.64 2.1zm0-5.94c1.76 0 3.4-.42 4.92-1.26 1.56-.84 2.82-2.1 3.78-3.78s1.44-3.72 1.44-6.12-.46-4.42-1.38-6.06c-.92-1.68-2.14-2.94-3.66-3.78s-3.16-1.26-4.92-1.26-3.4.42-4.92 1.26c-1.48.84-2.66 2.1-3.54 3.78-.88 1.64-1.32 3.66-1.32 6.06 0 3.56.9 6.32 2.7 8.28 1.84 1.92 4.14 2.88 6.9 2.88zm63.942-28.2c2.6 0 4.92.54 6.96 1.62 2.08 1.08 3.7 2.68 4.86 4.8 1.2 2.12 1.8 4.68 1.8 7.68v19.5h-6.78v-18.48c0-2.96-.74-5.22-2.22-6.78-1.48-1.6-3.5-2.4-6.06-2.4s-4.6.8-6.12 2.4c-1.48 1.56-2.22 3.82-2.22 6.78v18.48h-6.78v-18.48c0-2.96-.74-5.22-2.22-6.78-1.48-1.6-3.5-2.4-6.06-2.4s-4.6.8-6.12 2.4c-1.48 1.56-2.22 3.82-2.22 6.78v18.48h-6.84v-33.06h6.84v3.78c1.12-1.36 2.54-2.42 4.26-3.18s3.56-1.14 5.52-1.14c2.64 0 5 .56 7.08 1.68s3.68 2.74 4.8 4.86c1-2 2.56-3.58 4.68-4.74 2.12-1.2 4.4-1.8 6.84-1.8zm52.624 16.26c0 1.24-.08 2.36-.24 3.36h-25.26c.2 2.64 1.18 4.76 2.94 6.36s3.92 2.4 6.48 2.4c3.68 0 6.28-1.54 7.8-4.62h7.38c-1 3.04-2.82 5.54-5.46 7.5-2.6 1.92-5.84 2.88-9.72 2.88-3.16 0-6-.7-8.52-2.1-2.48-1.44-4.44-3.44-5.88-6-1.4-2.6-2.1-5.6-2.1-9s.68-6.38 2.04-8.94c1.4-2.6 3.34-4.6 5.82-6 2.52-1.4 5.4-2.1 8.64-2.1 3.12 0 5.9.68 8.34 2.04s4.34 3.28 5.7 5.76c1.36 2.44 2.04 5.26 2.04 8.46zm-7.14-2.16c-.04-2.52-.94-4.54-2.7-6.06s-3.94-2.28-6.54-2.28c-2.36 0-4.38.76-6.06 2.28-1.68 1.48-2.68 3.5-3 6.06zm20.711-8.76c1-1.68 2.32-2.98 3.96-3.9 1.68-.96 3.66-1.44 5.94-1.44v7.08h-1.74c-2.68 0-4.72.68-6.12 2.04-1.36 1.36-2.04 3.72-2.04 7.08v17.4h-6.84v-33.06h6.84zm28.187 28.8c-2.6 0-4.94-.46-7.02-1.38-2.04-.96-3.66-2.24-4.86-3.84-1.2-1.64-1.84-3.46-1.92-5.46h7.08c.12 1.4.78 2.58 1.98 3.54 1.24.92 2.78 1.38 4.62 1.38 1.92 0 3.4-.36 4.44-1.08 1.08-.76 1.62-1.72 1.62-2.88 0-1.24-.6-2.16-1.8-2.76-1.16-.6-3.02-1.26-5.58-1.98-2.48-.68-4.5-1.34-6.06-1.98s-2.92-1.62-4.08-2.94c-1.12-1.32-1.68-3.06-1.68-5.22 0-1.76.52-3.36 1.56-4.8 1.04-1.48 2.52-2.64 4.44-3.48 1.96-.84 4.2-1.26 6.72-1.26 3.76 0 6.78.96 9.06 2.88 2.32 1.88 3.56 4.46 3.72 7.74h-6.84c-.12-1.48-.72-2.66-1.8-3.54s-2.54-1.32-4.38-1.32c-1.8 0-3.18.34-4.14 1.02s-1.44 1.58-1.44 2.7c0 .88.32 1.62.96 2.22s1.42 1.08 2.34 1.44c.92.32 2.28.74 4.08 1.26 2.4.64 4.36 1.3 5.88 1.98 1.56.64 2.9 1.6 4.02 2.88s1.7 2.98 1.74 5.1c0 1.88-.52 3.56-1.56 5.04s-2.52 2.64-4.44 3.48c-1.88.84-4.1 1.26-6.66 1.26z" fill="#fff"/><path d="m180.048 380.54v19.46h-3.192v-19.46zm11.975 3.78c1.213 0 2.296.252 3.248.756.97.504 1.726 1.251 2.268 2.24.541.989.812 2.184.812 3.584v9.1h-3.164v-8.624c0-1.381-.346-2.436-1.036-3.164-.691-.747-1.634-1.12-2.828-1.12-1.195 0-2.147.373-2.856 1.12-.691.728-1.036 1.783-1.036 3.164v8.624h-3.192v-15.428h3.192v1.764c.522-.635 1.185-1.129 1.988-1.484.821-.355 1.689-.532 2.604-.532zm13.591 2.52c.542-.709 1.279-1.307 2.212-1.792.934-.485 1.988-.728 3.164-.728 1.344 0 2.567.336 3.668 1.008 1.12.653 1.998 1.577 2.632 2.772.635 1.195.952 2.567.952 4.116s-.317 2.94-.952 4.172c-.634 1.213-1.512 2.165-2.632 2.856-1.101.672-2.324 1.008-3.668 1.008-1.176 0-2.221-.233-3.136-.7-.914-.485-1.661-1.083-2.24-1.792v9.576h-3.192v-22.764h3.192zm9.38 5.376c0-1.064-.224-1.979-.672-2.744-.429-.784-1.008-1.372-1.736-1.764-.709-.411-1.474-.616-2.296-.616-.802 0-1.568.205-2.296.616-.709.411-1.288 1.008-1.736 1.792-.429.784-.644 1.708-.644 2.772s.215 1.997.644 2.8c.448.784 1.027 1.381 1.736 1.792.728.411 1.494.616 2.296.616.822 0 1.587-.205 2.296-.616.728-.429 1.307-1.045 1.736-1.848.448-.803.672-1.736.672-2.8zm20.377-7.644v15.428h-3.192v-1.82c-.504.635-1.167 1.139-1.988 1.512-.803.355-1.662.532-2.576.532-1.214 0-2.306-.252-3.276-.756-.952-.504-1.708-1.251-2.268-2.24-.542-.989-.812-2.184-.812-3.584v-9.072h3.164v8.596c0 1.381.345 2.445 1.036 3.192.69.728 1.633 1.092 2.828 1.092 1.194 0 2.137-.364 2.828-1.092.709-.747 1.064-1.811 1.064-3.192v-8.596zm7.935 2.604v8.54c0 .579.131.999.392 1.26.28.243.747.364 1.4.364h1.96v2.66h-2.52c-1.437 0-2.538-.336-3.304-1.008-.765-.672-1.148-1.764-1.148-3.276v-8.54h-1.82v-2.604h1.82v-3.836h3.22v3.836h3.752v2.604zm12.904 5.04c0-1.549.317-2.921.952-4.116.653-1.195 1.53-2.119 2.632-2.772 1.12-.672 2.352-1.008 3.696-1.008 1.213 0 2.268.243 3.164.728.914.467 1.642 1.055 2.184 1.764v-2.24h3.22v15.428h-3.22v-2.296c-.542.728-1.279 1.335-2.212 1.82-.934.485-1.998.728-3.192.728-1.326 0-2.539-.336-3.64-1.008-1.102-.691-1.979-1.643-2.632-2.856-.635-1.232-.952-2.623-.952-4.172zm12.628.056c0-1.064-.224-1.988-.672-2.772-.43-.784-.999-1.381-1.708-1.792-.71-.411-1.475-.616-2.296-.616-.822 0-1.587.205-2.296.616-.71.392-1.288.98-1.736 1.764-.43.765-.644 1.68-.644 2.744s.214 1.997.644 2.8c.448.803 1.026 1.419 1.736 1.848.728.411 1.493.616 2.296.616.821 0 1.586-.205 2.296-.616.709-.411 1.278-1.008 1.708-1.792.448-.803.672-1.736.672-2.8zm15.196-7.952c1.214 0 2.296.252 3.248.756.971.504 1.727 1.251 2.268 2.24.542.989.812 2.184.812 3.584v9.1h-3.164v-8.624c0-1.381-.345-2.436-1.036-3.164-.69-.747-1.633-1.12-2.828-1.12-1.194 0-2.146.373-2.856 1.12-.69.728-1.036 1.783-1.036 3.164v8.624h-3.192v-15.428h3.192v1.764c.523-.635 1.186-1.129 1.988-1.484.822-.355 1.69-.532 2.604-.532zm24.288.252-9.464 22.68h-3.304l3.136-7.504-6.076-15.176h3.556l4.34 11.76 4.508-11.76zm8.618 7.644c0-1.549.318-2.921.952-4.116.654-1.195 1.531-2.119 2.632-2.772 1.12-.672 2.362-1.008 3.724-1.008 1.008 0 1.998.224 2.968.672.99.429 1.774 1.008 2.352 1.736v-7.448h3.22v20.72h-3.22v-2.324c-.522.747-1.25 1.363-2.184 1.848-.914.485-1.969.728-3.164.728-1.344 0-2.576-.336-3.696-1.008-1.101-.691-1.978-1.643-2.632-2.856-.634-1.232-.952-2.623-.952-4.172zm12.628.056c0-1.064-.224-1.988-.672-2.772-.429-.784-.998-1.381-1.708-1.792-.709-.411-1.474-.616-2.296-.616-.821 0-1.586.205-2.296.616-.709.392-1.288.98-1.736 1.764-.429.765-.644 1.68-.644 2.744s.215 1.997.644 2.8c.448.803 1.027 1.419 1.736 1.848.728.411 1.494.616 2.296.616.822 0 1.587-.205 2.296-.616.71-.411 1.279-1.008 1.708-1.792.448-.803.672-1.736.672-2.8zm9.037-9.744c-.579 0-1.064-.196-1.456-.588s-.588-.877-.588-1.456.196-1.064.588-1.456.877-.588 1.456-.588c.56 0 1.036.196 1.428.588s.588.877.588 1.456-.196 1.064-.588 1.456-.868.588-1.428.588zm1.568 2.044v15.428h-3.192v-15.428zm9.791 15.68c-1.214 0-2.306-.215-3.276-.644-.952-.448-1.708-1.045-2.268-1.792-.56-.765-.859-1.615-.896-2.548h3.304c.056.653.364 1.204.924 1.652.578.429 1.297.644 2.156.644.896 0 1.586-.168 2.072-.504.504-.355.756-.803.756-1.344 0-.579-.28-1.008-.84-1.288-.542-.28-1.41-.588-2.604-.924-1.158-.317-2.1-.625-2.828-.924s-1.363-.756-1.904-1.372c-.523-.616-.784-1.428-.784-2.436 0-.821.242-1.568.728-2.24.485-.691 1.176-1.232 2.072-1.624.914-.392 1.96-.588 3.136-.588 1.754 0 3.164.448 4.228 1.344 1.082.877 1.661 2.081 1.736 3.612h-3.192c-.056-.691-.336-1.241-.84-1.652s-1.186-.616-2.044-.616c-.84 0-1.484.159-1.932.476s-.672.737-.672 1.26c0 .411.149.756.448 1.036.298.28.662.504 1.092.672.429.149 1.064.345 1.904.588 1.12.299 2.034.607 2.744.924.728.299 1.353.747 1.876 1.344.522.597.793 1.391.812 2.38 0 .877-.243 1.661-.728 2.352-.486.691-1.176 1.232-2.072 1.624-.878.392-1.914.588-3.108.588zm17.337-15.932c1.176 0 2.221.252 3.136.756.933.504 1.661 1.251 2.184 2.24.541.989.812 2.184.812 3.584v9.1h-3.164v-8.624c0-1.381-.346-2.436-1.036-3.164-.691-.747-1.634-1.12-2.828-1.12-1.195 0-2.147.373-2.856 1.12-.691.728-1.036 1.783-1.036 3.164v8.624h-3.192v-20.72h3.192v7.084c.541-.653 1.222-1.157 2.044-1.512.84-.355 1.754-.532 2.744-.532zm19.101-1.792c-.579 0-1.064-.196-1.456-.588s-.588-.877-.588-1.456.196-1.064.588-1.456.877-.588 1.456-.588c.56 0 1.036.196 1.428.588s.588.877.588 1.456-.196 1.064-.588 1.456-.868.588-1.428.588zm1.568 2.044v15.428h-3.192v-15.428zm11.975-.252c1.213 0 2.296.252 3.248.756.97.504 1.726 1.251 2.268 2.24.541.989.812 2.184.812 3.584v9.1h-3.164v-8.624c0-1.381-.346-2.436-1.036-3.164-.691-.747-1.634-1.12-2.828-1.12-1.195 0-2.147.373-2.856 1.12-.691.728-1.036 1.783-1.036 3.164v8.624h-3.192v-15.428h3.192v1.764c.522-.635 1.185-1.129 1.988-1.484.821-.355 1.689-.532 2.604-.532zm-206.243 46.896c0-1.549.317-2.921.952-4.116.653-1.195 1.531-2.119 2.632-2.772 1.12-.672 2.352-1.008 3.696-1.008 1.213 0 2.268.243 3.164.728.915.467 1.643 1.055 2.184 1.764v-2.24h3.22v15.428h-3.22v-2.296c-.541.728-1.279 1.335-2.212 1.82s-1.997.728-3.192.728c-1.325 0-2.539-.336-3.64-1.008-1.101-.691-1.979-1.643-2.632-2.856-.635-1.232-.952-2.623-.952-4.172zm12.628.056c0-1.064-.224-1.988-.672-2.772-.429-.784-.999-1.381-1.708-1.792s-1.475-.616-2.296-.616-1.587.205-2.296.616c-.709.392-1.288.98-1.736 1.764-.429.765-.644 1.68-.644 2.744s.215 1.997.644 2.8c.448.803 1.027 1.419 1.736 1.848.728.411 1.493.616 2.296.616.821 0 1.587-.205 2.296-.616s1.279-1.008 1.708-1.792c.448-.803.672-1.736.672-2.8zm15.197-7.952c1.213 0 2.296.252 3.248.756.97.504 1.726 1.251 2.268 2.24.541.989.812 2.184.812 3.584v9.1h-3.164v-8.624c0-1.381-.346-2.436-1.036-3.164-.691-.747-1.634-1.12-2.828-1.12-1.195 0-2.147.373-2.856 1.12-.691.728-1.036 1.783-1.036 3.164v8.624h-3.192v-15.428h3.192v1.764c.522-.635 1.185-1.129 1.988-1.484.821-.355 1.689-.532 2.604-.532zm24.287.252-9.464 22.68h-3.304l3.136-7.504-6.076-15.176h3.556l4.34 11.76 4.508-11.76zm12.874-5.292v20.72h-3.192v-20.72zm3.127 12.936c0-1.549.318-2.921.952-4.116.654-1.195 1.531-2.119 2.632-2.772 1.12-.672 2.352-1.008 3.696-1.008 1.214 0 2.268.243 3.164.728.915.467 1.643 1.055 2.184 1.764v-2.24h3.22v15.428h-3.22v-2.296c-.541.728-1.278 1.335-2.212 1.82-.933.485-1.997.728-3.192.728-1.325 0-2.538-.336-3.64-1.008-1.101-.691-1.978-1.643-2.632-2.856-.634-1.232-.952-2.623-.952-4.172zm12.628.056c0-1.064-.224-1.988-.672-2.772-.429-.784-.998-1.381-1.708-1.792-.709-.411-1.474-.616-2.296-.616-.821 0-1.586.205-2.296.616-.709.392-1.288.98-1.736 1.764-.429.765-.644 1.68-.644 2.744s.215 1.997.644 2.8c.448.803 1.027 1.419 1.736 1.848.728.411 1.494.616 2.296.616.822 0 1.587-.205 2.296-.616.71-.411 1.279-1.008 1.708-1.792.448-.803.672-1.736.672-2.8zm15.197-7.952c1.213 0 2.296.252 3.248.756.971.504 1.727 1.251 2.268 2.24s.812 2.184.812 3.584v9.1h-3.164v-8.624c0-1.381-.345-2.436-1.036-3.164-.691-.747-1.633-1.12-2.828-1.12s-2.147.373-2.856 1.12c-.691.728-1.036 1.783-1.036 3.164v8.624h-3.192v-15.428h3.192v1.764c.523-.635 1.185-1.129 1.988-1.484.821-.355 1.689-.532 2.604-.532zm16.615 0c1.195 0 2.25.243 3.164.728.934.467 1.662 1.055 2.184 1.764v-2.24h3.22v15.68c0 1.419-.298 2.679-.896 3.78-.597 1.12-1.465 1.997-2.604 2.632-1.12.635-2.464.952-4.032.952-2.09 0-3.826-.495-5.208-1.484-1.381-.971-2.165-2.296-2.352-3.976h3.164c.243.803.756 1.447 1.54 1.932.803.504 1.755.756 2.856.756 1.288 0 2.324-.392 3.108-1.176.803-.784 1.204-1.923 1.204-3.416v-2.576c-.541.728-1.278 1.344-2.212 1.848-.914.485-1.96.728-3.136.728-1.344 0-2.576-.336-3.696-1.008-1.101-.691-1.978-1.643-2.632-2.856-.634-1.232-.952-2.623-.952-4.172s.318-2.921.952-4.116c.654-1.195 1.531-2.119 2.632-2.772 1.12-.672 2.352-1.008 3.696-1.008zm5.348 7.952c0-1.064-.224-1.988-.672-2.772-.429-.784-.998-1.381-1.708-1.792-.709-.411-1.474-.616-2.296-.616-.821 0-1.586.205-2.296.616-.709.392-1.288.98-1.736 1.764-.429.765-.644 1.68-.644 2.744s.215 1.997.644 2.8c.448.803 1.027 1.419 1.736 1.848.728.411 1.494.616 2.296.616.822 0 1.587-.205 2.296-.616.71-.411 1.279-1.008 1.708-1.792.448-.803.672-1.736.672-2.8zm21.385-7.7v15.428h-3.192v-1.82c-.504.635-1.167 1.139-1.988 1.512-.803.355-1.661.532-2.576.532-1.213 0-2.305-.252-3.276-.756-.952-.504-1.708-1.251-2.268-2.24-.541-.989-.812-2.184-.812-3.584v-9.072h3.164v8.596c0 1.381.345 2.445 1.036 3.192.691.728 1.633 1.092 2.828 1.092s2.137-.364 2.828-1.092c.709-.747 1.064-1.811 1.064-3.192v-8.596zm3.148 7.644c0-1.549.317-2.921.952-4.116.653-1.195 1.53-2.119 2.632-2.772 1.12-.672 2.352-1.008 3.696-1.008 1.213 0 2.268.243 3.164.728.914.467 1.642 1.055 2.184 1.764v-2.24h3.22v15.428h-3.22v-2.296c-.542.728-1.279 1.335-2.212 1.82-.934.485-1.998.728-3.192.728-1.326 0-2.539-.336-3.64-1.008-1.102-.691-1.979-1.643-2.632-2.856-.635-1.232-.952-2.623-.952-4.172zm12.628.056c0-1.064-.224-1.988-.672-2.772-.43-.784-.999-1.381-1.708-1.792-.71-.411-1.475-.616-2.296-.616-.822 0-1.587.205-2.296.616-.71.392-1.288.98-1.736 1.764-.43.765-.644 1.68-.644 2.744s.214 1.997.644 2.8c.448.803 1.026 1.419 1.736 1.848.728.411 1.493.616 2.296.616.821 0 1.586-.205 2.296-.616.709-.411 1.278-1.008 1.708-1.792.448-.803.672-1.736.672-2.8zm13.628-7.952c1.195 0 2.25.243 3.164.728.934.467 1.662 1.055 2.184 1.764v-2.24h3.22v15.68c0 1.419-.298 2.679-.896 3.78-.597 1.12-1.465 1.997-2.604 2.632-1.12.635-2.464.952-4.032.952-2.09 0-3.826-.495-5.208-1.484-1.381-.971-2.165-2.296-2.352-3.976h3.164c.243.803.756 1.447 1.54 1.932.803.504 1.755.756 2.856.756 1.288 0 2.324-.392 3.108-1.176.803-.784 1.204-1.923 1.204-3.416v-2.576c-.541.728-1.278 1.344-2.212 1.848-.914.485-1.96.728-3.136.728-1.344 0-2.576-.336-3.696-1.008-1.101-.691-1.978-1.643-2.632-2.856-.634-1.232-.952-2.623-.952-4.172s.318-2.921.952-4.116c.654-1.195 1.531-2.119 2.632-2.772 1.12-.672 2.352-1.008 3.696-1.008zm5.348 7.952c0-1.064-.224-1.988-.672-2.772-.429-.784-.998-1.381-1.708-1.792-.709-.411-1.474-.616-2.296-.616-.821 0-1.586.205-2.296.616-.709.392-1.288.98-1.736 1.764-.429.765-.644 1.68-.644 2.744s.215 1.997.644 2.8c.448.803 1.027 1.419 1.736 1.848.728.411 1.494.616 2.296.616.822 0 1.587-.205 2.296-.616.71-.411 1.279-1.008 1.708-1.792.448-.803.672-1.736.672-2.8zm21.553-.364c0 .579-.038 1.101-.112 1.568h-11.788c.093 1.232.55 2.221 1.372 2.968.821.747 1.829 1.12 3.024 1.12 1.717 0 2.93-.719 3.64-2.156h3.444c-.467 1.419-1.316 2.585-2.548 3.5-1.214.896-2.726 1.344-4.536 1.344-1.475 0-2.8-.327-3.976-.98-1.158-.672-2.072-1.605-2.744-2.8-.654-1.213-.98-2.613-.98-4.2s.317-2.977.952-4.172c.653-1.213 1.558-2.147 2.716-2.8 1.176-.653 2.52-.98 4.032-.98 1.456 0 2.753.317 3.892.952 1.138.635 2.025 1.531 2.66 2.688.634 1.139.952 2.455.952 3.948zm-3.332-1.008c-.019-1.176-.439-2.119-1.26-2.828-.822-.709-1.839-1.064-3.052-1.064-1.102 0-2.044.355-2.828 1.064-.784.691-1.251 1.633-1.4 2.828z" fill="#ededed"/><rect fill="#2fc0bf" height="280" rx="140" width="446" x="1394" y="231"/><path d="m1541.24 348.42c-2.8 0-5.32-.48-7.56-1.44-2.24-1-4-2.4-5.28-4.2s-1.92-3.9-1.92-6.3h7.32c.16 1.8.86 3.28 2.1 4.44 1.28 1.16 3.06 1.74 5.34 1.74 2.36 0 4.2-.56 5.52-1.68 1.32-1.16 1.98-2.64 1.98-4.44 0-1.4-.42-2.54-1.26-3.42-.8-.88-1.82-1.56-3.06-2.04-1.2-.48-2.88-1-5.04-1.56-2.72-.72-4.94-1.44-6.66-2.16-1.68-.76-3.12-1.92-4.32-3.48s-1.8-3.64-1.8-6.24c0-2.4.6-4.5 1.8-6.3s2.88-3.18 5.04-4.14 4.66-1.44 7.5-1.44c4.04 0 7.34 1.02 9.9 3.06 2.6 2 4.04 4.76 4.32 8.28h-7.56c-.12-1.52-.84-2.82-2.16-3.9s-3.06-1.62-5.22-1.62c-1.96 0-3.56.5-4.8 1.5s-1.86 2.44-1.86 4.32c0 1.28.38 2.34 1.14 3.18.8.8 1.8 1.44 3 1.92s2.84 1 4.92 1.56c2.76.76 5 1.52 6.72 2.28 1.76.76 3.24 1.94 4.44 3.54 1.24 1.56 1.86 3.66 1.86 6.3 0 2.12-.58 4.12-1.74 6-1.12 1.88-2.78 3.4-4.98 4.56-2.16 1.12-4.72 1.68-7.68 1.68zm30.45-27.9v18.3c0 1.24.28 2.14.84 2.7.6.52 1.6.78 3 .78h4.2v5.7h-5.4c-3.08 0-5.44-.72-7.08-2.16s-2.46-3.78-2.46-7.02v-18.3h-3.9v-5.58h3.9v-8.22h6.9v8.22h8.04v5.58zm28.69 28.02c-3.12 0-5.94-.7-8.46-2.1-2.52-1.44-4.5-3.44-5.94-6-1.44-2.6-2.16-5.6-2.16-9 0-3.36.74-6.34 2.22-8.94s3.5-4.6 6.06-6 5.42-2.1 8.58-2.1 6.02.7 8.58 2.1 4.58 3.4 6.06 6 2.22 5.58 2.22 8.94-.76 6.34-2.28 8.94-3.6 4.62-6.24 6.06c-2.6 1.4-5.48 2.1-8.64 2.1zm0-5.94c1.76 0 3.4-.42 4.92-1.26 1.56-.84 2.82-2.1 3.78-3.78s1.44-3.72 1.44-6.12-.46-4.42-1.38-6.06c-.92-1.68-2.14-2.94-3.66-3.78s-3.16-1.26-4.92-1.26-3.4.42-4.92 1.26c-1.48.84-2.66 2.1-3.54 3.78-.88 1.64-1.32 3.66-1.32 6.06 0 3.56.9 6.32 2.7 8.28 1.84 1.92 4.14 2.88 6.9 2.88zm30.76-22.86c1-1.68 2.32-2.98 3.96-3.9 1.68-.96 3.66-1.44 5.94-1.44v7.08h-1.74c-2.68 0-4.72.68-6.12 2.04-1.36 1.36-2.04 3.72-2.04 7.08v17.4h-6.84v-33.06h6.84zm46.48 10.92c0 1.24-.08 2.36-.24 3.36h-25.26c.2 2.64 1.18 4.76 2.94 6.36s3.92 2.4 6.48 2.4c3.68 0 6.28-1.54 7.8-4.62h7.38c-1 3.04-2.82 5.54-5.46 7.5-2.6 1.92-5.84 2.88-9.72 2.88-3.16 0-6-.7-8.52-2.1-2.48-1.44-4.44-3.44-5.88-6-1.4-2.6-2.1-5.6-2.1-9s.68-6.38 2.04-8.94c1.4-2.6 3.34-4.6 5.82-6 2.52-1.4 5.4-2.1 8.64-2.1 3.12 0 5.9.68 8.34 2.04s4.34 3.28 5.7 5.76c1.36 2.44 2.04 5.26 2.04 8.46zm-7.14-2.16c-.04-2.52-.94-4.54-2.7-6.06s-3.94-2.28-6.54-2.28c-2.36 0-4.38.76-6.06 2.28-1.68 1.48-2.68 3.5-3 6.06zm25.88 20.04c-2.6 0-4.94-.46-7.02-1.38-2.04-.96-3.66-2.24-4.86-3.84-1.2-1.64-1.84-3.46-1.92-5.46h7.08c.12 1.4.78 2.58 1.98 3.54 1.24.92 2.78 1.38 4.62 1.38 1.92 0 3.4-.36 4.44-1.08 1.08-.76 1.62-1.72 1.62-2.88 0-1.24-.6-2.16-1.8-2.76-1.16-.6-3.02-1.26-5.58-1.98-2.48-.68-4.5-1.34-6.06-1.98s-2.92-1.62-4.08-2.94c-1.12-1.32-1.68-3.06-1.68-5.22 0-1.76.52-3.36 1.56-4.8 1.04-1.48 2.52-2.64 4.44-3.48 1.96-.84 4.2-1.26 6.72-1.26 3.76 0 6.78.96 9.06 2.88 2.32 1.88 3.56 4.46 3.72 7.74h-6.84c-.12-1.48-.72-2.66-1.8-3.54s-2.54-1.32-4.38-1.32c-1.8 0-3.18.34-4.14 1.02s-1.44 1.58-1.44 2.7c0 .88.32 1.62.96 2.22s1.42 1.08 2.34 1.44c.92.32 2.28.74 4.08 1.26 2.4.64 4.36 1.3 5.88 1.98 1.56.64 2.9 1.6 4.02 2.88s1.7 2.98 1.74 5.1c0 1.88-.52 3.56-1.56 5.04s-2.52 2.64-4.44 3.48c-1.88.84-4.1 1.26-6.66 1.26z" fill="#fff"/><path d="m1536.29 380.54v19.46h-3.19v-19.46zm22.87 3.78c1.21 0 2.29.252 3.24.756.98.504 1.73 1.251 2.27 2.24.56.989.84 2.184.84 3.584v9.1h-3.16v-8.624c0-1.381-.35-2.436-1.04-3.164-.69-.747-1.63-1.12-2.83-1.12-1.19 0-2.14.373-2.85 1.12-.69.728-1.04 1.783-1.04 3.164v8.624h-3.16v-8.624c0-1.381-.35-2.436-1.04-3.164-.69-.747-1.63-1.12-2.83-1.12-1.19 0-2.14.373-2.85 1.12-.69.728-1.04 1.783-1.04 3.164v8.624h-3.19v-15.428h3.19v1.764c.53-.635 1.19-1.129 1.99-1.484s1.66-.532 2.58-.532c1.23 0 2.33.261 3.3.784s1.72 1.279 2.24 2.268c.47-.933 1.2-1.671 2.18-2.212.99-.56 2.06-.84 3.2-.84zm13.61 2.52c.54-.709 1.28-1.307 2.21-1.792s1.99-.728 3.16-.728c1.35 0 2.57.336 3.67 1.008 1.12.653 2 1.577 2.63 2.772.64 1.195.95 2.567.95 4.116s-.31 2.94-.95 4.172c-.63 1.213-1.51 2.165-2.63 2.856-1.1.672-2.32 1.008-3.67 1.008-1.17 0-2.22-.233-3.13-.7-.92-.485-1.66-1.083-2.24-1.792v9.576h-3.2v-22.764h3.2zm9.38 5.376c0-1.064-.23-1.979-.68-2.744-.42-.784-1-1.372-1.73-1.764-.71-.411-1.48-.616-2.3-.616-.8 0-1.57.205-2.29.616-.71.411-1.29 1.008-1.74 1.792-.43.784-.64 1.708-.64 2.772s.21 1.997.64 2.8c.45.784 1.03 1.381 1.74 1.792.72.411 1.49.616 2.29.616.82 0 1.59-.205 2.3-.616.73-.429 1.31-1.045 1.73-1.848.45-.803.68-1.736.68-2.8zm13.09 8.036c-1.45 0-2.77-.327-3.94-.98-1.18-.672-2.1-1.605-2.78-2.8-.67-1.213-1-2.613-1-4.2 0-1.568.34-2.959 1.03-4.172s1.63-2.147 2.83-2.8c1.19-.653 2.53-.98 4-.98 1.48 0 2.81.327 4.01.98 1.19.653 2.13 1.587 2.83 2.8.69 1.213 1.03 2.604 1.03 4.172s-.35 2.959-1.06 4.172-1.68 2.156-2.91 2.828c-1.22.653-2.56.98-4.04.98zm0-2.772c.82 0 1.59-.196 2.3-.588.73-.392 1.32-.98 1.76-1.764.45-.784.68-1.736.68-2.856s-.22-2.063-.65-2.828c-.43-.784-1-1.372-1.71-1.764s-1.47-.588-2.29-.588-1.59.196-2.3.588c-.69.392-1.24.98-1.65 1.764-.41.765-.62 1.708-.62 2.828 0 1.661.42 2.949 1.26 3.864.86.896 1.94 1.344 3.22 1.344zm14.36-10.668c.47-.784 1.08-1.391 1.85-1.82.78-.448 1.7-.672 2.77-.672v3.304h-.81c-1.25 0-2.21.317-2.86.952-.63.635-.95 1.736-.95 3.304v8.12h-3.19v-15.428h3.19zm11.28.364v8.54c0 .579.13.999.39 1.26.28.243.75.364 1.4.364h1.96v2.66h-2.52c-1.44 0-2.54-.336-3.31-1.008-.76-.672-1.14-1.764-1.14-3.276v-8.54h-1.82v-2.604h1.82v-3.836h3.22v3.836h3.75v2.604zm19.56 13.076c-1.21 0-2.3-.215-3.27-.644-.95-.448-1.71-1.045-2.27-1.792-.56-.765-.86-1.615-.9-2.548h3.31c.05.653.36 1.204.92 1.652.58.429 1.3.644 2.16.644.89 0 1.58-.168 2.07-.504.5-.355.76-.803.76-1.344 0-.579-.28-1.008-.84-1.288-.55-.28-1.41-.588-2.61-.924-1.16-.317-2.1-.625-2.83-.924-.72-.299-1.36-.756-1.9-1.372-.52-.616-.78-1.428-.78-2.436 0-.821.24-1.568.72-2.24.49-.691 1.18-1.232 2.08-1.624.91-.392 1.96-.588 3.13-.588 1.76 0 3.17.448 4.23 1.344 1.08.877 1.66 2.081 1.74 3.612h-3.2c-.05-.691-.33-1.241-.84-1.652-.5-.411-1.18-.616-2.04-.616-.84 0-1.48.159-1.93.476s-.67.737-.67 1.26c0 .411.15.756.44 1.036.3.28.67.504 1.1.672.43.149 1.06.345 1.9.588 1.12.299 2.03.607 2.74.924.73.299 1.36.747 1.88 1.344s.79 1.391.81 2.38c0 .877-.24 1.661-.73 2.352-.48.691-1.17 1.232-2.07 1.624-.88.392-1.91.588-3.11.588zm13.09-13.076v8.54c0 .579.13.999.39 1.26.28.243.74.364 1.4.364h1.96v2.66h-2.52c-1.44 0-2.54-.336-3.31-1.008-.76-.672-1.14-1.764-1.14-3.276v-8.54h-1.82v-2.604h1.82v-3.836h3.22v3.836h3.75v2.604zm13.38 13.076c-1.45 0-2.77-.327-3.95-.98-1.17-.672-2.1-1.605-2.77-2.8-.67-1.213-1.01-2.613-1.01-4.2 0-1.568.35-2.959 1.04-4.172s1.63-2.147 2.83-2.8c1.19-.653 2.53-.98 4-.98 1.48 0 2.81.327 4.01.98 1.19.653 2.13 1.587 2.82 2.8s1.04 2.604 1.04 4.172-.36 2.959-1.06 4.172c-.71 1.213-1.68 2.156-2.92 2.828-1.21.653-2.55.98-4.03.98zm0-2.772c.82 0 1.59-.196 2.3-.588.73-.392 1.31-.98 1.76-1.764s.67-1.736.67-2.856-.21-2.063-.64-2.828c-.43-.784-1-1.372-1.71-1.764s-1.47-.588-2.29-.588c-.83 0-1.59.196-2.3.588-.69.392-1.24.98-1.65 1.764-.41.765-.62 1.708-.62 2.828 0 1.661.42 2.949 1.26 3.864.86.896 1.93 1.344 3.22 1.344zm14.36-10.668c.46-.784 1.08-1.391 1.84-1.82.79-.448 1.71-.672 2.78-.672v3.304h-.82c-1.25 0-2.2.317-2.85.952-.64.635-.95 1.736-.95 3.304v8.12h-3.2v-15.428h3.2zm21.69 5.096c0 .579-.04 1.101-.11 1.568h-11.79c.09 1.232.55 2.221 1.37 2.968s1.83 1.12 3.03 1.12c1.71 0 2.93-.719 3.64-2.156h3.44c-.47 1.419-1.32 2.585-2.55 3.5-1.21.896-2.72 1.344-4.53 1.344-1.48 0-2.8-.327-3.98-.98-1.16-.672-2.07-1.605-2.74-2.8-.66-1.213-.98-2.613-.98-4.2s.31-2.977.95-4.172c.65-1.213 1.56-2.147 2.71-2.8 1.18-.653 2.52-.98 4.04-.98 1.45 0 2.75.317 3.89.952s2.02 1.531 2.66 2.688c.63 1.139.95 2.455.95 3.948zm-3.33-1.008c-.02-1.176-.44-2.119-1.26-2.828s-1.84-1.064-3.05-1.064c-1.1 0-2.05.355-2.83 1.064-.79.691-1.25 1.633-1.4 2.828zm-115.99 32.672-4.79 15.428h-3.36l-3.11-11.396-3.11 11.396h-3.36l-4.81-15.428h3.24l3.22 12.404 3.28-12.404h3.33l3.14 12.348 3.19-12.348zm4.01-2.044c-.58 0-1.07-.196-1.46-.588s-.59-.877-.59-1.456.2-1.064.59-1.456.88-.588 1.46-.588c.56 0 1.03.196 1.42.588.4.392.59.877.59 1.456s-.19 1.064-.59 1.456c-.39.392-.86.588-1.42.588zm1.56 2.044v15.428h-3.19v-15.428zm11.98-.252c1.21 0 2.29.252 3.25.756.97.504 1.72 1.251 2.26 2.24.55.989.82 2.184.82 3.584v9.1h-3.17v-8.624c0-1.381-.34-2.436-1.03-3.164-.69-.747-1.64-1.12-2.83-1.12-1.2 0-2.15.373-2.86 1.12-.69.728-1.03 1.783-1.03 3.164v8.624h-3.2v-15.428h3.2v1.764c.52-.635 1.18-1.129 1.98-1.484.83-.355 1.69-.532 2.61-.532zm24.54 7.588c0 .579-.04 1.101-.11 1.568h-11.79c.09 1.232.55 2.221 1.37 2.968s1.83 1.12 3.02 1.12c1.72 0 2.93-.719 3.64-2.156h3.45c-.47 1.419-1.32 2.585-2.55 3.5-1.21.896-2.73 1.344-4.54 1.344-1.47 0-2.8-.327-3.97-.98-1.16-.672-2.07-1.605-2.75-2.8-.65-1.213-.98-2.613-.98-4.2s.32-2.977.96-4.172c.65-1.213 1.55-2.147 2.71-2.8 1.18-.653 2.52-.98 4.03-.98 1.46 0 2.76.317 3.9.952 1.13.635 2.02 1.531 2.66 2.688.63 1.139.95 2.455.95 3.948zm-3.33-1.008c-.02-1.176-.44-2.119-1.26-2.828-.83-.709-1.84-1.064-3.06-1.064-1.1 0-2.04.355-2.82 1.064-.79.691-1.25 1.633-1.4 2.828zm16.93-11.62v20.72h-3.19v-20.72zm5.82 3.248c-.58 0-1.06-.196-1.46-.588-.39-.392-.58-.877-.58-1.456s.19-1.064.58-1.456c.4-.392.88-.588 1.46-.588.56 0 1.04.196 1.43.588s.59.877.59 1.456-.2 1.064-.59 1.456-.87.588-1.43.588zm1.57 2.044v15.428h-3.19v-15.428zm9.79 15.68c-1.21 0-2.31-.215-3.28-.644-.95-.448-1.71-1.045-2.27-1.792-.56-.765-.85-1.615-.89-2.548h3.3c.06.653.37 1.204.93 1.652.58.429 1.29.644 2.15.644.9 0 1.59-.168 2.07-.504.51-.355.76-.803.76-1.344 0-.579-.28-1.008-.84-1.288-.54-.28-1.41-.588-2.6-.924-1.16-.317-2.1-.625-2.83-.924s-1.36-.756-1.91-1.372c-.52-.616-.78-1.428-.78-2.436 0-.821.24-1.568.73-2.24.48-.691 1.17-1.232 2.07-1.624.92-.392 1.96-.588 3.14-.588 1.75 0 3.16.448 4.22 1.344 1.09.877 1.67 2.081 1.74 3.612h-3.19c-.06-.691-.34-1.241-.84-1.652-.51-.411-1.19-.616-2.05-.616-.84 0-1.48.159-1.93.476s-.67.737-.67 1.26c0 .411.15.756.45 1.036s.66.504 1.09.672c.43.149 1.06.345 1.9.588 1.12.299 2.04.607 2.75.924.73.299 1.35.747 1.87 1.344.53.597.8 1.391.82 2.38 0 .877-.25 1.661-.73 2.352-.49.691-1.18 1.232-2.07 1.624-.88.392-1.92.588-3.11.588zm13.08-13.076v8.54c0 .579.13.999.39 1.26.28.243.75.364 1.4.364h1.96v2.66h-2.52c-1.44 0-2.54-.336-3.3-1.008-.77-.672-1.15-1.764-1.15-3.276v-8.54h-1.82v-2.604h1.82v-3.836h3.22v3.836h3.75v2.604z" fill="#ededed"/><path d="m957.908 554.072c0-1 0-2.07 0-3.11.127-8.826.26-17.653.4-26.48 0-1 0-1.93.07-2.89.1-1.32.35-2.87 2-2.55.68.12 1.54 1.57 1.59 2.46.41 7.37.67 14.75 1 22.13-.095 1.788.22 3.573.92 5.22 1.059-2.065 2.234-4.068 3.52-6 .64-.88 2.14-1.93 3-1.73 1.84.45 1.57 2.35 1 3.62-2.65 6-5.19 12.1-8.31 17.86-2 3.69-5 3.66-7 0-2.66-4.92-4.7-10.17-6.87-15.33-.26-.63.37-1.62.59-2.45.83.28 2 .31 2.42.88.912 1.32 1.708 2.715 2.38 4.17.8 1.48 1.58 3 2.37 4.44z" fill="#c1c1c1"/><rect fill="#7e27ed" height="95" rx="47.5" width="424" x="748.5" y="573.359"/><path d="m802.332 626.383h-8.148l-1.4 3.976h-3.332l6.972-19.488h3.696l6.972 19.488h-3.36zm-.896-2.604-3.164-9.044-3.192 9.044zm11.879-12.88v19.46h-3.192v-19.46zm14.657 6.328c.541-.747 1.278-1.353 2.212-1.82.952-.485 2.006-.728 3.164-.728 1.362 0 2.594.327 3.696.98 1.101.653 1.969 1.587 2.604 2.8.634 1.195.952 2.567.952 4.116s-.318 2.94-.952 4.172c-.635 1.213-1.512 2.165-2.632 2.856-1.102.672-2.324 1.008-3.668 1.008-1.195 0-2.259-.233-3.192-.7-.915-.467-1.643-1.064-2.184-1.792v2.24h-3.192v-20.72h3.192zm9.38 5.348c0-1.064-.224-1.979-.672-2.744-.43-.784-1.008-1.372-1.736-1.764-.71-.411-1.475-.616-2.296-.616-.803 0-1.568.205-2.296.616-.71.411-1.288 1.008-1.736 1.792-.43.784-.644 1.708-.644 2.772s.214 1.997.644 2.8c.448.784 1.026 1.381 1.736 1.792.728.411 1.493.616 2.296.616.821 0 1.586-.205 2.296-.616.728-.429 1.306-1.045 1.736-1.848.448-.803.672-1.736.672-2.8zm5.34 0c0-1.549.318-2.921.952-4.116.654-1.195 1.531-2.119 2.632-2.772 1.12-.672 2.352-1.008 3.696-1.008 1.214 0 2.268.243 3.164.728.915.467 1.643 1.055 2.184 1.764v-2.24h3.22v15.428h-3.22v-2.296c-.541.728-1.278 1.335-2.212 1.82-.933.485-1.997.728-3.192.728-1.325 0-2.538-.336-3.64-1.008-1.101-.691-1.978-1.643-2.632-2.856-.634-1.232-.952-2.623-.952-4.172zm12.628.056c0-1.064-.224-1.988-.672-2.772-.429-.784-.998-1.381-1.708-1.792-.709-.411-1.474-.616-2.296-.616-.821 0-1.586.205-2.296.616-.709.392-1.288.98-1.736 1.764-.429.765-.644 1.68-.644 2.744s.215 1.997.644 2.8c.448.803 1.027 1.419 1.736 1.848.728.411 1.494.616 2.296.616.822 0 1.587-.205 2.296-.616.71-.411 1.279-1.008 1.708-1.792.448-.803.672-1.736.672-2.8zm13.013 7.98c-1.214 0-2.306-.215-3.276-.644-.952-.448-1.708-1.045-2.268-1.792-.56-.765-.859-1.615-.896-2.548h3.304c.056.653.364 1.204.924 1.652.578.429 1.297.644 2.156.644.896 0 1.586-.168 2.072-.504.504-.355.756-.803.756-1.344 0-.579-.28-1.008-.84-1.288-.542-.28-1.41-.588-2.604-.924-1.158-.317-2.1-.625-2.828-.924s-1.363-.756-1.904-1.372c-.523-.616-.784-1.428-.784-2.436 0-.821.242-1.568.728-2.24.485-.691 1.176-1.232 2.072-1.624.914-.392 1.96-.588 3.136-.588 1.754 0 3.164.448 4.228 1.344 1.082.877 1.661 2.081 1.736 3.612h-3.192c-.056-.691-.336-1.241-.84-1.652s-1.186-.616-2.044-.616c-.84 0-1.484.159-1.932.476s-.672.737-.672 1.26c0 .411.149.756.448 1.036.298.28.662.504 1.092.672.429.149 1.064.345 1.904.588 1.12.299 2.034.607 2.744.924.728.299 1.353.747 1.876 1.344.522.597.793 1.391.812 2.38 0 .877-.243 1.661-.728 2.352-.486.691-1.176 1.232-2.072 1.624-.878.392-1.914.588-3.108.588zm23.497-8.344c0 .579-.037 1.101-.112 1.568h-11.788c.093 1.232.551 2.221 1.372 2.968s1.829 1.12 3.024 1.12c1.717 0 2.931-.719 3.64-2.156h3.444c-.467 1.419-1.316 2.585-2.548 3.5-1.213.896-2.725 1.344-4.536 1.344-1.475 0-2.8-.327-3.976-.98-1.157-.672-2.072-1.605-2.744-2.8-.653-1.213-.98-2.613-.98-4.2s.317-2.977.952-4.172c.653-1.213 1.559-2.147 2.716-2.8 1.176-.653 2.52-.98 4.032-.98 1.456 0 2.753.317 3.892.952s2.025 1.531 2.66 2.688c.635 1.139.952 2.455.952 3.948zm-3.332-1.008c-.019-1.176-.439-2.119-1.26-2.828s-1.839-1.064-3.052-1.064c-1.101 0-2.044.355-2.828 1.064-.784.691-1.251 1.633-1.4 2.828zm5.409 1.316c0-1.549.317-2.921.952-4.116.653-1.195 1.531-2.119 2.632-2.772 1.12-.672 2.361-1.008 3.724-1.008 1.008 0 1.997.224 2.968.672.989.429 1.773 1.008 2.352 1.736v-7.448h3.22v20.72h-3.22v-2.324c-.523.747-1.251 1.363-2.184 1.848-.915.485-1.969.728-3.164.728-1.344 0-2.576-.336-3.696-1.008-1.101-.691-1.979-1.643-2.632-2.856-.635-1.232-.952-2.623-.952-4.172zm12.628.056c0-1.064-.224-1.988-.672-2.772-.429-.784-.999-1.381-1.708-1.792s-1.475-.616-2.296-.616-1.587.205-2.296.616c-.709.392-1.288.98-1.736 1.764-.429.765-.644 1.68-.644 2.744s.215 1.997.644 2.8c.448.803 1.027 1.419 1.736 1.848.728.411 1.493.616 2.296.616.821 0 1.587-.205 2.296-.616s1.279-1.008 1.708-1.792c.448-.803.672-1.736.672-2.8zm13.622-.056c0-1.549.317-2.921.952-4.116.653-1.195 1.531-2.119 2.632-2.772 1.12-.672 2.361-1.008 3.724-1.008 1.008 0 1.997.224 2.968.672.989.429 1.773 1.008 2.352 1.736v-7.448h3.22v20.72h-3.22v-2.324c-.523.747-1.251 1.363-2.184 1.848-.915.485-1.969.728-3.164.728-1.344 0-2.576-.336-3.696-1.008-1.101-.691-1.979-1.643-2.632-2.856-.635-1.232-.952-2.623-.952-4.172zm12.628.056c0-1.064-.224-1.988-.672-2.772-.429-.784-.999-1.381-1.708-1.792s-1.475-.616-2.296-.616-1.587.205-2.296.616c-.709.392-1.288.98-1.736 1.764-.429.765-.644 1.68-.644 2.744s.215 1.997.644 2.8c.448.803 1.027 1.419 1.736 1.848.728.411 1.493.616 2.296.616.821 0 1.587-.205 2.296-.616s1.279-1.008 1.708-1.792c.448-.803.672-1.736.672-2.8zm21.553-.364c0 .579-.038 1.101-.112 1.568h-11.788c.093 1.232.55 2.221 1.372 2.968.821.747 1.829 1.12 3.024 1.12 1.717 0 2.93-.719 3.64-2.156h3.444c-.467 1.419-1.316 2.585-2.548 3.5-1.214.896-2.726 1.344-4.536 1.344-1.475 0-2.8-.327-3.976-.98-1.158-.672-2.072-1.605-2.744-2.8-.654-1.213-.98-2.613-.98-4.2s.317-2.977.952-4.172c.653-1.213 1.558-2.147 2.716-2.8 1.176-.653 2.52-.98 4.032-.98 1.456 0 2.753.317 3.892.952 1.138.635 2.025 1.531 2.66 2.688.634 1.139.952 2.455.952 3.948zm-3.332-1.008c-.019-1.176-.439-2.119-1.26-2.828-.822-.709-1.839-1.064-3.052-1.064-1.102 0-2.044.355-2.828 1.064-.784.691-1.251 1.633-1.4 2.828zm5.409 1.372c0-1.587.317-2.977.952-4.172.653-1.213 1.549-2.147 2.688-2.8s2.445-.98 3.92-.98c1.867 0 3.407.448 4.62 1.344 1.232.877 2.063 2.137 2.492 3.78h-3.444c-.28-.765-.728-1.363-1.344-1.792s-1.391-.644-2.324-.644c-1.307 0-2.352.467-3.136 1.4-.765.915-1.148 2.203-1.148 3.864s.383 2.959 1.148 3.892c.784.933 1.829 1.4 3.136 1.4 1.848 0 3.071-.812 3.668-2.436h3.444c-.448 1.568-1.288 2.819-2.52 3.752-1.232.915-2.763 1.372-4.592 1.372-1.475 0-2.781-.327-3.92-.98-1.139-.672-2.035-1.605-2.688-2.8-.635-1.213-.952-2.613-.952-4.2zm24.545 7.98c-1.456 0-2.772-.327-3.948-.98-1.176-.672-2.1-1.605-2.772-2.8-.672-1.213-1.008-2.613-1.008-4.2 0-1.568.345-2.959 1.036-4.172s1.633-2.147 2.828-2.8 2.529-.98 4.004-.98 2.809.327 4.004.98 2.137 1.587 2.828 2.8 1.036 2.604 1.036 4.172-.355 2.959-1.064 4.172-1.68 2.156-2.912 2.828c-1.213.653-2.557.98-4.032.98zm0-2.772c.821 0 1.587-.196 2.296-.588.728-.392 1.316-.98 1.764-1.764s.672-1.736.672-2.856-.215-2.063-.644-2.828c-.429-.784-.999-1.372-1.708-1.764s-1.475-.588-2.296-.588-1.587.196-2.296.588c-.691.392-1.241.98-1.652 1.764-.411.765-.616 1.708-.616 2.828 0 1.661.42 2.949 1.26 3.864.859.896 1.932 1.344 3.22 1.344zm29.84-13.16c1.21 0 2.3.252 3.25.756.97.504 1.72 1.251 2.27 2.24.56.989.84 2.184.84 3.584v9.1h-3.17v-8.624c0-1.381-.34-2.436-1.03-3.164-.7-.747-1.64-1.12-2.83-1.12-1.2 0-2.15.373-2.86 1.12-.69.728-1.03 1.783-1.03 3.164v8.624h-3.17v-8.624c0-1.381-.34-2.436-1.03-3.164-.7-.747-1.64-1.12-2.833-1.12-1.194 0-2.146.373-2.856 1.12-.69.728-1.036 1.783-1.036 3.164v8.624h-3.192v-15.428h3.192v1.764c.523-.635 1.186-1.129 1.988-1.484.803-.355 1.662-.532 2.576-.532 1.231 0 2.331.261 3.301.784s1.72 1.279 2.24 2.268c.47-.933 1.2-1.671 2.19-2.212.99-.56 2.05-.84 3.19-.84zm13.61 2.52c.54-.709 1.28-1.307 2.21-1.792s1.99-.728 3.17-.728c1.34 0 2.56.336 3.66 1.008 1.12.653 2 1.577 2.64 2.772.63 1.195.95 2.567.95 4.116s-.32 2.94-.95 4.172c-.64 1.213-1.52 2.165-2.64 2.856-1.1.672-2.32 1.008-3.66 1.008-1.18 0-2.23-.233-3.14-.7-.92-.485-1.66-1.083-2.24-1.792v9.576h-3.19v-22.764h3.19zm9.38 5.376c0-1.064-.22-1.979-.67-2.744-.43-.784-1.01-1.372-1.74-1.764-.71-.411-1.47-.616-2.29-.616-.81 0-1.57.205-2.3.616-.71.411-1.29 1.008-1.74 1.792-.43.784-.64 1.708-.64 2.772s.21 1.997.64 2.8c.45.784 1.03 1.381 1.74 1.792.73.411 1.49.616 2.3.616.82 0 1.58-.205 2.29-.616.73-.429 1.31-1.045 1.74-1.848.45-.803.67-1.736.67-2.8zm13.1 8.036c-1.46 0-2.78-.327-3.95-.98-1.18-.672-2.1-1.605-2.77-2.8-.68-1.213-1.01-2.613-1.01-4.2 0-1.568.34-2.959 1.03-4.172s1.64-2.147 2.83-2.8c1.2-.653 2.53-.98 4.01-.98 1.47 0 2.81.327 4 .98s2.14 1.587 2.83 2.8 1.03 2.604 1.03 4.172-.35 2.959-1.06 4.172-1.68 2.156-2.91 2.828c-1.22.653-2.56.98-4.03.98zm0-2.772c.82 0 1.58-.196 2.29-.588.73-.392 1.32-.98 1.77-1.764.44-.784.67-1.736.67-2.856s-.22-2.063-.65-2.828c-.43-.784-.99-1.372-1.7-1.764s-1.48-.588-2.3-.588-1.59.196-2.3.588c-.69.392-1.24.98-1.65 1.764-.41.765-.61 1.708-.61 2.828 0 1.661.42 2.949 1.26 3.864.85.896 1.93 1.344 3.22 1.344zm16.76 2.772c-1.21 0-2.31-.215-3.28-.644-.95-.448-1.7-1.045-2.26-1.792-.56-.765-.86-1.615-.9-2.548h3.3c.06.653.37 1.204.93 1.652.58.429 1.29.644 2.15.644.9 0 1.59-.168 2.08-.504.5-.355.75-.803.75-1.344 0-.579-.28-1.008-.84-1.288-.54-.28-1.41-.588-2.6-.924-1.16-.317-2.1-.625-2.83-.924s-1.36-.756-1.9-1.372c-.53-.616-.79-1.428-.79-2.436 0-.821.24-1.568.73-2.24.48-.691 1.18-1.232 2.07-1.624.92-.392 1.96-.588 3.14-.588 1.75 0 3.16.448 4.23 1.344 1.08.877 1.66 2.081 1.73 3.612h-3.19c-.06-.691-.34-1.241-.84-1.652s-1.19-.616-2.04-.616c-.84 0-1.49.159-1.94.476-.44.317-.67.737-.67 1.26 0 .411.15.756.45 1.036s.66.504 1.09.672c.43.149 1.07.345 1.91.588 1.12.299 2.03.607 2.74.924.73.299 1.35.747 1.88 1.344.52.597.79 1.391.81 2.38 0 .877-.25 1.661-.73 2.352-.49.691-1.18 1.232-2.07 1.624-.88.392-1.92.588-3.11.588zm10.98-17.724c-.58 0-1.06-.196-1.46-.588-.39-.392-.58-.877-.58-1.456s.19-1.064.58-1.456c.4-.392.88-.588 1.46-.588.56 0 1.04.196 1.43.588s.59.877.59 1.456-.2 1.064-.59 1.456-.87.588-1.43.588zm1.57 2.044v15.428h-3.19v-15.428zm7.91 2.604v8.54c0 .579.13.999.4 1.26.28.243.74.364 1.4.364h1.96v2.66h-2.52c-1.44 0-2.54-.336-3.31-1.008-.76-.672-1.15-1.764-1.15-3.276v-8.54h-1.82v-2.604h1.82v-3.836h3.22v3.836h3.76v2.604zm8.32-4.648c-.58 0-1.06-.196-1.45-.588-.4-.392-.59-.877-.59-1.456s.19-1.064.59-1.456c.39-.392.87-.588 1.45-.588.56 0 1.04.196 1.43.588s.59.877.59 1.456-.2 1.064-.59 1.456-.87.588-1.43.588zm1.57 2.044v15.428h-3.19v-15.428zm10.88 15.68c-1.45 0-2.77-.327-3.95-.98-1.17-.672-2.1-1.605-2.77-2.8-.67-1.213-1.01-2.613-1.01-4.2 0-1.568.35-2.959 1.04-4.172s1.63-2.147 2.83-2.8c1.19-.653 2.53-.98 4-.98 1.48 0 2.81.327 4.01.98 1.19.653 2.13 1.587 2.82 2.8s1.04 2.604 1.04 4.172-.35 2.959-1.06 4.172-1.68 2.156-2.92 2.828c-1.21.653-2.55.98-4.03.98zm0-2.772c.82 0 1.59-.196 2.3-.588.73-.392 1.31-.98 1.76-1.764s.67-1.736.67-2.856-.21-2.063-.64-2.828c-.43-.784-1-1.372-1.71-1.764s-1.47-.588-2.29-.588c-.83 0-1.59.196-2.3.588-.69.392-1.24.98-1.65 1.764-.41.765-.62 1.708-.62 2.828 0 1.661.42 2.949 1.26 3.864.86.896 1.93 1.344 3.22 1.344zm18.95-13.16c1.21 0 2.3.252 3.25.756.97.504 1.72 1.251 2.27 2.24.54.989.81 2.184.81 3.584v9.1h-3.17v-8.624c0-1.381-.34-2.436-1.03-3.164-.69-.747-1.64-1.12-2.83-1.12-1.2 0-2.15.373-2.86 1.12-.69.728-1.03 1.783-1.03 3.164v8.624h-3.19v-15.428h3.19v1.764c.52-.635 1.18-1.129 1.99-1.484.82-.355 1.68-.532 2.6-.532z" fill="#ededed"/><path d="m957.908 711.431c0-1 0-2.07 0-3.11.127-8.826.26-17.653.4-26.48 0-1 0-1.93.07-2.89.1-1.32.35-2.87 2-2.55.68.12 1.54 1.57 1.59 2.46.41 7.37.67 14.75 1 22.13-.095 1.788.22 3.573.92 5.22 1.059-2.065 2.234-4.068 3.52-6 .64-.88 2.14-1.93 3-1.73 1.84.45 1.57 2.35 1 3.62-2.65 6-5.19 12.1-8.31 17.86-2 3.69-5 3.66-7 0-2.66-4.92-4.7-10.17-6.87-15.33-.26-.63.37-1.62.59-2.45.83.28 2 .31 2.42.88.912 1.32 1.708 2.715 2.38 4.17.8 1.48 1.58 3 2.37 4.44z" fill="#c1c1c1"/><rect fill="#7e27ed" height="95" rx="47.5" width="681" x="620" y="730.718"/><path d="m687.44 768.258-5.768 19.46h-3.612l-4.088-14.728-4.34 14.728-3.584.028-5.516-19.488h3.388l4.032 15.848 4.368-15.848h3.584l4.06 15.764 4.06-15.764zm4.257 1.988c-.579 0-1.064-.196-1.456-.588s-.588-.878-.588-1.456c0-.579.196-1.064.588-1.456s.877-.588 1.456-.588c.56 0 1.036.196 1.428.588s.588.877.588 1.456c0 .578-.196 1.064-.588 1.456s-.868.588-1.428.588zm1.568 2.044v15.428h-3.192v-15.428zm11.974-.252c1.214 0 2.296.252 3.248.756.971.504 1.727 1.25 2.268 2.24.542.989.812 2.184.812 3.584v9.1h-3.164v-8.624c0-1.382-.345-2.436-1.036-3.164-.69-.747-1.633-1.12-2.828-1.12-1.194 0-2.146.373-2.856 1.12-.69.728-1.036 1.782-1.036 3.164v8.624h-3.192v-15.428h3.192v1.764c.523-.635 1.186-1.13 1.988-1.484.822-.355 1.69-.532 2.604-.532zm24.54 7.588c0 .578-.037 1.101-.112 1.568h-11.788c.093 1.232.551 2.221 1.372 2.968.821.746 1.829 1.12 3.024 1.12 1.717 0 2.931-.719 3.64-2.156h3.444c-.467 1.418-1.316 2.585-2.548 3.5-1.213.896-2.725 1.344-4.536 1.344-1.475 0-2.8-.327-3.976-.98-1.157-.672-2.072-1.606-2.744-2.8-.653-1.214-.98-2.614-.98-4.2 0-1.587.317-2.978.952-4.172.653-1.214 1.559-2.147 2.716-2.8 1.176-.654 2.52-.98 4.032-.98 1.456 0 2.753.317 3.892.952 1.139.634 2.025 1.53 2.66 2.688.635 1.138.952 2.454.952 3.948zm-3.332-1.008c-.019-1.176-.439-2.119-1.26-2.828-.821-.71-1.839-1.064-3.052-1.064-1.101 0-2.044.354-2.828 1.064-.784.69-1.251 1.633-1.4 2.828zm16.939-4.088c.466-.784 1.082-1.391 1.848-1.82.784-.448 1.708-.672 2.772-.672v3.304h-.812c-1.251 0-2.203.317-2.856.952-.635.634-.952 1.736-.952 3.304v8.12h-3.192v-15.428h3.192zm21.694 5.096c0 .578-.037 1.101-.112 1.568h-11.788c.093 1.232.551 2.221 1.372 2.968.821.746 1.829 1.12 3.024 1.12 1.717 0 2.931-.719 3.64-2.156h3.444c-.467 1.418-1.316 2.585-2.548 3.5-1.213.896-2.725 1.344-4.536 1.344-1.475 0-2.8-.327-3.976-.98-1.157-.672-2.072-1.606-2.744-2.8-.653-1.214-.98-2.614-.98-4.2 0-1.587.317-2.978.952-4.172.653-1.214 1.559-2.147 2.716-2.8 1.176-.654 2.52-.98 4.032-.98 1.456 0 2.753.317 3.892.952 1.139.634 2.025 1.53 2.66 2.688.635 1.138.952 2.454.952 3.948zm-3.332-1.008c-.019-1.176-.439-2.119-1.26-2.828-.821-.71-1.839-1.064-3.052-1.064-1.101 0-2.044.354-2.828 1.064-.784.69-1.251 1.633-1.4 2.828zm5.409 1.372c0-1.587.317-2.978.952-4.172.653-1.214 1.549-2.147 2.688-2.8 1.139-.654 2.445-.98 3.92-.98 1.867 0 3.407.448 4.62 1.344 1.232.877 2.063 2.137 2.492 3.78h-3.444c-.28-.766-.728-1.363-1.344-1.792-.616-.43-1.391-.644-2.324-.644-1.307 0-2.352.466-3.136 1.4-.765.914-1.148 2.202-1.148 3.864 0 1.661.383 2.958 1.148 3.892.784.933 1.829 1.4 3.136 1.4 1.848 0 3.071-.812 3.668-2.436h3.444c-.448 1.568-1.288 2.818-2.52 3.752-1.232.914-2.763 1.372-4.592 1.372-1.475 0-2.781-.327-3.92-.98-1.139-.672-2.035-1.606-2.688-2.8-.635-1.214-.952-2.614-.952-4.2zm24.545 7.98c-1.456 0-2.772-.327-3.948-.98-1.176-.672-2.1-1.606-2.772-2.8-.672-1.214-1.008-2.614-1.008-4.2 0-1.568.345-2.959 1.036-4.172.691-1.214 1.633-2.147 2.828-2.8 1.195-.654 2.529-.98 4.004-.98s2.809.326 4.004.98c1.195.653 2.137 1.586 2.828 2.8.691 1.213 1.036 2.604 1.036 4.172s-.355 2.958-1.064 4.172c-.709 1.213-1.68 2.156-2.912 2.828-1.213.653-2.557.98-4.032.98zm0-2.772c.821 0 1.587-.196 2.296-.588.728-.392 1.316-.98 1.764-1.764s.672-1.736.672-2.856-.215-2.063-.644-2.828c-.429-.784-.999-1.372-1.708-1.764s-1.475-.588-2.296-.588-1.587.196-2.296.588c-.691.392-1.241.98-1.652 1.764-.411.765-.616 1.708-.616 2.828 0 1.661.42 2.949 1.26 3.864.859.896 1.932 1.344 3.22 1.344zm29.84-13.16c1.213 0 2.296.252 3.248.756.97.504 1.726 1.25 2.268 2.24.56.989.84 2.184.84 3.584v9.1h-3.164v-8.624c0-1.382-.346-2.436-1.036-3.164-.691-.747-1.634-1.12-2.828-1.12-1.195 0-2.147.373-2.856 1.12-.691.728-1.036 1.782-1.036 3.164v8.624h-3.164v-8.624c0-1.382-.346-2.436-1.036-3.164-.691-.747-1.634-1.12-2.828-1.12-1.195 0-2.147.373-2.856 1.12-.691.728-1.036 1.782-1.036 3.164v8.624h-3.192v-15.428h3.192v1.764c.522-.635 1.185-1.13 1.988-1.484.802-.355 1.661-.532 2.576-.532 1.232 0 2.333.261 3.304.784.97.522 1.717 1.278 2.24 2.268.466-.934 1.194-1.671 2.184-2.212.989-.56 2.053-.84 3.192-.84zm29.093 0c1.214 0 2.296.252 3.248.756.971.504 1.727 1.25 2.268 2.24.56.989.84 2.184.84 3.584v9.1h-3.164v-8.624c0-1.382-.345-2.436-1.036-3.164-.69-.747-1.633-1.12-2.828-1.12-1.194 0-2.146.373-2.856 1.12-.69.728-1.036 1.782-1.036 3.164v8.624h-3.164v-8.624c0-1.382-.345-2.436-1.036-3.164-.69-.747-1.633-1.12-2.828-1.12-1.194 0-2.146.373-2.856 1.12-.69.728-1.036 1.782-1.036 3.164v8.624h-3.192v-15.428h3.192v1.764c.523-.635 1.186-1.13 1.988-1.484.803-.355 1.662-.532 2.576-.532 1.232 0 2.334.261 3.304.784.971.522 1.718 1.278 2.24 2.268.467-.934 1.195-1.671 2.184-2.212.99-.56 2.054-.84 3.192-.84zm24.558 7.588c0 .578-.037 1.101-.112 1.568h-11.788c.093 1.232.551 2.221 1.372 2.968.821.746 1.829 1.12 3.024 1.12 1.717 0 2.931-.719 3.64-2.156h3.444c-.467 1.418-1.316 2.585-2.548 3.5-1.213.896-2.725 1.344-4.536 1.344-1.475 0-2.8-.327-3.976-.98-1.157-.672-2.072-1.606-2.744-2.8-.653-1.214-.98-2.614-.98-4.2 0-1.587.317-2.978.952-4.172.653-1.214 1.559-2.147 2.716-2.8 1.176-.654 2.52-.98 4.032-.98 1.456 0 2.753.317 3.892.952 1.139.634 2.025 1.53 2.66 2.688.635 1.138.952 2.454.952 3.948zm-3.332-1.008c-.019-1.176-.439-2.119-1.26-2.828-.821-.71-1.839-1.064-3.052-1.064-1.101 0-2.044.354-2.828 1.064-.784.69-1.251 1.633-1.4 2.828zm14.257-6.58c1.214 0 2.296.252 3.248.756.971.504 1.727 1.25 2.268 2.24.542.989.812 2.184.812 3.584v9.1h-3.164v-8.624c0-1.382-.345-2.436-1.036-3.164-.69-.747-1.633-1.12-2.828-1.12-1.194 0-2.146.373-2.856 1.12-.69.728-1.036 1.782-1.036 3.164v8.624h-3.192v-15.428h3.192v1.764c.523-.635 1.186-1.13 1.988-1.484.822-.355 1.69-.532 2.604-.532zm9.336 7.896c0-1.55.317-2.922.952-4.116.653-1.195 1.531-2.119 2.632-2.772 1.12-.672 2.361-1.008 3.724-1.008 1.008 0 1.997.224 2.968.672.989.429 1.773 1.008 2.352 1.736v-7.448h3.22v20.72h-3.22v-2.324c-.523.746-1.251 1.362-2.184 1.848-.915.485-1.969.728-3.164.728-1.344 0-2.576-.336-3.696-1.008-1.101-.691-1.979-1.643-2.632-2.856-.635-1.232-.952-2.623-.952-4.172zm12.628.056c0-1.064-.224-1.988-.672-2.772-.429-.784-.999-1.382-1.708-1.792-.709-.411-1.475-.616-2.296-.616s-1.587.205-2.296.616c-.709.392-1.288.98-1.736 1.764-.429.765-.644 1.68-.644 2.744s.215 1.997.644 2.8c.448.802 1.027 1.418 1.736 1.848.728.41 1.493.616 2.296.616.821 0 1.587-.206 2.296-.616.709-.411 1.279-1.008 1.708-1.792.448-.803.672-1.736.672-2.8zm6.349-.056c0-1.55.317-2.922.952-4.116.653-1.195 1.53-2.119 2.632-2.772 1.12-.672 2.352-1.008 3.696-1.008 1.213 0 2.268.242 3.164.728.914.466 1.642 1.054 2.184 1.764v-2.24h3.22v15.428h-3.22v-2.296c-.542.728-1.279 1.334-2.212 1.82-.934.485-1.998.728-3.192.728-1.326 0-2.539-.336-3.64-1.008-1.102-.691-1.979-1.643-2.632-2.856-.635-1.232-.952-2.623-.952-4.172zm12.628.056c0-1.064-.224-1.988-.672-2.772-.43-.784-.999-1.382-1.708-1.792-.71-.411-1.475-.616-2.296-.616-.822 0-1.587.205-2.296.616-.71.392-1.288.98-1.736 1.764-.43.765-.644 1.68-.644 2.744s.214 1.997.644 2.8c.448.802 1.026 1.418 1.736 1.848.728.41 1.493.616 2.296.616.821 0 1.586-.206 2.296-.616.709-.411 1.278-1.008 1.708-1.792.448-.803.672-1.736.672-2.8zm11.136-5.096v8.54c0 .578.131.998.392 1.26.28.242.747.364 1.4.364h1.96v2.66h-2.52c-1.437 0-2.539-.336-3.304-1.008s-1.148-1.764-1.148-3.276v-8.54h-1.82v-2.604h1.82v-3.836h3.22v3.836h3.752v2.604zm8.318-4.648c-.579 0-1.064-.196-1.456-.588s-.588-.878-.588-1.456c0-.579.196-1.064.588-1.456s.877-.588 1.456-.588c.56 0 1.036.196 1.428.588s.588.877.588 1.456c0 .578-.196 1.064-.588 1.456s-.868.588-1.428.588zm1.568 2.044v15.428h-3.192v-15.428zm10.883 15.68c-1.456 0-2.772-.327-3.948-.98-1.176-.672-2.1-1.606-2.772-2.8-.672-1.214-1.008-2.614-1.008-4.2 0-1.568.345-2.959 1.036-4.172.691-1.214 1.633-2.147 2.828-2.8 1.195-.654 2.529-.98 4.004-.98s2.809.326 4.004.98c1.195.653 2.137 1.586 2.828 2.8.691 1.213 1.036 2.604 1.036 4.172s-.355 2.958-1.064 4.172c-.709 1.213-1.68 2.156-2.912 2.828-1.213.653-2.557.98-4.032.98zm0-2.772c.821 0 1.587-.196 2.296-.588.728-.392 1.316-.98 1.764-1.764s.672-1.736.672-2.856-.215-2.063-.644-2.828c-.429-.784-.999-1.372-1.708-1.764s-1.475-.588-2.296-.588-1.587.196-2.296.588c-.691.392-1.241.98-1.652 1.764-.411.765-.616 1.708-.616 2.828 0 1.661.42 2.949 1.26 3.864.859.896 1.932 1.344 3.22 1.344zm18.947-13.16c1.214 0 2.296.252 3.248.756.971.504 1.727 1.25 2.268 2.24.542.989.812 2.184.812 3.584v9.1h-3.164v-8.624c0-1.382-.345-2.436-1.036-3.164-.69-.747-1.633-1.12-2.828-1.12-1.194 0-2.146.373-2.856 1.12-.69.728-1.036 1.782-1.036 3.164v8.624h-3.192v-15.428h3.192v1.764c.523-.635 1.186-1.13 1.988-1.484.822-.355 1.69-.532 2.604-.532zm16 15.932c-1.213 0-2.305-.215-3.276-.644-.952-.448-1.708-1.046-2.268-1.792-.56-.766-.859-1.615-.896-2.548h3.304c.056.653.364 1.204.924 1.652.579.429 1.297.644 2.156.644.896 0 1.587-.168 2.072-.504.504-.355.756-.803.756-1.344 0-.579-.28-1.008-.84-1.288-.541-.28-1.409-.588-2.604-.924-1.157-.318-2.1-.626-2.828-.924-.728-.299-1.363-.756-1.904-1.372-.523-.616-.784-1.428-.784-2.436 0-.822.243-1.568.728-2.24.485-.691 1.176-1.232 2.072-1.624.915-.392 1.96-.588 3.136-.588 1.755 0 3.164.448 4.228 1.344 1.083.877 1.661 2.081 1.736 3.612h-3.192c-.056-.691-.336-1.242-.84-1.652-.504-.411-1.185-.616-2.044-.616-.84 0-1.484.158-1.932.476-.448.317-.672.737-.672 1.26 0 .41.149.756.448 1.036s.663.504 1.092.672c.429.149 1.064.345 1.904.588 1.12.298 2.035.606 2.744.924.728.298 1.353.746 1.876 1.344.523.597.793 1.39.812 2.38 0 .877-.243 1.661-.728 2.352-.485.69-1.176 1.232-2.072 1.624-.877.392-1.913.588-3.108.588zm31.669-9.016h-5.66v5.796h-2.97v-5.796h-5.65v-2.688h5.65v-5.796h2.97v5.796h5.66zm17.82 9.016c-1.21 0-2.3-.215-3.27-.644-.95-.448-1.71-1.046-2.27-1.792-.56-.766-.86-1.615-.9-2.548h3.31c.05.653.36 1.204.92 1.652.58.429 1.3.644 2.16.644.89 0 1.58-.168 2.07-.504.5-.355.76-.803.76-1.344 0-.579-.28-1.008-.84-1.288-.55-.28-1.41-.588-2.61-.924-1.16-.318-2.1-.626-2.83-.924-.72-.299-1.36-.756-1.9-1.372-.52-.616-.78-1.428-.78-2.436 0-.822.24-1.568.72-2.24.49-.691 1.18-1.232 2.08-1.624.91-.392 1.96-.588 3.13-.588 1.76 0 3.17.448 4.23 1.344 1.08.877 1.66 2.081 1.74 3.612h-3.2c-.05-.691-.33-1.242-.84-1.652-.5-.411-1.18-.616-2.04-.616-.84 0-1.48.158-1.93.476-.45.317-.67.737-.67 1.26 0 .41.14.756.44 1.036s.67.504 1.1.672c.42.149 1.06.345 1.9.588 1.12.298 2.03.606 2.74.924.73.298 1.36.746 1.88 1.344.52.597.79 1.39.81 2.38 0 .877-.24 1.661-.73 2.352-.48.69-1.17 1.232-2.07 1.624-.88.392-1.91.588-3.11.588zm23.5-8.344c0 .578-.04 1.101-.11 1.568h-11.79c.09 1.232.55 2.221 1.37 2.968.82.746 1.83 1.12 3.03 1.12 1.71 0 2.93-.719 3.64-2.156h3.44c-.47 1.418-1.32 2.585-2.55 3.5-1.21.896-2.72 1.344-4.53 1.344-1.48 0-2.8-.327-3.98-.98-1.16-.672-2.07-1.606-2.74-2.8-.66-1.214-.98-2.614-.98-4.2 0-1.587.31-2.978.95-4.172.65-1.214 1.56-2.147 2.71-2.8 1.18-.654 2.52-.98 4.04-.98 1.45 0 2.75.317 3.89.952 1.14.634 2.02 1.53 2.66 2.688.63 1.138.95 2.454.95 3.948zm-3.33-1.008c-.02-1.176-.44-2.119-1.26-2.828-.82-.71-1.84-1.064-3.05-1.064-1.11 0-2.05.354-2.83 1.064-.79.69-1.25 1.633-1.4 2.828zm5.41 1.316c0-1.55.31-2.922.95-4.116.65-1.195 1.53-2.119 2.63-2.772 1.12-.672 2.35-1.008 3.7-1.008 1.21 0 2.27.242 3.16.728.92.466 1.64 1.054 2.19 1.764v-2.24h3.22v15.428h-3.22v-2.296c-.55.728-1.28 1.334-2.22 1.82-.93.485-1.99.728-3.19.728-1.32 0-2.54-.336-3.64-1.008-1.1-.691-1.98-1.643-2.63-2.856-.64-1.232-.95-2.623-.95-4.172zm12.63.056c0-1.064-.23-1.988-.68-2.772-.43-.784-1-1.382-1.7-1.792-.71-.411-1.48-.616-2.3-.616s-1.59.205-2.3.616c-.71.392-1.28.98-1.73 1.764-.43.765-.65 1.68-.65 2.744s.22 1.997.65 2.8c.45.802 1.02 1.418 1.73 1.848.73.41 1.5.616 2.3.616.82 0 1.59-.206 2.3-.616.7-.411 1.27-1.008 1.7-1.792.45-.803.68-1.736.68-2.8zm10.6-5.46c.47-.784 1.08-1.391 1.85-1.82.78-.448 1.71-.672 2.77-.672v3.304h-.81c-1.25 0-2.2.317-2.86.952-.63.634-.95 1.736-.95 3.304v8.12h-3.19v-15.428h3.19zm6.49 5.46c0-1.587.32-2.978.95-4.172.66-1.214 1.55-2.147 2.69-2.8 1.14-.654 2.45-.98 3.92-.98 1.87 0 3.41.448 4.62 1.344 1.23.877 2.06 2.137 2.49 3.78h-3.44c-.28-.766-.73-1.363-1.35-1.792-.61-.43-1.39-.644-2.32-.644-1.31 0-2.35.466-3.14 1.4-.76.914-1.14 2.202-1.14 3.864 0 1.661.38 2.958 1.14 3.892.79.933 1.83 1.4 3.14 1.4 1.85 0 3.07-.812 3.67-2.436h3.44c-.45 1.568-1.29 2.818-2.52 3.752-1.23.914-2.76 1.372-4.59 1.372-1.47 0-2.78-.327-3.92-.98-1.14-.672-2.03-1.606-2.69-2.8-.63-1.214-.95-2.614-.95-4.2zm25.83-7.952c1.18 0 2.22.252 3.14.756.93.504 1.66 1.25 2.18 2.24.54.989.82 2.184.82 3.584v9.1h-3.17v-8.624c0-1.382-.34-2.436-1.03-3.164-.7-.747-1.64-1.12-2.83-1.12-1.2 0-2.15.373-2.86 1.12-.69.728-1.03 1.782-1.03 3.164v8.624h-3.2v-20.72h3.2v7.084c.54-.654 1.22-1.158 2.04-1.512.84-.355 1.75-.532 2.74-.532zm24.54 20.888c-1.83-1.755-3.24-3.986-4.23-6.692-.97-2.707-1.46-5.61-1.46-8.708 0-3.174.52-6.17 1.57-8.988 1.06-2.819 2.62-5.143 4.68-6.972h3.3v.308c-2.15 1.978-3.76 4.349-4.84 7.112-1.09 2.762-1.63 5.609-1.63 8.54 0 2.818.51 5.544 1.51 8.176 1.01 2.632 2.48 4.937 4.4 6.916v.308zm20.86-13.3c0 .578-.04 1.101-.11 1.568h-11.79c.09 1.232.55 2.221 1.37 2.968.82.746 1.83 1.12 3.03 1.12 1.71 0 2.93-.719 3.64-2.156h3.44c-.47 1.418-1.31 2.585-2.55 3.5-1.21.896-2.72 1.344-4.53 1.344-1.48 0-2.8-.327-3.98-.98-1.16-.672-2.07-1.606-2.74-2.8-.66-1.214-.98-2.614-.98-4.2 0-1.587.31-2.978.95-4.172.65-1.214 1.56-2.147 2.72-2.8 1.17-.654 2.52-.98 4.03-.98 1.45 0 2.75.317 3.89.952 1.14.634 2.02 1.53 2.66 2.688.63 1.138.95 2.454.95 3.948zm-3.33-1.008c-.02-1.176-.44-2.119-1.26-2.828-.82-.71-1.84-1.064-3.05-1.064-1.1 0-2.05.354-2.83 1.064-.78.69-1.25 1.633-1.4 2.828zm9.66-11.62v20.72h-3.19v-20.72zm3.13 12.936c0-1.55.32-2.922.95-4.116.66-1.195 1.53-2.119 2.64-2.772 1.12-.672 2.35-1.008 3.69-1.008 1.21 0 2.27.242 3.17.728.91.466 1.64 1.054 2.18 1.764v-2.24h3.22v15.428h-3.22v-2.296c-.54.728-1.28 1.334-2.21 1.82-.94.485-2 .728-3.19.728-1.33 0-2.54-.336-3.64-1.008-1.11-.691-1.98-1.643-2.64-2.856-.63-1.232-.95-2.623-.95-4.172zm12.63.056c0-1.064-.22-1.988-.67-2.772-.43-.784-1-1.382-1.71-1.792-.71-.411-1.48-.616-2.3-.616s-1.58.205-2.29.616c-.71.392-1.29.98-1.74 1.764-.43.765-.64 1.68-.64 2.744s.21 1.997.64 2.8c.45.802 1.03 1.418 1.74 1.848.73.41 1.49.616 2.29.616.82 0 1.59-.206 2.3-.616.71-.411 1.28-1.008 1.71-1.792.45-.803.67-1.736.67-2.8zm13.01 7.98c-1.21 0-2.3-.215-3.27-.644-.96-.448-1.71-1.046-2.27-1.792-.56-.766-.86-1.615-.9-2.548h3.31c.05.653.36 1.204.92 1.652.58.429 1.3.644 2.16.644.89 0 1.58-.168 2.07-.504.5-.355.75-.803.75-1.344 0-.579-.28-1.008-.84-1.288-.54-.28-1.41-.588-2.6-.924-1.16-.318-2.1-.626-2.83-.924-.73-.299-1.36-.756-1.9-1.372-.52-.616-.79-1.428-.79-2.436 0-.822.25-1.568.73-2.24.49-.691 1.18-1.232 2.07-1.624.92-.392 1.96-.588 3.14-.588 1.75 0 3.16.448 4.23 1.344 1.08.877 1.66 2.081 1.73 3.612h-3.19c-.05-.691-.33-1.242-.84-1.652-.5-.411-1.18-.616-2.04-.616-.84 0-1.49.158-1.93.476-.45.317-.68.737-.68 1.26 0 .41.15.756.45 1.036s.66.504 1.09.672c.43.149 1.07.345 1.91.588 1.12.298 2.03.606 2.74.924.73.298 1.36.746 1.88 1.344.52.597.79 1.39.81 2.38 0 .877-.24 1.661-.73 2.352-.48.69-1.17 1.232-2.07 1.624-.88.392-1.91.588-3.11.588zm13.08-13.076v8.54c0 .578.13.998.4 1.26.28.242.74.364 1.4.364h1.96v2.66h-2.52c-1.44 0-2.54-.336-3.31-1.008-.76-.672-1.15-1.764-1.15-3.276v-8.54h-1.82v-2.604h1.82v-3.836h3.22v3.836h3.76v2.604zm8.32-4.648c-.58 0-1.06-.196-1.45-.588-.4-.392-.59-.878-.59-1.456 0-.579.19-1.064.59-1.456.39-.392.87-.588 1.45-.588.56 0 1.04.196 1.43.588s.59.877.59 1.456c0 .578-.2 1.064-.59 1.456s-.87.588-1.43.588zm1.57 2.044v15.428h-3.19v-15.428zm3.13 7.7c0-1.587.31-2.978.95-4.172.65-1.214 1.55-2.147 2.69-2.8 1.13-.654 2.44-.98 3.92-.98 1.86 0 3.4.448 4.62 1.344 1.23.877 2.06 2.137 2.49 3.78h-3.45c-.28-.766-.72-1.363-1.34-1.792-.62-.43-1.39-.644-2.32-.644-1.31 0-2.36.466-3.14 1.4-.77.914-1.15 2.202-1.15 3.864 0 1.661.38 2.958 1.15 3.892.78.933 1.83 1.4 3.14 1.4 1.84 0 3.07-.812 3.66-2.436h3.45c-.45 1.568-1.29 2.818-2.52 3.752-1.23.914-2.76 1.372-4.59 1.372-1.48 0-2.79-.327-3.92-.98-1.14-.672-2.04-1.606-2.69-2.8-.64-1.214-.95-2.614-.95-4.2zm17.06 12.936v-.308c1.93-1.979 3.39-4.284 4.4-6.916s1.51-5.358 1.51-8.176c0-2.931-.54-5.778-1.62-8.54-1.08-2.763-2.7-5.134-4.85-7.112v-.308h3.31c2.05 1.829 3.6 4.153 4.65 6.972 1.06 2.818 1.59 5.814 1.59 8.988 0 3.098-.49 6.001-1.48 8.708-.97 2.706-2.37 4.937-4.2 6.692z" fill="#ededed"/><path d="m957.908 868.79c0-1 0-2.07 0-3.11.127-8.826.26-17.653.4-26.48 0-1 0-1.93.07-2.89.1-1.32.35-2.87 2-2.55.68.12 1.54 1.57 1.59 2.46.41 7.37.67 14.75 1 22.13-.095 1.788.22 3.573.92 5.22 1.059-2.065 2.234-4.068 3.52-6 .64-.88 2.14-1.93 3-1.73 1.84.45 1.57 2.35 1 3.62-2.65 6-5.19 12.1-8.31 17.86-2 3.69-5 3.66-7 0-2.66-4.92-4.7-10.17-6.87-15.33-.26-.63.37-1.62.59-2.45.83.28 2 .31 2.42.88.912 1.32 1.708 2.715 2.38 4.17.8 1.48 1.58 3 2.37 4.44z" fill="#c1c1c1"/><rect fill="#7e27ed" height="95" rx="47.5" width="533" x="694" y="888.076"/><path d="m756.596 925.616v19.46h-3.192v-13.328l-5.936 13.328h-2.212l-5.964-13.328v13.328h-3.192v-19.46h3.444l6.832 15.26 6.804-15.26zm10.887 19.712c-1.456 0-2.772-.326-3.948-.98-1.176-.672-2.1-1.605-2.772-2.8-.672-1.213-1.008-2.613-1.008-4.2 0-1.568.346-2.958 1.036-4.172.691-1.213 1.634-2.146 2.828-2.8 1.195-.653 2.53-.98 4.004-.98 1.475 0 2.81.327 4.004.98 1.195.654 2.138 1.587 2.828 2.8.691 1.214 1.036 2.604 1.036 4.172s-.354 2.959-1.064 4.172c-.709 1.214-1.68 2.156-2.912 2.828-1.213.654-2.557.98-4.032.98zm0-2.772c.822 0 1.587-.196 2.296-.588.728-.392 1.316-.98 1.764-1.764s.672-1.736.672-2.856-.214-2.062-.644-2.828c-.429-.784-.998-1.372-1.708-1.764-.709-.392-1.474-.588-2.296-.588-.821 0-1.586.196-2.296.588-.69.392-1.241.98-1.652 1.764-.41.766-.616 1.708-.616 2.828 0 1.662.42 2.95 1.26 3.864.859.896 1.932 1.344 3.22 1.344zm16.764 2.772c-1.213 0-2.305-.214-3.276-.644-.952-.448-1.708-1.045-2.268-1.792-.56-.765-.859-1.614-.896-2.548h3.304c.056.654.364 1.204.924 1.652.579.43 1.297.644 2.156.644.896 0 1.587-.168 2.072-.504.504-.354.756-.802.756-1.344 0-.578-.28-1.008-.84-1.288-.541-.28-1.409-.588-2.604-.924-1.157-.317-2.1-.625-2.828-.924-.728-.298-1.363-.756-1.904-1.372-.523-.616-.784-1.428-.784-2.436 0-.821.243-1.568.728-2.24.485-.69 1.176-1.232 2.072-1.624.915-.392 1.96-.588 3.136-.588 1.755 0 3.164.448 4.228 1.344 1.083.878 1.661 2.082 1.736 3.612h-3.192c-.056-.69-.336-1.241-.84-1.652-.504-.41-1.185-.616-2.044-.616-.84 0-1.484.159-1.932.476-.448.318-.672.738-.672 1.26 0 .411.149.756.448 1.036s.663.504 1.092.672c.429.15 1.064.346 1.904.588 1.12.299 2.035.607 2.744.924.728.299 1.353.747 1.876 1.344.523.598.793 1.391.812 2.38 0 .878-.243 1.662-.728 2.352-.485.691-1.176 1.232-2.072 1.624-.877.392-1.913.588-3.108.588zm13.081-13.076v8.54c0 .579.131.999.392 1.26.28.243.747.364 1.4.364h1.96v2.66h-2.52c-1.437 0-2.539-.336-3.304-1.008s-1.148-1.764-1.148-3.276v-8.54h-1.82v-2.604h1.82v-3.836h3.22v3.836h3.752v2.604zm32.643-2.856c1.214 0 2.296.252 3.248.756.971.504 1.727 1.251 2.268 2.24.56.99.84 2.184.84 3.584v9.1h-3.164v-8.624c0-1.381-.345-2.436-1.036-3.164-.69-.746-1.633-1.12-2.828-1.12-1.194 0-2.146.374-2.856 1.12-.69.728-1.036 1.783-1.036 3.164v8.624h-3.164v-8.624c0-1.381-.345-2.436-1.036-3.164-.69-.746-1.633-1.12-2.828-1.12-1.194 0-2.146.374-2.856 1.12-.69.728-1.036 1.783-1.036 3.164v8.624h-3.192v-15.428h3.192v1.764c.523-.634 1.186-1.129 1.988-1.484.803-.354 1.662-.532 2.576-.532 1.232 0 2.334.262 3.304.784.971.523 1.718 1.279 2.24 2.268.467-.933 1.195-1.67 2.184-2.212.99-.56 2.054-.84 3.192-.84zm9.354 7.896c0-1.549.317-2.921.952-4.116.653-1.194 1.531-2.118 2.632-2.772 1.12-.672 2.352-1.008 3.696-1.008 1.213 0 2.268.243 3.164.728.915.467 1.643 1.055 2.184 1.764v-2.24h3.22v15.428h-3.22v-2.296c-.541.728-1.279 1.335-2.212 1.82-.933.486-1.997.728-3.192.728-1.325 0-2.539-.336-3.64-1.008-1.101-.69-1.979-1.642-2.632-2.856-.635-1.232-.952-2.622-.952-4.172zm12.628.056c0-1.064-.224-1.988-.672-2.772-.429-.784-.999-1.381-1.708-1.792-.709-.41-1.475-.616-2.296-.616s-1.587.206-2.296.616c-.709.392-1.288.98-1.736 1.764-.429.766-.644 1.68-.644 2.744s.215 1.998.644 2.8c.448.803 1.027 1.419 1.736 1.848.728.411 1.493.616 2.296.616.821 0 1.587-.205 2.296-.616.709-.41 1.279-1.008 1.708-1.792.448-.802.672-1.736.672-2.8zm11.137-5.096v8.54c0 .579.13.999.392 1.26.28.243.746.364 1.4.364h1.96v2.66h-2.52c-1.438 0-2.539-.336-3.304-1.008-.766-.672-1.148-1.764-1.148-3.276v-8.54h-1.82v-2.604h1.82v-3.836h3.22v3.836h3.752v2.604zm5.63 5.096c0-1.586.317-2.977.952-4.172.653-1.213 1.549-2.146 2.688-2.8 1.138-.653 2.445-.98 3.92-.98 1.866 0 3.406.448 4.62 1.344 1.232.878 2.062 2.138 2.492 3.78h-3.444c-.28-.765-.728-1.362-1.344-1.792-.616-.429-1.391-.644-2.324-.644-1.307 0-2.352.467-3.136 1.4-.766.915-1.148 2.203-1.148 3.864 0 1.662.382 2.959 1.148 3.892.784.934 1.829 1.4 3.136 1.4 1.848 0 3.07-.812 3.668-2.436h3.444c-.448 1.568-1.288 2.819-2.52 3.752-1.232.915-2.763 1.372-4.592 1.372-1.475 0-2.782-.326-3.92-.98-1.139-.672-2.035-1.605-2.688-2.8-.635-1.213-.952-2.613-.952-4.2zm25.833-7.952c1.176 0 2.221.252 3.136.756.933.504 1.661 1.251 2.184 2.24.541.99.812 2.184.812 3.584v9.1h-3.164v-8.624c0-1.381-.346-2.436-1.036-3.164-.691-.746-1.634-1.12-2.828-1.12-1.195 0-2.147.374-2.856 1.12-.691.728-1.036 1.783-1.036 3.164v8.624h-3.192v-20.72h3.192v7.084c.541-.653 1.222-1.157 2.044-1.512.84-.354 1.754-.532 2.744-.532zm24.343 7.588c0 .579-.037 1.102-.112 1.568h-11.788c.094 1.232.551 2.222 1.372 2.968.822.747 1.83 1.12 3.024 1.12 1.718 0 2.931-.718 3.64-2.156h3.444c-.466 1.419-1.316 2.586-2.548 3.5-1.213.896-2.725 1.344-4.536 1.344-1.474 0-2.8-.326-3.976-.98-1.157-.672-2.072-1.605-2.744-2.8-.653-1.213-.98-2.613-.98-4.2 0-1.586.318-2.977.952-4.172.654-1.213 1.559-2.146 2.716-2.8 1.176-.653 2.52-.98 4.032-.98 1.456 0 2.754.318 3.892.952 1.139.635 2.026 1.531 2.66 2.688.635 1.139.952 2.455.952 3.948zm-3.332-1.008c-.018-1.176-.438-2.118-1.26-2.828-.821-.709-1.838-1.064-3.052-1.064-1.101 0-2.044.355-2.828 1.064-.784.691-1.25 1.634-1.4 2.828zm5.41 1.316c0-1.549.317-2.921.952-4.116.653-1.194 1.53-2.118 2.632-2.772 1.12-.672 2.361-1.008 3.724-1.008 1.008 0 1.997.224 2.968.672.989.43 1.773 1.008 2.352 1.736v-7.448h3.22v20.72h-3.22v-2.324c-.523.747-1.251 1.363-2.184 1.848-.915.486-1.97.728-3.164.728-1.344 0-2.576-.336-3.696-1.008-1.102-.69-1.979-1.642-2.632-2.856-.635-1.232-.952-2.622-.952-4.172zm12.628.056c0-1.064-.224-1.988-.672-2.772-.43-.784-.999-1.381-1.708-1.792-.71-.41-1.475-.616-2.296-.616-.822 0-1.587.206-2.296.616-.71.392-1.288.98-1.736 1.764-.43.766-.644 1.68-.644 2.744s.214 1.998.644 2.8c.448.803 1.026 1.419 1.736 1.848.728.411 1.493.616 2.296.616.821 0 1.586-.205 2.296-.616.709-.41 1.278-1.008 1.708-1.792.448-.802.672-1.736.672-2.8zm35.406-7.7-4.788 15.428h-3.36l-3.108-11.396-3.108 11.396h-3.36l-4.816-15.428h3.248l3.22 12.404 3.276-12.404h3.332l3.136 12.348 3.192-12.348zm4.009-2.044c-.579 0-1.064-.196-1.456-.588s-.588-.877-.588-1.456c0-.578.196-1.064.588-1.456s.877-.588 1.456-.588c.56 0 1.036.196 1.428.588s.588.878.588 1.456c0 .579-.196 1.064-.588 1.456s-.868.588-1.428.588zm1.568 2.044v15.428h-3.192v-15.428zm11.975-.252c1.213 0 2.296.252 3.248.756.97.504 1.726 1.251 2.268 2.24.541.99.812 2.184.812 3.584v9.1h-3.164v-8.624c0-1.381-.346-2.436-1.036-3.164-.691-.746-1.634-1.12-2.828-1.12-1.195 0-2.147.374-2.856 1.12-.691.728-1.036 1.783-1.036 3.164v8.624h-3.192v-15.428h3.192v1.764c.522-.634 1.185-1.129 1.988-1.484.821-.354 1.689-.532 2.604-.532zm24.54 7.588c0 .579-.04 1.102-.11 1.568h-11.791c.094 1.232.551 2.222 1.371 2.968.82.747 1.83 1.12 3.03 1.12 1.71 0 2.93-.718 3.64-2.156h3.44c-.47 1.419-1.32 2.586-2.55 3.5-1.21.896-2.72 1.344-4.53 1.344-1.48 0-2.8-.326-3.981-.98-1.157-.672-2.072-1.605-2.744-2.8-.653-1.213-.98-2.613-.98-4.2 0-1.586.318-2.977.952-4.172.654-1.213 1.559-2.146 2.716-2.8 1.177-.653 2.517-.98 4.037-.98 1.45 0 2.75.318 3.89.952 1.14.635 2.02 1.531 2.66 2.688.63 1.139.95 2.455.95 3.948zm-3.33-1.008c-.02-1.176-.44-2.118-1.26-2.828-.82-.709-1.84-1.064-3.05-1.064-1.11 0-2.05.355-2.83 1.064-.787.691-1.253 1.634-1.403 2.828zm16.94-4.06c.54-.709 1.27-1.306 2.21-1.792.93-.485 1.99-.728 3.16-.728 1.35 0 2.57.336 3.67 1.008 1.12.654 2 1.578 2.63 2.772.64 1.195.95 2.567.95 4.116 0 1.55-.31 2.94-.95 4.172-.63 1.214-1.51 2.166-2.63 2.856-1.1.672-2.32 1.008-3.67 1.008-1.17 0-2.22-.233-3.13-.7-.92-.485-1.67-1.082-2.24-1.792v9.576h-3.2v-22.764h3.2zm9.38 5.376c0-1.064-.23-1.978-.68-2.744-.43-.784-1-1.372-1.73-1.764-.71-.41-1.48-.616-2.3-.616-.8 0-1.57.206-2.29.616-.71.411-1.29 1.008-1.74 1.792-.43.784-.64 1.708-.64 2.772s.21 1.998.64 2.8c.45.784 1.03 1.382 1.74 1.792.72.411 1.49.616 2.29.616.82 0 1.59-.205 2.3-.616.73-.429 1.3-1.045 1.73-1.848.45-.802.68-1.736.68-2.8zm5.34 0c0-1.549.31-2.921.95-4.116.65-1.194 1.53-2.118 2.63-2.772 1.12-.672 2.35-1.008 3.7-1.008 1.21 0 2.26.243 3.16.728.92.467 1.64 1.055 2.18 1.764v-2.24h3.22v15.428h-3.22v-2.296c-.54.728-1.27 1.335-2.21 1.82-.93.486-1.99.728-3.19.728-1.32 0-2.54-.336-3.64-1.008-1.1-.69-1.98-1.642-2.63-2.856-.64-1.232-.95-2.622-.95-4.172zm12.62.056c0-1.064-.22-1.988-.67-2.772-.43-.784-1-1.381-1.71-1.792-.7-.41-1.47-.616-2.29-.616s-1.59.206-2.3.616c-.71.392-1.29.98-1.73 1.764-.43.766-.65 1.68-.65 2.744s.22 1.998.65 2.8c.44.803 1.02 1.419 1.73 1.848.73.411 1.5.616 2.3.616.82 0 1.59-.205 2.29-.616.71-.41 1.28-1.008 1.71-1.792.45-.802.67-1.736.67-2.8zm10.61-5.46c.47-.784 1.08-1.39 1.85-1.82.78-.448 1.71-.672 2.77-.672v3.304h-.81c-1.25 0-2.21.318-2.86.952-.63.635-.95 1.736-.95 3.304v8.12h-3.19v-15.428h3.19zm6.49 5.404c0-1.549.32-2.921.95-4.116.65-1.194 1.53-2.118 2.63-2.772 1.12-.672 2.36-1.008 3.7-1.008 1.21 0 2.27.243 3.16.728.92.467 1.65 1.055 2.19 1.764v-2.24h3.22v15.428h-3.22v-2.296c-.54.728-1.28 1.335-2.21 1.82-.94.486-2 .728-3.2.728-1.32 0-2.54-.336-3.64-1.008-1.1-.69-1.98-1.642-2.63-2.856-.63-1.232-.95-2.622-.95-4.172zm12.63.056c0-1.064-.23-1.988-.67-2.772-.43-.784-1-1.381-1.71-1.792-.71-.41-1.48-.616-2.3-.616s-1.59.206-2.29.616c-.71.392-1.29.98-1.74 1.764-.43.766-.64 1.68-.64 2.744s.21 1.998.64 2.8c.45.803 1.03 1.419 1.74 1.848.72.411 1.49.616 2.29.616.82 0 1.59-.205 2.3-.616.71-.41 1.28-1.008 1.71-1.792.44-.802.67-1.736.67-2.8zm26.09-7.952c1.21 0 2.29.252 3.24.756.97.504 1.73 1.251 2.27 2.24.56.99.84 2.184.84 3.584v9.1h-3.16v-8.624c0-1.381-.35-2.436-1.04-3.164-.69-.746-1.63-1.12-2.83-1.12-1.19 0-2.14.374-2.85 1.12-.69.728-1.04 1.783-1.04 3.164v8.624h-3.16v-8.624c0-1.381-.35-2.436-1.04-3.164-.69-.746-1.63-1.12-2.83-1.12-1.19 0-2.14.374-2.85 1.12-.69.728-1.04 1.783-1.04 3.164v8.624h-3.19v-15.428h3.19v1.764c.52-.634 1.19-1.129 1.99-1.484.8-.354 1.66-.532 2.58-.532 1.23 0 2.33.262 3.3.784.97.523 1.72 1.279 2.24 2.268.47-.933 1.19-1.67 2.18-2.212.99-.56 2.06-.84 3.2-.84zm24.55 7.588c0 .579-.03 1.102-.11 1.568h-11.79c.1 1.232.55 2.222 1.38 2.968.82.747 1.82 1.12 3.02 1.12 1.72 0 2.93-.718 3.64-2.156h3.44c-.46 1.419-1.31 2.586-2.54 3.5-1.22.896-2.73 1.344-4.54 1.344-1.48 0-2.8-.326-3.98-.98-1.15-.672-2.07-1.605-2.74-2.8-.65-1.213-.98-2.613-.98-4.2 0-1.586.32-2.977.95-4.172.65-1.213 1.56-2.146 2.72-2.8 1.17-.653 2.52-.98 4.03-.98 1.46 0 2.75.318 3.89.952 1.14.635 2.03 1.531 2.66 2.688.64 1.139.95 2.455.95 3.948zm-3.33-1.008c-.02-1.176-.44-2.118-1.26-2.828-.82-.709-1.84-1.064-3.05-1.064-1.1 0-2.04.355-2.83 1.064-.78.691-1.25 1.634-1.4 2.828zm10.2-3.724v8.54c0 .579.13.999.39 1.26.28.243.75.364 1.4.364h1.96v2.66h-2.52c-1.44 0-2.54-.336-3.3-1.008-.77-.672-1.15-1.764-1.15-3.276v-8.54h-1.82v-2.604h1.82v-3.836h3.22v3.836h3.75v2.604zm20.83 4.732c0 .579-.03 1.102-.11 1.568h-11.79c.1 1.232.55 2.222 1.37 2.968.83.747 1.83 1.12 3.03 1.12 1.72 0 2.93-.718 3.64-2.156h3.44c-.46 1.419-1.31 2.586-2.55 3.5-1.21.896-2.72 1.344-4.53 1.344-1.48 0-2.8-.326-3.98-.98-1.15-.672-2.07-1.605-2.74-2.8-.65-1.213-.98-2.613-.98-4.2 0-1.586.32-2.977.95-4.172.65-1.213 1.56-2.146 2.72-2.8 1.17-.653 2.52-.98 4.03-.98 1.45 0 2.75.318 3.89.952 1.14.635 2.03 1.531 2.66 2.688.64 1.139.95 2.455.95 3.948zm-3.33-1.008c-.02-1.176-.44-2.118-1.26-2.828-.82-.709-1.84-1.064-3.05-1.064-1.1 0-2.05.355-2.83 1.064-.78.691-1.25 1.634-1.4 2.828zm9.67-4.088c.46-.784 1.08-1.39 1.84-1.82.79-.448 1.71-.672 2.78-.672v3.304h-.82c-1.25 0-2.2.318-2.85.952-.64.635-.95 1.736-.95 3.304v8.12h-3.2v-15.428h3.2zm13.15 13.44c-1.21 0-2.31-.214-3.28-.644-.95-.448-1.7-1.045-2.26-1.792-.56-.765-.86-1.614-.9-2.548h3.3c.06.654.37 1.204.93 1.652.58.43 1.3.644 2.15.644.9 0 1.59-.168 2.08-.504.5-.354.75-.802.75-1.344 0-.578-.28-1.008-.84-1.288-.54-.28-1.41-.588-2.6-.924-1.16-.317-2.1-.625-2.83-.924-.73-.298-1.36-.756-1.9-1.372-.53-.616-.79-1.428-.79-2.436 0-.821.24-1.568.73-2.24.49-.69 1.18-1.232 2.07-1.624.92-.392 1.96-.588 3.14-.588 1.75 0 3.16.448 4.23 1.344 1.08.878 1.66 2.082 1.73 3.612h-3.19c-.06-.69-.34-1.241-.84-1.652-.5-.41-1.19-.616-2.04-.616-.84 0-1.49.159-1.94.476-.44.318-.67.738-.67 1.26 0 .411.15.756.45 1.036s.66.504 1.09.672c.43.15 1.07.346 1.91.588 1.12.299 2.03.607 2.74.924.73.299 1.35.747 1.88 1.344.52.598.79 1.391.81 2.38 0 .878-.24 1.662-.73 2.352-.49.691-1.18 1.232-2.07 1.624-.88.392-1.92.588-3.11.588z" fill="#ededed"/><g fill="#c1c1c1"><path d="m638.65 373.161c-3.8 2.21-6.67 3.87-9.54 5.55-.987.535-1.939 1.133-2.85 1.79-1.25.93-3.09 1.88-2.06 3.77s2.88 1 4.35.55c1.526-.496 3.007-1.119 4.43-1.86 6.493-3.14 12.973-6.307 19.44-9.5 1.755-.802 3.429-1.77 5-2.89 3.19-2.44 3-4.78-.51-6.62-4.7-2.43-9.54-4.59-14.33-6.83-2.012-1.018-4.079-1.926-6.19-2.72-1.291-.279-2.609-.413-3.93-.4-.36 2.8 1.24 3.38 2.63 4.12 3.55 1.87 7.1 3.73 10.64 5.62 1.437.692 2.698 1.701 3.69 2.95-1.76.2-3.52.49-5.28.58-13.46.753-26.91 1.48-40.35 2.18-19.55 1-39.11 2-58.66 3.05-1.742.262-3.458.674-5.13 1.23 1.79 2.69 3.87 2.09 5.64 2.05 9.62-.25 19.25-.61 28.87-.93l62.08-2.09c.694.089 1.382.223 2.06.4z"/><path d="m1281.03 366.267c3.8-2.21 6.67-3.87 9.54-5.55.99-.535 1.94-1.133 2.85-1.79 1.25-.93 3.09-1.88 2.06-3.77s-2.88-1-4.35-.55c-1.52.496-3 1.118-4.43 1.86-6.49 3.14-12.97 6.307-19.44 9.5-1.75.802-3.42 1.77-5 2.89-3.19 2.44-3 4.78.51 6.62 4.7 2.43 9.54 4.59 14.33 6.83 2.02 1.018 4.08 1.926 6.19 2.72 1.3.279 2.61.413 3.93.4.36-2.8-1.24-3.38-2.63-4.12-3.55-1.87-7.1-3.73-10.64-5.62-1.43-.693-2.69-1.701-3.69-2.95 1.76-.2 3.52-.49 5.28-.58 13.46-.753 26.91-1.48 40.35-2.18 19.55-1 39.11-2 58.66-3.05 1.75-.263 3.46-.674 5.13-1.23-1.79-2.69-3.87-2.09-5.64-2.05-9.62.25-19.25.61-28.87.93l-62.08 2.09c-.69-.09-1.38-.223-2.06-.4z"/><path d="m612.369 925.289c-45.213 10.993-157.47-37.912-214.559-91.41-62.015-58.191-85.554-101.234-112.358-207.062-4.168 5.305-7.233 9.617-10.735 13.605-3.683 4.416-7.739 8.508-12.122 12.23-1.374 1.129-5.58.579-7.018-.755-.731-.989-1.202-2.146-1.369-3.365-.168-1.218-.027-2.459.41-3.609 8.503-14.556 17.272-28.961 26.307-43.216.485-1.133 1.241-2.129 2.202-2.901s2.097-1.295 3.308-1.524c1.212-.229 2.46-.156 3.637.212 1.176.367 2.244 1.019 3.109 1.897 17.718 13.196 35.624 26.152 53.091 39.768 4.113 3.186 6.8 8.269 10.868 13.838-14.25 4.767-20.536-5.419-28.814-9.573-8.279-4.153-16.738-10.291-26.879-16.709 2.877 30.84 11.223 60.922 24.646 88.836 47.519 100.054 127.266 162.174 231.65 194.607 13.63 4.231 27.697 6.866 41.509 10.436 3.595 1.052 7.183 2.666 13.117 4.695z"/><path d="m1475.55 807.23c-57.21 58.85-159.2 123.868-194.55 122.412 5.29-2.937 8.56-5.06 11.73-6.68 12.09-5.795 24.22-10.796 36.28-17.153 92.4-48.711 165.52-119.264 223.51-218.259 15.91-26.965 31.74-63.157 51.84-107.662 1.02-2.254 2.28-4.54 4.47-5.696 1.04-.551 2.08-.85 3.04-.87s1.8.239 2.45.755c1.33 1.052.93 3.055.27 4.617-41.51 98.984-77.37 165.054-139.04 228.536z"/></g><path d="m1497.19 858.396c-.44.123-.75.21-1.02.217-1.32.367-3.29-.164-5.89-1.528-2.63-1.428-4.05-2.651-4.35-3.715-.12-.439.07-.964.66-1.532.21-.195.44-.328.63-.38.44-.122 1.42.482 3.08 1.841s2.8 2.054 3.57 2.175c.31-.356-.88-2.453-3.49-6.246-1.66-2.305-2.71-4.374-3.18-6.065-1.04-3.756.01-6.277 3.2-7.64 3.42-1.291 6.79.873 7.79 4.442.56 2.004.27 3.163-.86 3.477-.56.157-1.19.064-1.91-.343-.4-.225-.7-.549-.78-.862-.07-.25-.08-1.259-.24-1.823-.09-.313-.26-.671-.5-1.074-.56-.79-1.12-1.106-1.75-.931-1.19.332-1.36 2.134.13 5.295 1.78 3.485 2.9 5.063 3.14 5.467 1.92 3.717 2.9 5.804 3.03 6.242.5 1.816.18 2.582-1.26 2.983zm13.58-5.07c-2.07.577-4.07.394-6.15-.512-2.38-1.024-3.11-2.439-3.76-4.756-.9-3.256-.36-6.645 1.54-10.213 1.97-3.586 4.14-5.742 6.58-6.423.69-.192 1.43-.196 2.16.005 1.02.256 1.73.868 2.21 1.88.13.233.24.609.36 1.047.28 1.002.37 2.056.32 3.082-.15 3.08-1.67 6.338-4.55 7.882-.17.115-.42.185-.8.29-1.37.384-2.73.358-3.99-.034-.07 2.383.5 3.976 1.72 4.716.66.424 1.61.43 2.86.081 4.07-1.135 7.45-4.034 10.11-8.758.04-.08.12-.035.24.136.39.904.28 2.216-.42 3.827l-.16.383c-1.48 3.178-5.02 6.46-8.27 7.367zm-5.37-10.784c.94.212 1.9-.461 2.77-1.92.46-.532 1.05-1.573 1.74-3.185.76-1.629.98-2.565.68-2.889-.46-.949-4.53 4.57-5.19 7.994zm23.93 6.08c-2.06.576-4 .644-5.68.169-2.85-.759-4.03-3.061-5.08-6.818-.75-2.692-1.06-6.721-.88-12.104.12-3.204.44-6.667 1.02-10.404.58-3.47 1.39-6.866 2.5-10.145.73-2.227 1.71-3.784 2.96-4.606.17-.115.53-.283 1.03-.422 2.32-.646 5.23.095 5.92 2.332.95 3.176 1.24 6.401.78 9.835-.61 4.827-1.55 9.205-2.92 13.232-1.96 6.282-3.94 10.546-5.85 12.9.8 2.88 2.33 4.006 4.65 3.36 2.19-.611 4.23-2.259 5.97-4.971.35-.435.67-.996 1.07-1.716.52-.818.82-1.174 1-1.021l.19.216c.4.699-.02 3.312-.78 4.673-1.72 3.043-3.7 4.879-5.9 5.49zm-7.22-10.403c1.04-2.11 1.92-4.247 2.67-6.412 1.1-3.073 1.92-5.934 2.32-8.61l.42-2.614.52-2.979c.42-2.345.68-6.263.17-8.82.01-.205-.04-.393-.13-.706-.16-.564-.35-.779-.6-.709-.69.192-1.57 2.597-2.63 7.278-1.01 4.601-1.77 9.131-2.3 13.53-.46 3.434-.6 6.782-.44 10.042zm24.53 5.577c-2.07.577-4.01.645-5.69.17-2.84-.759-4.03-3.062-5.07-6.818-.75-2.693-1.07-6.721-.88-12.104.12-3.205.43-6.667 1.01-10.404.58-3.47 1.39-6.867 2.5-10.145.73-2.228 1.71-3.784 2.97-4.607.17-.115.53-.282 1.03-.422 2.31-.646 5.22.096 5.91 2.333.95 3.175 1.25 6.4.79 9.835-.61 4.826-1.55 9.204-2.93 13.231-1.96 6.283-3.94 10.547-5.85 12.901.81 2.88 2.34 4.006 4.65 3.36 2.19-.611 4.23-2.259 5.97-4.971.35-.436.67-.996 1.08-1.717.51-.818.82-1.173.99-1.02l.2.215c.4.699-.02 3.313-.79 4.674-1.72 3.043-3.7 4.878-5.89 5.489zm-7.22-10.403c1.03-2.109 1.92-4.246 2.66-6.411 1.1-3.074 1.92-5.935 2.33-8.611l.41-2.613.52-2.979c.43-2.345.69-6.263.17-8.82.02-.206-.04-.393-.12-.706-.16-.564-.36-.779-.61-.71-.69.192-1.57 2.598-2.62 7.278-1.02 4.601-1.78 9.132-2.3 13.53-.46 3.435-.61 6.782-.44 10.042zm31.03 3.088c-.96.2-1.87-.154-2.57-.971-.43-.351-.7-1.085-.94-2.167-.7-3.245-.75-7.281-.24-12.01-.27.007-1.24.411-1.49.481-.94.262-1.52-.117-1.8-1.118-.27-1.002-.35-1.52.06-1.973.38-.578 1.84-.917 3.49-1.782l.64-5.915.97-7.423c.29-3.051.69-4.781 1.18-5.189.24-.132.41-.247.53-.282.69-.192 1.47-.071 2.28.443.82.514 1.23 1.008 1.16 1.498.02.063-.39 2.944-1.13 8.752-.21 1.204-.48 3.372-.8 6.567.94-.262 2.81-1.054 3.5-1.246 1.06-.297 3.62-1.281 4.87-1.63.94-.262 1.06.177.35 1.252-.96 1.619-2.36 2.887-4.14 3.787-.04.08-.11.097-.17.115l-2.4 1.074-2.44 1.154c-.29 1.159-.53 3.925-.62 8.201.26 3.573.37 5.431.39 5.494.07.518.52 1.405.59 1.655.05.661-.38 1.052-1.27 1.233zm14.43-4.834c-.81.227-1.68.266-2.61.054-2.2-.13-3.62-1.353-4.3-3.795-.72-2.567-.64-5.423.14-8.677.1-.366.55-2.649.95-4.11.63-2.336 1.58-5.232 2.79-5.706.93-.325 2.92.536 3.65 1.211.41.493.64.834.71 1.084l.03.126c.05.188.37.368 1 .667.84.371 2.64 1.017 3.47 1.325.83.309 1.75 1.199 2.1 2.451.1.376.19.689.18.894.3 1.538-.01 2.634-.51 3.988-.19.526-.3.828-.44 1.069l-1.15 2.412c-2.02 4.139-4 6.448-6.01 7.007zm-2.07-3.335c.87-.244 2.13-2.013 3.84-5.324 1.71-3.31 2.46-5.475 2.18-6.477-.09-.313-.29-.529-.61-.709l-.8.021c-1.07.029-2.33.111-3.02.776-1.22 1.215-2.01 3.934-2.34 8.074-.13 1.455-.12 2.464.03 3.027.14.501.4.699.72.612zm-75.68 72.747c-2.32.646-4.25.509-5.77-.349-1.84-1.038-3.04-2.662-3.63-4.791-1.17-4.195.27-9.454 2.44-13.029 1.27-1.974 2.5-3.127 3.75-3.476 1.01-.28 2.13-.121 3.3.431 1.34.705 2.2 1.613 2.5 2.677.21.751-.13 1.249-.94 1.476-.19.053-.46.06-.91.119-.81.022-1.63-.287-1.88-.217s-.58.362-1.05.833c-.46.532-1.13 2.001-2.03 4.344-1.21 3.171-1.54 5.624-1.07 7.315.2.688.56 1.262 1.07 1.658.58.379 1.28.455 2.09.228 2.69-.751 6.09-3.587 10.18-8.507.17-.115.29.055.37.368.3 1.065.05 2.349-.71 3.978-.48.943-1.5 2.374-3.07 4.231-1.07 1.243-2.64 2.152-4.64 2.711zm12.34-2.43c-3.8.386-5.71-3.064-5.76-10.269-.02-2.224.02-5 .26-8.24.25-3.239.61-5.094 1.16-5.519.52-.345 1.4-.322 2.56.23 1.23.535 1.96 1.209 2.22 2.148.11.376.12.912-.03 1.563-.27 1.221-1.11 5.234-1.66 9.775-.12 3.678.01 5.598.43 5.681l.25-.07c.07-.017.29-.417.82-1.441.58-1.309 1.93-4.184 4.03-8.278l.96-2.36c.61-1.451 1.12-2.537 1.42-3.161.34-.703 1.44-4.99 2.37-5.047.92-.325 2.48.185 3.24.985 1.18 1.088.67 1.433.73 3.103-.17 2.275-.28 4.802-.09 7.651.21 2.707.92 4.533 2.11 4.201 1.69-.472 4.12-2.429 6.22-4.568l1.54-1.508c.26-.275.45-.327.45-.06.13.707-.41 2.141-1.57 4.285-1.43 2.625-2.93 4.258-4.5 4.9-1.95.747-3.81.387-5.47-.972s-2.65-3.919-2.92-7.554c-.39.783-1.28 2.652-2.62 5.59-2.64 5.796-4.4 8.651-6.15 8.935zm31.93-8.635c-.44.123-.75.21-1.02.217-1.31.367-3.28-.164-5.89-1.528-2.62-1.428-4.04-2.651-4.34-3.715-.12-.439.07-.964.65-1.532.22-.195.45-.327.64-.38.44-.122 1.41.482 3.07 1.841 1.67 1.359 2.8 2.054 3.58 2.175.31-.356-.89-2.452-3.5-6.246-1.65-2.305-2.7-4.374-3.17-6.065-1.05-3.756 0-6.276 3.2-7.64 3.42-1.291 6.79.873 7.78 4.442.56 2.004.28 3.163-.85 3.477-.56.157-1.2.064-1.92-.343-.4-.225-.69-.549-.78-.862-.07-.25-.08-1.259-.24-1.823-.08-.313-.25-.671-.5-1.074-.56-.79-1.12-1.106-1.74-.931-1.19.332-1.36 2.134.13 5.295 1.78 3.485 2.89 5.064 3.14 5.467 1.91 3.717 2.9 5.804 3.02 6.242.51 1.816.18 2.582-1.26 2.983zm8.09-3.738c-.96.199-1.87-.155-2.57-.972-.44-.351-.71-1.085-.94-2.167-.7-3.245-.75-7.281-.25-12.01-.26.007-1.23.412-1.48.482-.94.261-1.52-.117-1.8-1.119s-.36-1.52.06-1.973c.38-.578 1.83-.917 3.48-1.781l.65-5.916.96-7.422c.3-3.052.7-4.782 1.19-5.189.23-.133.4-.248.53-.283.69-.192 1.46-.071 2.28.443s1.23 1.008 1.16 1.499c.02.062-.39 2.944-1.14 8.752-.2 1.204-.47 3.372-.8 6.566.94-.262 2.81-1.054 3.5-1.246 1.07-.297 3.63-1.28 4.88-1.63.94-.261 1.06.177.35 1.253-.97 1.619-2.37 2.886-4.14 3.786-.05.08-.11.097-.17.115l-2.4 1.074-2.45 1.154c-.28 1.159-.52 3.925-.61 8.202.25 3.573.37 5.431.38 5.493.08.519.53 1.405.6 1.656.05.661-.38 1.051-1.27 1.233zm14.43-4.835c-.82.227-1.68.266-2.62.055-2.19-.13-3.61-1.354-4.29-3.795-.72-2.567-.64-5.424.14-8.678.1-.366.54-2.648.95-4.11.63-2.335 1.57-5.231 2.79-5.706.92-.324 2.92.537 3.64 1.211.41.494.64.834.71 1.085l.04.125c.05.188.37.368.99.667.85.371 2.65 1.017 3.48 1.326.82.308 1.75 1.198 2.1 2.45.1.376.19.689.18.894.29 1.538-.01 2.634-.51 3.988-.19.526-.31.829-.44 1.069l-1.15 2.412c-2.02 4.139-4.01 6.448-6.01 7.007zm-2.08-3.335c.88-.244 2.14-2.013 3.85-5.324 1.71-3.31 2.45-5.475 2.17-6.477-.08-.313-.28-.528-.6-.709l-.8.022c-1.07.029-2.33.11-3.03.775-1.21 1.216-2 3.934-2.33 8.075-.14 1.454-.13 2.463.03 3.027.14.501.4.699.71.611zm18.38.814c-2.26.628-4.32-.01-4.86-1.951-.55-1.941-.4-7.717.46-17.47.22-2.356.38-3.685.61-4.085.23-.401.87-.513 1.82-.239 2.02.45 2.51 1.257 2.35 2.381.01.741-.27 4.329-.84 10.763.21-.937.78-2.513 1.8-4.685 1.07-2.19 1.81-3.676 2.3-4.557l1.6-2.74c.94-1.476 1.92-2.559 3.16-2.703 1.64-.186 3.23 1.663 3.82 3.051.25.671.39 1.172.45 1.628.11.375.26 1.144.49 2.226l.53 2.619c.95-2.628 1.98-5.005 3.01-7.115 1.03-2.109 1.87-3.22 2.49-3.394 1-.28 2-.086 3.04.501s1.63 1.234 1.76 1.94c.66 4.066 1.01 5.792 1.57 8.063.55 2.209 1 3.096 1.63 3.189 1.47.402 3.82-1.333 5.28-2.618.69-.665 1.43-1.411 2.15-2.219l1.24-1.358c.26-.275.45-.327.44-.122.14.769-.4 2.203-1.56 4.347-1.42 2.625-2.93 4.259-4.5 4.9-2.02.764-3.83.797-5.58.072-2.83-1.17-4.29-4.741-4.44-10.573-.62 1.389-1.37 3.286-2.24 5.754-1.62 4.838-2.62 7.546-3.81 7.878-.5.139-.97.136-1.5-.055-1.17-.346-1.93-1.146-2.27-2.335-.03-.126-.13-1.448-.37-4.012l-.78-7.88c-1.3 1.644-2.8 4.491-4.58 8.498-2.16 4.852-3.51 8.737-4.06 11.59-.1.366-.3.624-.61.711zm43.55-13.158c-2.06.576-4.07.394-6.15-.512-2.37-1.024-3.11-2.439-3.75-4.756-.91-3.256-.37-6.645 1.54-10.213 1.96-3.586 4.13-5.742 6.57-6.423.69-.192 1.43-.196 2.16.005 1.02.256 1.73.868 2.21 1.88.14.233.24.608.36 1.047.28 1.002.37 2.056.32 3.082-.15 3.08-1.67 6.338-4.55 7.882-.17.115-.42.185-.79.29-1.38.384-2.74.357-3.99-.035-.08 2.384.5 3.977 1.72 4.717.65.424 1.6.43 2.85.08 4.07-1.135 7.45-4.033 10.11-8.757.05-.08.13-.035.24.135.39.905.28 2.217-.42 3.828l-.16.383c-1.47 3.178-5.01 6.459-8.27 7.367zm-5.37-10.784c.94.211 1.9-.461 2.77-1.92.46-.533 1.05-1.573 1.75-3.185.76-1.629.97-2.565.68-2.889-.47-.949-4.53 4.57-5.2 7.994zm17.89 7.157c-2.81.786-3.69.289-4.04-.963-.09-.313-.14-.974-.21-1.965-.08-.992-.14-2.189-.16-3.466v-2.428c-.17-3.734-.17-6.635-.06-8.688.14-2.133.33-3.4.55-3.8.21-.463.55-.693.9-.655 2.85.286 3.3.699 3.44 1.941.17 1.305.06 3.831-.31 7.579.73-3.442 2.12-6.666 4.12-9.653.99-1.556 2.99-1.374 4.1.41 1.17 1.766 2.59 2.99 4.22 3.75.58.173-.53 2.238-1.4 2.482-2.07.576-3.43-.191-5.39-2.614-.57.63-1.24 1.831-1.99 3.523-.76 1.629-1.24 3.045-1.48 4.124-.58 2.523-.87 4.361-1.01 5.547-.28 3.115-.71 4.719-1.28 4.876z" fill="#2fc0bf"/><path d="m797.95 94.825v45.175h-7.41v-19.76h-21.255v19.76h-7.41v-45.175h7.41v19.37h21.255v-19.37zm25.29 45.76c-3.38 0-6.435-.758-9.165-2.275-2.73-1.56-4.875-3.727-6.435-6.5-1.56-2.817-2.34-6.067-2.34-9.75 0-3.64.802-6.868 2.405-9.685s3.792-4.983 6.565-6.5 5.872-2.275 9.295-2.275 6.522.758 9.295 2.275 4.962 3.683 6.565 6.5 2.405 6.045 2.405 9.685-.823 6.868-2.47 9.685-3.9 5.005-6.76 6.565c-2.817 1.517-5.937 2.275-9.36 2.275zm0-6.435c1.907 0 3.683-.455 5.33-1.365 1.69-.91 3.055-2.275 4.095-4.095s1.56-4.03 1.56-6.63-.498-4.788-1.495-6.565c-.997-1.82-2.318-3.185-3.965-4.095s-3.423-1.365-5.33-1.365-3.683.455-5.33 1.365c-1.603.91-2.882 2.275-3.835 4.095-.953 1.777-1.43 3.965-1.43 6.565 0 3.857.975 6.847 2.925 8.97 1.993 2.08 4.485 3.12 7.475 3.12zm74.015-29.965-11.115 35.815h-7.8l-7.215-26.455-7.215 26.455h-7.8l-11.18-35.815h7.54l7.475 28.795 7.605-28.795h7.735l7.28 28.665 7.41-28.665zm26.193-4.745c-1.344 0-2.47-.455-3.38-1.365s-1.365-2.0367-1.365-3.38.455-2.47 1.365-3.38 2.036-1.365 3.38-1.365c1.3 0 2.405.455 3.315 1.365s1.365 2.0367 1.365 3.38-.455 2.47-1.365 3.38-2.015 1.365-3.315 1.365zm3.64 4.745v35.815h-7.41v-35.815zm18.373 6.045v19.825c0 1.343.304 2.318.91 2.925.65.563 1.734.845 3.25.845h4.55v6.175h-5.85c-3.336 0-5.893-.78-7.67-2.34-1.776-1.56-2.665-4.095-2.665-7.605v-19.825h-4.225v-6.045h4.225v-8.905h7.475v8.905h8.71v6.045zm80.529-6.045-11.12 35.815h-7.8l-7.214-26.455-7.215 26.455h-7.8l-11.18-35.815h7.54l7.475 28.795 7.605-28.795h7.739l7.28 28.665 7.41-28.665zm21.07 36.4c-3.38 0-6.44-.758-9.17-2.275-2.73-1.56-4.87-3.727-6.43-6.5-1.56-2.817-2.34-6.067-2.34-9.75 0-3.64.8-6.868 2.4-9.685 1.61-2.817 3.8-4.983 6.57-6.5s5.87-2.275 9.29-2.275c3.43 0 6.53.758 9.3 2.275s4.96 3.683 6.56 6.5c1.61 2.817 2.41 6.045 2.41 9.685s-.82 6.868-2.47 9.685-3.9 5.005-6.76 6.565c-2.82 1.517-5.94 2.275-9.36 2.275zm0-6.435c1.91 0 3.68-.455 5.33-1.365 1.69-.91 3.05-2.275 4.09-4.095s1.56-4.03 1.56-6.63-.49-4.788-1.49-6.565c-1-1.82-2.32-3.185-3.97-4.095-1.64-.91-3.42-1.365-5.33-1.365-1.9 0-3.68.455-5.33 1.365-1.6.91-2.88 2.275-3.83 4.095-.95 1.777-1.43 3.965-1.43 6.565 0 3.857.97 6.847 2.92 8.97 2 2.08 4.49 3.12 7.48 3.12zm33.32-24.765c1.09-1.82 2.52-3.228 4.29-4.225 1.82-1.04 3.97-1.56 6.44-1.56v7.67h-1.89c-2.9 0-5.11.737-6.63 2.21-1.47 1.473-2.21 4.03-2.21 7.67v18.85h-7.41v-35.815h7.41zm31.71 12.74 16.51 17.875h-10.01l-13.26-15.405v15.405h-7.41v-48.1h7.41v27.95l13-15.665h10.27zm34.82 18.46c-2.82 0-5.35-.498-7.6-1.495-2.21-1.04-3.97-2.427-5.27-4.16-1.3-1.777-1.99-3.748-2.08-5.915h7.67c.13 1.517.85 2.795 2.15 3.835 1.34.997 3.01 1.495 5 1.495 2.08 0 3.68-.39 4.81-1.17 1.17-.823 1.76-1.863 1.76-3.12 0-1.343-.65-2.34-1.95-2.99-1.26-.65-3.28-1.365-6.05-2.145-2.69-.737-4.87-1.452-6.56-2.145s-3.17-1.755-4.42-3.185c-1.22-1.43-1.82-3.315-1.82-5.655 0-1.907.56-3.64 1.69-5.2 1.12-1.603 2.73-2.86 4.81-3.77 2.12-.91 4.55-1.365 7.28-1.365 4.07 0 7.34 1.04 9.81 3.12 2.51 2.037 3.86 4.832 4.03 8.385h-7.41c-.13-1.603-.78-2.882-1.95-3.835s-2.75-1.43-4.74-1.43c-1.95 0-3.45.368-4.49 1.105s-1.56 1.712-1.56 2.925c0 .953.35 1.755 1.04 2.405s1.54 1.17 2.54 1.56c.99.347 2.47.802 4.42 1.365 2.6.693 4.72 1.408 6.37 2.145 1.69.693 3.14 1.733 4.35 3.12s1.84 3.228 1.89 5.525c0 2.037-.57 3.857-1.69 5.46-1.13 1.603-2.73 2.86-4.81 3.77-2.04.91-4.45 1.365-7.22 1.365z" fill="#c1c1c1"/></svg>