<svg fill="none" height="44" viewBox="0 0 220 44" width="220" xmlns="http://www.w3.org/2000/svg"><g clip-rule="evenodd" fill="#fff" fill-rule="evenodd"><path d="m16.4187.951327c0-.525404.5414-.95132699 1.2092-.95132699s1.2091.42592499 1.2091.95132899v4.756651c0 .5254-.5413.95133-1.2091.95133s-1.2092-.42593-1.2092-.95133zm-12.0276 17.038773c2.42514 0 4.3911-1.95 4.3911-4.3554s-1.96596-4.3554-4.3911-4.3554-4.3911 1.95-4.3911 4.3554c.00000001 2.4054 1.96596 4.3554 4.3911 4.3554zm17.6871-5.3942c.4857 2.2846-1.105 4.5517-3.5531 5.0638-1.4783.3092-3.1248.8894-3.7279 2.2778l-.1226.2822c-.6208 1.429.0307 3.0861.6415 4.5261.113.2665.2023.5477.2648.8414.5231 2.4603-1.0374 4.8699-3.4855 5.382-2.44806.512-4.85666-1.0673-5.37976-3.5276-.5231-2.4604 1.0374-4.8699 3.48546-5.382 1.3897-.2907 2.9312-.8331 3.4981-2.1382l.1932-.4446c.5682-1.3081.0517-2.8086-.4239-4.1903-.045-.1309-.0897-.2607-.1331-.3891-.0489-.145-.0899-.2942-.1224-.4472-.4858-2.2845 1.105-4.55166 3.5531-5.06372s4.8264.92482 5.3121 3.20942zm6.6275 12.9356c.4857 2.2845-1.1051 4.5516-3.5532 5.0637-1.4783.3092-3.1248.8895-3.7279 2.2778l-.1226.2822c-.6207 1.4291.0308 3.0862.6415 4.5261.1131.2666.2024.5477.2648.8415.5231 2.4603-1.0374 4.8699-3.4854 5.3819-2.4481.5121-4.8567-1.0673-5.3798-3.5276s1.0374-4.8699 3.4855-5.382c1.3896-.2906 2.9312-.8331 3.4981-2.1381l.1931-.4447c.5682-1.308.0517-2.8086-.4239-4.1903v-.0001c-.045-.1308-.0897-.2605-.133-.3889-.049-.1451-.09-.2943-.1225-.4472-.4857-2.2846 1.1051-4.5517 3.5531-5.0638 2.4481-.512 4.8264.9249 5.3122 3.2095zm6.5819-11.8968c0 2.4054-1.9659 4.3554-4.3911 4.3554-2.4251 0-4.3911-1.95-4.3911-4.3554s1.966-4.3554 4.3911-4.3554c2.4252 0 4.3911 1.95 4.3911 4.3554z"/><path d="m80.3441.951327c0-.525404.5413-.95132699 1.2091-.95132699s1.2092.42592499 1.2092.95132899v4.756651c0 .5254-.5414.95133-1.2092.95133s-1.2091-.42593-1.2091-.95133zm1.0958 8.327973c-1.3568 0-2.4568 1.0889-2.4568 2.4322v29.8523c0 1.3433 1.1 2.4323 2.4568 2.4323 1.3569 0 2.4568-1.089 2.4568-2.4323v-29.8523c0-1.3433-1.0999-2.4322-2.4568-2.4322zm23.9101 1.3716c0-.75754.62-1.3716 1.385-1.3716h2.039c.765 0 1.386.61406 1.386 1.3716v31.9736c0 .7575-.621 1.3716-1.386 1.3716h-2.841c-.57 0-1.083-.3488-1.291-.8745-4.01-10.1438-6.9574-17.6823-8.8424-22.6155-.0082-.0174-.0158-.0355-.0228-.054-.191-.505-1.0183-.5208-.9705.2367.004.0641.0071.1237.0093.1792.1719 2.4334.1896 5.2321.1896 8.1251v13.6314c0 .7575-.6202 1.3716-1.3854 1.3716h-1.9876c-.7651 0-1.3854-.6141-1.3854-1.3716v-31.9737c0-.75744.6203-1.3715 1.3854-1.3715h2.8961c.5687 0 1.0806.34641 1.2894.8701 4.5863 11.5058 7.3843 18.6575 8.3943 21.4551l.221.6129c.302.8385 1.295.6334 1.227-.2544-.172-2.731-.276-5.3595-.31-7.8856zm10.862.4571c0-1.0099.827-1.8287 1.848-1.8287h13.211c.51 0 .923.40937.923.9144v2.4212c0 .505-.413.9144-.923.9144h-10.197v10.8042h8.749c.51 0 .923.4093.923.9143v2.4213c0 .505-.413.9144-.923.9144h-8.749v11.2138h10.197c.51 0 .923.4094.923.9144v2.37c0 .505-.413.9144-.923.9144h-13.211c-1.021 0-1.848-.8188-1.848-1.8288zm60.163-1.37152c0-.25249-.207-.45718-.462-.45718h-17.334c-.255 0-.462.20469-.462.45718v3.33562c0 .2525.207.4572.462.4572h5.748c.255 0 .462.2047.462.4572v29.5524c0 .2525.207.4572.462.4572h3.99c.255 0 .462-.2047.462-.4572v-29.5524c0-.2525.206-.4572.461-.4572h5.749c.255 0 .462-.2047.462-.4572zm3.577 0c0-.25249.207-.45718.462-.45718h15.52v4.25h-10.658c-.255 0-.462.2047-.462.4572v9.8898c0 .2525.207.4572.462.4572h9.21v4.25h-9.21c-.255 0-.462.2046-.462.4571v10.2995c0 .2525.207.4572.462.4572h10.658v4.1988h-15.52c-.255 0-.462-.2047-.462-.4572zm25.773 20.74152v13.5181h-4.862v-34.7168h9.413c2.759 0 4.862.68273 6.31 2.0482 1.483 1.3654 2.225 3.26 2.225 5.6837v5.5301c0 3.7892-1.466 6.2299-4.397 7.3223l5.586 14.1325h-5.379l-5.017-13.5181zm0-16.9999v12.9548h4.138c1.448 0 2.482-.3243 3.103-.9729.655-.6486.983-1.6386.983-2.9699v-5.1717c0-2.5602-1.362-3.8403-4.086-3.8403zm-53.663 29.7877c.089.4251.467.7303.905.7303h2.862c.588 0 1.027-.5374.903-1.1069l-7.154-32.888c-.091-.42118-.468-.7219-.903-.7219h-5.337c-.435 0-.81.2994-.903.71936l-7.251 32.88804c-.126.5701.312 1.1094.902 1.1094h2.858c.439 0 .817-.3052.905-.7303l1.686-8.1214c.044-.2126.233-.3652.453-.3652h7.936c.219 0 .408.1526.452.3652zm-9.058-12.6342c-.292 0-.511-.265-.453-.5484l2.904-14.1144c.1-.4872.803-.4882.905-.0013l2.946 14.1144c.06.2837-.159.5497-.452.5497zm-85.3935-19.1288c.1994-1.2793 1.3157-2.2235 2.6233-2.2235 1.3075 0 2.4238.9442 2.6232 2.2235l2.4465 15.6981c.1967 1.3484 2.2584 1.3516 2.4309 0l2.549-16.0588c.1703-1.0725 1.1037-1.8628 2.2004-1.8628 1.3647 0 2.4086 1.204 2.2016 2.5394l-4.5758 29.5323c-.2357 1.5216-1.5579 2.6451-3.1128 2.6451-1.5431 0-2.8589-1.107-3.1079-2.6146l-2.2577-13.6685c-.1153-.903-.7451-1.3993-1.3974-1.3993s-1.2822.4963-1.3975 1.3993l-2.2577 13.6685c-.249 1.5076-1.5648 2.6146-3.1079 2.6146-1.5549 0-2.8771-1.1235-3.1128-2.6451l-4.5758-29.5323c-.2069-1.3354.8369-2.5394 2.2016-2.5394 1.0967 0 2.0302.7903 2.2004 1.8628l2.549 16.0588c.1726 1.3516 2.2342 1.3484 2.431 0z"/></g></svg>