<svg fill="none" height="38" viewBox="0 0 31 38" width="31" xmlns="http://www.w3.org/2000/svg"><path clip-rule="evenodd" d="m14.5333.821574c0-.453743.4675-.82157399 1.0442-.82157399s1.0442.36783199 1.0442.82157599v4.107884c0 .45374-.4675.82157-1.0442.82157s-1.0442-.36783-1.0442-.82158zm-10.38717 14.714926c2.09437 0 3.79219-1.684 3.79219-3.7613 0-2.07737-1.69782-3.76137-3.79219-3.76137s-3.792187 1.684-3.792187 3.76137c0 2.0773 1.697817 3.7613 3.792187 3.7613zm15.27477-4.658c.4195 1.973-.9543 3.9309-3.0685 4.3731-1.2767.2671-2.6986.7682-3.2194 1.9671l-.1059.2438c-.5361 1.2341.0265 2.6652.554 3.9087.0976.2302.1747.4731.2287.7267.4517 2.1248-.8959 4.2057-3.0101 4.6479-2.11418.4422-4.19428-.9217-4.64603-3.0465-.45175-2.1247.89591-4.2057 3.01008-4.6479 1.20015-.251 2.53145-.7194 3.02095-1.8465l.1668-.384c.4908-1.1297.0447-2.4256-.366-3.6188v-.0001l-.0001-.0001c-.0389-.1129-.0774-.2249-.1148-.3358-.0423-.1252-.0777-.2541-.1058-.3862-.4195-1.973.9544-3.93085 3.0685-4.37307 2.1142-.44222 4.1681.7987 4.5876 2.77167zm5.7235 11.1719c.4195 1.973-.9543 3.9309-3.0685 4.3731-1.2767.267-2.6986.7681-3.2195 1.9671l-.1058.2437c-.5361 1.2342.0265 2.6653.5539 3.9088.0977.2302.1748.473.2287.7267.4518 2.1247-.8959 4.2057-3.01 4.6479-2.1142.4422-4.1943-.9218-4.646-3.0465-.4518-2.1247.8959-4.2057 3.01-4.6479 1.2001-.251 2.5314-.7195 3.021-1.8465l.1668-.384c.4907-1.1297.0447-2.4256-.366-3.6188-.0389-.113-.0775-.2251-.1149-.336-.0423-.1253-.0777-.2541-.1058-.3862-.4195-1.973.9543-3.9309 3.0685-4.3731s4.1681.7987 4.5876 2.7717zm5.6842-10.2751c0 2.0773-1.6978 3.7614-3.7921 3.7614-2.0944 0-3.7922-1.6841-3.7922-3.7614 0-2.07731 1.6978-3.76132 3.7922-3.76132 2.0943 0 3.7921 1.68401 3.7921 3.76132z" fill="#7e27ed" fill-rule="evenodd"/></svg>