<svg fill="none" height="55" viewBox="0 0 273 55" width="273" xmlns="http://www.w3.org/2000/svg"><g clip-rule="evenodd" fill="#7e27ed" fill-rule="evenodd"><path d="m20.3741 1.18149c0-.651982.6718-1.18051343 1.5004-1.18051343.8287 0 1.5005.52853343 1.5005 1.18051343v5.90257c0 .65198-.6718 1.18051-1.5005 1.18051-.8286 0-1.5004-.52854-1.5004-1.18052zm23.4147 15.73891c0 2.9849-2.4396 5.4046-5.449 5.4046s-5.4489-2.4197-5.4489-5.4046 2.4395-5.4047 5.4489-5.4047 5.449 2.4198 5.449 5.4047zm-38.33985 5.4048c3.00938 0 5.44895-2.4197 5.44895-5.4046s-2.43957-5.4047-5.44895-5.4047c-3.00937 0-5.44895 2.4198-5.44894999 5.4047 0 2.9849 2.43957999 5.4046 5.44894999 5.4046zm21.94815-6.6942c.6027 2.8349-1.3713 5.6482-4.4091 6.2836-1.8345.3837-3.8776 1.1037-4.626 2.8265l-.1521.3503c-.7703 1.7733.0381 3.8296.796 5.6164.1403.3308.2511.6797.3286 1.0442.6491 3.053-1.2873 6.0431-4.3252 6.6785-3.0378.6354-6.02665-1.3244-6.67577-4.3775-.64911-3.053 1.28732-6.0431 4.32517-6.6785 1.7244-.3607 3.6373-1.0338 4.3408-2.6532l.2397-.5518c.7051-1.6232.0642-3.4852-.526-5.1998-.0559-.1624-.1113-.3234-.1651-.4828-.0607-.18-.1116-.3651-.152-.5549-.6027-2.8349 1.3713-5.6482 4.4091-6.2837 3.0379-.6354 5.9891 1.1477 6.5919 3.9827zm8.224 16.0517c.6027 2.835-1.3713 5.6483-4.4091 6.2837-1.8345.3837-3.8776 1.1037-4.626 2.8265l-.1521.3502c-.7703 1.7733.0381 3.8297.796 5.6165.1403.3308.2511.6797.3286 1.0441.6491 3.0531-1.2873 6.0431-4.3252 6.6786-3.0378.6354-6.0267-1.3245-6.6758-4.3775s1.2874-6.0431 4.3252-6.6785c1.7244-.3607 3.6373-1.0338 4.3408-2.6533l.2397-.5517c.7051-1.6232.0642-3.4853-.526-5.1999l-.0003-.0007c-.0558-.1621-.1111-.3229-.1648-.482-.0607-.18-.1116-.3651-.152-.5549-.6027-2.835 1.3713-5.6483 4.4091-6.2837 3.0379-.6354 5.9891 1.1477 6.5919 3.9826z"/><path d="m99.7 1.18051c0-.651979.672-1.18050998 1.5-1.18050998.829 0 1.501.52853398 1.501 1.18050998v5.90257c0 .65198-.672 1.18051-1.501 1.18051-.828 0-1.5-.52853-1.5-1.18051zm1.36 10.33429c-1.6837 0-3.0487 1.3512-3.0487 3.0181v37.044c0 1.6669 1.365 3.0182 3.0487 3.0182 1.684 0 3.049-1.3513 3.049-3.0182v-37.044c0-1.6669-1.365-3.0181-3.049-3.0181zm29.67 1.7019c0-.9399.769-1.7019 1.719-1.7019h2.53c.95 0 1.72.762 1.72 1.7019v39.6764c0 .94-.77 1.702-1.72 1.702h-3.525c-.708 0-1.345-.4328-1.603-1.0851-4.972-12.5795-8.628-21.9302-10.967-28.0519-.013-.0252-.024-.0513-.034-.0783-.237-.6266-1.264-.6462-1.204.2937.004.0686.007.133.01.1936.215 3.0261.237 6.5096.237 10.1107v16.9153c0 .94-.769 1.702-1.719 1.702h-2.466c-.95 0-1.719-.762-1.719-1.702v-39.6764c0-.9399.769-1.7019 1.719-1.7019h3.593c.706 0 1.341.4298 1.6 1.0797 5.692 14.2777 9.164 23.1523 10.417 26.6238l.274.7605c.375 1.0405 1.607.786 1.523-.3157-.214-3.3888-.343-6.6505-.385-9.7852zm13.479.5674c0-1.2533 1.027-2.2693 2.293-2.2693h16.394c.633 0 1.146.508 1.146 1.1346v3.0046c0 .6266-.513 1.1346-1.146 1.1346h-12.654v13.407h10.856c.633 0 1.147.508 1.147 1.1347v3.0045c0 .6267-.514 1.1347-1.147 1.1347h-10.856v13.9153h12.654c.633 0 1.146.508 1.146 1.1346v2.941c0 .6267-.513 1.1347-1.146 1.1347h-16.394c-1.266 0-2.293-1.016-2.293-2.2693zm74.656-1.702c0-.3133-.256-.5673-.573-.5673h-21.51c-.316 0-.573.254-.573.5673v4.1392c0 .3133.257.5673.573.5673h7.134c.316 0 .573.254.573.5673v36.6719c0 .3133.256.5673.573.5673h4.951c.316 0 .573-.254.573-.5673v-36.6719c0-.3133.256-.5673.573-.5673h7.133c.317 0 .573-.254.573-.5673zm4.439 0c0-.3133.257-.5673.573-.5673h19.26v5.2738h-13.226c-.317 0-.573.254-.573.5673v12.2724c0 .3133.256.5673.573.5673h11.429v5.2739h-11.429c-.317 0-.573.254-.573.5673v12.7807c0 .3133.256.5673.573.5673h13.226v5.2103h-19.26c-.316 0-.573-.254-.573-.5673zm31.982 25.7383v16.7747h-6.033v-43.0803h11.681c3.423 0 6.033.8472 7.83 2.5416 1.84 1.6944 2.76 4.0454 2.76 7.0529v6.8624c0 4.702-1.818 7.7307-5.455 9.0863l6.931 17.5371h-6.674l-6.226-16.7747zm0-21.0953v16.0757h5.135c1.797 0 3.081-.4025 3.851-1.2073.813-.8048 1.219-2.0333 1.219-3.6853v-6.4176c0-3.177-1.69-4.7655-5.07-4.7655zm-66.59 36.9638c.11.5276.579.9062 1.123.9062h3.551c.73 0 1.274-.6669 1.12-1.3735l-8.877-40.8111c-.113-.5226-.58-.8957-1.12-.8957h-6.624c-.539 0-1.005.3715-1.119.8926l-8.999 40.8111c-.156.7074.388 1.3766 1.12 1.3766h3.547c.544 0 1.013-.3786 1.122-.9062l2.093-10.078c.055-.2638.289-.4531.561-.4531h9.848c.272 0 .507.1893.562.4531zm-11.241-15.6778c-.362 0-.634-.329-.561-.6806l3.603-17.5146c.124-.6046.996-.6059 1.122-.0016l3.657 17.5146c.073.3521-.198.6822-.561.6822zm-105.9651-23.7373c.2474-1.5875 1.6326-2.7592 3.2551-2.7592 1.6226 0 3.0078 1.1717 3.2552 2.7592l3.0359 19.48c.2441 1.6731 2.8024 1.6771 3.0165 0l3.1631-19.9276c.2113-1.3309 1.3697-2.3116 2.7305-2.3116 1.6935 0 2.9888 1.4941 2.7321 3.1513l-5.6782 36.6468c-.2925 1.8882-1.9332 3.2823-3.8627 3.2823-1.9149 0-3.5477-1.3736-3.8567-3.2445l-2.8016-16.9613c-.143-1.1206-.9246-1.7364-1.7341-1.7364-.8094 0-1.591.6158-1.7341 1.7364l-2.8015 16.9613c-.309 1.8709-1.9418 3.2445-3.8567 3.2445-1.9295 0-3.5702-1.3941-3.8627-3.2823l-5.6782-36.6468c-.2567-1.6572 1.0386-3.1513 2.7321-3.1513 1.3608 0 2.5192.9807 2.7304 2.3116l3.1632 19.9276c.2141 1.6771 2.7724 1.6731 3.0165 0z"/></g></svg>