<svg fill="none" height="25" viewBox="0 0 24 25" width="24" xmlns="http://www.w3.org/2000/svg"><path d="m9.5 16.3369c-1.81667 0-3.354-.6293-4.612-1.888s-1.88733-2.796-1.888-4.61199c0-1.81666.62933-3.354 1.888-4.612s2.796-1.88733 4.612-1.888c1.8167 0 3.354.62934 4.612 1.888 1.258 1.25867 1.8873 2.796 1.888 4.612 0 .73329-.1167 1.42499-.35 2.07499s-.55 1.225-.95 1.725l5.6 5.6c.1833.1833.275.4167.275.7s-.0917.5167-.275.7-.4167.275-.7.275-.5167-.0917-.7-.275l-5.6-5.6c-.5.4-1.075.7167-1.725.95s-1.3417.35-2.075.35zm0-2c1.25 0 2.3127-.4377 3.188-1.313s1.3127-1.9377 1.312-3.18699c0-1.25-.4377-2.31266-1.313-3.188-.8753-.87533-1.9377-1.31266-3.187-1.312-1.25 0-2.31267.43767-3.188 1.313-.87533.87534-1.31267 1.93767-1.312 3.187 0 1.24999.43767 2.31269 1.313 3.18799s1.93767 1.3127 3.187 1.312z" fill="#333"/></svg>