<svg fill="none" height="32" viewBox="0 0 32 32" width="32" xmlns="http://www.w3.org/2000/svg"><path d="m12.6667 21.3333c-2.4223 0-4.47203-.8391-6.14937-2.5173-1.67733-1.6782-2.51644-3.728-2.51733-6.1493 0-2.4223.83911-4.47203 2.51733-6.14937 1.67823-1.67733 3.72797-2.51644 6.14937-2.51733 2.4222 0 4.472.83911 6.1493 2.51733 1.6773 1.67823 2.5164 3.72797 2.5173 6.14937 0 .9777-.1555 1.9-.4666 2.7666-.3111.8667-.7334 1.6334-1.2667 2.3l7.4667 7.4667c.2444.2444.3666.5556.3666.9333 0 .3778-.1222.6889-.3666.9334-.2445.2444-.5556.3666-.9334.3666-.3777 0-.6889-.1222-.9333-.3666l-7.4667-7.4667c-.6666.5333-1.4333.9556-2.3 1.2667-.8666.3111-1.7889.4666-2.7666.4666zm0-2.6666c1.6666 0 3.0835-.5836 4.2506-1.7507s1.7503-2.5836 1.7494-4.2493c0-1.6667-.5836-3.08359-1.7507-4.2507s-2.5836-1.75022-4.2493-1.74933c-1.6667 0-3.08359.58355-4.2507 1.75066s-1.75022 2.58357-1.74933 4.24937c0 1.6666.58355 3.0835 1.75066 4.2506s2.58357 1.7503 4.24937 1.7494z" fill="#fff"/></svg>